<svg width="22" height="14" viewBox="0 0 22 14" fill="none" xmlns="http://www.w3.org/2000/svg">
<path d="M3.94682 7.93753L8.10073 12.0914C8.27379 12.2645 8.36233 12.482 8.36635 12.7441C8.37035 13.0061 8.28181 13.2276 8.10073 13.4087C7.91965 13.5898 7.70009 13.6803 7.44207 13.6803C7.18407 13.6803 6.96453 13.5898 6.78345 13.4087L1.16567 7.79091C1.04869 7.67393 0.966156 7.55053 0.918072 7.42072C0.869989 7.29093 0.845947 7.15071 0.845947 7.00007C0.845947 6.84942 0.869989 6.7092 0.918072 6.57941C0.966156 6.4496 1.04869 6.3262 1.16567 6.20922L6.78345 0.59144C6.95651 0.418356 7.17405 0.329815 7.43607 0.325815C7.69809 0.321794 7.91965 0.410335 8.10073 0.59144C8.28181 0.772523 8.37235 0.992064 8.37235 1.25006C8.37235 1.50806 8.28181 1.72761 8.10073 1.90869L3.94682 6.0626H20.6872C20.9533 6.0626 21.176 6.15234 21.3555 6.33182C21.535 6.51129 21.6247 6.73404 21.6247 7.00007C21.6247 7.26609 21.535 7.48884 21.3555 7.66832C21.176 7.84779 20.9533 7.93753 20.6872 7.93753H3.94682Z" fill="#BD2029" fill-opacity="0.8"/>
</svg>
