<svg width="38" height="56" viewBox="0 0 38 56" fill="none" xmlns="http://www.w3.org/2000/svg">
<path d="M3.86383 7.43292L0 29.9634L10.3961 33.9031L18.5502 34.438L31.5299 33.954L24.302 8.66081L3.86383 7.43292Z" fill="#D1D3E8"/>
<path d="M30.0343 3.50385L6.93616 10.9798L9.31459 21.7002L13.3466 28.7044L22.4392 38.1901L30.5733 26.453L30.0343 3.50385Z" fill="#D1D3E8"/>
<path d="M33.4598 11.0747C33.4598 11.0747 31.6374 7.68813 27.5877 8.75493C23.538 9.82173 19.8979 15.5372 22.5424 19.274C25.1877 23.0101 31.6829 18.9549 32.3415 18.4351C34.0506 17.0887 35.2506 14.1041 33.4598 11.0747Z" fill="#B7B7B7"/>
<path d="M30.8949 11.8718C30.8502 11.7768 30.736 11.735 30.6389 11.7791C30.6049 11.7943 27.2301 13.3626 24.1606 17.0903C22.3582 19.2786 21.0102 21.7739 20.1518 24.507C19.4276 26.8138 19.0551 29.2947 19.0343 31.9169L19.423 31.8447C19.5055 24.928 22.0891 20.214 24.4482 17.3441C27.4614 13.6787 30.7684 12.1393 30.8008 12.1241C30.898 12.08 30.9396 11.9668 30.8949 11.8718Z" fill="#4F5261"/>
<path d="M23.3973 18.2839C23.358 18.2573 23.3286 18.2163 23.3178 18.1684L22.9353 16.4634C22.9122 16.3608 22.9777 16.2597 23.0819 16.2369C23.186 16.2141 23.2885 16.2787 23.3117 16.3813L23.6665 17.9633L26.4616 18.4693C26.5665 18.4883 26.6359 18.5871 26.6167 18.6904C26.5974 18.7938 26.4971 18.8614 26.3923 18.8431L23.4713 18.3143C23.4443 18.309 23.4189 18.2984 23.3973 18.2839Z" fill="#4F5261"/>
<path d="M28.3989 13.617C28.3581 13.5897 28.3287 13.5464 28.3187 13.4955L27.8814 11.2152C27.8613 11.1119 27.9307 11.0131 28.0349 10.9934C28.139 10.9736 28.24 11.0412 28.2601 11.1446L28.6689 13.2751L30.8038 13.3488C30.9103 13.3526 30.9935 13.4408 30.9897 13.5449C30.9858 13.6497 30.8964 13.7318 30.7899 13.728L28.5007 13.649C28.4637 13.649 28.4282 13.6368 28.3989 13.617Z" fill="#4F5261"/>
<path d="M25.6653 15.8267C25.6244 15.7993 25.5951 15.756 25.5851 15.7051L25.1478 13.4249C25.1277 13.3223 25.1963 13.2227 25.3012 13.203C25.4061 13.1832 25.5064 13.2516 25.5264 13.3542L25.9353 15.4848L28.0702 15.5585C28.1766 15.5623 28.2599 15.6504 28.2561 15.7545C28.2522 15.8594 28.1627 15.9414 28.0571 15.9376L25.7679 15.8586C25.7301 15.8586 25.6946 15.8472 25.6653 15.8267Z" fill="#4F5261"/>
<path d="M30.7168 12.0912C30.6567 12.0509 30.6235 11.9787 30.6359 11.9043L31.0107 9.6225C31.0276 9.51917 31.1264 9.4485 31.2313 9.46522C31.3362 9.48193 31.4079 9.57919 31.391 9.68252L31.0431 11.7987L32.4337 12.196C32.5363 12.2249 32.5949 12.3305 32.5649 12.4308C32.5348 12.5311 32.4283 12.5896 32.3258 12.56L30.7708 12.1155C30.7523 12.1109 30.7338 12.1018 30.7168 12.0912Z" fill="#4F5261"/>
<path d="M25.515 30.6048C25.4849 30.5736 25.451 30.5463 25.4124 30.5242C25.4093 30.5083 25.4062 30.4923 25.4032 30.4756C24.9458 28.206 21.945 19.3342 21.2447 18.063C21.2409 17.9392 21.0211 17.2903 20.7959 17.2781C20.165 16.2144 18.6588 13.9865 18.6658 13.9007C18.6851 13.6545 18.1151 13.4273 18.0542 13.4501C17.2868 12.5565 16.4385 11.6888 15.4983 10.8515C15.4968 10.7884 15.2624 10.2246 15.0171 10.2375C14.9531 10.2406 11.1787 7.55229 8.87202 6.36468C8.77099 6.23398 8.67071 6.10178 8.56737 5.97336C8.41313 5.77961 8.12781 5.74618 7.93115 5.89814C7.73449 6.05087 7.69979 6.33124 7.8548 6.525C7.87177 6.54627 7.88797 6.56831 7.90493 6.58959C7.7638 7.35246 7.54013 8.75966 7.40131 10.6212C7.36198 10.6478 7.32496 10.679 7.29488 10.7193C7.15298 10.9054 7.18306 11.1638 7.35504 11.3172C7.26866 12.7799 7.79462 21.0681 8.24347 23.1014C8.19566 23.1326 8.02753 23.7025 8.23345 23.843C8.25427 23.8575 8.32984 23.9076 8.44861 23.9829C8.92445 25.9174 9.57384 27.902 10.4484 29.8791C10.9751 31.069 11.508 32.1434 12.0417 33.116L25.515 30.6048Z" fill="white"/>
<path d="M35.2742 20.6099C35.2742 20.6099 33.4573 17.221 29.4053 18.2825C25.354 19.344 21.7054 25.0541 24.3453 28.7948C26.9851 32.5346 33.4858 28.4878 34.1452 27.9696C35.8573 26.6239 37.0612 23.6408 35.2742 20.6099Z" fill="#4F5261"/>
<path d="M21.1067 45.4307C21.0628 45.4003 21.0311 45.3524 21.0242 45.2954C20.5592 41.2266 20.8692 37.4342 21.9458 34.0234C22.808 31.2918 24.16 28.798 25.9646 26.6128C29.0395 22.8896 32.4167 21.3258 32.4506 21.3107C32.547 21.2666 32.6612 21.3084 32.7059 21.4034C32.7506 21.4983 32.7082 21.6115 32.6118 21.6549C32.5787 21.6701 29.2701 23.2042 26.2515 26.8658C23.469 30.2417 20.3695 36.1722 21.4067 45.2529C21.4183 45.357 21.3427 45.4512 21.2371 45.4626C21.19 45.4687 21.1437 45.4558 21.1067 45.4307Z" fill="#B7B7B7"/>
<path d="M25.1999 27.8049C25.1605 27.7783 25.1312 27.7373 25.1212 27.6894L24.7409 25.9844C24.7178 25.8818 24.7841 25.7808 24.8875 25.758C24.9916 25.7352 25.0942 25.8005 25.1174 25.9023L25.4698 27.485L28.2642 27.9949C28.3691 28.0139 28.4378 28.1127 28.4185 28.216C28.3992 28.3193 28.2989 28.387 28.194 28.368L25.2739 27.8353C25.2469 27.83 25.2215 27.8201 25.1999 27.8049Z" fill="#B7B7B7"/>
<path d="M30.2085 23.1456C30.1676 23.1183 30.1383 23.075 30.1283 23.0241L29.694 20.7438C29.6748 20.6405 29.7434 20.5417 29.8483 20.522C29.9524 20.5022 30.0535 20.5706 30.0735 20.6732L30.4792 22.8045L32.6142 22.8812C32.7206 22.885 32.8039 22.9732 32.7993 23.078C32.7954 23.1829 32.706 23.2649 32.5995 23.2611L30.3103 23.1791C30.2733 23.1776 30.2378 23.1654 30.2085 23.1456Z" fill="#B7B7B7"/>
<path d="M27.4725 25.3512C27.4316 25.3238 27.4023 25.2805 27.3923 25.2296L26.9581 22.9494C26.9388 22.846 27.0074 22.7473 27.1123 22.7275C27.2172 22.7085 27.3175 22.7761 27.3376 22.8795L27.7433 25.0108L29.8782 25.0875C29.9846 25.0913 30.0672 25.1795 30.0633 25.2843C30.0595 25.3892 29.97 25.4712 29.8636 25.4674L27.5744 25.3854C27.5366 25.3831 27.5018 25.3709 27.4725 25.3512Z" fill="#B7B7B7"/>
<path d="M32.5287 21.6223C32.4686 21.582 32.4354 21.5098 32.4477 21.4354L32.8257 19.1544C32.8426 19.051 32.9421 18.9804 33.047 18.9978C33.1519 19.0146 33.2237 19.1126 33.2059 19.2159L32.855 21.3313L34.2456 21.7309C34.3474 21.7598 34.4068 21.8654 34.3767 21.9665C34.3467 22.0675 34.2402 22.1253 34.1376 22.0957L32.5835 21.6489C32.5634 21.6428 32.5449 21.6337 32.5287 21.6223Z" fill="#B7B7B7"/>
<path d="M13.9189 32.4519C10.3058 25.2191 7.00182 18.6952 4.61258 14.0025H4.43677C6.75583 18.7355 10.0004 25.3232 13.6313 32.5917C14.0732 33.4762 14.5104 34.35 14.9416 35.2116L15.2262 35.0741C14.7966 34.2109 14.3608 33.3364 13.9189 32.4519Z" fill="#4F5261"/>
<path d="M4.76717 12.0451C5.20913 12.9075 5.21917 13.8733 4.87903 14.7038C3.99821 14.4804 3.21691 13.8976 2.77496 13.0344C2.33301 12.172 2.32295 11.2063 2.66386 10.3758C3.54391 10.6007 4.32522 11.1827 4.76717 12.0451Z" fill="#4F5261"/>
<path d="M4.92121 16.0046C5.79046 16.4522 6.3697 17.231 6.58412 18.1018C5.73647 18.4254 4.75615 18.4004 3.8869 17.9528C3.01765 17.5053 2.43838 16.7265 2.22473 15.8557C3.07239 15.5328 4.05273 15.5571 4.92121 16.0046Z" fill="#4F5261"/>
<path d="M8.19839 15.8407C8.01714 16.7904 7.43094 17.5639 6.64808 18.0198C6.08658 17.3155 5.82433 16.3847 6.00558 15.4349C6.18684 14.4851 6.77301 13.7116 7.55665 13.2565C8.11738 13.9616 8.37965 14.8916 8.19839 15.8407Z" fill="#4F5261"/>
<path d="M7.18031 20.4164C8.04956 20.8639 8.62881 21.6427 8.84323 22.5135C7.99558 22.8372 7.01525 22.8121 6.146 22.3646C5.27675 21.917 4.69754 21.1382 4.48389 20.2675C5.33154 19.9438 6.31106 19.9688 7.18031 20.4164Z" fill="#4F5261"/>
<path d="M10.457 20.2514C10.2758 21.2012 9.68957 21.9747 8.90671 22.4306C8.3452 21.7263 8.083 20.7955 8.26426 19.8457C8.44551 18.8959 9.03169 18.1224 9.81532 17.6672C10.3761 18.3724 10.6383 19.3024 10.457 20.2514Z" fill="#4F5261"/>
<path d="M9.43703 24.8269C10.3063 25.2744 10.8855 26.0532 11.0999 26.9232C10.2523 27.2469 9.27197 27.2218 8.40272 26.7743C7.53347 26.3268 6.95425 25.5479 6.7406 24.6772C7.58903 24.3542 8.56855 24.3793 9.43703 24.8269Z" fill="#B7B7B7"/>
<path d="M12.714 24.6628C12.5328 25.6126 11.9466 26.3861 11.1637 26.842C10.6022 26.1376 10.34 25.2068 10.5212 24.257C10.7025 23.3073 11.2895 22.5338 12.0723 22.0786C12.6338 22.783 12.8953 23.713 12.714 24.6628Z" fill="#B7B7B7"/>
<path d="M19.5513 4.21381H19.4587C19.4726 9.3419 19.5143 18.3998 19.6377 28.7183C19.6492 29.7046 19.6616 30.6787 19.6747 31.6391L19.9917 31.6353C19.9817 30.6749 19.9701 29.7008 19.9585 28.7145C19.8351 18.396 19.66 9.34038 19.5513 4.21381Z" fill="#B7B7B7"/>
<path d="M20.5883 2.39878C20.6091 3.36452 20.1965 4.24061 19.5262 4.84543C18.829 4.27024 18.3785 3.4124 18.3577 2.4459C18.3369 1.48016 18.7495 0.604065 19.4205 0C20.117 0.575191 20.5675 1.43304 20.5883 2.39878Z" fill="#B7B7B7"/>
<path d="M18.8723 5.73424C19.4608 6.50774 19.6429 7.45602 19.4555 8.33286C18.5484 8.26524 17.6753 7.82605 17.0868 7.05331C16.4983 6.28056 16.3163 5.33153 16.5037 4.45544C17.4107 4.52307 18.2838 4.96149 18.8723 5.73424Z" fill="#B7B7B7"/>
<path d="M21.9018 6.97753C21.3233 7.75787 20.4556 8.20618 19.5494 8.2852C19.3504 7.4114 19.5216 6.46009 20.1001 5.67974C20.6785 4.8994 21.5462 4.45109 22.4525 4.37207C22.6515 5.24739 22.4811 6.19794 21.9018 6.97753Z" fill="#505050"/>
<path d="M19.674 13.4153L19.5537 13.4062C18.5741 13.3332 17.6748 12.8469 17.0855 12.0727C16.4962 11.2992 16.2749 10.3121 16.4785 9.3654L16.5032 9.24915L16.6235 9.25826C17.6031 9.33196 18.5024 9.81826 19.0909 10.5918C19.6794 11.3653 19.9015 12.3523 19.6987 13.299L19.674 13.4153ZM16.7238 9.54016C16.5796 10.3737 16.7878 11.2308 17.3053 11.9101C17.8221 12.5894 18.5996 13.027 19.4518 13.1243C19.5961 12.2907 19.387 11.4329 18.8703 10.7544C18.3535 10.0758 17.5768 9.63742 16.7238 9.54016Z" fill="#505050"/>
<path d="M22.0099 11.9162C21.4314 12.6965 20.5637 13.1448 19.6574 13.2239C19.4584 12.3501 19.6297 11.3987 20.2081 10.6184C20.7866 9.83806 21.6543 9.38975 22.5606 9.31073C22.7596 10.1861 22.5884 11.1366 22.0099 11.9162Z" fill="#505050"/>
<path d="M19.0884 15.6121C19.6769 16.3848 19.8589 17.3338 19.6723 18.2099C18.7652 18.1423 17.8921 17.7039 17.3036 16.9304C16.7151 16.1576 16.5331 15.2086 16.7205 14.3325C17.6268 14.4009 18.4999 14.8393 19.0884 15.6121Z" fill="#B7B7B7"/>
<path d="M22.1177 16.8558C21.5393 17.6362 20.6708 18.0845 19.7653 18.1635C19.5663 17.2897 19.7375 16.3384 20.316 15.558C20.8945 14.7777 21.7622 14.3294 22.6684 14.2504C22.8674 15.1249 22.6962 16.0755 22.1177 16.8558Z" fill="#505050"/>
<path d="M19.197 20.5508C19.7855 21.3235 19.9675 22.2726 19.7801 23.1486C18.873 23.081 17.9999 22.6426 17.4114 21.8691C16.8229 21.0963 16.6409 20.1473 16.8283 19.2712C17.7353 19.3396 18.6085 19.778 19.197 20.5508Z" fill="#B7B7B7"/>
<path d="M19.7656 23.2481L19.7394 23.1319C19.5242 22.1874 19.734 21.1981 20.3132 20.417C20.8925 19.6359 21.7864 19.1397 22.7644 19.0546L22.8847 19.044L22.9109 19.1603C23.1254 20.1047 22.9156 21.094 22.3363 21.8744C21.7571 22.6547 20.864 23.1516 19.8852 23.2375L19.7656 23.2481ZM22.6672 19.3381C21.8157 19.4452 21.0444 19.892 20.5361 20.5773C20.0279 21.2627 19.8289 22.1228 19.9839 22.9548C20.8354 22.8469 21.6067 22.4002 22.115 21.7148C22.6233 21.0294 22.8215 20.1701 22.6672 19.3381Z" fill="#4F5261"/>
<path d="M19.7712 44.9443C19.7573 44.9466 19.7435 44.9481 19.7288 44.9481C19.6131 44.9466 19.5206 44.8531 19.5221 44.7392C19.5229 44.7012 19.5638 40.8587 18.4887 34.622C17.4961 28.8671 15.3228 19.838 10.6052 9.50737C10.5574 9.40327 10.6045 9.28094 10.7102 9.23459C10.8166 9.18824 10.94 9.23383 10.987 9.33793C13.0793 13.9197 14.8524 18.6306 16.256 23.3408C17.3789 27.1096 18.2705 30.8859 18.9044 34.5658C19.9841 40.8359 19.9424 44.7065 19.9417 44.7445C19.9401 44.844 19.8669 44.9261 19.7712 44.9443Z" fill="#B7B7B7"/>
<path d="M11.7868 8.2035C11.9449 9.02716 11.3957 9.82118 10.5596 9.97694C9.72354 10.1327 8.91754 9.59172 8.75943 8.76806C8.60131 7.94441 9.15048 7.15039 9.98656 6.99462C10.8226 6.83886 11.6279 7.37985 11.7868 8.2035Z" fill="#B7B7B7"/>
<path d="M36.3881 10.8743C36.3171 10.7846 36.1853 10.7687 36.0943 10.8386C36.0634 10.8621 32.9716 13.251 28.6828 18.0038C26.1656 20.7931 23.7324 23.84 21.4511 27.0609C19.5724 29.7128 17.7947 32.4884 16.1366 35.353L16.6795 35.2519C21.1372 27.6164 25.7059 21.9245 28.9867 18.288C33.2523 13.5595 36.321 11.1881 36.3511 11.1646C36.4429 11.0939 36.459 10.964 36.3881 10.8743Z" fill="#B7B7B7"/>
<path d="M37.9877 10.7406C37.8812 11.5719 37.1107 12.1615 36.2661 12.0566C35.4223 11.9518 34.8238 11.1927 34.931 10.3607C35.0374 9.52944 35.808 8.93981 36.6525 9.04467C37.4963 9.14953 38.0941 9.90859 37.9877 10.7406Z" fill="#D1D3E8"/>
<path d="M12.5105 14.7693H12.408C13.2471 17.4135 14.4372 21.1496 15.888 25.6698L16.168 25.6174C14.6586 21.1177 13.4029 17.4021 12.5105 14.7693Z" fill="#505050"/>
<path d="M12.8475 12.6085C13.1606 13.5241 13.0326 14.4814 12.576 15.2557C11.736 14.9115 11.0465 14.2261 10.7334 13.3098C10.4202 12.3942 10.5482 11.4368 11.0056 10.6625C11.8448 11.0075 12.5343 11.6929 12.8475 12.6085Z" fill="#505050"/>
<path d="M12.4305 16.5497C13.2265 17.1142 13.6884 17.966 13.7756 18.8573C12.8901 19.0594 11.923 18.8983 11.127 18.3337C10.331 17.7692 9.86898 16.9174 9.78259 16.0261C10.6688 15.824 11.6345 15.9851 12.4305 16.5497Z" fill="#505050"/>
<path d="M15.6997 16.8444C15.3843 17.7593 14.6916 18.4431 13.8517 18.785C13.3966 18.0092 13.2717 17.0518 13.5871 16.1363C13.9026 15.2214 14.5952 14.5376 15.4352 14.1964C15.8902 14.973 16.0152 15.9303 15.6997 16.8444Z" fill="#505050"/>
<path d="M14.6384 23.7573C13.9304 23.7573 13.2331 23.54 12.6477 23.1243C11.851 22.559 11.3403 21.6829 11.247 20.7195L11.2355 20.6009L11.3527 20.5743C12.3099 20.3563 13.3156 20.5553 14.1124 21.1207C14.9091 21.686 15.4198 22.5621 15.5138 23.5255L15.5254 23.6441L15.4082 23.6707C15.1529 23.7292 14.8945 23.7573 14.6384 23.7573ZM11.5347 20.8144C11.6497 21.6525 12.1094 22.4093 12.8081 22.9047C13.5077 23.4009 14.3823 23.5901 15.2254 23.4313C15.1097 22.5932 14.65 21.8364 13.9512 21.341C13.2524 20.8456 12.3778 20.6564 11.5347 20.8144Z" fill="#87736D"/>
<path d="M17.3012 21.5263C16.9857 22.4412 16.2931 23.125 15.4531 23.4669C14.9981 22.6912 14.8731 21.7338 15.1886 20.8189C15.504 19.9041 16.1967 19.2203 17.0366 18.8791C17.4917 19.6541 17.6166 20.6115 17.3012 21.5263Z" fill="#505050"/>
<path d="M29.8809 28.6093L23.331 35.76L23.0803 37.6391L23.0394 37.9476L22.9592 38.5471L22.9214 38.829L21.7469 47.6408L18.1206 49.4385C18.1206 49.4385 16.7131 44.2952 15.7784 40.8289C15.7537 40.7407 15.729 40.6518 15.7059 40.5652C15.6681 40.4208 15.6295 40.2795 15.5925 40.1435C15.5678 40.0539 15.5447 39.9657 15.5216 39.8806C15.3912 39.3905 15.2756 38.9589 15.1846 38.6155C13.4385 35.2821 11.3531 33.6424 11.1649 33.3271L15.9565 30.6388L22.7525 26.7097L29.8809 28.6093Z" fill="#D1D3E8"/>
<path d="M23.1715 38.1784C23.1715 38.1784 15.9953 36.7705 14.641 31.4532C13.286 26.1359 17.5647 24.6041 17.5647 24.6041L23.1715 38.1784Z" fill="#B7B7B7"/>
<path d="M23.1496 38.1276C23.1496 38.1276 27.1508 32.0923 24.2433 27.4178C21.3357 22.7433 17.2313 24.6824 17.2313 24.6824L23.1496 38.1276Z" fill="#B7B7B7"/>
<path d="M18.2036 32.6745C18.9765 31.5857 19.538 30.6587 19.538 30.6587C19.538 30.6587 18.8461 31.496 18.0725 32.5849C17.2996 33.6737 16.7382 34.6007 16.7382 34.6007C16.7382 34.6007 17.43 33.7626 18.2036 32.6745Z" fill="#B7B7B7"/>
<path d="M17.4959 31.6304C18.3598 30.4147 18.9938 29.3843 18.9938 29.3843C18.9938 29.3843 18.2287 30.325 17.3648 31.5407C16.501 32.7565 15.8669 33.7868 15.8669 33.7868C15.8669 33.7868 16.6328 32.8461 17.4959 31.6304Z" fill="#B7B7B7"/>
<path d="M16.9175 30.4048C17.8006 29.1617 18.4508 28.1094 18.4508 28.1094C18.4508 28.1094 17.6695 29.0721 16.7871 30.3152C15.9047 31.5582 15.2538 32.6106 15.2538 32.6106C15.2538 32.6106 16.0351 31.6479 16.9175 30.4048Z" fill="#B7B7B7"/>
<path d="M16.422 29.0628C17.2782 27.857 17.9075 26.835 17.9075 26.835C17.9075 26.835 17.1478 27.7673 16.2917 28.9732C15.4355 30.179 14.8062 31.201 14.8062 31.201C14.8062 31.201 15.5651 30.2687 16.422 29.0628Z" fill="#B7B7B7"/>
<path d="M16.0709 27.5172C16.8206 26.4611 17.3636 25.5607 17.3636 25.5607C17.3636 25.5607 16.6902 26.3714 15.9405 27.4276C15.1908 28.4837 14.6478 29.3841 14.6478 29.3841C14.6478 29.3841 15.3212 28.5726 16.0709 27.5172Z" fill="#B7B7B7"/>
<path d="M18.9414 33.6752C19.607 32.7375 20.0813 31.9329 20.0813 31.9329C20.0813 31.9329 19.4767 32.6479 18.8103 33.5855C18.1447 34.5231 17.6703 35.3278 17.6703 35.3278C17.6703 35.3278 18.2758 34.6128 18.9414 33.6752Z" fill="#B7B7B7"/>
<path d="M19.7763 34.5399C20.2815 33.8287 20.6255 33.2079 20.6255 33.2079C20.6255 33.2079 20.1512 33.739 19.646 34.4502C19.1408 35.1614 18.7968 35.7829 18.7968 35.7829C18.7968 35.7829 19.2711 35.2511 19.7763 34.5399Z" fill="#B7B7B7"/>
<path d="M20.5648 35.4699C20.9343 34.9495 21.1688 34.4822 21.1688 34.4822C21.1688 34.4822 20.8039 34.8591 20.4345 35.3795C20.065 35.9 19.8306 36.3673 19.8306 36.3673C19.8306 36.3673 20.1954 35.9904 20.5648 35.4699Z" fill="#B7B7B7"/>
<path d="M21.3595 36.3892C21.5901 36.0647 21.7113 35.7562 21.7113 35.7562C21.7113 35.7562 21.459 35.9743 21.2284 36.2988C20.9978 36.6232 20.8767 36.9317 20.8767 36.9317C20.8767 36.9317 21.1289 36.7144 21.3595 36.3892Z" fill="#B7B7B7"/>
<path d="M22.4484 30.9169C21.118 30.6988 20.053 30.445 20.053 30.445C20.053 30.445 21.1442 30.5438 22.4746 30.7619C23.8049 30.9799 24.87 31.2337 24.87 31.2337C24.87 31.2337 23.7787 31.1342 22.4484 30.9169Z" fill="#B7B7B7"/>
<path d="M22.1873 29.688C20.7019 29.4449 19.5104 29.1706 19.5104 29.1706C19.5104 29.1706 20.7274 29.2907 22.2135 29.5338C23.6989 29.7769 24.8904 30.0512 24.8904 30.0512C24.8904 30.0512 23.6727 29.9312 22.1873 29.688Z" fill="#B7B7B7"/>
<path d="M21.7036 28.4237C20.185 28.1752 18.9666 27.8964 18.9666 27.8964C18.9666 27.8964 20.2113 28.0202 21.7298 28.2687C23.2483 28.5171 24.4669 28.7968 24.4669 28.7968C24.4669 28.7968 23.2221 28.6721 21.7036 28.4237Z" fill="#B7B7B7"/>
<path d="M21.0777 27.1352C19.6046 26.8944 18.4231 26.6208 18.4231 26.6208C18.4231 26.6208 19.6301 26.7386 21.1039 26.9802C22.5769 27.2211 23.7584 27.4946 23.7584 27.4946C23.7584 27.4946 22.5507 27.3769 21.0777 27.1352Z" fill="#B7B7B7"/>
<path d="M20.2022 25.8068C18.912 25.5956 17.8793 25.3471 17.8793 25.3471C17.8793 25.3471 18.9382 25.4406 20.2284 25.6518C21.5187 25.863 22.5521 26.1115 22.5521 26.1115C22.5521 26.1115 21.4925 26.018 20.2022 25.8068Z" fill="#B7B7B7"/>
<path d="M22.658 32.1363C21.5126 31.9486 20.5963 31.7191 20.5963 31.7191C20.5963 31.7191 21.5381 31.7936 22.6834 31.9813C23.8288 32.1689 24.7451 32.3984 24.7451 32.3984C24.7451 32.3984 23.8034 32.3239 22.658 32.1363Z" fill="#B7B7B7"/>
<path d="M22.7005 33.3291C21.832 33.1871 21.1401 32.9941 21.1401 32.9941C21.1401 32.9941 21.8574 33.0321 22.7267 33.1742C23.5959 33.3162 24.287 33.5092 24.287 33.5092C24.287 33.5092 23.569 33.4712 22.7005 33.3291Z" fill="#B7B7B7"/>
<path d="M22.8238 34.5343C22.1874 34.4302 21.6846 34.2683 21.6846 34.2683C21.6846 34.2683 22.2137 34.2751 22.8492 34.3792C23.4856 34.4833 23.9884 34.6452 23.9884 34.6452C23.9884 34.6452 23.4593 34.6391 22.8238 34.5343Z" fill="#B7B7B7"/>
<path d="M22.9331 35.7378C22.5367 35.6724 22.2281 35.5425 22.2281 35.5425C22.2281 35.5425 22.5629 35.5174 22.9593 35.5828C23.3558 35.6481 23.6643 35.7781 23.6643 35.7781C23.6643 35.7781 23.3296 35.8031 22.9331 35.7378Z" fill="#B7B7B7"/>
<path d="M17.0806 24.4468C20.4878 32.3695 23.0468 38.17 23.0468 38.17C23.0468 38.17 20.6328 32.3125 17.2742 24.3723C17.2109 24.4004 17.1461 24.4247 17.0806 24.4468Z" fill="#B7B7B7"/>
<path d="M1.2113 25.3101C1.2113 25.3101 5.26176 19.3067 10.7691 20.0939C16.2763 20.881 16.0866 25.3625 16.0866 25.3625L1.2113 25.3101Z" fill="white"/>
<path d="M1.26624 25.3092C1.26624 25.3092 5.41079 31.2503 10.9042 30.3787C16.3984 29.5072 16.1385 25.0295 16.1385 25.0295L1.26624 25.3092Z" fill="white"/>
<path d="M8.26753 22.8763C8.99563 23.9947 9.65279 24.8587 9.65279 24.8587C9.65279 24.8587 9.12985 23.9096 8.40174 22.7912C7.67364 21.6727 7.01648 20.8088 7.01648 20.8088C7.01648 20.8088 7.53943 21.7578 8.26753 22.8763Z" fill="white"/>
<path d="M9.51652 22.6285C10.3295 23.8777 11.056 24.848 11.056 24.848C11.056 24.848 10.4645 23.7933 9.65074 22.5442C8.83779 21.295 8.11121 20.3247 8.11121 20.3247C8.11121 20.3247 8.70358 21.3793 9.51652 22.6285Z" fill="white"/>
<path d="M10.8872 22.5677C11.7186 23.845 12.4598 24.8373 12.4598 24.8373C12.4598 24.8373 11.8528 23.7599 11.0221 22.4826C10.1907 21.2054 9.44946 20.213 9.44946 20.213C9.44946 20.213 10.0557 21.2905 10.8872 22.5677Z" fill="white"/>
<path d="M12.3359 22.6262C13.1419 23.8648 13.8631 24.8267 13.8631 24.8267C13.8631 24.8267 13.2769 23.7804 12.4701 22.5419C11.6641 21.3034 10.943 20.3414 10.943 20.3414C10.943 20.3414 11.5299 21.3877 12.3359 22.6262Z" fill="white"/>
<path d="M13.9197 22.8938C14.6254 23.9788 15.2656 24.8154 15.2656 24.8154C15.2656 24.8154 14.7604 23.8937 14.0539 22.8087C13.3474 21.7237 12.708 20.8871 12.708 20.8871C12.708 20.8871 13.2132 21.8095 13.9197 22.8938Z" fill="white"/>
<path d="M7.04787 23.1681C7.67493 24.1315 8.25033 24.8693 8.25033 24.8693C8.25033 24.8693 7.80914 24.0464 7.18208 23.083C6.55502 22.1195 5.97961 21.3817 5.97961 21.3817C5.97961 21.3817 6.42157 22.2046 7.04787 23.1681Z" fill="white"/>
<path d="M5.91756 23.5997C6.39268 24.3299 6.84543 24.88 6.84543 24.88C6.84543 24.88 6.52689 24.2456 6.05177 23.5154C5.57665 22.7852 5.1239 22.235 5.1239 22.235C5.1239 22.235 5.44244 22.8695 5.91756 23.5997Z" fill="white"/>
<path d="M4.74542 23.9652C5.09328 24.5001 5.44267 24.8914 5.44267 24.8914C5.44267 24.8914 5.22749 24.4157 4.87964 23.8808C4.53101 23.3459 4.18164 22.9546 4.18164 22.9546C4.18164 22.9546 4.3968 23.4302 4.74542 23.9652Z" fill="white"/>
<path d="M3.57921 24.3398C3.79672 24.6734 4.03967 24.9013 4.03967 24.9013C4.03967 24.9013 3.93093 24.589 3.71343 24.2555C3.49592 23.9219 3.25293 23.694 3.25293 23.694C3.25293 23.694 3.36248 24.007 3.57921 24.3398Z" fill="white"/>
<path d="M8.3035 27.4133C9.01386 26.2842 9.65713 25.4097 9.65713 25.4097C9.65713 25.4097 9.14883 26.3663 8.43847 27.4954C7.7281 28.6245 7.08484 29.4983 7.08484 29.4983C7.08484 29.4983 7.59314 28.5425 8.3035 27.4133Z" fill="white"/>
<path d="M9.55613 27.6412C10.3498 26.3799 11.0602 25.3989 11.0602 25.3989C11.0602 25.3989 10.4848 26.4627 9.6919 27.724C8.89824 28.9853 8.18787 29.9663 8.18787 29.9663C8.18787 29.9663 8.76324 28.9025 9.55613 27.6412Z" fill="white"/>
<path d="M10.9268 27.6816C11.7382 26.3922 12.4632 25.3884 12.4632 25.3884C12.4632 25.3884 11.8732 26.475 11.0625 27.7644C10.2511 29.0538 9.52612 30.0583 9.52612 30.0583C9.52612 30.0583 10.1161 28.9718 10.9268 27.6816Z" fill="white"/>
<path d="M12.3744 27.6011C13.1612 26.3504 13.8669 25.3779 13.8669 25.3779C13.8669 25.3779 13.2969 26.4333 12.5102 27.6839C11.7234 28.9346 11.0177 29.9072 11.0177 29.9072C11.0177 29.9072 11.5877 28.8518 12.3744 27.6011Z" fill="white"/>
<path d="M13.9536 27.3091C14.6424 26.2135 15.2687 25.367 15.2687 25.367C15.2687 25.367 14.7781 26.2963 14.0886 27.392C13.3998 28.4876 12.7736 29.3341 12.7736 29.3341C12.7736 29.3341 13.2649 28.404 13.9536 27.3091Z" fill="white"/>
<path d="M7.07866 27.1397C7.6903 26.1671 8.25411 25.4202 8.25411 25.4202C8.25411 25.4202 7.82607 26.25 7.21443 27.2225C6.60279 28.1951 6.03894 28.942 6.03894 28.942C6.03894 28.942 6.46703 28.1123 7.07866 27.1397Z" fill="white"/>
<path d="M5.94344 26.7256C6.40776 25.9878 6.85125 25.4316 6.85125 25.4316C6.85125 25.4316 6.54275 26.0707 6.0792 26.8084C5.61488 27.5462 5.17139 28.1024 5.17139 28.1024C5.17139 28.1024 5.47989 27.4627 5.94344 26.7256Z" fill="white"/>
<path d="M4.7636 26.3784C5.10297 25.8382 5.44616 25.4423 5.44616 25.4423C5.44616 25.4423 5.23871 25.9218 4.89857 26.4613C4.55843 27.0015 4.21521 27.3974 4.21521 27.3974C4.21521 27.3974 4.42423 26.9187 4.7636 26.3784Z" fill="white"/>
<path d="M3.59233 26.0205C3.80444 25.6839 4.04356 25.4521 4.04356 25.4521C4.04356 25.4521 3.93941 25.7667 3.7273 26.1033C3.51519 26.4399 3.27612 26.6717 3.27612 26.6717C3.27612 26.6717 3.38023 26.3571 3.59233 26.0205Z" fill="white"/>
<path d="M16.4184 24.9811C7.68509 25.073 1.26624 25.1992 1.26624 25.1992C1.26624 25.1992 7.68279 25.2273 16.4138 25.1862C16.4123 25.1179 16.4138 25.0495 16.4184 24.9811Z" fill="white"/>
<path d="M23.0755 31.2785C23.8252 30.7816 23.6602 29.4868 23.6602 29.4868L23.7056 29.2315L23.4982 29.072C23.4982 29.072 22.7431 27.9998 21.8484 28.1229C20.9537 28.246 21.4326 29.8516 21.0323 30.002C20.632 30.1532 20.713 30.3606 20.713 30.3606C20.713 30.3606 20.794 30.5681 21.1943 30.4169C21.5946 30.2664 22.3266 31.7754 23.0755 31.2785Z" fill="#83888E"/>
<path d="M21.7422 28.5151C21.3296 27.9118 20.2551 28.0448 20.2551 28.0448L20.0431 28.0083L19.9104 28.1755C19.9104 28.1755 19.0203 28.7841 19.1229 29.5044C19.2254 30.2247 20.5575 29.8395 20.6824 30.1617C20.8074 30.4838 20.9802 30.4192 20.9802 30.4192C20.9802 30.4192 21.1522 30.3547 21.0272 30.0317C20.9023 29.708 22.1549 29.1184 21.7422 28.5151Z" fill="#505050"/>
<path d="M20.1139 32.0515C20.5266 32.6548 21.601 32.5218 21.601 32.5218L21.8131 32.5583L21.9457 32.3911C21.9457 32.3911 22.8358 31.7825 22.7332 31.0621C22.6307 30.3418 21.2986 30.7271 21.1737 30.4049C21.0487 30.0827 20.8759 30.1473 20.8759 30.1473C20.8759 30.1473 20.704 30.2119 20.8289 30.5348C20.9539 30.8578 19.7013 31.4482 20.1139 32.0515Z" fill="#505050"/>
<path d="M19.1289 29.4794C18.5165 29.8859 18.6514 30.9444 18.6514 30.9444L18.6136 31.1533L18.7834 31.284C18.7834 31.284 19.4011 32.1609 20.1323 32.0598C20.8635 31.9588 20.4725 30.6465 20.7995 30.5234C21.1265 30.3996 21.0609 30.2301 21.0609 30.2301C21.0609 30.2301 20.9947 30.0607 20.6676 30.1838C20.3406 30.3069 19.7413 29.0729 19.1289 29.4794Z" fill="#83888E"/>
<path d="M20.8304 30.0347C20.9522 29.9891 21.0888 30.0484 21.1351 30.1684C21.1813 30.2885 21.1211 30.423 20.9993 30.4686C20.8774 30.5142 20.7409 30.4541 20.6946 30.3348C20.6476 30.2148 20.7085 30.0803 20.8304 30.0347Z" fill="#505050"/>
<path d="M19.2114 25.5828C18.6438 26.275 19.1883 27.4649 19.1883 27.4649L19.2207 27.7225L19.4667 27.8152C19.4667 27.8152 20.5087 28.6214 21.3271 28.2438C22.1454 27.8669 21.2083 26.4711 21.5461 26.2112C21.884 25.9506 21.7444 25.7758 21.7444 25.7758C21.7444 25.7758 21.6056 25.6011 21.2677 25.8609C20.9299 26.1216 19.7791 24.8906 19.2114 25.5828Z" fill="#090A08"/>
<path d="M21.3111 27.8372C21.8857 28.2946 22.8729 27.8562 22.8729 27.8562L23.0866 27.8296L23.1637 27.6313C23.1637 27.6313 23.8324 26.7917 23.5193 26.1329C23.2061 25.4741 22.0484 26.2287 21.8324 25.9566C21.6165 25.6846 21.4707 25.7971 21.4707 25.7971C21.4707 25.7971 21.3257 25.9095 21.5417 26.1808C21.7576 26.4536 20.7365 27.3806 21.3111 27.8372Z" fill="#4F5261"/>
<path d="M21.8126 23.9857C21.238 23.5283 20.2507 23.9667 20.2507 23.9667L20.0371 23.9933L19.96 24.1917C19.96 24.1917 19.2912 25.0313 19.6043 25.69C19.9175 26.3488 21.0752 25.5943 21.2912 25.8663C21.5071 26.1383 21.6529 26.0259 21.6529 26.0259C21.6529 26.0259 21.7979 25.9142 21.582 25.6422C21.3652 25.3694 22.3872 24.4432 21.8126 23.9857Z" fill="#4F5261"/>
<path d="M23.5211 26.1589C23.9854 25.5928 23.5403 24.6202 23.5403 24.6202L23.5134 24.4098L23.3121 24.3338C23.3121 24.3338 22.4606 23.675 21.7911 23.9835C21.1224 24.292 21.8882 25.4325 21.6121 25.6452C21.336 25.858 21.4502 26.0016 21.4502 26.0016C21.4502 26.0016 21.5643 26.1444 21.8397 25.9317C22.115 25.7189 23.0568 26.725 23.5211 26.1589Z" fill="#090A08"/>
<path d="M21.7278 26.1218C21.6252 26.2009 21.4771 26.1834 21.3962 26.0823C21.3159 25.9813 21.3337 25.8354 21.4363 25.7564C21.5388 25.6773 21.6869 25.6948 21.7672 25.7959C21.8489 25.8962 21.8304 26.0428 21.7278 26.1218Z" fill="#4F5261"/>
<path d="M18.6966 20.5156C18.0063 19.9412 16.7869 20.4518 16.7869 20.4518L16.5254 20.4784L16.4259 20.7185C16.4259 20.7185 15.5852 21.7268 15.95 22.5414C16.3149 23.3559 17.751 22.4631 18.0078 22.8012C18.2647 23.1393 18.4459 23.0064 18.4459 23.0064C18.4459 23.0064 18.6264 22.8734 18.3696 22.5353C18.1127 22.1964 19.3869 21.0901 18.6966 20.5156Z" fill="#090A08"/>
<path d="M16.3634 22.5346C15.8868 23.09 16.3102 24.0725 16.3102 24.0725L16.3318 24.2837L16.5308 24.3635C16.5308 24.3635 17.3676 25.0405 18.0433 24.7465C18.7189 24.4524 17.9785 23.2959 18.2593 23.0885C18.54 22.8818 18.4297 22.7359 18.4297 22.7359C18.4297 22.7359 18.3194 22.5901 18.0387 22.7975C17.7579 23.0049 16.8401 21.9792 16.3634 22.5346Z" fill="#B7B7B7"/>
<path d="M20.2606 23.1121C20.7373 22.5559 20.3138 21.5742 20.3138 21.5742L20.2923 21.363L20.0933 21.2832C20.0933 21.2832 19.2564 20.6062 18.5808 20.9003C17.9051 21.1943 18.6455 22.3508 18.3648 22.5582C18.084 22.7649 18.1943 22.9108 18.1943 22.9108C18.1943 22.9108 18.3046 23.0559 18.5854 22.8492C18.8661 22.6425 19.784 23.6683 20.2606 23.1121Z" fill="#B7B7B7"/>
<path d="M18.0176 24.748C18.5814 25.2176 19.5787 24.8005 19.5787 24.8005L19.7924 24.7792L19.8741 24.5831C19.8741 24.5831 20.5613 23.7587 20.2628 23.0931C19.9643 22.4275 18.7904 23.1569 18.5799 22.8804C18.3701 22.6038 18.222 22.7124 18.222 22.7124C18.222 22.7124 18.0739 22.8211 18.2845 23.0977C18.495 23.3743 17.453 24.2784 18.0176 24.748Z" fill="#090A08"/>
<path d="M18.0949 22.983C18.017 22.8804 18.0378 22.7345 18.1427 22.6578C18.2468 22.5811 18.3949 22.6016 18.4728 22.7049C18.5507 22.8075 18.5299 22.9534 18.425 23.0301C18.3209 23.1068 18.1728 23.0856 18.0949 22.983Z" fill="#83888E"/>
<path d="M14.7592 28.2453C14.0689 27.6709 12.8503 28.1815 12.8503 28.1815L12.588 28.2081L12.4886 28.4482C12.4886 28.4482 11.6478 29.4565 12.0127 30.271C12.3775 31.0848 13.8136 30.1928 14.0705 30.5309C14.3273 30.869 14.5078 30.736 14.5078 30.736C14.5078 30.736 14.6883 30.6031 14.4314 30.2649C14.1754 29.9253 15.4495 28.8198 14.7592 28.2453Z" fill="#090A08"/>
<path d="M12.4251 30.2641C11.9484 30.8195 12.3719 31.8019 12.3719 31.8019L12.3942 32.0124L12.5932 32.0922C12.5932 32.0922 13.4301 32.7692 14.1057 32.4751C14.7814 32.1811 14.0409 31.0246 14.3217 30.8172C14.6024 30.6105 14.4921 30.4646 14.4921 30.4646C14.4921 30.4646 14.3819 30.3188 14.1011 30.5262C13.8204 30.7336 12.9017 29.7079 12.4251 30.2641Z" fill="#83888E"/>
<path d="M16.3233 30.8414C16.7999 30.286 16.3765 29.3035 16.3765 29.3035L16.3549 29.0923L16.1559 29.0125C16.1559 29.0125 15.3191 28.3355 14.6434 28.6296C13.9678 28.9236 14.7082 30.0801 14.4274 30.2875C14.1467 30.4942 14.2578 30.6401 14.2578 30.6401C14.2578 30.6401 14.368 30.7852 14.6488 30.5785C14.928 30.3711 15.8466 31.3969 16.3233 30.8414Z" fill="#83888E"/>
<path d="M14.0806 32.4773C14.6452 32.9469 15.6417 32.5297 15.6417 32.5297L15.8561 32.5084L15.9371 32.3124C15.9371 32.3124 16.6243 31.488 16.3258 30.8224C16.0273 30.1568 14.8534 30.8862 14.6428 30.6096C14.4331 30.333 14.285 30.4417 14.285 30.4417C14.285 30.4417 14.1377 30.5503 14.3474 30.8269C14.558 31.1027 13.516 32.0077 14.0806 32.4773Z" fill="#090A08"/>
<path d="M14.1578 30.7123C14.0799 30.6097 14.1007 30.4638 14.2056 30.3871C14.3097 30.3104 14.4578 30.3309 14.5357 30.4342C14.6136 30.5368 14.5928 30.6827 14.4879 30.7594C14.3837 30.8362 14.2357 30.8149 14.1578 30.7123Z" fill="#B7B7B7"/>
<path d="M13.6608 24.418C13.1903 24.0266 12.3588 24.3746 12.3588 24.3746L12.1799 24.3929L12.112 24.5562C12.112 24.5562 11.5389 25.2439 11.7873 25.7993C12.0364 26.354 13.0152 25.7461 13.191 25.9764C13.3661 26.2066 13.4895 26.1162 13.4895 26.1162C13.4895 26.1162 13.6129 26.025 13.4371 25.7948C13.2628 25.5638 14.1312 24.81 13.6608 24.418Z" fill="#090A08"/>
<path d="M12.0693 25.795C11.7446 26.1742 12.033 26.8436 12.033 26.8436L12.0477 26.9872L12.1834 27.0419C12.1834 27.0419 12.7542 27.5039 13.2146 27.3033C13.6751 27.1027 13.1707 26.314 13.3619 26.1726C13.5532 26.0313 13.4776 25.9325 13.4776 25.9325C13.4776 25.9325 13.4021 25.833 13.2108 25.9743C13.0195 26.1156 12.394 25.4158 12.0693 25.795Z" fill="#83888E"/>
<path d="M14.7273 26.1886C15.0521 25.8095 14.7636 25.1401 14.7636 25.1401L14.7489 24.9965L14.6132 24.9417C14.6132 24.9417 14.0424 24.4798 13.5819 24.6804C13.1215 24.881 13.6259 25.6697 13.4346 25.811C13.2434 25.9523 13.3189 26.0511 13.3189 26.0511C13.3189 26.0511 13.3945 26.1506 13.5858 26.0093C13.7763 25.868 14.4026 26.5678 14.7273 26.1886Z" fill="#B7B7B7"/>
<path d="M13.198 27.3039C13.5829 27.6238 14.2624 27.3396 14.2624 27.3396L14.4082 27.3251L14.4637 27.1914C14.4637 27.1914 14.9327 26.6291 14.729 26.1755C14.5254 25.7219 13.7248 26.2188 13.5813 26.0304C13.4379 25.842 13.3376 25.9164 13.3376 25.9164C13.3376 25.9164 13.2366 25.9909 13.38 26.1793C13.5235 26.367 12.8132 26.984 13.198 27.3039Z" fill="#090A08"/>
<path d="M13.2509 26.1003C13.1977 26.0304 13.2123 25.9308 13.2833 25.8784C13.3543 25.826 13.4553 25.8404 13.5085 25.9103C13.5617 25.9802 13.5471 26.0798 13.4761 26.1322C13.4052 26.1854 13.3041 26.1709 13.2509 26.1003Z" fill="#B7B7B7"/>
<path d="M17.7816 28.7999C17.3111 28.4086 16.4797 28.7566 16.4797 28.7566L16.3007 28.7748L16.2328 28.9382C16.2328 28.9382 15.6598 29.6258 15.9081 30.1813C16.1572 30.736 17.136 30.1281 17.3111 30.3583C17.4862 30.5893 17.6096 30.4981 17.6096 30.4981C17.6096 30.4981 17.733 30.407 17.5579 30.1767C17.3836 29.9457 18.2521 29.1912 17.7816 28.7999Z" fill="#090A08"/>
<path d="M16.1891 30.177C15.8644 30.5562 16.1529 31.2256 16.1529 31.2256L16.1675 31.3692L16.3033 31.4239C16.3033 31.4239 16.874 31.8859 17.3345 31.6853C17.795 31.4847 17.2906 30.696 17.4819 30.5546C17.6731 30.4133 17.5975 30.3145 17.5975 30.3145C17.5975 30.3145 17.5219 30.215 17.3306 30.3563C17.1401 30.4977 16.5146 29.7979 16.1891 30.177Z" fill="#83888E"/>
<path d="M18.847 30.5704C19.1718 30.1912 18.8833 29.5218 18.8833 29.5218L18.8687 29.3782L18.7329 29.3235C18.7329 29.3235 18.1622 28.8623 17.7017 29.0621C17.2412 29.2627 17.7457 30.0514 17.5544 30.192C17.3631 30.3333 17.4387 30.4321 17.4387 30.4321C17.4387 30.4321 17.5143 30.5316 17.7055 30.3903C17.8961 30.2497 18.5223 30.9488 18.847 30.5704Z" fill="#83888E"/>
<path d="M17.3188 31.686C17.7036 32.0059 18.3831 31.7217 18.3831 31.7217L18.5289 31.7073L18.5844 31.5736C18.5844 31.5736 19.0534 31.0113 18.8498 30.5577C18.6462 30.1041 17.8456 30.601 17.7021 30.4125C17.5586 30.2241 17.4584 30.2986 17.4584 30.2986C17.4584 30.2986 17.3573 30.373 17.5008 30.5615C17.6443 30.7491 16.9339 31.3654 17.3188 31.686Z" fill="#090A08"/>
<path d="M17.3709 30.4824C17.3177 30.4125 17.3324 30.3129 17.4033 30.2605C17.4743 30.2081 17.5753 30.2225 17.6285 30.2924C17.6818 30.3623 17.6671 30.4619 17.5961 30.5143C17.5252 30.5667 17.4241 30.5523 17.3709 30.4824Z" fill="#B7B7B7"/>
<path d="M20.6534 22.0465C20.1829 21.6552 19.3515 22.0032 19.3515 22.0032L19.1725 22.0214L19.1047 22.1848C19.1047 22.1848 18.5316 22.8724 18.7799 23.4279C19.0291 23.9825 20.0078 23.3747 20.1829 23.6049C20.358 23.8351 20.4814 23.7447 20.4814 23.7447C20.4814 23.7447 20.6048 23.6535 20.4297 23.4233C20.2546 23.1923 21.1239 22.4386 20.6534 22.0465Z" fill="#83888E"/>
<path d="M19.0611 23.4232C18.7364 23.8024 19.0248 24.4718 19.0248 24.4718L19.0395 24.6154L19.1753 24.6701C19.1753 24.6701 19.746 25.1321 20.2065 24.9315C20.6669 24.7309 20.1625 23.9422 20.3538 23.8009C20.5451 23.6595 20.4695 23.5608 20.4695 23.5608C20.4695 23.5608 20.3939 23.4612 20.2026 23.6026C20.0121 23.7439 19.3858 23.0441 19.0611 23.4232Z" fill="#83888E"/>
<path d="M21.7191 23.8166C22.0438 23.4375 21.7554 22.768 21.7554 22.768L21.7407 22.6244L21.605 22.5697C21.605 22.5697 21.0342 22.1078 20.5738 22.3084C20.1133 22.509 20.6185 23.2976 20.4265 23.439C20.2352 23.5803 20.3107 23.6791 20.3107 23.6791C20.3107 23.6791 20.3863 23.7786 20.5776 23.6373C20.7681 23.496 21.3944 24.1958 21.7191 23.8166Z" fill="#B7B7B7"/>
<path d="M20.1898 24.9321C20.5747 25.252 21.2542 24.9678 21.2542 24.9678L21.3999 24.9534L21.4555 24.8197C21.4555 24.8197 21.9244 24.2574 21.7208 23.8038C21.5172 23.3502 20.7166 23.8478 20.5731 23.6586C20.4297 23.4702 20.3294 23.5447 20.3294 23.5447C20.3294 23.5447 20.2284 23.6191 20.3718 23.8076C20.5153 23.9952 19.8057 24.6122 20.1898 24.9321Z" fill="#83888E"/>
<path d="M20.2431 23.7285C20.1899 23.6586 20.2046 23.5591 20.2755 23.5067C20.3465 23.4542 20.4475 23.4687 20.5007 23.5386C20.5539 23.6085 20.5393 23.708 20.4683 23.7604C20.3966 23.8129 20.2963 23.7992 20.2431 23.7285Z" fill="#505050"/>
<path d="M12.3386 26.6194C11.8681 26.2281 11.0367 26.5761 11.0367 26.5761L10.8577 26.5943L10.7898 26.7577C10.7898 26.7577 10.2168 27.4453 10.4651 28.0007C10.7142 28.5554 11.693 27.9476 11.8681 28.1778C12.0432 28.408 12.1666 28.3176 12.1666 28.3176C12.1666 28.3176 12.29 28.2264 12.1149 27.9962C11.9398 27.7652 12.8091 27.0107 12.3386 26.6194Z" fill="#090A08"/>
<path d="M10.7462 27.9961C10.4214 28.3753 10.7099 29.0447 10.7099 29.0447L10.7245 29.1883L10.8603 29.243C10.8603 29.243 11.4311 29.705 11.8915 29.5044C12.352 29.3038 11.8476 28.5151 12.0389 28.3737C12.2301 28.2324 12.1545 28.1336 12.1545 28.1336C12.1545 28.1336 12.079 28.0341 11.8877 28.1754C11.6972 28.3168 11.0716 27.617 10.7462 27.9961Z" fill="#4F5261"/>
<path d="M13.4039 28.3896C13.7286 28.0104 13.4401 27.341 13.4401 27.341L13.4254 27.1974L13.2897 27.1427C13.2897 27.1427 12.7189 26.6815 12.2584 26.8813C11.798 27.0819 12.3032 27.8706 12.1111 28.012C11.9199 28.1533 11.9954 28.2521 11.9954 28.2521C11.9954 28.2521 12.071 28.3516 12.2623 28.2103C12.4528 28.0689 13.0791 28.768 13.4039 28.3896Z" fill="#83888E"/>
<path d="M11.8744 29.505C12.2593 29.8249 12.9388 29.5408 12.9388 29.5408L13.0846 29.5263L13.1401 29.3926C13.1401 29.3926 13.609 28.8303 13.4054 28.3767C13.2018 27.9231 12.4012 28.42 12.2585 28.2316C12.115 28.0431 12.0148 28.1176 12.0148 28.1176C12.0148 28.1176 11.9137 28.1921 12.0572 28.3805C12.2006 28.5682 11.4903 29.1844 11.8744 29.505Z" fill="#83888E"/>
<path d="M11.9279 28.3016C11.8747 28.2317 11.8893 28.1321 11.9603 28.0797C12.0313 28.0273 12.1323 28.0417 12.1855 28.1116C12.2387 28.1815 12.2241 28.2811 12.1531 28.3335C12.0822 28.3859 11.9811 28.3715 11.9279 28.3016Z" fill="#4F5261"/>
<path d="M17.915 23.8611C17.0759 23.1628 15.5934 23.7828 15.5934 23.7828L15.2749 23.8147L15.1538 24.1065C15.1538 24.1065 14.1318 25.3329 14.5753 26.3229C15.0188 27.313 16.765 26.2279 17.0782 26.639C17.3905 27.0501 17.6104 26.8882 17.6104 26.8882C17.6104 26.8882 17.8302 26.7264 17.5178 26.3153C17.2047 25.9043 18.7542 24.5594 17.915 23.8611Z" fill="#83888E"/>
<path d="M15.0769 26.316C14.4977 26.9915 15.0121 28.186 15.0121 28.186L15.0391 28.4428L15.2813 28.54C15.2813 28.54 16.2994 29.3629 17.1208 29.0058C17.9423 28.6487 17.0421 27.2415 17.3831 26.99C17.7247 26.7385 17.5898 26.5614 17.5898 26.5614C17.5898 26.5614 17.4556 26.3844 17.1139 26.6359C16.7722 26.8882 15.6561 25.6398 15.0769 26.316Z" fill="#505050"/>
<path d="M19.8162 27.0181C20.3955 26.3426 19.881 25.1482 19.881 25.1482L19.8548 24.8913L19.6126 24.7941C19.6126 24.7941 18.5945 23.9712 17.773 24.3283C16.9516 24.6854 17.8517 26.0926 17.5108 26.3441C17.1692 26.5956 17.3041 26.7727 17.3041 26.7727C17.3041 26.7727 17.4383 26.9497 17.78 26.6982C18.1202 26.4459 19.2362 27.6936 19.8162 27.0181Z" fill="#505050"/>
<path d="M17.0895 29.0066C17.7752 29.5773 18.9876 29.0704 18.9876 29.0704L19.2476 29.0439L19.3463 28.8053C19.3463 28.8053 20.1816 27.8023 19.8191 26.9931C19.4566 26.1838 18.0281 27.0713 17.7728 26.7347C17.5175 26.3981 17.3379 26.5311 17.3379 26.5311C17.3379 26.5311 17.1581 26.6633 17.4134 26.9999C17.6703 27.3365 16.403 28.436 17.0895 29.0066Z" fill="#83888E"/>
<path d="M17.1833 26.8608C17.0884 26.7355 17.1139 26.5584 17.2411 26.465C17.3676 26.3715 17.5481 26.3973 17.643 26.522C17.7378 26.6466 17.7124 26.8244 17.5851 26.9178C17.4578 27.0113 17.2781 26.9862 17.1833 26.8608Z" fill="#090A08"/>
<path d="M9.58171 32.7473C8.94384 33.3772 9.35955 34.6164 9.35955 34.6164L9.36497 34.8755L9.59945 34.9933C9.59945 34.9933 10.5504 35.9021 11.4043 35.6103C12.2581 35.3193 11.4737 33.8353 11.837 33.6112C12.2003 33.387 12.0807 33.1986 12.0807 33.1986C12.0807 33.1986 11.9604 33.0102 11.5971 33.2343C11.233 33.4592 10.2188 32.1174 9.58171 32.7473Z" fill="#83888E"/>
<path d="M11.431 35.2054C11.954 35.719 12.9828 35.3847 12.9828 35.3847L13.1981 35.3809L13.296 35.1917C13.296 35.1917 14.0496 34.4258 13.8081 33.7381C13.5667 33.0505 12.335 33.6826 12.1491 33.3901C11.9632 33.0976 11.8066 33.1941 11.8066 33.1941C11.8066 33.1941 11.6501 33.2906 11.8367 33.5831C12.0218 33.8749 10.9081 34.6917 11.431 35.2054Z" fill="#B7B7B7"/>
<path d="M12.3369 31.4258C11.8139 30.9122 10.7858 31.2473 10.7858 31.2473L10.5706 31.2511L10.4734 31.4403C10.4734 31.4403 9.71908 32.2062 9.96126 32.8938C10.2027 33.5815 11.4344 32.9493 11.6203 33.2418C11.8062 33.5344 11.9628 33.4379 11.9628 33.4379C11.9628 33.4379 12.1193 33.3414 11.9327 33.0488C11.746 32.7563 12.8598 31.9395 12.3369 31.4258Z" fill="#B7B7B7"/>
<path d="M13.8063 33.7632C14.3277 33.2481 13.9875 32.2352 13.9875 32.2352L13.9837 32.0232L13.7916 31.9275C13.7916 31.9275 13.0142 31.1844 12.3161 31.423C11.6181 31.6608 12.2598 32.8742 11.9629 33.0574C11.6659 33.2405 11.7639 33.3947 11.7639 33.3947C11.7639 33.3947 11.8618 33.549 12.1588 33.3651C12.4557 33.1812 13.2849 34.2784 13.8063 33.7632Z" fill="#83888E"/>
<path d="M12.0273 33.5413C11.917 33.6097 11.7713 33.5763 11.7018 33.4676C11.6324 33.359 11.6663 33.2154 11.7766 33.147C11.8869 33.0786 12.0327 33.1113 12.1021 33.2207C12.1715 33.3301 12.1384 33.4737 12.0273 33.5413Z" fill="#B7B7B7"/>
<path d="M11.4296 28.3501C11.4589 27.4603 10.2966 26.835 10.2966 26.835L10.113 26.6488L9.86003 26.721C9.86003 26.721 8.53573 26.6974 8.11383 27.4839C7.69193 28.271 9.29311 28.8272 9.18359 29.2353C9.07407 29.6433 9.29158 29.7003 9.29158 29.7003C9.29158 29.7003 9.50985 29.7573 9.61937 29.3492C9.7289 28.9412 11.4003 29.2398 11.4296 28.3501Z" fill="#838383"/>
<path d="M8.3745 27.7992C7.63637 27.7756 7.11728 28.7118 7.11728 28.7118L6.96301 28.8592L7.02242 29.0628C7.02242 29.0628 7.00236 30.1296 7.65564 30.4692C8.30893 30.8089 8.77017 29.5195 9.10954 29.6076C9.44891 29.6957 9.49594 29.5202 9.49594 29.5202C9.49594 29.5202 9.543 29.3447 9.2044 29.2558C8.8658 29.1669 9.11263 27.8228 8.3745 27.7992Z" fill="#83888E"/>
<path d="M10.3322 31.1691C11.0703 31.1926 11.5894 30.2565 11.5894 30.2565L11.7437 30.1091L11.6835 29.9055C11.6835 29.9055 11.7036 28.8387 11.0503 28.499C10.397 28.1594 9.93576 29.4488 9.59639 29.3607C9.25779 29.2718 9.20999 29.448 9.20999 29.448C9.20999 29.448 9.16293 29.6236 9.50153 29.7125C9.84167 29.7999 9.59406 31.1455 10.3322 31.1691Z" fill="#83888E"/>
<path d="M7.63851 30.451C7.6146 31.1782 8.56487 31.6895 8.56487 31.6895L8.71448 31.8415L8.92119 31.7822C8.92119 31.7822 10.0041 31.802 10.3489 31.1584C10.6936 30.5148 9.38472 30.0604 9.47419 29.7261C9.56443 29.3926 9.3855 29.3455 9.3855 29.3455C9.3855 29.3455 9.20731 29.2991 9.11707 29.6327C9.02837 29.9677 7.66242 29.7239 7.63851 30.451Z" fill="#838383"/>
<path d="M9.09197 29.4161C9.12513 29.2922 9.25468 29.2177 9.3804 29.2512C9.50612 29.2838 9.58174 29.4115 9.54781 29.5353C9.51464 29.6592 9.38504 29.7337 9.25932 29.7002C9.1336 29.6668 9.0588 29.5399 9.09197 29.4161Z" fill="#090A08"/>
<path d="M19.9006 35.5724C20.8038 35.6051 21.4432 34.4623 21.4432 34.4623L21.6329 34.2822L21.5612 34.033C21.5612 34.033 21.5905 32.7283 20.7938 32.3097C19.997 31.891 19.4255 33.4661 19.0113 33.3567C18.5971 33.2465 18.5385 33.4616 18.5385 33.4616C18.5385 33.4616 18.4799 33.6766 18.8941 33.786C19.3067 33.8954 18.9974 35.5405 19.9006 35.5724Z" fill="#83888E"/>
<path d="M20.4723 32.565C20.4993 31.8379 19.5507 31.3227 19.5507 31.3227L19.401 31.17L19.1943 31.2277C19.1943 31.2277 18.1114 31.2042 17.7643 31.8462C17.4165 32.4883 18.7246 32.948 18.6328 33.2815C18.5418 33.6151 18.72 33.6622 18.72 33.6622C18.72 33.6622 18.8981 33.7093 18.9891 33.3758C19.0801 33.043 20.4453 33.2922 20.4723 32.565Z" fill="#4F5261"/>
<path d="M17.0427 34.4805C17.0157 35.2077 17.9644 35.7228 17.9644 35.7228L18.114 35.8756L18.3207 35.8178C18.3207 35.8178 19.4036 35.8414 19.7507 35.1993C20.0985 34.5573 18.7904 34.0976 18.8822 33.764C18.9732 33.4304 18.7951 33.3833 18.7951 33.3833C18.7951 33.3833 18.6169 33.3362 18.5259 33.6698C18.4349 34.0026 17.0697 33.7534 17.0427 34.4805Z" fill="#4F5261"/>
<path d="M17.7837 31.8295C17.0455 31.8029 16.5226 32.7375 16.5226 32.7375L16.3676 32.8849L16.4262 33.0885C16.4262 33.0885 16.4023 34.1553 17.054 34.498C17.7058 34.8407 18.1724 33.552 18.511 33.6424C18.8496 33.7321 18.8974 33.5566 18.8974 33.5566C18.8974 33.5566 18.9452 33.3811 18.6066 33.2914C18.2688 33.201 18.5218 31.8561 17.7837 31.8295Z" fill="#83888E"/>
<path d="M18.8279 33.2655C18.9537 33.2989 19.0285 33.4266 18.9945 33.5504C18.9606 33.6743 18.831 33.748 18.7053 33.7146C18.5796 33.6811 18.5048 33.5535 18.5387 33.4296C18.5726 33.305 18.7014 33.2321 18.8279 33.2655Z" fill="#4F5261"/>
<path d="M13.3975 35.883C13.6204 36.7454 14.9138 37.0281 14.9138 37.0281L15.1429 37.1565L15.3658 37.0182C15.3658 37.0182 16.6446 36.6786 16.8282 35.8071C17.0118 34.9355 15.3157 34.8398 15.3064 34.4173C15.2964 33.9949 15.0712 34.0002 15.0712 34.0002C15.0712 34.0002 14.846 34.0055 14.8552 34.4272C14.8637 34.8497 13.1746 35.0206 13.3975 35.883Z" fill="#505050"/>
<path d="M16.4876 35.5752C17.2033 35.3959 17.4378 34.3542 17.4378 34.3542L17.5442 34.1703L17.4293 33.991C17.4293 33.991 17.147 32.9607 16.4243 32.8133C15.7008 32.6658 15.6214 34.0313 15.2712 34.0389C14.9211 34.0465 14.9249 34.2288 14.9249 34.2288C14.9249 34.2288 14.9288 34.4104 15.2797 34.4028C15.6299 34.3945 15.7718 35.7553 16.4876 35.5752Z" fill="#83888E"/>
<path d="M13.6552 32.8747C12.9394 33.054 12.7049 34.0957 12.7049 34.0957L12.5985 34.2796L12.7134 34.4589C12.7134 34.4589 12.9957 35.4893 13.7184 35.6367C14.4419 35.7841 14.5213 34.4187 14.8715 34.4111C15.2224 34.4035 15.2178 34.2211 15.2178 34.2211C15.2178 34.2211 15.214 34.0395 14.863 34.0471C14.5128 34.0555 14.3709 32.6954 13.6552 32.8747Z" fill="#83888E"/>
<path d="M16.4458 32.8267C16.2637 32.1216 15.2063 31.8906 15.2063 31.8906L15.0188 31.7858L14.8368 31.899C14.8368 31.899 13.7909 32.1771 13.6413 32.889C13.4917 33.6018 14.8777 33.68 14.8854 34.025C14.8931 34.3707 15.0775 34.3661 15.0775 34.3661C15.0775 34.3661 15.2618 34.3616 15.2541 34.0166C15.2471 33.6716 16.6286 33.5319 16.4458 32.8267Z" fill="#505050"/>
<path d="M15.3419 34.219C15.3449 34.3474 15.2416 34.4537 15.1112 34.4568C14.9809 34.4598 14.8729 34.358 14.8698 34.2296C14.8667 34.1012 14.9701 33.9948 15.1004 33.9918C15.2308 33.9887 15.3395 34.0906 15.3419 34.219Z" fill="#090A08"/>
<path d="M10.8927 26.54C11.7951 26.5727 12.4353 25.4299 12.4353 25.4299L12.625 25.2499L12.5533 25.0006C12.5533 25.0006 12.5826 23.696 11.7858 23.2773C10.9891 22.8587 10.4176 24.4338 10.0034 24.3244C9.58921 24.2142 9.53056 24.4292 9.53056 24.4292C9.53056 24.4292 9.47194 24.6443 9.88613 24.7537C10.2995 24.8631 9.99025 26.5074 10.8927 26.54Z" fill="#505050"/>
<path d="M11.465 23.5326C11.492 22.8055 10.5433 22.2903 10.5433 22.2903L10.3937 22.1376L10.187 22.1953C10.187 22.1953 9.10407 22.1718 8.75699 22.8138C8.40913 23.4559 9.71728 23.9156 9.62549 24.2491C9.53448 24.5827 9.71263 24.6298 9.71263 24.6298C9.71263 24.6298 9.8908 24.6769 9.98181 24.3434C10.0728 24.0098 11.438 24.2598 11.465 23.5326Z" fill="#83888E"/>
<path d="M8.03572 25.4481C8.00873 26.1752 8.95743 26.6904 8.95743 26.6904L9.10703 26.8431L9.31374 26.7853C9.31374 26.7853 10.3966 26.8089 10.7437 26.1668C11.0916 25.5248 9.78348 25.0651 9.87527 24.7315C9.96628 24.398 9.78813 24.3509 9.78813 24.3509C9.78813 24.3509 9.60996 24.3037 9.51895 24.6373C9.42794 24.9701 8.06272 24.7209 8.03572 25.4481Z" fill="#83888E"/>
<path d="M8.77657 22.7973C8.03844 22.7707 7.5155 23.7053 7.5155 23.7053L7.36047 23.8527L7.41908 24.0564C7.41908 24.0564 7.39515 25.1232 8.04689 25.4658C8.69864 25.8085 9.1653 24.5198 9.5039 24.6103C9.8425 24.6999 9.8903 24.5244 9.8903 24.5244C9.8903 24.5244 9.93811 24.3489 9.59951 24.2592C9.26091 24.1688 9.5147 22.8239 8.77657 22.7973Z" fill="#505050"/>
<path d="M9.82 24.2333C9.94572 24.2667 10.0205 24.3943 9.9866 24.5182C9.95266 24.6421 9.82308 24.7158 9.69736 24.6823C9.57164 24.6489 9.49682 24.5212 9.53076 24.3974C9.5647 24.2728 9.69427 24.1998 9.82 24.2333Z" fill="#B7B7B7"/>
<path d="M14.3851 24.6328C15.2736 24.7946 16.0757 23.7559 16.0757 23.7559L16.2902 23.6047L16.2554 23.3479C16.2554 23.3479 16.4776 22.0615 15.751 21.5327C15.0245 21.0038 14.2262 22.4802 13.8328 22.3122C13.4394 22.1443 13.35 22.348 13.35 22.348C13.35 22.348 13.2598 22.5523 13.6531 22.7203C14.0472 22.8882 13.4973 24.4709 14.3851 24.6328Z" fill="#838383"/>
<path d="M15.3952 21.7393C15.5295 21.0235 14.6671 20.3777 14.6671 20.3777L14.5422 20.2052L14.3286 20.2326C14.3286 20.2326 13.2611 20.0532 12.8222 20.6391C12.3833 21.2241 13.6089 21.867 13.4693 22.1838C13.3297 22.5006 13.4986 22.5728 13.4986 22.5728C13.4986 22.5728 13.6675 22.645 13.8071 22.3282C13.9475 22.0121 15.261 22.4543 15.3952 21.7393Z" fill="#83888E"/>
<path d="M11.7202 23.142C11.586 23.8578 12.4483 24.5036 12.4483 24.5036L12.5733 24.6761L12.7869 24.6487C12.7869 24.6487 13.8544 24.8281 14.2933 24.2422C14.7321 23.6572 13.5066 23.0143 13.6462 22.6975C13.7858 22.3806 13.6161 22.3085 13.6161 22.3085C13.6161 22.3085 13.4472 22.2363 13.3076 22.5531C13.1679 22.8692 11.8537 22.4262 11.7202 23.142Z" fill="#83888E"/>
<path d="M12.8437 20.6257C12.1172 20.4935 11.4616 21.3429 11.4616 21.3429L11.2865 21.466L11.3143 21.6765C11.3143 21.6765 11.1322 22.7281 11.7261 23.1605C12.32 23.5928 12.9726 22.3854 13.2942 22.523C13.6158 22.6605 13.6891 22.4941 13.6891 22.4941C13.6891 22.4941 13.7624 22.3277 13.4408 22.1901C13.1191 22.0526 13.5703 20.7579 12.8437 20.6257Z" fill="#838383"/>
<path d="M13.6654 22.196C13.785 22.2469 13.8398 22.3837 13.7881 22.5022C13.7364 22.62 13.5976 22.674 13.478 22.6231C13.3585 22.5722 13.3037 22.4354 13.3554 22.3176C13.4071 22.1991 13.5459 22.1451 13.6654 22.196Z" fill="#090A08"/>
<path d="M23.08 37.6392L23.0391 37.9477L20.3468 39.0153L19.0797 39.5175L15.7773 40.829C15.7526 40.7408 15.728 40.6519 15.7048 40.5653L17.7339 39.7599L18.9995 39.2576L23.08 37.6392Z" fill="#B7B7B7"/>
<path d="M22.9596 38.5472L22.9218 38.8291L19.0804 39.5183L17.7346 39.7606L15.5929 40.1444C15.5682 40.0547 15.5451 39.9666 15.522 39.8815L19.0009 39.2576L20.3483 39.0152L22.9596 38.5472Z" fill="#B7B7B7"/>
<path d="M18.4705 52.8981C17.8859 53.2088 17.3229 53.5082 17.309 54.2232C17.3013 54.6107 17.4578 54.882 17.6977 55.1008L18.3286 55.0902C17.9113 54.8607 17.525 54.5948 17.5296 54.2194C17.535 53.7817 18.0718 53.493 18.5384 53.2423C19.1184 52.9307 19.656 52.6412 19.6213 51.9908C19.5882 51.3663 19.0529 51.1208 18.496 50.8655C18.0625 50.6672 17.5782 50.4453 17.5828 50.0996C17.5874 49.7622 18.0587 49.5389 18.469 49.3443C18.9804 49.102 19.4555 48.8763 19.4285 48.3695C19.4023 47.8801 18.9295 47.6887 18.4359 47.4888C18.051 47.3331 17.6206 47.1583 17.6244 46.8855C17.6275 46.6181 18.0479 46.4395 18.4142 46.2837C18.8716 46.0892 19.2974 45.9084 19.2758 45.5019C19.255 45.1083 18.8307 44.9548 18.388 44.7937C18.0425 44.6683 17.6545 44.5278 17.6576 44.3059C17.6607 44.0886 18.0394 43.9427 18.3703 43.8151C18.7837 43.6555 19.1693 43.5073 19.1516 43.1745C19.1346 42.8516 18.7505 42.7255 18.3487 42.5933C18.0347 42.4899 17.6823 42.3744 17.6846 42.1913C17.6869 42.0112 18.0324 41.8896 18.334 41.7833C18.7112 41.6503 19.0637 41.5265 19.049 41.2484C19.0344 40.9779 18.6834 40.873 18.3155 40.7628C18.0278 40.6762 17.7047 40.5797 17.707 40.4255C17.7093 40.2735 18.0263 40.1709 18.3032 40.0805C18.6503 39.968 18.975 39.8624 18.9619 39.6269C18.9603 39.5927 18.931 39.5661 18.8963 39.5668C18.8624 39.5676 18.8353 39.595 18.8369 39.6292C18.8438 39.7712 18.5369 39.87 18.2638 39.9581C17.9152 40.0706 17.5812 40.1785 17.5766 40.427C17.5712 40.6823 17.9129 40.7856 18.2785 40.8958C18.5708 40.9839 18.9048 41.085 18.9125 41.2499C18.9202 41.4178 18.587 41.5341 18.2901 41.6374C17.9106 41.7704 17.5473 41.8972 17.5419 42.1921C17.5358 42.496 17.9083 42.6191 18.3078 42.7513C18.6271 42.8569 18.9927 42.9785 19.002 43.1753C19.0112 43.3759 18.6472 43.5157 18.3217 43.6395C17.9052 43.7983 17.5072 43.9503 17.5003 44.3067C17.4933 44.6737 17.9029 44.8241 18.3433 44.9852C18.6958 45.1144 19.0992 45.2625 19.1107 45.5026C19.1223 45.7481 18.7197 45.9175 18.3602 46.0687C17.8998 46.2625 17.4586 46.4486 17.4501 46.8863C17.4409 47.3391 17.8967 47.5261 18.3865 47.7259C18.7791 47.887 19.2303 48.0716 19.2441 48.3702C19.258 48.6757 18.8099 48.8869 18.4081 49.0754C17.8928 49.3177 17.3985 49.5495 17.3877 50.1011C17.3761 50.674 17.889 50.9119 18.4412 51.1679C18.8847 51.3731 19.3953 51.6101 19.4131 51.9923C19.4331 52.3859 18.9256 52.6557 18.4705 52.8981Z" fill="#B7B7B7"/>
<path d="M18.7962 40.8798C19.0392 40.9687 19.323 41.0721 19.3485 41.2727C19.3755 41.4831 19.1047 41.6511 18.8579 41.8038C18.5347 42.0044 18.217 42.2012 18.2155 42.6328C18.2139 43.1054 18.5733 43.2832 18.9698 43.48C19.2952 43.6411 19.677 43.8303 19.7226 44.1881C19.7711 44.5696 19.4125 44.8712 19.0808 45.1486C18.7391 45.435 18.3998 45.7207 18.264 46.2222L18.5185 46.207C18.6697 45.9358 18.9258 45.7139 19.1541 45.5156C19.5806 45.1463 19.964 44.815 19.873 44.1737C19.7912 43.597 19.3948 43.4063 18.9914 43.2118C18.6844 43.0636 18.3473 42.9018 18.3443 42.6206C18.3419 42.3547 18.6458 42.1617 18.9057 41.9976C19.222 41.797 19.5104 41.6146 19.4603 41.2628C19.414 40.9383 19.1194 40.8327 18.8155 40.7248C18.5826 40.642 18.3249 40.5501 18.3234 40.3829C18.3219 40.2226 18.5602 40.1025 18.7646 39.9992C19.016 39.8715 19.2466 39.7553 19.215 39.5334C19.2104 39.5023 19.1873 39.4787 19.1626 39.481C19.1379 39.4833 19.1217 39.5099 19.1256 39.541C19.1426 39.674 18.9258 39.7819 18.7291 39.8799C18.4738 40.0068 18.2247 40.1314 18.2239 40.392C18.2232 40.6701 18.497 40.7704 18.7962 40.8798Z" fill="#B7B7B7"/>
</svg>
