<svg width="70" height="110" viewBox="0 0 89 131" fill="none" xmlns="http://www.w3.org/2000/svg">
<path d="M9.04946 17.6724L0 71.2372L24.3487 80.6036L43.4464 81.8753L73.8459 80.7246L56.9175 20.5916L9.04946 17.6724Z" fill="#D1D3E8"/>
<path d="M70.3428 8.33154L16.2449 26.1052L21.8154 51.5924L31.2587 68.2442L52.5546 90.7959L71.6054 62.8917L70.3428 8.33154Z" fill="#D1D3E8"/>
<path d="M78.3662 26.3306C78.3662 26.3306 74.0979 18.2792 64.6132 20.8155C55.1284 23.3517 46.6028 36.9398 52.7965 45.8239C58.9921 54.7062 74.2045 45.0652 75.7471 43.8296C79.7498 40.6286 82.5604 33.5329 78.3662 26.3306Z" fill="#B7B7B7"/>
<path d="M72.3592 28.2255C72.2544 27.9997 71.9872 27.9004 71.7596 28.0051C71.6801 28.0413 63.7758 31.7698 56.5868 40.6322C52.3656 45.8348 49.2082 51.7671 47.1978 58.2649C45.5017 63.7493 44.6293 69.6474 44.5806 75.8814L45.4909 75.7098C45.6841 59.2657 51.7351 48.0585 57.2605 41.2356C64.3177 32.5213 72.063 28.8614 72.1388 28.8253C72.3664 28.7205 72.464 28.4513 72.3592 28.2255Z" fill="#4F5261"/>
<path d="M54.7997 43.4702C54.7076 43.407 54.6389 43.3094 54.6136 43.1956L53.7177 39.142C53.6635 38.8981 53.817 38.6578 54.0609 38.6037C54.3048 38.5495 54.545 38.703 54.5992 38.9469L55.4302 42.7079L61.9767 43.911C62.2224 43.9561 62.3849 44.191 62.3398 44.4367C62.2946 44.6823 62.0598 44.8431 61.8142 44.7998L54.9731 43.5425C54.9098 43.5298 54.8503 43.5045 54.7997 43.4702Z" fill="#4F5261"/>
<path d="M66.5135 32.3747C66.4177 32.3097 66.3491 32.2067 66.3256 32.0857L65.3013 26.6645C65.2543 26.4188 65.4169 26.184 65.6607 26.1371C65.9046 26.0901 66.1412 26.2508 66.1882 26.4965L67.1457 31.5618L72.1459 31.737C72.3952 31.7461 72.5903 31.9556 72.5812 32.2031C72.5722 32.4524 72.3627 32.6475 72.1134 32.6385L66.7518 32.4506C66.6651 32.4506 66.5821 32.4217 66.5135 32.3747Z" fill="#4F5261"/>
<path d="M60.1106 37.6281C60.0148 37.563 59.9462 37.4601 59.9227 37.339L58.8985 31.9179C58.8516 31.674 59.0123 31.4374 59.258 31.3904C59.5036 31.3434 59.7385 31.506 59.7854 31.7499L60.7429 36.8152L65.7432 36.9904C65.9925 36.9994 66.1875 37.209 66.1785 37.4565C66.1694 37.7058 65.9599 37.9008 65.7124 37.8918L60.3508 37.704C60.2623 37.704 60.1792 37.6769 60.1106 37.6281Z" fill="#4F5261"/>
<path d="M71.942 28.7474C71.8011 28.6517 71.7234 28.4801 71.7523 28.303L72.6302 22.8783C72.6699 22.6326 72.9012 22.4646 73.1469 22.5044C73.3925 22.5441 73.5606 22.7753 73.5209 23.021L72.7062 28.052L75.9632 28.9967C76.2034 29.0654 76.3407 29.3165 76.2702 29.5549C76.1998 29.7934 75.9505 29.9325 75.7102 29.862L72.0684 28.8052C72.0251 28.7944 71.9817 28.7727 71.942 28.7474Z" fill="#4F5261"/>
<path d="M59.7594 72.7617C59.6889 72.6877 59.6095 72.6226 59.5192 72.5703C59.5119 72.5323 59.5047 72.4944 59.4974 72.4547C58.4263 67.0588 51.3982 45.9667 49.7581 42.9445C49.749 42.6501 49.2342 41.1074 48.7068 41.0784C47.2292 38.5494 43.7016 33.2529 43.7179 33.0488C43.7631 32.4635 42.4282 31.9234 42.2855 31.9776C40.4882 29.8532 38.5013 27.7902 36.2994 25.7995C36.2958 25.6496 35.7468 24.3092 35.1724 24.3399C35.0225 24.3471 26.1825 17.9559 20.78 15.1324C20.5433 14.8217 20.3085 14.5074 20.0664 14.2021C19.7052 13.7415 19.0369 13.662 18.5763 14.0233C18.1157 14.3864 18.0345 15.0529 18.3975 15.5136C18.4373 15.5642 18.4752 15.6166 18.5149 15.6671C18.1844 17.4808 17.6605 20.8264 17.3354 25.2522C17.2433 25.3154 17.1566 25.3894 17.0861 25.4852C16.7538 25.9278 16.8242 26.542 17.227 26.9069C17.0247 30.3843 18.2566 50.089 19.3078 54.9231C19.1958 54.9971 18.8021 56.352 19.2844 56.6862C19.3331 56.7205 19.5101 56.8397 19.7883 57.0186C20.9028 61.6178 22.4237 66.3362 24.472 71.0366C25.7057 73.8655 26.9538 76.4198 28.2037 78.7321L59.7594 72.7617Z" fill="white"/>
<path d="M82.6171 49.0001C82.6171 49.0001 78.3615 40.9434 68.8714 43.467C59.383 45.9906 50.8375 59.566 57.0203 68.4592C63.2032 77.3505 78.4284 67.7294 79.9727 66.4974C83.9827 63.2982 86.8022 56.206 82.6171 49.0001Z" fill="#4F5261"/>
<path d="M49.4344 108.01C49.3315 107.937 49.2574 107.824 49.2412 107.688C48.152 98.0146 48.8781 88.9986 51.3997 80.8895C53.4191 74.3953 56.5855 68.4665 60.8122 63.2712C68.0138 54.4196 75.9235 50.7019 76.003 50.6658C76.2288 50.561 76.4961 50.6604 76.6009 50.8862C76.7056 51.112 76.6063 51.3811 76.3805 51.4841C76.3028 51.5202 68.5539 55.1675 61.4841 63.8727C54.9671 71.8988 47.7077 85.9981 50.1371 107.587C50.1642 107.834 49.9871 108.058 49.7397 108.086C49.6295 108.1 49.5211 108.069 49.4344 108.01Z" fill="#B7B7B7"/>
<path d="M59.021 66.1054C58.9289 66.0422 58.8602 65.9446 58.8368 65.8308L57.9461 61.7771C57.8919 61.5333 58.0473 61.293 58.2893 61.2388C58.5332 61.1846 58.7735 61.34 58.8277 61.5821L59.6532 65.3449L66.1979 66.557C66.4436 66.6022 66.6044 66.837 66.5593 67.0827C66.5141 67.3284 66.2792 67.4891 66.0335 67.444L59.1944 66.1776C59.1312 66.165 59.0716 66.1415 59.021 66.1054Z" fill="#B7B7B7"/>
<path d="M70.7518 55.0285C70.656 54.9634 70.5874 54.8605 70.5639 54.7394L69.5469 49.3183C69.5017 49.0726 69.6625 48.8378 69.9082 48.7908C70.1521 48.7438 70.3887 48.9064 70.4357 49.1503L71.3859 54.2174L76.3861 54.3998C76.6354 54.4088 76.8305 54.6184 76.8197 54.8677C76.8106 55.117 76.6011 55.3121 76.3518 55.303L70.9903 55.1079C70.9036 55.1043 70.8204 55.0754 70.7518 55.0285Z" fill="#B7B7B7"/>
<path d="M64.3441 60.2721C64.2483 60.2071 64.1797 60.1041 64.1562 59.9831L63.1392 54.5619C63.094 54.3163 63.2548 54.0814 63.5005 54.0345C63.7462 53.9893 63.981 54.1501 64.028 54.3957L64.9782 59.4628L69.9784 59.6453C70.2277 59.6543 70.421 59.8639 70.4119 60.1132C70.4029 60.3624 70.1934 60.5575 69.9441 60.5485L64.5826 60.3534C64.494 60.348 64.4127 60.3191 64.3441 60.2721Z" fill="#B7B7B7"/>
<path d="M76.1864 51.4064C76.0455 51.3107 75.9678 51.1391 75.9967 50.962L76.8819 45.5391C76.9216 45.2934 77.1546 45.1254 77.4003 45.167C77.646 45.2067 77.814 45.4397 77.7724 45.6854L76.9504 50.7146L80.2075 51.6648C80.446 51.7334 80.5851 51.9845 80.5146 52.2247C80.4441 52.465 80.1949 52.6023 79.9546 52.5318L76.3146 51.4697C76.2676 51.4552 76.2243 51.4335 76.1864 51.4064Z" fill="#B7B7B7"/>
<path d="M32.6 77.1536C24.1376 59.958 16.3995 44.4479 10.8036 33.2913H10.3918C15.8233 44.5436 23.4223 60.2056 31.9263 77.486C32.9612 79.5887 33.9854 81.6662 34.9951 83.7147L35.6616 83.3877C34.6555 81.3356 33.635 79.2563 32.6 77.1536Z" fill="#4F5261"/>
<path d="M11.1655 28.6377C12.2006 30.688 12.2241 32.984 11.4275 34.9585C9.36451 34.4274 7.53464 33.0418 6.49955 30.9897C5.46445 28.9394 5.44089 26.6434 6.23934 24.6689C8.3005 25.2037 10.1304 26.5874 11.1655 28.6377Z" fill="#4F5261"/>
<path d="M11.5259 38.0509C13.5617 39.1149 14.9184 40.9665 15.4206 43.0367C13.4353 43.8062 11.1393 43.7466 9.1034 42.6826C7.06753 41.6186 5.71084 39.767 5.21045 37.6968C7.19574 36.9291 9.49179 36.9869 11.5259 38.0509Z" fill="#4F5261"/>
<path d="M19.2023 37.6608C18.7778 39.9189 17.4048 41.7578 15.5713 42.8417C14.2562 41.1671 13.642 38.9542 14.0665 36.6962C14.491 34.4381 15.8639 32.5992 17.6993 31.5171C19.0125 33.1935 19.6268 35.4046 19.2023 37.6608Z" fill="#4F5261"/>
<path d="M16.8172 48.5394C18.8531 49.6034 20.2098 51.455 20.712 53.5252C18.7267 54.2947 16.4307 54.2351 14.3948 53.1711C12.3589 52.1071 11.0023 50.2555 10.502 48.1853C12.4872 47.4158 14.7814 47.4754 16.8172 48.5394Z" fill="#4F5261"/>
<path d="M24.4917 48.1471C24.0672 50.4052 22.6943 52.2442 20.8607 53.3281C19.5457 51.6535 18.9316 49.4406 19.3561 47.1825C19.7806 44.9245 21.1535 43.0855 22.9888 42.0034C24.3021 43.6798 24.9162 45.8909 24.4917 48.1471Z" fill="#4F5261"/>
<path d="M22.1029 59.0256C24.1388 60.0896 25.4954 61.9412 25.9976 64.0096C24.0123 64.7791 21.7163 64.7195 19.6804 63.6555C17.6446 62.5915 16.288 60.7399 15.7876 58.6697C17.7747 57.9019 20.0688 57.9616 22.1029 59.0256Z" fill="#B7B7B7"/>
<path d="M29.7775 58.6354C29.353 60.8935 27.98 62.7325 26.1465 63.8163C24.8314 62.1418 24.2172 59.9289 24.6417 57.6708C25.0662 55.4127 26.441 53.5738 28.2746 52.4917C29.5897 54.1663 30.202 56.3774 29.7775 58.6354Z" fill="#B7B7B7"/>
<path d="M45.7917 10.0186H45.575C45.6075 22.2103 45.705 43.7449 45.994 68.2765C46.0211 70.6213 46.05 72.9372 46.0807 75.2205L46.8232 75.2115C46.7997 72.9281 46.7726 70.6122 46.7455 68.2675C46.4565 43.7359 46.0464 22.2067 45.7917 10.0186Z" fill="#B7B7B7"/>
<path d="M48.2197 5.70295C48.2685 7.99895 47.302 10.0818 45.7322 11.5197C44.0992 10.1522 43.0442 8.11278 42.9954 5.81497C42.9466 3.51898 43.9131 1.43613 45.4847 0C47.1159 1.36748 48.1709 3.40696 48.2197 5.70295Z" fill="#B7B7B7"/>
<path d="M44.2017 13.6335C45.5801 15.4725 46.0065 17.7269 45.5675 19.8116C43.4431 19.6508 41.3981 18.6067 40.0198 16.7695C38.6415 14.9324 38.2152 12.6761 38.6542 10.5933C40.7785 10.754 42.8234 11.7964 44.2017 13.6335Z" fill="#B7B7B7"/>
<path d="M51.2965 16.5888C49.9416 18.4441 47.9094 19.5099 45.7868 19.6978C45.3208 17.6203 45.7218 15.3587 47.0766 13.5034C48.4314 11.6482 50.4637 10.5824 52.5863 10.3945C53.0523 12.4756 52.6531 14.7354 51.2965 16.5888Z" fill="#505050"/>
<path d="M46.0791 31.8945L45.7974 31.8728C43.5033 31.6994 41.3969 30.5433 40.0168 28.7025C38.6367 26.8635 38.1182 24.517 38.5951 22.2661L38.6529 21.9897L38.9347 22.0114C41.2289 22.1866 43.3352 23.3428 44.7135 25.1817C46.0918 27.0207 46.6121 29.3673 46.137 31.6181L46.0791 31.8945ZM39.1696 22.6816C38.8318 24.6633 39.3194 26.701 40.5316 28.3159C41.7419 29.9309 43.5628 30.9714 45.559 31.2026C45.8968 29.221 45.4072 27.1815 44.1968 25.5683C42.9865 23.9552 41.1675 22.9128 39.1696 22.6816Z" fill="#505050"/>
<path d="M51.5505 28.3303C50.1956 30.1855 48.1633 31.2513 46.0407 31.4392C45.5746 29.3618 45.9758 27.1001 47.3306 25.2449C48.6854 23.3897 50.7177 22.3239 52.8402 22.136C53.3063 24.217 52.9053 26.4769 51.5505 28.3303Z" fill="#505050"/>
<path d="M44.7075 37.117C46.0859 38.9542 46.5122 41.2104 46.0751 43.2933C43.9507 43.1325 41.9057 42.0901 40.5274 40.2512C39.149 38.414 38.7228 36.1578 39.1617 34.075C41.2843 34.2375 43.3292 35.2798 44.7075 37.117Z" fill="#B7B7B7"/>
<path d="M51.8021 40.0742C50.4472 41.9294 48.4132 42.9952 46.2924 43.1831C45.8264 41.1057 46.2274 38.844 47.5822 36.9888C48.9371 35.1335 50.9693 34.0678 53.0919 33.8799C53.5579 35.9591 53.1569 38.219 51.8021 40.0742Z" fill="#505050"/>
<path d="M44.9613 48.8589C46.3397 50.6961 46.766 52.9524 46.327 55.0352C44.2026 54.8744 42.1577 53.8321 40.7794 51.9931C39.4011 50.156 38.9747 47.8997 39.4137 45.8169C41.538 45.9795 43.583 47.0218 44.9613 48.8589Z" fill="#B7B7B7"/>
<path d="M46.2931 55.2719L46.2316 54.9955C45.7276 52.7501 46.219 50.3981 47.5757 48.5411C48.9323 46.6841 51.026 45.5045 53.3165 45.3021L53.5983 45.2769L53.6598 45.5532C54.162 47.7987 53.6706 50.1506 52.314 52.0059C50.9573 53.8611 48.8655 55.0425 46.5731 55.2466L46.2931 55.2719ZM53.089 45.9759C51.0946 46.2306 49.2882 47.2928 48.0977 48.9223C46.9073 50.5517 46.4412 52.5966 46.8043 54.5746C48.7986 54.3181 50.6051 53.2559 51.7955 51.6265C52.986 49.9971 53.4503 47.954 53.089 45.9759Z" fill="#4F5261"/>
<path d="M46.3065 106.853C46.274 106.858 46.2415 106.862 46.2072 106.862C45.9363 106.858 45.7195 106.636 45.7231 106.365C45.7249 106.275 45.8207 97.1395 43.3028 82.3122C40.9781 68.6302 35.8879 47.1641 24.839 22.6036C24.727 22.3562 24.8372 22.0653 25.0847 21.9551C25.334 21.8449 25.6229 21.9533 25.7331 22.2008C30.6335 33.0937 34.7862 44.2937 38.0736 55.4919C40.7035 64.4518 42.7916 73.4299 44.2764 82.1785C46.8051 97.0853 46.7076 106.287 46.7057 106.378C46.7021 106.614 46.5305 106.809 46.3065 106.853Z" fill="#B7B7B7"/>
<path d="M27.6065 19.504C27.9768 21.4622 26.6906 23.3499 24.7324 23.7202C22.7742 24.0906 20.8865 22.8044 20.5162 20.8462C20.1459 18.888 21.4321 17.0003 23.3902 16.6299C25.3484 16.2596 27.2343 17.5458 27.6065 19.504Z" fill="#B7B7B7"/>
<path d="M85.2249 25.854C85.0587 25.6408 84.7499 25.6028 84.5367 25.769C84.4645 25.825 77.2231 31.5045 67.1784 42.8039C61.2828 49.4353 55.5839 56.6792 50.241 64.3367C45.8409 70.6412 41.6774 77.2402 37.7939 84.0505L39.0655 83.8102C49.5058 65.6572 60.2062 52.1251 67.8901 43.4795C77.8806 32.2379 85.0678 26.6 85.1382 26.544C85.3532 26.376 85.391 26.0671 85.2249 25.854Z" fill="#B7B7B7"/>
<path d="M88.971 25.5358C88.7217 27.512 86.9171 28.9139 84.9391 28.6646C82.9628 28.4153 81.561 26.6106 81.8121 24.6326C82.0613 22.6563 83.866 21.2545 85.844 21.5038C87.8203 21.7531 89.2203 23.5577 88.971 25.5358Z" fill="#D1D3E8"/>
<path d="M29.3008 35.1138H29.0605C31.026 41.4002 33.8132 50.2825 37.2112 61.0291L37.867 60.9044C34.3318 50.2067 31.3909 41.3731 29.3008 35.1138Z" fill="#505050"/>
<path d="M30.0898 29.9764C30.8232 32.1532 30.5234 34.4293 29.4539 36.2701C27.4867 35.4518 25.8718 33.8223 25.1384 31.6438C24.405 29.467 24.7048 27.1909 25.776 25.3501C27.7414 26.1702 29.3564 27.7996 30.0898 29.9764Z" fill="#505050"/>
<path d="M29.1132 39.3465C30.9775 40.6887 32.0595 42.7137 32.2636 44.8327C30.1898 45.3132 27.9246 44.9302 26.0603 43.588C24.1961 42.2458 23.1139 40.2208 22.9116 38.1019C24.9872 37.6213 27.249 38.0043 29.1132 39.3465Z" fill="#505050"/>
<path d="M36.7692 40.0474C36.0303 42.2224 34.4081 43.8482 32.4409 44.6611C31.3751 42.8167 31.0824 40.5406 31.8213 38.3638C32.5601 36.1888 34.1823 34.563 36.1495 33.752C37.2153 35.5981 37.508 37.8743 36.7692 40.0474Z" fill="#505050"/>
<path d="M34.2845 56.4824C32.6262 56.4824 30.9931 55.9658 29.622 54.9777C27.756 53.6337 26.56 51.5508 26.3415 49.2602L26.3145 48.9784L26.589 48.9152C28.8308 48.3968 31.1864 48.87 33.0525 50.214C34.9185 51.558 36.1144 53.6409 36.3348 55.9315L36.3619 56.2133L36.0873 56.2765C35.4894 56.4156 34.8842 56.4824 34.2845 56.4824ZM27.0154 49.486C27.2845 51.4785 28.3612 53.2778 29.9978 54.4556C31.6363 55.6352 33.6847 56.085 35.6592 55.7074C35.3882 53.7149 34.3116 51.9157 32.675 50.7379C31.0383 49.5601 28.9898 49.1103 27.0154 49.486Z" fill="#87736D"/>
<path d="M40.5199 51.1787C39.7811 53.3537 38.1589 54.9795 36.1916 55.7924C35.1258 53.948 34.8332 51.6719 35.572 49.4969C36.3108 47.3219 37.933 45.6961 39.9002 44.885C40.9661 46.7276 41.2587 49.0037 40.5199 51.1787Z" fill="#505050"/>
<path d="M69.9839 68.0181L54.6432 85.0185L54.0561 89.4859L53.9604 90.2193L53.7726 91.6446L53.6841 92.3148L50.9331 113.264L42.44 117.538C42.44 117.538 39.1435 105.31 36.9543 97.0694C36.8965 96.8599 36.8387 96.6485 36.7845 96.4425C36.696 96.0993 36.6057 95.7633 36.519 95.44C36.4612 95.2268 36.4071 95.0172 36.3529 94.8149C36.0476 93.6498 35.7767 92.6237 35.5635 91.8072C31.4741 83.8823 26.5899 79.984 26.1492 79.2343L37.3716 72.8431L53.2885 63.502L69.9839 68.0181Z" fill="#D1D3E8"/>
<path d="M54.2699 90.7683C54.2699 90.7683 37.4626 87.421 34.2908 74.7794C31.1172 62.1379 41.1383 58.4961 41.1383 58.4961L54.2699 90.7683Z" fill="#B7B7B7"/>
<path d="M54.2192 90.6474C54.2192 90.6474 63.5902 76.2988 56.7805 65.1855C49.9709 54.0722 40.3579 58.6823 40.3579 58.6823L54.2192 90.6474Z" fill="#B7B7B7"/>
<path d="M42.6349 77.6826C44.445 75.094 45.7601 72.8901 45.7601 72.8901C45.7601 72.8901 44.1396 74.8808 42.3278 77.4695C40.5177 80.0581 39.2026 82.262 39.2026 82.262C39.2026 82.262 40.8231 80.2695 42.6349 77.6826Z" fill="#B7B7B7"/>
<path d="M40.9773 75.2002C43.0005 72.3099 44.4855 69.8604 44.4855 69.8604C44.4855 69.8604 42.6935 72.0967 40.6703 74.987C38.647 77.8774 37.1621 80.3269 37.1621 80.3269C37.1621 80.3269 38.9559 78.0905 40.9773 75.2002Z" fill="#B7B7B7"/>
<path d="M39.623 72.2866C41.6914 69.3313 43.2143 66.8293 43.2143 66.8293C43.2143 66.8293 41.3843 69.1181 39.3177 72.0735C37.2512 75.0288 35.7266 77.5307 35.7266 77.5307C35.7266 77.5307 37.5565 75.242 39.623 72.2866Z" fill="#B7B7B7"/>
<path d="M38.4628 69.0963C40.4679 66.2295 41.9419 63.7998 41.9419 63.7998C41.9419 63.7998 40.1626 66.0163 38.1575 68.8831C36.1523 71.75 34.6782 74.1797 34.6782 74.1797C34.6782 74.1797 36.4558 71.9631 38.4628 69.0963Z" fill="#B7B7B7"/>
<path d="M37.6401 65.4221C39.396 62.9111 40.6676 60.7705 40.6676 60.7705C40.6676 60.7705 39.0906 62.698 37.3348 65.209C35.5789 67.7199 34.3071 69.8606 34.3071 69.8606C34.3071 69.8606 35.8842 67.9313 37.6401 65.4221Z" fill="#B7B7B7"/>
<path d="M44.363 80.0616C45.922 77.8325 47.0329 75.9194 47.0329 75.9194C47.0329 75.9194 45.6167 77.6193 44.056 79.8484C42.497 82.0776 41.386 83.9906 41.386 83.9906C41.386 83.9906 42.8041 82.2908 44.363 80.0616Z" fill="#B7B7B7"/>
<path d="M46.3182 82.1174C47.5014 80.4265 48.3071 78.9507 48.3071 78.9507C48.3071 78.9507 47.1961 80.2134 46.0128 81.9042C44.8296 83.595 44.0239 85.0727 44.0239 85.0727C44.0239 85.0727 45.1349 83.8082 46.3182 82.1174Z" fill="#B7B7B7"/>
<path d="M48.165 84.3283C49.0303 83.0909 49.5795 81.98 49.5795 81.98C49.5795 81.98 48.725 82.876 47.8597 84.1134C46.9944 85.3508 46.4453 86.4618 46.4453 86.4618C46.4453 86.4618 47.2997 85.5658 48.165 84.3283Z" fill="#B7B7B7"/>
<path d="M50.027 86.5141C50.5672 85.7427 50.8509 85.0093 50.8509 85.0093C50.8509 85.0093 50.2601 85.5278 49.72 86.2991C49.1798 87.0705 48.8962 87.8039 48.8962 87.8039C48.8962 87.8039 49.4869 87.2872 50.027 86.5141Z" fill="#B7B7B7"/>
<path d="M52.576 73.5041C49.4602 72.9857 46.9658 72.3823 46.9658 72.3823C46.9658 72.3823 49.5216 72.6172 52.6374 73.1356C55.7533 73.6541 58.2478 74.2574 58.2478 74.2574C58.2478 74.2574 55.6919 74.0208 52.576 73.5041Z" fill="#B7B7B7"/>
<path d="M51.9642 70.5827C48.4853 70.0047 45.6946 69.3525 45.6946 69.3525C45.6946 69.3525 48.5449 69.638 52.0256 70.216C55.5045 70.7941 58.2952 71.4462 58.2952 71.4462C58.2952 71.4462 55.4431 71.1608 51.9642 70.5827Z" fill="#B7B7B7"/>
<path d="M50.8318 67.5769C47.2752 66.9862 44.4214 66.3232 44.4214 66.3232C44.4214 66.3232 47.3366 66.6177 50.8932 67.2084C54.4497 67.7991 57.3037 68.4639 57.3037 68.4639C57.3037 68.4639 54.3883 68.1676 50.8318 67.5769Z" fill="#B7B7B7"/>
<path d="M49.3657 64.5135C45.9157 63.9408 43.1484 63.2905 43.1484 63.2905C43.1484 63.2905 45.9753 63.5705 49.4271 64.145C52.8771 64.7176 55.6442 65.3679 55.6442 65.3679C55.6442 65.3679 52.8157 65.0879 49.3657 64.5135Z" fill="#B7B7B7"/>
<path d="M47.3158 61.3556C44.2939 60.8534 41.8752 60.2627 41.8752 60.2627C41.8752 60.2627 44.3553 60.4849 47.3772 60.9871C50.3991 61.4893 52.8195 62.08 52.8195 62.08C52.8195 62.08 50.3377 61.8578 47.3158 61.3556Z" fill="#B7B7B7"/>
<path d="M53.0677 76.4034C50.3851 75.9572 48.239 75.4116 48.239 75.4116C48.239 75.4116 50.4447 75.5887 53.1273 76.0348C55.8098 76.481 57.9559 77.0266 57.9559 77.0266C57.9559 77.0266 55.7503 76.8496 53.0677 76.4034Z" fill="#B7B7B7"/>
<path d="M53.1667 79.2395C51.1326 78.9017 49.5122 78.4429 49.5122 78.4429C49.5122 78.4429 51.1922 78.5332 53.2281 78.871C55.264 79.2088 56.8825 79.6676 56.8825 79.6676C56.8825 79.6676 55.2007 79.5773 53.1667 79.2395Z" fill="#B7B7B7"/>
<path d="M53.4555 82.1044C51.9651 81.857 50.7874 81.4722 50.7874 81.4722C50.7874 81.4722 52.0266 81.4884 53.5151 81.7359C55.0054 81.9834 56.1832 82.3682 56.1832 82.3682C56.1832 82.3682 54.944 82.3537 53.4555 82.1044Z" fill="#B7B7B7"/>
<path d="M53.7116 84.9657C52.7831 84.8104 52.0605 84.5015 52.0605 84.5015C52.0605 84.5015 52.8445 84.4418 53.7731 84.5972C54.7016 84.7525 55.4242 85.0615 55.4242 85.0615C55.4242 85.0615 54.6402 85.1211 53.7116 84.9657Z" fill="#B7B7B7"/>
<path d="M40.0044 58.1223C47.9845 76.9582 53.9778 90.7486 53.9778 90.7486C53.9778 90.7486 48.3242 76.8227 40.4578 57.9453C40.3097 58.0122 40.1579 58.0699 40.0044 58.1223Z" fill="#B7B7B7"/>
<path d="M2.83667 60.1745C2.83667 60.1745 12.3232 45.9017 25.2218 47.7732C38.1204 49.6447 37.6761 60.2991 37.6761 60.2991L2.83667 60.1745Z" fill="white"/>
<path d="M2.96558 60.1726C2.96558 60.1726 12.6725 74.2972 25.5386 72.2252C38.4065 70.1532 37.7978 59.5078 37.7978 59.5078L2.96558 60.1726Z" fill="white"/>
<path d="M19.3629 54.3885C21.0682 57.0476 22.6074 59.1015 22.6074 59.1015C22.6074 59.1015 21.3826 56.8452 19.6773 54.1862C17.972 51.5271 16.4329 49.4731 16.4329 49.4731C16.4329 49.4731 17.6576 51.7294 19.3629 54.3885Z" fill="white"/>
<path d="M22.2882 53.7994C24.1922 56.7692 25.8938 59.0761 25.8938 59.0761C25.8938 59.0761 24.5084 56.5687 22.6026 53.5989C20.6986 50.6291 18.9968 48.3223 18.9968 48.3223C18.9968 48.3223 20.3842 50.8296 22.2882 53.7994Z" fill="white"/>
<path d="M25.4983 53.6548C27.4457 56.6915 29.1817 59.0507 29.1817 59.0507C29.1817 59.0507 27.76 56.4892 25.8145 53.4525C23.8671 50.4159 22.1311 48.0566 22.1311 48.0566C22.1311 48.0566 23.551 50.6182 25.4983 53.6548Z" fill="white"/>
<path d="M28.8908 53.7938C30.7785 56.7383 32.4677 59.0253 32.4677 59.0253C32.4677 59.0253 31.0947 56.5378 29.2052 53.5933C27.3174 50.6488 25.6284 48.3618 25.6284 48.3618C25.6284 48.3618 27.0031 50.8493 28.8908 53.7938Z" fill="white"/>
<path d="M32.6004 54.43C34.2533 57.0096 35.7526 58.9985 35.7526 58.9985C35.7526 58.9985 34.5694 56.8073 32.9147 54.2277C31.26 51.6481 29.7625 49.6592 29.7625 49.6592C29.7625 49.6592 30.9456 51.8522 32.6004 54.43Z" fill="white"/>
<path d="M16.5056 55.0819C17.9743 57.3725 19.3219 59.1266 19.3219 59.1266C19.3219 59.1266 18.2886 57.1702 16.82 54.8796C15.3513 52.589 14.0037 50.835 14.0037 50.835C14.0037 50.835 15.0388 52.7913 16.5056 55.0819Z" fill="white"/>
<path d="M13.8591 56.1081C14.9718 57.8441 16.0322 59.152 16.0322 59.152C16.0322 59.152 15.2862 57.6436 14.1734 55.9076C13.0606 54.1716 12.0002 52.8638 12.0002 52.8638C12.0002 52.8638 12.7463 54.3721 13.8591 56.1081Z" fill="white"/>
<path d="M11.1139 56.9768C11.9286 58.2485 12.7469 59.1789 12.7469 59.1789C12.7469 59.1789 12.2429 58.048 11.4282 56.7763C10.6117 55.5046 9.79346 54.5742 9.79346 54.5742C9.79346 54.5742 10.2974 55.7051 11.1139 56.9768Z" fill="white"/>
<path d="M8.38235 57.8675C8.89177 58.6605 9.46078 59.2025 9.46078 59.2025C9.46078 59.2025 9.20611 58.46 8.6967 57.667C8.18728 56.874 7.61816 56.332 7.61816 56.332C7.61816 56.332 7.87474 57.0763 8.38235 57.8675Z" fill="white"/>
<path d="M19.4472 65.1748C21.111 62.4904 22.6176 60.4111 22.6176 60.4111C22.6176 60.4111 21.4271 62.6855 19.7633 65.3699C18.0996 68.0542 16.593 70.1316 16.593 70.1316C16.593 70.1316 17.7835 67.8591 19.4472 65.1748Z" fill="white"/>
<path d="M22.3809 65.7166C24.2397 62.7178 25.9035 60.3857 25.9035 60.3857C25.9035 60.3857 24.5559 62.9148 22.6989 65.9135C20.84 68.9122 19.1763 71.2443 19.1763 71.2443C19.1763 71.2443 20.5239 68.7153 22.3809 65.7166Z" fill="white"/>
<path d="M25.5913 65.8127C27.4916 62.7472 29.1897 60.3608 29.1897 60.3608C29.1897 60.3608 27.8078 62.9441 25.9092 66.0096C24.0089 69.0751 22.3108 71.4633 22.3108 71.4633C22.3108 71.4633 23.6927 68.8801 25.5913 65.8127Z" fill="white"/>
<path d="M28.9818 65.6211C30.8244 62.6477 32.4773 60.3354 32.4773 60.3354C32.4773 60.3354 31.1422 62.8446 29.2997 65.818C27.4571 68.7914 25.8042 71.1037 25.8042 71.1037C25.8042 71.1037 27.1392 68.5945 28.9818 65.6211Z" fill="white"/>
<path d="M32.6806 64.9273C34.2937 62.3224 35.7606 60.3101 35.7606 60.3101C35.7606 60.3101 34.6116 62.5194 32.9967 65.1243C31.3835 67.7292 29.9167 69.7415 29.9167 69.7415C29.9167 69.7415 31.0674 67.5304 32.6806 64.9273Z" fill="white"/>
<path d="M16.5794 64.5245C18.0119 62.2123 19.3324 60.4365 19.3324 60.4365C19.3324 60.4365 18.3299 62.4092 16.8974 64.7214C15.4649 67.0337 14.1443 68.8094 14.1443 68.8094C14.1443 68.8094 15.1469 66.8368 16.5794 64.5245Z" fill="white"/>
<path d="M13.9198 63.5403C15.0073 61.7862 16.046 60.4639 16.046 60.4639C16.046 60.4639 15.3234 61.9831 14.2378 63.7371C13.1503 65.4912 12.1116 66.8135 12.1116 66.8135C12.1116 66.8135 12.8341 65.2925 13.9198 63.5403Z" fill="white"/>
<path d="M11.156 62.7143C11.9508 61.4299 12.7546 60.4888 12.7546 60.4888C12.7546 60.4888 12.2687 61.6286 11.4721 62.9112C10.6754 64.1956 9.87158 65.1368 9.87158 65.1368C9.87158 65.1368 10.3611 63.9987 11.156 62.7143Z" fill="white"/>
<path d="M8.41345 61.8634C8.91022 61.0632 9.47026 60.5122 9.47026 60.5122C9.47026 60.5122 9.22633 61.2601 8.72955 62.0604C8.23278 62.8606 7.67285 63.4115 7.67285 63.4115C7.67285 63.4115 7.91667 62.6637 8.41345 61.8634Z" fill="white"/>
<path d="M38.4534 59.3921C17.9992 59.6107 2.96558 59.9105 2.96558 59.9105C2.96558 59.9105 17.9938 59.9774 38.4426 59.8798C38.439 59.7173 38.4426 59.5547 38.4534 59.3921Z" fill="white"/>
<path d="M54.045 74.3642C55.8008 73.1828 55.4144 70.1046 55.4144 70.1046L55.5209 69.4976L55.035 69.1183C55.035 69.1183 53.2665 66.5694 51.171 66.862C49.0755 67.1547 50.1973 70.9717 49.2597 71.3294C48.3222 71.6889 48.5118 72.182 48.5118 72.182C48.5118 72.182 48.7016 72.6752 49.6391 72.3157C50.5766 71.958 52.2909 75.5456 54.045 74.3642Z" fill="#83888E"/>
<path d="M50.9221 67.7943C49.9557 66.3599 47.4392 66.6761 47.4392 66.6761L46.9425 66.5894L46.6318 66.9868C46.6318 66.9868 44.5471 68.4338 44.7873 70.1463C45.0276 71.8588 48.1474 70.9429 48.44 71.7088C48.7327 72.4748 49.1373 72.3212 49.1373 72.3212C49.1373 72.3212 49.5402 72.1677 49.2476 71.3999C48.9549 70.6304 51.8886 69.2286 50.9221 67.7943Z" fill="#505050"/>
<path d="M47.1083 76.2017C48.0747 77.636 50.5911 77.3198 50.5911 77.3198L51.0879 77.4066L51.3986 77.0091C51.3986 77.0091 53.4832 75.5622 53.243 73.8496C53.0027 72.1371 49.883 73.053 49.5904 72.2871C49.2978 71.5211 48.893 71.6747 48.893 71.6747C48.893 71.6747 48.4902 71.8283 48.7829 72.596C49.0755 73.3637 46.1418 74.7673 47.1083 76.2017Z" fill="#505050"/>
<path d="M44.8012 70.0868C43.3669 71.0533 43.683 73.5696 43.683 73.5696L43.5945 74.0664L43.992 74.3771C43.992 74.3771 45.4389 76.4618 47.1514 76.2215C48.8639 75.9812 47.948 72.8615 48.7139 72.5689C49.4799 72.2744 49.3263 71.8716 49.3263 71.8716C49.3263 71.8716 49.171 71.4687 48.4051 71.7614C47.6392 72.054 46.2356 69.1204 44.8012 70.0868Z" fill="#83888E"/>
<path d="M48.7866 71.4071C49.072 71.2987 49.3918 71.4396 49.5002 71.725C49.6086 72.0105 49.4676 72.3302 49.1822 72.4386C48.8968 72.547 48.577 72.4043 48.4686 72.1207C48.3584 71.8352 48.5012 71.5155 48.7866 71.4071Z" fill="#505050"/>
<path d="M44.9944 60.8229C43.6649 62.4685 44.9403 65.2975 44.9403 65.2975L45.0162 65.9098L45.5924 66.1302C45.5924 66.1302 48.0329 68.0469 49.9495 67.1491C51.8661 66.2531 49.6713 62.9346 50.4625 62.3168C51.2537 61.6972 50.9268 61.2817 50.9268 61.2817C50.9268 61.2817 50.6017 60.8663 49.8105 61.4841C49.0192 62.1037 46.324 59.1772 44.9944 60.8229Z" fill="#090A08"/>
<path d="M49.912 66.1824C51.2578 67.2699 53.57 66.2276 53.57 66.2276L54.0704 66.1643L54.251 65.6929C54.251 65.6929 55.8172 63.6967 55.0838 62.1305C54.3504 60.5644 51.6389 62.3582 51.1331 61.7115C50.6273 61.0647 50.2859 61.3321 50.2859 61.3321C50.2859 61.3321 49.9462 61.5995 50.452 62.2444C50.9578 62.8929 48.5662 65.0968 49.912 66.1824Z" fill="#4F5261"/>
<path d="M51.0864 57.0256C49.7406 55.9381 47.4283 56.9804 47.4283 56.9804L46.928 57.0437L46.7474 57.5151C46.7474 57.5151 45.1811 59.5113 45.9145 61.0775C46.6479 62.6436 49.3594 60.8498 49.8652 61.4965C50.371 62.1432 50.7124 61.8759 50.7124 61.8759C50.7124 61.8759 51.0521 61.6103 50.5463 60.9636C50.0387 60.3151 52.4322 58.1131 51.0864 57.0256Z" fill="#4F5261"/>
<path d="M55.088 62.1921C56.1754 60.8463 55.1331 58.534 55.1331 58.534L55.0699 58.0336L54.5984 57.853C54.5984 57.853 52.6041 56.2868 51.0361 57.0202C49.4699 57.7536 51.2637 60.4651 50.6169 60.9709C49.9702 61.4767 50.2377 61.8182 50.2377 61.8182C50.2377 61.8182 50.505 62.1578 51.1499 61.6519C51.7948 61.1461 54.0005 63.5379 55.088 62.1921Z" fill="#090A08"/>
<path d="M50.888 62.1037C50.6477 62.2915 50.3009 62.25 50.1112 62.0097C49.9234 61.7695 49.9649 61.4227 50.2052 61.2348C50.4454 61.0469 50.7923 61.0884 50.9802 61.3287C51.1717 61.5671 51.1283 61.9158 50.888 62.1037Z" fill="#4F5261"/>
<path d="M43.789 48.7759C42.1722 47.4102 39.3162 48.6242 39.3162 48.6242L38.7038 48.6874L38.4709 49.2582C38.4709 49.2582 36.5018 51.6554 37.3563 53.5919C38.2107 55.5284 41.5743 53.4058 42.1758 54.2097C42.7774 55.0136 43.2019 54.6975 43.2019 54.6975C43.2019 54.6975 43.6246 54.3813 43.023 53.5774C42.4215 52.7718 45.4058 50.1416 43.789 48.7759Z" fill="#090A08"/>
<path d="M38.3241 53.5757C37.2077 54.8962 38.1995 57.2319 38.1995 57.2319L38.25 57.7341L38.7161 57.9238C38.7161 57.9238 40.6761 59.5333 42.2585 58.8343C43.841 58.1352 42.1068 55.3858 42.7644 54.8926C43.4219 54.4012 43.1636 54.0544 43.1636 54.0544C43.1636 54.0544 42.9053 53.7075 42.2477 54.2007C41.5902 54.6939 39.4405 52.2552 38.3241 53.5757Z" fill="#B7B7B7"/>
<path d="M47.4518 54.9487C48.5682 53.6264 47.5764 51.2924 47.5764 51.2924L47.5259 50.7903L47.0598 50.6006C47.0598 50.6006 45.0998 48.991 43.5174 49.6901C41.9349 50.3892 43.669 53.1387 43.0115 53.6318C42.354 54.1232 42.6123 54.47 42.6123 54.47C42.6123 54.47 42.8706 54.815 43.5282 54.3237C44.1857 53.8323 46.3354 56.271 47.4518 54.9487Z" fill="#B7B7B7"/>
<path d="M42.1985 58.8377C43.519 59.9541 45.8547 58.9624 45.8547 58.9624L46.3552 58.9118L46.5466 58.4457C46.5466 58.4457 48.1562 56.4857 47.4571 54.9033C46.758 53.3208 44.0085 55.055 43.5154 54.3975C43.024 53.7399 42.6772 53.9982 42.6772 53.9982C42.6772 53.9982 42.3304 54.2566 42.8235 54.9141C43.3167 55.5717 40.8762 57.7213 42.1985 58.8377Z" fill="#090A08"/>
<path d="M42.3797 54.6416C42.1973 54.3978 42.246 54.0509 42.4917 53.8685C42.7355 53.686 43.0824 53.7348 43.2649 53.9805C43.4473 54.2243 43.3985 54.5712 43.1529 54.7536C42.909 54.9361 42.5622 54.8855 42.3797 54.6416Z" fill="#83888E"/>
<path d="M34.5668 67.1529C32.9501 65.7872 30.0959 67.0011 30.0959 67.0011L29.4817 67.0643L29.2487 67.6352C29.2487 67.6352 27.2797 70.0324 28.1341 71.9689C28.9886 73.9036 32.3521 71.7828 32.9537 72.5867C33.5552 73.3905 33.978 73.0744 33.978 73.0744C33.978 73.0744 34.4007 72.7583 33.7991 71.9544C33.1994 71.1469 36.1836 68.5185 34.5668 67.1529Z" fill="#090A08"/>
<path d="M29.1 71.9526C27.9836 73.2731 28.9754 75.6089 28.9754 75.6089L29.0278 76.1093L29.4938 76.2989C29.4938 76.2989 31.4538 77.9084 33.0363 77.2094C34.6187 76.5103 32.8845 73.7609 33.542 73.2677C34.1996 72.7763 33.9413 72.4295 33.9413 72.4295C33.9413 72.4295 33.683 72.0827 33.0255 72.5758C32.3679 73.069 30.2164 70.6303 29.1 71.9526Z" fill="#83888E"/>
<path d="M38.2304 73.3257C39.3468 72.0051 38.355 69.6694 38.355 69.6694L38.3045 69.1672L37.8385 68.9775C37.8385 68.9775 35.8785 67.368 34.296 68.0671C32.7136 68.7662 34.4477 71.5156 33.7902 72.0087C33.1326 72.5001 33.3928 72.8469 33.3928 72.8469C33.3928 72.8469 33.6511 73.192 34.3086 72.7006C34.9625 72.2075 37.1141 74.6462 38.2304 73.3257Z" fill="#83888E"/>
<path d="M32.978 77.2147C34.3003 78.3311 36.6342 77.3393 36.6342 77.3393L37.1365 77.2887L37.3262 76.8227C37.3262 76.8227 38.9357 74.8627 38.2366 73.2802C37.5375 71.6978 34.7881 73.432 34.2949 72.7744C33.8036 72.1169 33.4568 72.3752 33.4568 72.3752C33.4568 72.3752 33.1117 72.6335 33.6031 73.2911C34.0962 73.9468 31.6557 76.0983 32.978 77.2147Z" fill="#090A08"/>
<path d="M33.1593 73.0186C32.9768 72.7747 33.0255 72.4279 33.2712 72.2454C33.5151 72.063 33.862 72.1118 34.0444 72.3574C34.2269 72.6013 34.1781 72.9481 33.9324 73.1306C33.6885 73.313 33.3417 73.2625 33.1593 73.0186Z" fill="#B7B7B7"/>
<path d="M31.9945 58.0538C30.8926 57.1235 28.9452 57.9508 28.9452 57.9508L28.5262 57.9942L28.3672 58.3825C28.3672 58.3825 27.0249 60.0174 27.6066 61.3379C28.1901 62.6566 30.4825 61.2115 30.8944 61.7588C31.3044 62.3062 31.5935 62.0912 31.5935 62.0912C31.5935 62.0912 31.8825 61.8744 31.4707 61.3271C31.0624 60.7779 33.0964 58.9859 31.9945 58.0538Z" fill="#090A08"/>
<path d="M28.2673 61.3273C27.5068 62.2287 28.1824 63.8202 28.1824 63.8202L28.2167 64.1616L28.5346 64.2916C28.5346 64.2916 29.8714 65.39 30.9498 64.9131C32.0283 64.4362 30.8468 62.561 31.2948 62.225C31.7428 61.889 31.5658 61.6542 31.5658 61.6542C31.5658 61.6542 31.3888 61.4176 30.9408 61.7536C30.4928 62.0896 29.0278 60.4258 28.2673 61.3273Z" fill="#83888E"/>
<path d="M34.4921 62.2629C35.2526 61.3615 34.577 59.77 34.577 59.77L34.5426 59.4286L34.2247 59.2986C34.2247 59.2986 32.8879 58.2002 31.8094 58.6771C30.731 59.154 31.9124 61.0291 31.4644 61.3651C31.0164 61.7011 31.1934 61.936 31.1934 61.936C31.1934 61.936 31.3705 62.1726 31.8185 61.8366C32.2647 61.5006 33.7316 63.1644 34.4921 62.2629Z" fill="#B7B7B7"/>
<path d="M30.9108 64.9146C31.8122 65.6751 33.4037 64.9995 33.4037 64.9995L33.745 64.9652L33.8751 64.6473C33.8751 64.6473 34.9734 63.3105 34.4965 62.232C34.0196 61.1536 32.1445 62.335 31.8085 61.887C31.4725 61.439 31.2377 61.616 31.2377 61.616C31.2377 61.616 31.001 61.7931 31.337 62.2411C31.673 62.6873 30.0093 64.1541 30.9108 64.9146Z" fill="#090A08"/>
<path d="M31.0347 62.0532C30.9101 61.887 30.9444 61.6504 31.1106 61.5257C31.2768 61.4011 31.5134 61.4354 31.6381 61.6016C31.7627 61.7678 31.7284 62.0044 31.5622 62.1291C31.396 62.2555 31.1594 62.2212 31.0347 62.0532Z" fill="#B7B7B7"/>
<path d="M41.6461 68.4713C40.5442 67.5409 38.5969 68.3683 38.5969 68.3683L38.1777 68.4116L38.0188 68.8C38.0188 68.8 36.6765 70.4349 37.2582 71.7554C37.8417 73.0741 40.134 71.6289 40.5441 72.1763C40.9542 72.7254 41.2432 72.5087 41.2432 72.5087C41.2432 72.5087 41.5322 72.2919 41.1222 71.7445C40.7139 71.1954 42.748 69.4016 41.6461 68.4713Z" fill="#090A08"/>
<path d="M37.9169 71.7447C37.1564 72.6461 37.832 74.2376 37.832 74.2376L37.8663 74.579L38.1843 74.7091C38.1843 74.7091 39.521 75.8075 40.5995 75.3306C41.6779 74.8537 40.4966 72.9785 40.9446 72.6425C41.3926 72.3065 41.2155 72.0717 41.2155 72.0717C41.2155 72.0717 41.0384 71.8351 40.5904 72.1711C40.1442 72.5071 38.6793 70.8433 37.9169 71.7447Z" fill="#83888E"/>
<path d="M44.1416 72.6803C44.9021 71.7788 44.2265 70.1874 44.2265 70.1874L44.1922 69.8459L43.8744 69.7159C43.8744 69.7159 42.5375 68.6194 41.4591 69.0945C40.3806 69.5714 41.5621 71.4465 41.1141 71.7807C40.6661 72.1166 40.8431 72.3515 40.8431 72.3515C40.8431 72.3515 41.0201 72.5881 41.4681 72.2521C41.9143 71.9179 43.3811 73.5799 44.1416 72.6803Z" fill="#83888E"/>
<path d="M40.5621 75.3321C41.4635 76.0926 43.055 75.417 43.055 75.417L43.3965 75.3827L43.5265 75.0648C43.5265 75.0648 44.6249 73.728 44.148 72.6495C43.6711 71.5711 41.7959 72.7525 41.4599 72.3045C41.1239 71.8565 40.8891 72.0335 40.8891 72.0335C40.8891 72.0335 40.6525 72.2105 40.9885 72.6585C41.3245 73.1047 39.6607 74.5698 40.5621 75.3321Z" fill="#090A08"/>
<path d="M40.6844 72.4709C40.5597 72.3047 40.5941 72.0681 40.7603 71.9434C40.9265 71.8188 41.1632 71.8531 41.2878 72.0193C41.4124 72.1855 41.3781 72.4221 41.2119 72.5468C41.0457 72.6714 40.809 72.6371 40.6844 72.4709Z" fill="#B7B7B7"/>
<path d="M48.3727 52.4156C47.2707 51.4853 45.3234 52.3126 45.3234 52.3126L44.9042 52.356L44.7453 52.7444C44.7453 52.7444 43.4031 54.3792 43.9848 55.6997C44.5683 57.0184 46.8606 55.5733 47.2707 56.1206C47.6807 56.668 47.9698 56.453 47.9698 56.453C47.9698 56.453 48.2588 56.2362 47.8487 55.6889C47.4387 55.1397 49.4746 53.3477 48.3727 52.4156Z" fill="#83888E"/>
<path d="M44.6435 55.6891C43.883 56.5905 44.5586 58.182 44.5586 58.182L44.5929 58.5234L44.9109 58.6535C44.9109 58.6535 46.2476 59.7518 47.326 59.2749C48.4045 58.798 47.2232 56.9229 47.6711 56.5869C48.1191 56.2509 47.9421 56.016 47.9421 56.016C47.9421 56.016 47.765 55.7794 47.317 56.1154C46.8708 56.4514 45.404 54.7877 44.6435 55.6891Z" fill="#83888E"/>
<path d="M50.8682 56.6248C51.6287 55.7233 50.9531 54.1319 50.9531 54.1319L50.9188 53.7904L50.6009 53.6604C50.6009 53.6604 49.2641 52.5621 48.1856 53.039C47.1072 53.5159 48.2905 55.3909 47.8406 55.7269C47.3926 56.0629 47.5696 56.2978 47.5696 56.2978C47.5696 56.2978 47.7467 56.5344 48.1947 56.1984C48.6409 55.8624 50.1077 57.5262 50.8682 56.6248Z" fill="#B7B7B7"/>
<path d="M47.286 59.2764C48.1874 60.037 49.7789 59.3613 49.7789 59.3613L50.1203 59.327L50.2504 59.0091C50.2504 59.0091 51.3487 57.6723 50.8718 56.5939C50.3949 55.5154 48.5198 56.6986 48.1838 56.2488C47.8478 55.8008 47.6129 55.9779 47.6129 55.9779C47.6129 55.9779 47.3764 56.1549 47.7124 56.6029C48.0484 57.0491 46.3864 58.5159 47.286 59.2764Z" fill="#83888E"/>
<path d="M47.4109 56.415C47.2863 56.2488 47.3207 56.0122 47.4869 55.8875C47.6531 55.7629 47.8897 55.7972 48.0144 55.9634C48.139 56.1296 48.1047 56.3662 47.9385 56.4909C47.7705 56.6155 47.5356 56.583 47.4109 56.415Z" fill="#505050"/>
<path d="M28.8978 63.2872C27.7959 62.3569 25.8486 63.1842 25.8486 63.1842L25.4295 63.2276L25.2705 63.616C25.2705 63.616 23.9283 65.2508 24.5099 66.5713C25.0934 67.89 27.3859 66.4449 27.7959 66.9922C28.206 67.5396 28.4949 67.3246 28.4949 67.3246C28.4949 67.3246 28.7839 67.1078 28.3739 66.5605C27.9638 66.0113 29.9998 64.2175 28.8978 63.2872Z" fill="#090A08"/>
<path d="M25.1686 66.5607C24.4081 67.4621 25.0837 69.0535 25.0837 69.0535L25.118 69.395L25.436 69.525C25.436 69.525 26.7727 70.6234 27.8512 70.1465C28.9296 69.6696 27.7483 67.7944 28.1963 67.4584C28.6443 67.1224 28.4672 66.8876 28.4672 66.8876C28.4672 66.8876 28.2903 66.651 27.8423 66.987C27.3961 67.323 25.931 65.6592 25.1686 66.5607Z" fill="#4F5261"/>
<path d="M31.3934 67.4962C32.154 66.5948 31.4783 65.0033 31.4783 65.0033L31.4439 64.6619L31.1261 64.5318C31.1261 64.5318 29.7892 63.4353 28.7108 63.9104C27.6323 64.3873 28.8156 66.2624 28.3658 66.5984C27.9178 66.9344 28.0948 67.1692 28.0948 67.1692C28.0948 67.1692 28.2718 67.4059 28.7198 67.0699C29.166 66.7339 30.6329 68.3958 31.3934 67.4962Z" fill="#83888E"/>
<path d="M27.8112 70.148C28.7126 70.9085 30.3041 70.2329 30.3041 70.2329L30.6455 70.1986L30.7755 69.8807C30.7755 69.8807 31.8739 68.5439 31.3969 67.4654C30.92 66.387 29.045 67.5684 28.7108 67.1204C28.3748 66.6724 28.14 66.8494 28.14 66.8494C28.14 66.8494 27.9033 67.0265 28.2393 67.4745C28.5753 67.9207 26.9116 69.3857 27.8112 70.148Z" fill="#83888E"/>
<path d="M27.9361 67.2866C27.8115 67.1204 27.8458 66.8838 28.012 66.7591C28.1782 66.6345 28.4148 66.6688 28.5394 66.835C28.6641 67.0012 28.6298 67.2378 28.4636 67.3625C28.2974 67.4871 28.0608 67.4528 27.9361 67.2866Z" fill="#4F5261"/>
<path d="M41.9577 56.7298C39.9923 55.0697 36.5203 56.5437 36.5203 56.5437L35.7742 56.6196L35.4906 57.3133C35.4906 57.3133 33.0971 60.2289 34.1358 62.5827C35.1745 64.9365 39.2643 62.3569 39.9977 63.3342C40.7293 64.3114 41.2442 63.9267 41.2442 63.9267C41.2442 63.9267 41.759 63.5419 41.0274 62.5646C40.294 61.5873 43.9232 58.3899 41.9577 56.7298Z" fill="#83888E"/>
<path d="M35.3102 62.5665C33.9536 64.1724 35.1585 67.0121 35.1585 67.0121L35.2217 67.6227L35.789 67.8539C35.789 67.8539 38.1735 69.8103 40.0974 68.9613C42.0212 68.1123 39.9131 64.7667 40.7115 64.1688C41.5118 63.5708 41.1956 63.1499 41.1956 63.1499C41.1956 63.1499 40.8813 62.729 40.0811 63.327C39.2808 63.9267 36.6669 60.9587 35.3102 62.5665Z" fill="#505050"/>
<path d="M46.4103 64.2354C47.7669 62.6294 46.562 59.7897 46.562 59.7897L46.5006 59.1791L45.9333 58.9479C45.9333 58.9479 43.5488 56.9915 41.6249 57.8405C39.7011 58.6896 41.8093 62.0351 41.0108 62.633C40.2105 63.231 40.5267 63.6519 40.5267 63.6519C40.5267 63.6519 40.841 64.0728 41.6413 63.4748C42.4379 62.8751 45.0519 65.8413 46.4103 64.2354Z" fill="#505050"/>
<path d="M40.0247 68.9631C41.6307 70.3198 44.4704 69.1149 44.4704 69.1149L45.0791 69.0516L45.3103 68.4844C45.3103 68.4844 47.2668 66.0999 46.4178 64.176C45.5687 62.2521 42.2232 64.3621 41.6252 63.5618C41.0273 62.7616 40.6065 63.0777 40.6065 63.0777C40.6065 63.0777 40.1855 63.392 40.7834 64.1923C41.385 64.9925 38.417 67.6065 40.0247 68.9631Z" fill="#83888E"/>
<path d="M40.2438 63.8614C40.0216 63.5634 40.0812 63.1425 40.3793 62.9203C40.6756 62.6981 41.0983 62.7595 41.3204 63.0557C41.5426 63.352 41.483 63.7747 41.1849 63.9969C40.8869 64.2191 40.466 64.1595 40.2438 63.8614Z" fill="#090A08"/>
<path d="M22.441 77.8559C20.947 79.3534 21.9206 82.2997 21.9206 82.2997L21.9333 82.9157L22.4825 83.1957C22.4825 83.1957 24.7098 85.3563 26.7095 84.6626C28.7093 83.9707 26.8722 80.4427 27.723 79.9098C28.5739 79.3769 28.2938 78.9289 28.2938 78.9289C28.2938 78.9289 28.012 78.4809 27.1612 79.0138C26.3085 79.5485 23.9331 76.3583 22.441 77.8559Z" fill="#83888E"/>
<path d="M26.7719 83.6998C27.9966 84.9209 30.4064 84.1261 30.4064 84.1261L30.9105 84.117L31.1398 83.6672C31.1398 83.6672 32.9047 81.8463 32.3393 80.2115C31.7739 78.5767 28.889 80.0796 28.4536 79.3841C28.0183 78.6887 27.6516 78.9181 27.6516 78.9181C27.6516 78.9181 27.2849 79.1475 27.7221 79.843C28.1556 80.5367 25.5471 82.4786 26.7719 83.6998Z" fill="#B7B7B7"/>
<path d="M28.8939 74.7145C27.6692 73.4933 25.2611 74.29 25.2611 74.29L24.7571 74.299L24.5295 74.7488C24.5295 74.7488 22.7628 76.5697 23.33 78.2045C23.8955 79.8394 26.7804 78.3364 27.2157 79.0319C27.6511 79.7274 28.0177 79.498 28.0177 79.498C28.0177 79.498 28.3844 79.2686 27.9473 78.5731C27.5101 77.8776 30.1187 75.9357 28.8939 74.7145Z" fill="#B7B7B7"/>
<path d="M32.3356 80.2713C33.5568 79.0466 32.7601 76.6386 32.7601 76.6386L32.7511 76.1346L32.3012 75.9069C32.3012 75.9069 30.4804 74.1403 28.8455 74.7075C27.2107 75.2729 28.7137 78.1578 28.0182 78.5932C27.3227 79.0285 27.5521 79.3952 27.5521 79.3952C27.5521 79.3952 27.7815 79.762 28.477 79.3248C29.1724 78.8876 31.1145 81.4961 32.3356 80.2713Z" fill="#83888E"/>
<path d="M28.1691 79.7437C27.9107 79.9062 27.5693 79.8267 27.4067 79.5684C27.2442 79.3101 27.3236 78.9687 27.5819 78.8061C27.8403 78.6435 28.1817 78.7212 28.3443 78.9813C28.5068 79.2415 28.4292 79.5829 28.1691 79.7437Z" fill="#B7B7B7"/>
<path d="M26.7679 67.4021C26.8365 65.2867 24.1142 63.8 24.1142 63.8L23.6842 63.3574L23.0917 63.529C23.0917 63.529 19.9901 63.473 19.0019 65.3427C18.0138 67.2142 21.7639 68.5365 21.5074 69.5066C21.2509 70.4766 21.7604 70.6121 21.7604 70.6121C21.7604 70.6121 22.2716 70.7476 22.5281 69.7775C22.7846 68.8075 26.6992 69.5174 26.7679 67.4021Z" fill="#838383"/>
<path d="M19.613 66.0923C17.8842 66.0363 16.6684 68.2619 16.6684 68.2619L16.3071 68.6124L16.4463 69.0965C16.4463 69.0965 16.3993 71.6327 17.9293 72.4402C19.4594 73.2477 20.5397 70.1822 21.3345 70.3917C22.1293 70.6013 22.2395 70.184 22.2395 70.184C22.2395 70.184 22.3497 69.7666 21.5567 69.5553C20.7636 69.3439 21.3417 66.1483 19.613 66.0923Z" fill="#83888E"/>
<path d="M24.1977 74.1038C25.9265 74.1598 27.1422 71.9342 27.1422 71.9342L27.5036 71.5838L27.3626 71.0997C27.3626 71.0997 27.4096 68.5634 25.8796 67.7559C24.3495 66.9485 23.2692 70.014 22.4744 69.8044C21.6814 69.5931 21.5694 70.0122 21.5694 70.0122C21.5694 70.0122 21.4592 70.4295 22.2522 70.6408C23.0489 70.8486 22.469 74.0478 24.1977 74.1038Z" fill="#83888E"/>
<path d="M17.89 72.3968C17.834 74.1256 20.0596 75.3413 20.0596 75.3413L20.41 75.7026L20.8941 75.5617C20.8941 75.5617 23.4304 75.6086 24.2379 74.0786C25.0454 72.5485 21.9798 71.4683 22.1893 70.6734C22.4007 69.8804 21.9816 69.7684 21.9816 69.7684C21.9816 69.7684 21.5643 69.6582 21.3529 70.4512C21.1452 71.2479 17.946 70.668 17.89 72.3968Z" fill="#838383"/>
<path d="M21.2936 69.9364C21.3712 69.642 21.6747 69.4649 21.9691 69.5444C22.2636 69.6221 22.4407 69.9256 22.3612 70.22C22.2835 70.5145 21.98 70.6915 21.6855 70.612C21.3911 70.5325 21.2159 70.2309 21.2936 69.9364Z" fill="#090A08"/>
<path d="M46.6082 84.5726C48.7236 84.6503 50.2211 81.9334 50.2211 81.9334L50.6655 81.5052L50.4975 80.9127C50.4975 80.9127 50.5662 77.811 48.7001 76.8157C46.8341 75.8203 45.4954 79.5651 44.5254 79.305C43.5553 79.043 43.4181 79.5543 43.4181 79.5543C43.4181 79.5543 43.2808 80.0655 44.2508 80.3256C45.2173 80.5857 44.4929 84.4967 46.6082 84.5726Z" fill="#83888E"/>
<path d="M47.9471 77.4226C48.0103 75.6938 45.7885 74.469 45.7885 74.469L45.438 74.106L44.9539 74.2432C44.9539 74.2432 42.4176 74.1872 41.6047 75.7137C40.79 77.2401 43.8538 78.333 43.6388 79.1261C43.4257 79.9191 43.8429 80.0311 43.8429 80.0311C43.8429 80.0311 44.2602 80.1431 44.4734 79.35C44.6865 78.5588 47.8839 79.1514 47.9471 77.4226Z" fill="#4F5261"/>
<path d="M39.9154 81.9767C39.8522 83.7055 42.0741 84.9303 42.0741 84.9303L42.4246 85.2934L42.9087 85.1561C42.9087 85.1561 45.4449 85.2121 46.2578 83.6857C47.0725 82.1592 44.0088 81.0663 44.2238 80.2733C44.4369 79.4802 44.0197 79.3682 44.0197 79.3682C44.0197 79.3682 43.6024 79.2562 43.3892 80.0493C43.1761 80.8405 39.9786 80.248 39.9154 81.9767Z" fill="#4F5261"/>
<path d="M41.6506 75.6739C39.9218 75.6107 38.6971 77.8327 38.6971 77.8327L38.334 78.1831L38.4713 78.6672C38.4713 78.6672 38.4153 81.2035 39.9417 82.0182C41.4682 82.8329 42.5611 79.7692 43.3541 79.9841C44.1471 80.1973 44.2591 79.78 44.2591 79.78C44.2591 79.78 44.3712 79.3627 43.5781 79.1496C42.7869 78.9346 43.3794 75.7372 41.6506 75.6739Z" fill="#83888E"/>
<path d="M44.0962 79.0881C44.3907 79.1676 44.5659 79.4711 44.4864 79.7655C44.4069 80.06 44.1035 80.2352 43.809 80.1557C43.5146 80.0763 43.3393 79.7728 43.4188 79.4783C43.4983 79.1821 43.8 79.0086 44.0962 79.0881Z" fill="#4F5261"/>
<path d="M31.3783 85.3113C31.9004 87.3617 34.9298 88.0336 34.9298 88.0336L35.4663 88.3389L35.9883 88.0102C35.9883 88.0102 38.9834 87.2027 39.4134 85.1307C39.8433 83.0587 35.8709 82.8311 35.8492 81.8267C35.8257 80.8223 35.2982 80.835 35.2982 80.835C35.2982 80.835 34.7708 80.8476 34.7925 81.8502C34.8124 82.8545 30.8562 83.261 31.3783 85.3113Z" fill="#505050"/>
<path d="M38.6149 84.5797C40.2913 84.1534 40.8405 81.6767 40.8405 81.6767L41.0898 81.2396L40.8206 80.8132C40.8206 80.8132 40.1594 78.3637 38.4668 78.0133C36.7723 77.6628 36.5863 80.909 35.7661 80.9271C34.946 80.9452 34.9551 81.3787 34.9551 81.3787C34.9551 81.3787 34.964 81.8104 35.786 81.7924C36.6061 81.7725 36.9386 85.0079 38.6149 84.5797Z" fill="#83888E"/>
<path d="M31.9817 78.1593C30.3053 78.5857 29.7561 81.0623 29.7561 81.0623L29.5068 81.4995L29.776 81.9258C29.776 81.9258 30.4371 84.3753 32.1297 84.7258C33.8242 85.0763 34.0102 81.8301 34.8304 81.812C35.6523 81.7939 35.6415 81.3604 35.6415 81.3604C35.6415 81.3604 35.6325 80.9286 34.8105 80.9467C33.9904 80.9666 33.658 77.733 31.9817 78.1593Z" fill="#83888E"/>
<path d="M38.5172 78.0456C38.0908 76.3692 35.6142 75.8201 35.6142 75.8201L35.1752 75.5708L34.7489 75.8399C34.7489 75.8399 32.2993 76.5011 31.9488 78.1938C31.5984 79.8882 34.8446 80.0743 34.8627 80.8944C34.8808 81.7163 35.3124 81.7055 35.3124 81.7055C35.3124 81.7055 35.7442 81.6946 35.7261 80.8745C35.7099 80.0544 38.9453 79.722 38.5172 78.0456Z" fill="#505050"/>
<path d="M35.9319 81.3552C35.9391 81.6605 35.697 81.9134 35.3917 81.9206C35.0864 81.9279 34.8336 81.6858 34.8263 81.3806C34.8191 81.0753 35.0612 80.8223 35.3665 80.8151C35.6718 80.8079 35.9265 81.05 35.9319 81.3552Z" fill="#090A08"/>
<path d="M25.5111 63.099C27.6246 63.1766 29.124 60.4597 29.124 60.4597L29.5684 60.0316L29.4004 59.4391C29.4004 59.4391 29.469 56.3374 27.603 55.3421C25.7369 54.3467 24.3984 58.0915 23.4283 57.8314C22.4582 57.5694 22.3209 58.0806 22.3209 58.0806C22.3209 58.0806 22.1836 58.5919 23.1537 58.852C24.1219 59.1121 23.3975 63.0213 25.5111 63.099Z" fill="#505050"/>
<path d="M26.8514 55.949C26.9146 54.2202 24.6927 52.9954 24.6927 52.9954L24.3423 52.6323L23.8582 52.7696C23.8582 52.7696 21.3219 52.7136 20.509 54.2401C19.6943 55.7665 22.7581 56.8594 22.5431 57.6525C22.33 58.4455 22.7472 58.5575 22.7472 58.5575C22.7472 58.5575 23.1645 58.6695 23.3777 57.8764C23.5908 57.0834 26.7882 57.6777 26.8514 55.949Z" fill="#83888E"/>
<path d="M18.8199 60.5031C18.7567 62.2319 20.9786 63.4566 20.9786 63.4566L21.329 63.8197L21.8132 63.6824C21.8132 63.6824 24.3494 63.7385 25.1623 62.212C25.9771 60.6856 22.9134 59.5926 23.1283 58.7996C23.3415 58.0066 22.9242 57.8946 22.9242 57.8946C22.9242 57.8946 22.507 57.7826 22.2938 58.5756C22.0806 59.3668 18.8832 58.7743 18.8199 60.5031Z" fill="#83888E"/>
<path d="M20.5554 54.2005C18.8266 54.1373 17.6018 56.3593 17.6018 56.3593L17.2388 56.7097L17.376 57.1939C17.376 57.1939 17.32 59.7301 18.8464 60.5448C20.3729 61.3595 21.4658 58.2958 22.2589 58.5107C23.0519 58.7239 23.1639 58.3066 23.1639 58.3066C23.1639 58.3066 23.2758 57.8893 22.4828 57.6762C21.6898 57.4612 22.2842 54.2638 20.5554 54.2005Z" fill="#505050"/>
<path d="M22.9991 57.6145C23.2935 57.694 23.4687 57.9975 23.3893 58.2919C23.3098 58.5864 23.0063 58.7616 22.7118 58.6821C22.4174 58.6026 22.2422 58.2991 22.3216 58.0047C22.4011 57.7084 22.7046 57.535 22.9991 57.6145Z" fill="#B7B7B7"/>
<path d="M33.69 58.5646C35.771 58.9493 37.6498 56.4799 37.6498 56.4799L38.152 56.1205L38.0706 55.5099C38.0706 55.5099 38.5909 52.4516 36.8892 51.1943C35.1875 49.937 33.3179 53.4469 32.3966 53.0477C31.4753 52.6484 31.2658 53.1326 31.2658 53.1326C31.2658 53.1326 31.0544 53.6185 31.9757 54.0177C32.8988 54.417 31.6108 58.1798 33.69 58.5646Z" fill="#838383"/>
<path d="M36.0554 51.6858C36.3697 49.9841 34.3501 48.4486 34.3501 48.4486L34.0574 48.0386L33.5571 48.1036C33.5571 48.1036 31.057 47.6773 30.0291 49.0701C29.0012 50.461 31.8717 51.9893 31.5447 52.7426C31.2177 53.4959 31.6133 53.6675 31.6133 53.6675C31.6133 53.6675 32.0089 53.8391 32.3359 53.0858C32.6647 52.3343 35.7411 53.3857 36.0554 51.6858Z" fill="#83888E"/>
<path d="M27.4487 55.0205C27.1344 56.7221 29.154 58.2576 29.154 58.2576L29.4467 58.6677L29.9471 58.6027C29.9471 58.6027 32.4472 59.029 33.4751 57.6362C34.5029 56.2452 31.6325 54.717 31.9595 53.9637C32.2864 53.2104 31.889 53.0388 31.889 53.0388C31.889 53.0388 31.4934 52.8672 31.1664 53.6205C30.8394 54.3719 27.7613 53.3188 27.4487 55.0205Z" fill="#83888E"/>
<path d="M30.0805 49.0376C28.3789 48.7233 26.8434 50.7429 26.8434 50.7429L26.4333 51.0355L26.4984 51.5359C26.4984 51.5359 26.0721 54.0361 27.463 55.0639C28.854 56.0918 30.3823 53.2213 31.1356 53.5483C31.8889 53.8753 32.0604 53.4797 32.0604 53.4797C32.0604 53.4797 32.2321 53.084 31.4788 52.7571C30.7255 52.4301 31.7822 49.3519 30.0805 49.0376Z" fill="#838383"/>
<path d="M32.0049 52.7716C32.2849 52.8927 32.4131 53.2178 32.2921 53.4996C32.1711 53.7796 31.846 53.9079 31.566 53.7869C31.286 53.6658 31.1577 53.3407 31.2787 53.0607C31.3998 52.7789 31.7249 52.6506 32.0049 52.7716Z" fill="#090A08"/>
<path d="M54.0554 89.4858L53.9596 90.2192L47.6539 92.7573L44.6862 93.9514L36.9518 97.0693C36.894 96.8598 36.8362 96.6484 36.782 96.4424L41.5343 94.5276L44.4983 93.3335L54.0554 89.4858Z" fill="#B7B7B7"/>
<path d="M53.7739 91.6445L53.6854 92.3147L44.6883 93.9532L41.5364 94.5295L36.5204 95.4417C36.4626 95.2286 36.4084 95.019 36.3542 94.8167L44.5023 93.3336L47.6579 92.7573L53.7739 91.6445Z" fill="#B7B7B7"/>
<path d="M43.2602 125.763C41.8909 126.502 40.5722 127.214 40.5397 128.913C40.5216 129.835 40.8883 130.48 41.4501 131L42.9278 130.975C41.9505 130.429 41.0455 129.797 41.0564 128.904C41.069 127.864 42.3263 127.177 43.4192 126.581C44.7776 125.841 46.0367 125.152 45.9554 123.606C45.8777 122.121 44.6241 121.538 43.3198 120.931C42.3046 120.459 41.1701 119.932 41.181 119.11C41.1918 118.308 42.2955 117.777 43.2565 117.314C44.4542 116.738 45.567 116.201 45.5038 114.997C45.4424 113.833 44.335 113.378 43.1789 112.903C42.2775 112.533 41.2695 112.117 41.2785 111.469C41.2858 110.833 42.2702 110.408 43.1283 110.038C44.1995 109.575 45.1967 109.146 45.1461 108.179C45.0973 107.243 44.1038 106.878 43.0669 106.495C42.2576 106.197 41.3489 105.863 41.3562 105.336C41.3634 104.819 42.2504 104.472 43.0253 104.169C43.9936 103.789 44.8968 103.437 44.8553 102.646C44.8155 101.878 43.9159 101.578 42.9747 101.264C42.2395 101.018 41.414 100.744 41.4194 100.308C41.4249 99.8802 42.2341 99.5912 42.9404 99.3383C43.8238 99.0222 44.6493 98.7277 44.615 98.0666C44.5807 97.4235 43.7588 97.1742 42.8971 96.9122C42.2233 96.7063 41.4664 96.4769 41.4718 96.1102C41.4772 95.7489 42.2197 95.505 42.8682 95.29C43.6811 95.0227 44.4416 94.7716 44.4109 94.2116C44.4073 94.1303 44.3386 94.0671 44.2573 94.0689C44.1779 94.0707 44.1146 94.1357 44.1182 94.217C44.1345 94.5548 43.4155 94.7896 42.776 94.9992C41.9595 95.2665 41.1774 95.5231 41.1665 96.1138C41.1539 96.7207 41.9541 96.9664 42.8103 97.2284C43.495 97.4379 44.2772 97.6782 44.2953 98.0702C44.3133 98.4694 43.5329 98.7458 42.8375 98.9915C41.9487 99.3076 41.0979 99.6092 41.0853 100.31C41.0708 101.033 41.9433 101.325 42.879 101.64C43.6269 101.891 44.4832 102.18 44.5049 102.648C44.5265 103.125 43.6739 103.457 42.9115 103.751C41.9361 104.129 41.0039 104.49 40.9877 105.338C40.9714 106.21 41.9307 106.568 42.9622 106.951C43.7877 107.258 44.7325 107.61 44.7596 108.181C44.7867 108.764 43.8437 109.167 43.0018 109.527C41.9234 109.987 40.8901 110.43 40.8703 111.47C40.8486 112.547 41.9162 112.991 43.0633 113.467C43.9827 113.85 45.0395 114.288 45.072 114.998C45.1045 115.725 44.055 116.227 43.1139 116.675C41.9072 117.251 40.7492 117.802 40.7239 119.114C40.6968 120.476 41.8981 121.041 43.1915 121.65C44.2302 122.137 45.4261 122.701 45.4676 123.61C45.5146 124.545 44.326 125.187 43.2602 125.763Z" fill="#B7B7B7"/>
<path d="M44.0221 97.1903C44.5911 97.4017 45.2559 97.6473 45.3155 98.1242C45.3788 98.6246 44.7446 99.0238 44.1666 99.3869C43.4097 99.8638 42.6655 100.332 42.6619 101.358C42.6583 102.481 43.5 102.904 44.4285 103.372C45.1908 103.755 46.0851 104.205 46.1916 105.056C46.3054 105.962 45.4654 106.68 44.6886 107.339C43.8884 108.02 43.0936 108.699 42.7757 109.891L43.3717 109.855C43.7258 109.21 44.3256 108.683 44.8603 108.211C45.8593 107.334 46.7571 106.546 46.5439 105.021C46.3524 103.65 45.4239 103.197 44.4791 102.734C43.7602 102.382 42.9708 101.997 42.9635 101.329C42.9581 100.697 43.6698 100.238 44.2786 99.8476C45.0192 99.3707 45.6948 98.9371 45.5774 98.1007C45.469 97.3294 44.779 97.0783 44.0672 96.8218C43.5217 96.6249 42.9183 96.4063 42.9147 96.0089C42.9111 95.6277 43.4693 95.3423 43.948 95.0966C44.5369 94.7931 45.077 94.5167 45.003 93.9893C44.9921 93.9152 44.9379 93.8592 44.8801 93.8646C44.8223 93.87 44.7844 93.9333 44.7935 94.0073C44.8332 94.3235 44.3255 94.58 43.8649 94.813C43.267 95.1147 42.6835 95.4109 42.6817 96.0306C42.6799 96.6917 43.3212 96.9302 44.0221 97.1903Z" fill="#B7B7B7"/>
</svg>
