<svg width="8" height="5" viewBox="0 0 8 5" fill="none" xmlns="http://www.w3.org/2000/svg">
<path d="M1.64947 2.97921L3.03411 4.36384C3.09179 4.42153 3.12131 4.49404 3.12265 4.58139C3.12398 4.66872 3.09447 4.74257 3.03411 4.80293C2.97374 4.86329 2.90056 4.89348 2.81455 4.89348C2.72855 4.89348 2.65537 4.86329 2.59501 4.80293L0.722418 2.93033C0.683425 2.89134 0.655914 2.85021 0.639886 2.80694C0.623859 2.76367 0.615845 2.71693 0.615845 2.66672C0.615845 2.6165 0.623859 2.56976 0.639886 2.5265C0.655914 2.48323 0.683425 2.4421 0.722418 2.4031L2.59501 0.53051C2.6527 0.472816 2.72521 0.443302 2.81255 0.441969C2.89989 0.440628 2.97374 0.470142 3.03411 0.53051C3.09447 0.590871 3.12465 0.664052 3.12465 0.750052C3.12465 0.836052 3.09447 0.909232 3.03411 0.969593L1.64947 2.35423H7.22961C7.31828 2.35423 7.39253 2.38414 7.45236 2.44397C7.51219 2.50379 7.54211 2.57804 7.54211 2.66672C7.54211 2.75539 7.51219 2.82964 7.45236 2.88947C7.39253 2.94929 7.31828 2.97921 7.22961 2.97921H1.64947Z" fill="#5B52B5"/>
</svg>
