<svg width="6" height="10" viewBox="0 0 6 10" fill="none" xmlns="http://www.w3.org/2000/svg">
<path d="M1.71156 4.99939L5.10579 8.39364C5.22118 8.50902 5.2802 8.65404 5.28287 8.82872C5.28555 9.00339 5.22652 9.15108 5.10579 9.27181C4.98506 9.39254 4.8387 9.45291 4.6667 9.45291C4.4947 9.45291 4.34834 9.39254 4.22762 9.27181L0.482433 5.52662C0.404433 5.44863 0.349412 5.36637 0.31737 5.27983C0.285315 5.1933 0.269287 5.09982 0.269287 4.99939C0.269287 4.89896 0.285315 4.80548 0.31737 4.71895C0.349412 4.63241 0.404433 4.55015 0.482433 4.47216L4.22762 0.726975C4.343 0.611586 4.48802 0.552559 4.6627 0.549892C4.83737 0.547211 4.98506 0.606239 5.10579 0.726975C5.22652 0.847698 5.28689 0.994058 5.28689 1.16606C5.28689 1.33806 5.22652 1.48442 5.10579 1.60514L1.71156 4.99939Z" fill="#171E4C"/>
</svg>
