<svg width="8" height="6" viewBox="0 0 8 6" fill="none" xmlns="http://www.w3.org/2000/svg">
<path d="M1.64898 3.31249L3.03362 4.69713C3.0913 4.75481 3.12082 4.82733 3.12216 4.91467C3.12349 5.002 3.09398 5.07585 3.03362 5.13621C2.97326 5.19658 2.90007 5.22676 2.81406 5.22676C2.72807 5.22676 2.65488 5.19658 2.59452 5.13621L0.721929 3.26362C0.682936 3.22462 0.655426 3.18349 0.639398 3.14022C0.62337 3.09696 0.615356 3.05022 0.615356 3C0.615356 2.94979 0.62337 2.90305 0.639398 2.85978C0.655426 2.81651 0.682936 2.77538 0.721929 2.73639L2.59452 0.863793C2.65221 0.806098 2.72472 0.776585 2.81207 0.775251C2.89941 0.773911 2.97326 0.803425 3.03362 0.863793C3.09398 0.924154 3.12416 0.997334 3.12416 1.08333C3.12416 1.16933 3.09398 1.24251 3.03362 1.30288L1.64898 2.68751H7.22912C7.31779 2.68751 7.39204 2.71742 7.45187 2.77725C7.5117 2.83708 7.54162 2.91133 7.54162 3C7.54162 3.08867 7.5117 3.16292 7.45187 3.22275C7.39204 3.28258 7.31779 3.31249 7.22912 3.31249H1.64898Z" fill="#B31E85" fill-opacity="0.8"/>
</svg>
