<svg width="255" height="255" viewBox="0 0 255 255" fill="none" xmlns="http://www.w3.org/2000/svg">
<path d="M228.708 223.431C228.708 230.454 187.276 240.975 136.167 240.975C85.0579 240.975 25.959 230.862 25.959 223.839C25.959 216.816 85.0579 215.543 136.167 215.543C187.276 215.543 228.708 216.408 228.708 223.431Z" fill="#EFF4BE"/>
<path d="M42.4639 215.543H217.311C217.311 215.543 234.277 156.381 211.448 138.849C188.619 121.317 191.676 92.2552 215.274 78.7888C238.872 65.3224 238.225 33.5295 196.556 31.5802C154.887 29.6309 142.797 42.8497 134.29 31.5802C119.268 11.6789 72.1032 5.15088 63.4933 47.6234C56.8219 80.5332 23.9463 81.3393 20.2469 101.882C15.3666 128.983 55.3261 131.443 52.8825 147.449C50.4389 163.455 25.5128 188.886 42.4639 215.543Z" fill="#F2F8FF"/>
<path d="M229.521 197.209C229.464 197.599 229.404 197.986 229.344 198.373C228.61 203.215 227.697 208.027 226.344 212.618C226.105 213.425 225.848 214.225 225.58 215.02L228.272 215.022C228.364 214.687 228.461 214.353 228.549 214.017C229.177 211.57 229.677 209.106 230.089 206.647C230.454 204.482 230.75 202.306 231.005 200.152C231.12 199.186 231.222 198.225 231.323 197.264C232.023 190.424 232.463 183.548 232.255 176.811C232.048 170.074 231.161 163.474 229.24 157.591C230.877 163.67 231.435 170.306 231.339 176.991C231.241 183.7 230.509 190.467 229.521 197.209Z" fill="#D5CDD7"/>
<path d="M214.88 199.578C214.804 201.921 214.67 204.268 214.472 206.617C214.336 208.306 214.163 209.992 213.961 211.679C213.883 212.349 213.795 213.02 213.705 213.687C213.645 214.129 213.578 214.57 213.513 215.012L215.982 215.013C216.028 214.584 216.075 214.155 216.117 213.726C216.174 213.168 216.226 212.609 216.267 212.049C216.396 210.573 216.496 209.099 216.572 207.629C216.685 205.482 216.75 203.344 216.763 201.212L216.761 201.207C216.791 198.312 216.73 195.43 216.591 192.566C215.922 178.638 213.552 165.195 210.387 152.192C213.026 165.414 214.849 179.008 214.967 192.859C214.986 195.098 214.96 197.337 214.88 199.578Z" fill="#D5CDD7"/>
<path d="M199.855 175.969C200.177 176.483 200.519 176.973 200.823 177.505L201.695 179.118C202.784 181.323 203.727 183.642 204.411 186.094C204.805 187.292 205.053 188.567 205.366 189.8L205.726 191.706L205.903 192.658L206.041 193.625C206.124 194.131 206.193 194.642 206.259 195.155C206.529 197.228 206.678 199.339 206.805 201.454C206.931 204.096 206.956 206.759 206.905 209.432C206.862 211.291 206.775 213.144 206.673 215.007L208.981 215.009C208.99 213.052 208.985 211.086 208.934 209.133C208.927 208.912 208.919 208.687 208.907 208.464C208.885 207.677 208.849 206.893 208.801 206.117C208.713 204.421 208.587 202.74 208.427 201.064C208.222 199.234 207.998 197.406 207.694 195.607C207.561 194.792 207.409 193.983 207.234 193.177L207.042 192.213L206.815 191.26L206.346 189.358C205.961 188.12 205.639 186.86 205.176 185.667C204.351 183.239 203.266 180.966 202.041 178.837L201.079 177.276C200.749 176.767 200.369 176.295 200.017 175.806L199.481 175.077C199.3 174.846 199.092 174.633 198.899 174.41L197.725 173.077L198.823 174.497C198.999 174.73 199.19 174.96 199.362 175.208L199.855 175.969Z" fill="#F3D0DD"/>
<path d="M223.225 215.018C223.227 215.007 223.23 214.992 223.232 214.982C224.067 211.186 224.778 207.406 225.377 203.628C225.51 202.818 225.636 202.015 225.757 201.204C226.186 198.337 226.562 195.474 226.879 192.61C227.115 190.528 227.316 188.445 227.494 186.361C227.498 186.332 227.502 186.303 227.502 186.267C227.525 186.035 227.543 185.795 227.555 185.562C227.63 184.713 227.702 183.878 227.758 183.035C227.864 181.552 227.957 180.069 228.035 178.578C228.061 178.171 228.082 177.757 228.101 177.357C228.503 169.458 228.572 161.603 228.361 153.836C228.055 161.6 227.488 169.397 226.594 177.17C226.587 177.25 226.579 177.344 226.566 177.431C226.243 180.216 225.885 182.999 225.476 185.772C225.126 188.19 224.732 190.592 224.297 193C223.873 195.444 223.392 197.886 222.878 200.312C222.841 200.521 222.801 200.709 222.759 200.911C221.883 204.974 220.631 210.537 219.43 215.015L223.225 215.018Z" fill="#F3D0DD"/>
<path d="M51.5343 200.321C51.49 200.627 51.4427 200.931 51.3954 201.235C50.8189 205.036 50.1024 208.815 49.0397 212.42C48.8526 213.053 48.6509 213.682 48.4404 214.305L50.5541 214.307C50.6264 214.044 50.7024 213.781 50.771 213.518C51.2644 211.597 51.6572 209.662 51.9809 207.731C52.2667 206.032 52.4993 204.323 52.6997 202.631C52.7903 201.873 52.87 201.119 52.9496 200.364C53.499 194.994 53.8443 189.594 53.6815 184.305C53.5187 179.016 52.8225 173.833 51.3143 169.214C52.5995 173.987 53.0371 179.197 52.962 184.446C52.8852 189.714 52.3101 195.027 51.5343 200.321Z" fill="#D5CDD7"/>
<path d="M40.0385 202.181C39.9791 204.02 39.8738 205.863 39.7181 207.708C39.6114 209.034 39.4759 210.357 39.3175 211.682C39.2559 212.208 39.1866 212.735 39.1159 213.259C39.0687 213.606 39.0165 213.952 38.9658 214.299L40.9042 214.3C40.9403 213.963 40.9773 213.627 41.0097 213.29C41.0547 212.852 41.0952 212.412 41.1281 211.973C41.2293 210.814 41.3077 209.656 41.3675 208.502C41.4557 206.817 41.507 205.138 41.5168 203.464L41.5155 203.46C41.5388 201.187 41.4915 198.924 41.3825 196.675C40.8569 185.74 38.996 175.185 36.5107 164.975C38.5832 175.357 40.0141 186.03 40.1067 196.906C40.1217 198.663 40.1015 200.421 40.0385 202.181Z" fill="#D5CDD7"/>
<path d="M28.2421 183.644C28.4946 184.048 28.7634 184.433 29.0015 184.85L29.6863 186.116C30.5412 187.847 31.2818 189.669 31.8189 191.594C32.1282 192.534 32.3231 193.535 32.5686 194.504L32.8513 196L32.9904 196.748L33.0984 197.506C33.1637 197.904 33.2182 198.305 33.2696 198.708C33.4817 200.335 33.5992 201.993 33.6983 203.654C33.7978 205.728 33.8172 207.819 33.7767 209.918C33.7431 211.377 33.6748 212.833 33.5947 214.295L35.4069 214.296C35.4139 212.76 35.4103 211.216 35.3699 209.683C35.365 209.51 35.3587 209.333 35.3492 209.158C35.3316 208.54 35.3033 207.924 35.2654 207.315C35.197 205.984 35.0974 204.664 34.9718 203.347C34.8111 201.911 34.6351 200.476 34.3969 199.063C34.2919 198.423 34.1731 197.788 34.0358 197.155L33.885 196.398L33.7063 195.65L33.3379 194.156C33.0363 193.184 32.7828 192.195 32.4199 191.258C31.7721 189.352 30.9199 187.567 29.9582 185.896L29.2028 184.67C28.9439 184.27 28.6454 183.9 28.369 183.516L27.9481 182.943C27.8063 182.762 27.6424 182.595 27.4911 182.42L26.5696 181.373L27.4312 182.488C27.5699 182.671 27.7194 182.852 27.8544 183.046L28.2421 183.644Z" fill="#F3D0DD"/>
<path d="M46.5906 214.304C46.5924 214.295 46.5948 214.283 46.5966 214.275C47.2522 211.295 47.8101 208.327 48.2809 205.361C48.3852 204.725 48.4841 204.094 48.5792 203.457C48.9158 201.206 49.2107 198.959 49.4602 196.71C49.6451 195.075 49.8029 193.44 49.9425 191.804C49.9459 191.781 49.9493 191.758 49.949 191.73C49.9672 191.547 49.9816 191.359 49.9907 191.176C50.0493 190.509 50.1062 189.854 50.1503 189.192C50.2331 188.028 50.3066 186.864 50.3675 185.693C50.3879 185.373 50.4046 185.048 50.4196 184.734C50.7348 178.532 50.7893 172.364 50.6232 166.266C50.3831 172.363 49.9382 178.484 49.2358 184.587C49.231 184.65 49.2245 184.724 49.2143 184.792C48.9605 186.979 48.6795 189.164 48.3586 191.341C48.0838 193.24 47.7744 195.126 47.4324 197.016C47.0998 198.935 46.7218 200.853 46.3184 202.757C46.2892 202.922 46.258 203.069 46.2251 203.228C45.5369 206.418 44.5544 210.786 43.6113 214.302L46.5906 214.304Z" fill="#F3D0DD"/>
<path d="M66.9954 193.141C67.0643 193.617 67.1377 194.089 67.2112 194.561C68.1072 200.469 69.2207 206.341 70.8721 211.943C71.163 212.928 71.4764 213.904 71.8034 214.873L68.5187 214.875C68.4063 214.467 68.2882 214.059 68.1816 213.649C67.4149 210.664 66.8045 207.658 66.3014 204.656C65.8572 202.015 65.4957 199.36 65.1843 196.731C65.0435 195.553 64.9197 194.381 64.7959 193.208C63.9422 184.862 63.4055 176.471 63.6586 168.251C63.9117 160.032 64.9937 151.978 67.3373 144.799C65.3401 152.217 64.6601 160.314 64.7768 168.471C64.896 176.657 65.7898 184.914 66.9954 193.141Z" fill="#D5CDD7"/>
<path d="M84.8605 196.032C84.9528 198.89 85.1164 201.754 85.3584 204.62C85.5242 206.681 85.7347 208.738 85.9809 210.797C86.0767 211.615 86.1844 212.433 86.2942 213.247C86.3675 213.786 86.4486 214.324 86.5274 214.863L83.5149 214.865C83.4587 214.342 83.4014 213.819 83.351 213.295C83.2811 212.614 83.2181 211.931 83.167 211.249C83.0097 209.447 82.888 207.649 82.795 205.855C82.6579 203.236 82.5782 200.626 82.5629 198.025L82.565 198.019C82.5287 194.487 82.6022 190.97 82.7716 187.475C83.5885 170.481 86.4803 154.077 90.3425 138.212C87.1219 154.345 84.8982 170.933 84.7543 187.833C84.7312 190.564 84.7626 193.297 84.8605 196.032Z" fill="#D5CDD7"/>
<path d="M103.193 167.224C102.8 167.851 102.383 168.449 102.013 169.098L100.948 171.066C99.6198 173.756 98.4688 176.586 97.6341 179.578C97.1535 181.04 96.8505 182.595 96.4691 184.1L96.0298 186.426L95.8136 187.588L95.6456 188.767C95.5442 189.385 95.4595 190.008 95.3797 190.634C95.0501 193.163 94.8675 195.739 94.7135 198.32C94.5588 201.544 94.5286 204.793 94.5915 208.055C94.6437 210.323 94.7499 212.584 94.8744 214.857L92.0581 214.859C92.0472 212.472 92.053 210.073 92.1156 207.69C92.1233 207.421 92.1332 207.146 92.1478 206.874C92.1751 205.913 92.2192 204.957 92.278 204.01C92.3844 201.941 92.5391 199.889 92.7343 197.844C92.9841 195.612 93.2577 193.381 93.6279 191.186C93.7909 190.191 93.9756 189.204 94.189 188.221L94.4234 187.044L94.7012 185.882L95.2736 183.56C95.7423 182.05 96.1362 180.513 96.7001 179.057C97.7069 176.095 99.0313 173.321 100.526 170.723L101.7 168.818C102.102 168.197 102.566 167.622 102.995 167.025L103.65 166.135C103.87 165.853 104.125 165.594 104.36 165.321L105.792 163.695L104.453 165.427C104.237 165.712 104.005 165.993 103.795 166.295L103.193 167.224Z" fill="#F3D0DD"/>
<path d="M74.6778 214.871C74.6749 214.858 74.6712 214.839 74.6685 214.827C73.6496 210.195 72.7826 205.583 72.0509 200.974C71.8888 199.985 71.7352 199.005 71.5873 198.015C71.0643 194.517 70.606 191.024 70.2182 187.529C69.9308 184.989 69.6856 182.448 69.4687 179.905C69.4634 179.869 69.4581 179.834 69.4585 179.79C69.4304 179.506 69.4079 179.214 69.3939 178.93C69.3028 177.893 69.2143 176.874 69.1457 175.846C69.0172 174.037 68.9029 172.228 68.8082 170.408C68.7766 169.912 68.7506 169.406 68.7273 168.918C68.2374 159.28 68.1528 149.695 68.4109 140.218C68.7841 149.692 69.4753 159.205 70.567 168.69C70.5745 168.787 70.5846 168.903 70.6004 169.009C70.9948 172.406 71.4315 175.802 71.9303 179.186C72.3573 182.137 72.8381 185.068 73.3696 188.005C73.8865 190.988 74.4738 193.967 75.1009 196.927C75.1462 197.183 75.1946 197.412 75.2458 197.659C76.3153 202.615 77.8422 209.404 79.3077 214.868L74.6778 214.871Z" fill="#F3D0DD"/>
<path d="M171.579 193.136C171.648 193.612 171.722 194.084 171.795 194.555C172.691 200.463 173.805 206.336 175.456 211.938C175.747 212.923 176.06 213.899 176.387 214.868L173.103 214.87C172.99 214.462 172.872 214.054 172.766 213.644C171.999 210.659 171.388 207.653 170.885 204.651C170.441 202.01 170.08 199.355 169.768 196.726C169.628 195.548 169.504 194.375 169.38 193.203C168.526 184.857 167.99 176.466 168.243 168.246C168.496 160.027 169.578 151.973 171.921 144.794C169.924 152.212 169.244 160.309 169.361 168.466C169.48 176.652 170.374 184.909 171.579 193.136Z" fill="#D5CDD7"/>
<path d="M189.444 196.026C189.537 198.885 189.7 201.748 189.942 204.615C190.108 206.676 190.319 208.732 190.565 210.791C190.661 211.609 190.768 212.428 190.878 213.241C190.951 213.781 191.033 214.319 191.111 214.858L188.099 214.86C188.043 214.337 187.985 213.813 187.935 213.289C187.865 212.609 187.802 211.926 187.751 211.243C187.594 209.442 187.472 207.643 187.379 205.849C187.242 203.23 187.162 200.621 187.147 198.019L187.149 198.014C187.113 194.481 187.186 190.965 187.356 187.469C188.172 170.475 191.064 154.072 194.926 138.207C191.706 154.34 189.482 170.927 189.338 187.828C189.315 190.559 189.347 193.292 189.444 196.026Z" fill="#D5CDD7"/>
<path d="M207.777 167.219C207.384 167.846 206.967 168.444 206.597 169.093L205.532 171.061C204.204 173.751 203.053 176.582 202.218 179.573C201.738 181.035 201.435 182.59 201.053 184.096L200.614 186.421L200.398 187.583L200.23 188.762C200.128 189.38 200.044 190.003 199.964 190.629C199.634 193.158 199.452 195.734 199.298 198.315C199.143 201.539 199.113 204.788 199.176 208.05C199.228 210.318 199.334 212.58 199.459 214.852L196.642 214.854C196.631 212.467 196.637 210.068 196.7 207.686C196.708 207.416 196.717 207.141 196.732 206.869C196.759 205.908 196.803 204.952 196.862 204.005C196.969 201.936 197.123 199.885 197.319 197.839C197.568 195.607 197.842 193.377 198.212 191.181C198.375 190.186 198.56 189.199 198.773 188.216L199.008 187.039L199.286 185.877L199.858 183.555C200.327 182.046 200.721 180.508 201.284 179.052C202.291 176.09 203.616 173.316 205.11 170.718L206.284 168.813C206.686 168.192 207.15 167.617 207.58 167.02L208.234 166.13C208.454 165.849 208.709 165.589 208.944 165.316L210.376 163.69L209.037 165.423C208.822 165.707 208.589 165.988 208.379 166.29L207.777 167.219Z" fill="#F3D0DD"/>
<path d="M179.262 214.866C179.259 214.853 179.255 214.834 179.253 214.822C178.234 210.19 177.367 205.578 176.635 200.968C176.473 199.98 176.319 198.999 176.171 198.01C175.648 194.512 175.19 191.019 174.802 187.524C174.515 184.984 174.27 182.442 174.053 179.9C174.047 179.864 174.042 179.829 174.043 179.784C174.014 179.501 173.992 179.209 173.978 178.924C173.887 177.888 173.798 176.869 173.73 175.84C173.601 174.032 173.487 172.222 173.392 170.403C173.361 169.907 173.335 169.401 173.311 168.913C172.821 159.275 172.737 149.69 172.995 140.213C173.368 149.687 174.059 159.2 175.151 168.685C175.158 168.782 175.169 168.897 175.184 169.004C175.579 172.401 176.015 175.797 176.514 179.18C176.941 182.132 177.422 185.063 177.954 188C178.47 190.983 179.058 193.962 179.685 196.922C179.73 197.178 179.779 197.407 179.83 197.653C180.899 202.61 182.426 209.398 183.892 214.863L179.262 214.866Z" fill="#F3D0DD"/>
<path d="M75.6684 205.07C71.9467 205.07 68.6923 207.064 66.9116 210.042C66.479 209.956 66.0335 209.906 65.5756 209.906C64.2942 209.906 63.098 210.263 62.0734 210.876C60.2361 204.079 54.0301 199.077 46.6515 199.077C40.6015 199.077 35.3414 202.441 32.6297 207.399C31.8185 207.117 30.9478 206.962 30.0404 206.962C25.7164 206.962 22.2071 210.443 22.1577 214.756H30.6788H37.9231H59.0355H62.6242H65.4834H72.1156H85.8534C85.5866 209.361 81.1288 205.07 75.6684 205.07Z" fill="#B3CB51"/>
<path d="M67.0568 210.071L66.9115 210.042L66.9115 210.042C66.8631 210.032 66.814 210.025 66.7654 210.016L65.8374 214.649L62.7466 214.609C62.6557 214.137 62.3234 212.333 62.2389 210.784C62.1838 210.815 62.1273 210.844 62.0732 210.876C62.0286 210.711 61.9792 210.548 61.9294 210.385C61.9686 212.176 62.4113 214.448 62.4729 214.755H62.6241H65.4833H66.1185L67.0568 210.071Z" fill="#C6E05A"/>
<path d="M34.8174 214.756C33.6833 212.746 33.1216 209.618 32.8429 207.024C32.7706 207.148 32.6987 207.273 32.6296 207.399C32.6114 207.393 32.5924 207.389 32.5742 207.383C32.8582 209.868 33.4102 212.771 34.4808 214.756L34.8174 214.756Z" fill="#C6E05A"/>
<path d="M139.696 215.543H13.6955C13.3741 215.543 13.1135 215.282 13.1135 214.961C13.1135 214.639 13.3741 214.379 13.6955 214.379H139.696C140.018 214.379 140.278 214.639 140.278 214.961C140.278 215.282 140.018 215.543 139.696 215.543Z" fill="#738F1F"/>
<path d="M179.093 205.07C175.371 205.07 172.117 207.064 170.336 210.042C169.903 209.956 169.458 209.906 169 209.906C167.718 209.906 166.522 210.263 165.498 210.876C163.66 204.079 157.454 199.077 150.076 199.077C144.026 199.077 138.766 202.441 136.054 207.399C135.243 207.117 134.372 206.962 133.465 206.962C129.141 206.962 125.631 210.443 125.582 214.756H134.103H141.347H162.46H166.048H168.908H175.54H189.278C189.011 209.361 184.553 205.07 179.093 205.07Z" fill="#B3CB51"/>
<path d="M170.481 210.071L170.336 210.042L170.336 210.042C170.288 210.032 170.239 210.025 170.19 210.016L169.262 214.649L166.171 214.609C166.08 214.137 165.748 212.333 165.663 210.784C165.608 210.815 165.552 210.844 165.498 210.876C165.453 210.711 165.404 210.548 165.354 210.385C165.393 212.176 165.836 214.448 165.897 214.755H166.049H168.908H169.543L170.481 210.071Z" fill="#C6E05A"/>
<path d="M138.242 214.756C137.108 212.746 136.546 209.618 136.267 207.024C136.195 207.148 136.123 207.273 136.054 207.399C136.036 207.393 136.017 207.389 135.999 207.383C136.283 209.868 136.835 212.771 137.905 214.756L138.242 214.756Z" fill="#C6E05A"/>
<path d="M243.121 215.543H117.12C116.798 215.543 116.538 215.282 116.538 214.961C116.538 214.639 116.798 214.379 117.12 214.379H243.121C243.442 214.379 243.703 214.639 243.703 214.961C243.703 215.282 243.442 215.543 243.121 215.543Z" fill="#738F1F"/>
<path d="M77.0552 147.074L148.311 144.775L180.12 151.474L108.865 153.774L77.0552 147.074Z" fill="#CC9999"/>
<path d="M108.734 234.723L77.0689 224.709L77.0552 147.074L108.865 153.774L108.734 234.723Z" fill="#CC9999"/>
<path d="M94.5581 230.24V150.761L86.3999 149.042V227.66L94.5581 230.24Z" fill="#AD2B5E"/>
<path d="M106.984 92.9704C107.214 92.8997 104.706 89.656 98.4568 84.0517C92.2076 78.4475 88.2224 80.1795 85.293 78.8237C82.3636 77.4679 80.6343 76.7461 80.6343 76.7461C80.6343 76.7461 82.2418 79.5142 83.7787 82.0531C85.3154 84.592 96.4385 96.2251 106.984 92.9704Z" fill="#87A825"/>
<path d="M108.378 93.4191L108.308 93.1898L108.343 93.3044L108.309 93.1894C108.109 93.2378 105.479 92.9588 101.576 91.4962C98.1293 90.2049 92.9254 87.6892 87.7049 83.0364L87.5454 83.2154C97.5485 92.1312 107.902 93.5659 108.378 93.4191Z" fill="#B3CB51"/>
<path d="M99.2373 90.5663C97.2705 88.8822 92.4429 84.03 92.3943 83.9812L92.2244 84.1503C92.2729 84.1993 97.1073 89.0583 99.0813 90.7486L99.2373 90.5663Z" fill="#B3CB51"/>
<path d="M96.1264 89.0029C96.0645 88.9875 89.9229 87.4411 87.906 84.8772L87.7175 85.0255C89.7853 87.6542 95.8131 89.1724 96.0687 89.2357L96.1264 89.0029Z" fill="#B3CB51"/>
<path d="M107.714 84.3636C107.714 84.3636 114.301 77.551 114.145 69.3558C113.989 61.1607 112.233 59.2642 112.691 57.3855C111.801 57.8213 111.12 63.1703 108.303 66.004C105.485 68.8378 106.298 74.7102 106.83 77.3557C107.362 80.0011 106.378 83.9244 106.378 83.9244C106.378 83.9244 106.614 86.0732 107.714 84.3636Z" fill="#87A825"/>
<path d="M111.599 72.1751C111.951 69.7893 112.235 66.9634 112.406 63.6154L112.159 63.6028C111.196 82.4059 106.593 84.6686 106.547 84.6892L106.646 84.9163C106.806 84.8468 109.953 83.3426 111.599 72.1751Z" fill="#B3CB51"/>
<path d="M110.303 78.3883C110.331 78.1521 110.973 72.5675 109.869 69.4775L109.636 69.5609C110.72 72.5958 110.064 78.3021 110.058 78.3593L110.303 78.3883Z" fill="#B3CB51"/>
<path d="M113.963 67.5192L113.795 67.3376C113.313 67.7846 111.561 71.1429 111.487 71.2857L111.706 71.4001C112.207 70.4382 113.589 67.8662 113.963 67.5192Z" fill="#B3CB51"/>
<path d="M97.4188 64.0087C97.4188 64.0087 100.157 62.3716 102.686 54.1689C105.216 45.9663 103.493 42.09 102.822 40.2036C102.152 38.3171 102.739 36.7542 102.739 36.7542C102.739 36.7542 101.548 41.4002 99.6362 43.1951C97.7244 44.99 95.6606 50.3182 96.7072 52.8146C97.7538 55.3111 98.2548 62.2508 97.4188 64.0087Z" fill="#87A825"/>
<path d="M102.105 50.0282C102.399 48.0303 102.481 45.9762 102.197 44.0063L101.959 44.0406C103.179 52.4939 97.5802 62.5631 97.5232 62.6639L97.7324 62.7816C97.7763 62.7037 101.123 56.6854 102.105 50.0282Z" fill="#B3CB51"/>
<path d="M101.173 54.1154C101.443 52.2839 100.434 47.6803 100.39 47.4836L100.156 47.5355C100.166 47.5831 101.199 52.2922 100.935 54.0799C100.934 54.0929 100.932 54.1058 100.93 54.1185L101.166 54.157C101.169 54.1434 101.171 54.1293 101.173 54.1154Z" fill="#B3CB51"/>
<path d="M102.83 52.0643L102.613 51.9612C101.626 54.0367 100.026 57.0444 100.01 57.0745L100.221 57.1873C100.237 57.1572 101.84 54.1447 102.83 52.0643Z" fill="#B3CB51"/>
<path d="M99.0039 72.4299C99.0039 72.4299 89.8307 71.9966 84.4985 66.1093C79.1662 60.222 79.1465 57.7172 77.5757 56.6953C78.4927 56.4123 82.5258 59.7349 86.396 59.8637C90.2663 59.9925 93.5923 64.6769 94.9739 66.897C96.3555 69.1171 99.655 71.2329 99.655 71.2329C99.655 71.2329 100.916 72.9055 99.0039 72.4299Z" fill="#87A825"/>
<path d="M100.125 72.1103L100.044 71.8845C99.9975 71.9008 95.2464 73.3613 82.08 60.7297L81.9138 60.9029C95.2323 73.6802 99.9315 72.1805 100.125 72.1103Z" fill="#B3CB51"/>
<path d="M93.3628 69.7486C93.32 69.7126 89.0678 66.1209 87.817 63.2593L87.5972 63.3554C88.8706 66.2687 93.032 69.7841 93.2085 69.9323L93.3628 69.7486Z" fill="#B3CB51"/>
<path d="M87.6563 65.7055C87.5091 65.6542 84.0427 64.4472 83.4053 64.4522L83.4072 64.692C83.9019 64.6881 86.5852 65.5859 87.5773 65.9321L87.6563 65.7055Z" fill="#B3CB51"/>
<path d="M90.4348 51.5554C90.4348 51.5554 87.5267 52.867 79.3497 50.2556C71.1728 47.6442 68.9762 44.0154 67.8112 42.3873C66.6461 40.7591 65.0283 40.3474 65.0283 40.3474C65.0283 40.3474 69.5215 42.0252 72.0869 41.4819C74.6524 40.9387 80.2042 42.2896 81.6549 44.575C83.1055 46.8604 88.5145 51.237 90.4348 51.5554Z" fill="#87A825"/>
<path d="M89.2487 51.1118L89.2716 50.873C89.1565 50.862 77.6926 49.7028 71.4534 43.8716L71.2896 44.0469C77.5891 49.9344 89.1329 51.1007 89.2487 51.1118Z" fill="#B3CB51"/>
<path d="M80.3123 48.7855C78.7074 48.0149 75.3854 44.4249 75.3521 44.3887L75.1758 44.5514C75.3133 44.7005 78.5625 48.2115 80.2086 49.0019L80.3123 48.7855Z" fill="#B3CB51"/>
<path d="M83.2354 49.9576L83.264 49.7193C83.23 49.7153 79.8471 49.3101 77.5798 48.9341L77.5405 49.1707C79.8133 49.5477 83.2015 49.9536 83.2354 49.9576Z" fill="#B3CB51"/>
<path d="M86.3126 44.1349C86.1584 44.2254 85.6353 41.2149 85.6955 34.9591C85.7556 28.7033 88.7125 27.3824 89.4399 25.0893C90.1673 22.7962 90.64 21.4819 90.64 21.4819C90.64 21.4819 91.3541 23.7582 91.9777 25.8803C92.6014 28.0024 93.4064 39.9708 86.3126 44.1349Z" fill="#87A825"/>
<path d="M90.3621 33.0785C90.5706 31.6645 90.7026 30.1474 90.7231 28.5365L90.5442 28.5342C90.4122 38.9859 85.8132 44.9423 85.7671 44.9734L85.8585 45.127C86.1271 44.9693 89.2781 40.4296 90.3621 33.0785Z" fill="#B3CB51"/>
<path d="M89.0651 38.6702C89.128 36.7342 88.8867 31.6316 88.8842 31.5803L88.7056 31.5888C88.708 31.64 88.949 36.7356 88.8864 38.6643L89.0651 38.6702Z" fill="#B3CB51"/>
<path d="M91.6098 31.1103C91.692 30.5534 91.7107 30.0174 91.6322 29.5417L91.4558 29.5708C91.8516 31.9695 89.6138 36.1254 89.5911 36.1672L89.7482 36.2525C89.8238 36.1135 91.2674 33.4326 91.6098 31.1103Z" fill="#B3CB51"/>
<path d="M108.076 111.968C108.076 111.968 109.88 75.5045 78.272 36.5466C79.206 35.505 73.9813 31.5933 79.206 35.505C84.4307 39.4167 109.419 72.3826 112.891 110.482C111.198 111.507 108.076 111.968 108.076 111.968Z" fill="#87A825"/>
<path d="M79.2724 37.7976C79.2569 37.9758 76.9597 35.5194 71.8955 31.8462C66.8314 28.173 67.4675 24.9977 66.0198 23.0763C64.572 21.1549 63.7747 20.0083 63.7747 20.0083C63.7747 20.0083 66.0437 20.7449 68.1347 21.4661C70.0509 22.1269 79.5631 29.3899 80.4278 36.693C80.5066 37.3593 79.3322 37.1125 79.2724 37.7976Z" fill="#87A825"/>
<path d="M110.669 111.335C110.668 111.248 110.485 102.419 106.597 88.8881C103.009 76.4025 95.4409 57.2412 79.7646 36.8618C79.4363 36.4348 79.0763 36.0031 78.6948 35.5788C76.7836 33.4534 70.4259 26.4156 68.8595 25.0884L68.7439 25.2248C70.3017 26.5447 76.6525 33.5751 78.5619 35.6984C78.9403 36.1194 79.2973 36.5474 79.6229 36.9708C95.2822 57.328 102.841 76.4669 106.425 88.9375C110.307 102.446 110.489 111.251 110.491 111.338L110.669 111.335Z" fill="#B3CB51"/>
<path d="M76.5829 33.326C76.5125 33.0979 74.2548 28.8624 73.0654 27.1382L72.9182 27.2397C74.0962 28.9474 76.3411 33.1516 76.412 33.3787L76.5829 33.326Z" fill="#B3CB51"/>
<path d="M73.2183 29.6588C73.1962 29.6503 70.9905 28.7941 69.6926 27.7969L69.5837 27.9387C70.9022 28.9518 73.1316 29.8171 73.154 29.8257L73.2183 29.6588Z" fill="#B3CB51"/>
<path d="M155.013 166.53C155.013 166.53 161.352 110.251 116.203 46.8624C117.75 45.3406 110.041 38.7764 117.75 45.3406C125.459 51.9049 160.941 105.373 162.611 164.698C159.891 166.119 155.013 166.53 155.013 166.53Z" fill="#738F1F"/>
<path d="M157.665 152.39C159.258 153.208 116.144 158.721 104.137 151.787C115.912 151.343 146.151 146.478 157.665 152.39Z" fill="#738F1F"/>
<path d="M158.025 144.302C159.523 145.218 118.213 149.757 105.313 140.674C121.338 143.049 147.198 137.685 158.025 144.302Z" fill="#738F1F"/>
<path d="M155.315 133.924C156.77 134.787 118.341 138.758 107.348 131.49C117.88 131.455 144.798 127.683 155.315 133.924Z" fill="#738F1F"/>
<path d="M155.359 125.94C156.732 126.897 119.886 129.967 108.02 120.543C122.455 123.442 145.434 119.025 155.359 125.94Z" fill="#738F1F"/>
<path d="M151.506 114.925C152.796 115.843 119.951 117.975 110.167 110.31C119.216 110.763 142.178 108.293 151.506 114.925Z" fill="#738F1F"/>
<path d="M151.175 107.064C152.399 108.07 120.873 109.389 110.237 99.5598C122.779 103.082 142.324 99.7959 151.175 107.064Z" fill="#738F1F"/>
<path d="M144.656 95.7702C145.817 96.6168 122.016 99.2511 113.053 92.1614C119.846 92.4223 136.264 89.6516 144.656 95.7702Z" fill="#738F1F"/>
<path d="M142.638 88.3191C143.77 89.2506 120.76 91.0884 110.68 81.9614C120.747 85.0697 134.455 81.5884 142.638 88.3191Z" fill="#738F1F"/>
<path d="M134.253 75.2472C135.247 76.0536 116.125 79.8159 108.42 73.0292C113.94 72.9835 127.071 69.4204 134.253 75.2472Z" fill="#738F1F"/>
<path d="M132.153 67.7768C133.128 68.6704 114.598 71.5881 105.86 62.7847C114.211 65.4794 125.102 61.3189 132.153 67.7768Z" fill="#738F1F"/>
<path d="M160.923 147.142C159.969 148.658 199.881 131.447 206.684 119.365C196.324 124.979 167.822 136.191 160.923 147.142Z" fill="#738F1F"/>
<path d="M156.396 139.01C155.573 140.561 193.437 123.431 199.914 109.044C187.332 119.249 162.344 127.801 156.396 139.01Z" fill="#738F1F"/>
<path d="M155.001 130.267C154.189 131.751 189.283 115.599 195.043 103.746C185.962 109.079 160.874 119.54 155.001 130.267Z" fill="#738F1F"/>
<path d="M152.895 118.944C152.2 120.466 185.474 104.345 190.888 90.1917C179.941 100.038 157.916 107.938 152.895 118.944Z" fill="#738F1F"/>
<path d="M151.22 109.38C150.577 110.827 179.93 95.9365 184.448 84.3572C176.89 89.3552 155.87 98.9223 151.22 109.38Z" fill="#738F1F"/>
<path d="M146.365 100.045C145.823 101.534 173.627 86.6147 177.775 72.7395C168.775 82.1575 150.28 89.2824 146.365 100.045Z" fill="#738F1F"/>
<path d="M144.123 91.1666C143.555 92.4866 165.38 82.6334 169.484 71.9675C163.77 75.6512 148.23 81.6274 144.123 91.1666Z" fill="#738F1F"/>
<path d="M139.156 81.2139C138.656 82.5921 159.395 72.4565 163.423 59.4683C156.342 67.2695 142.771 71.2542 139.156 81.2139Z" fill="#738F1F"/>
<path d="M134.275 71.3025C133.83 72.5025 152.203 66.0029 155.378 56.2383C150.604 59.0101 137.489 62.6303 134.275 71.3025Z" fill="#738F1F"/>
<path d="M128.112 62.745C127.728 64.011 145.162 57.0857 148.199 45.0596C142.384 51.6314 130.892 53.5967 128.112 62.745Z" fill="#738F1F"/>
<path d="M125.597 57.1971C126.439 57.8891 114.919 63.4938 108.262 57.6031C111.841 57.0062 119.513 52.1961 125.597 57.1971Z" fill="#738F1F"/>
<path d="M123.331 53.9391C123.434 55.0239 134.522 48.6156 133.357 39.803C130.862 42.4337 122.584 46.0992 123.331 53.9391Z" fill="#738F1F"/>
<path d="M121.074 51.7256C121.925 52.5052 110.585 57.2218 102.768 49.4548C108.851 51.2647 114.923 46.0922 121.074 51.7256Z" fill="#738F1F"/>
<path d="M119.265 48.719C119.489 49.8512 107.559 46.9329 105.863 36.0444C109.692 41.1066 117.647 40.5364 119.265 48.719Z" fill="#738F1F"/>
<path d="M141.339 101.888C133.488 94.7679 130.792 108.303 126.458 108.594C122.237 108.947 116.883 99.5912 117.212 88.1315C117.787 76.4859 109.581 63.4311 102.644 63.9943C95.9223 64.5212 99.9374 75.2936 99.8887 79.3898C99.8504 82.9706 79.3848 70.5457 73.3084 56.319C67.0421 41.2668 58.5728 39.5617 56.0271 41.2872C53.2456 42.9847 52.6536 49.255 55.8116 54.3728C59.1397 59.2945 39.8904 46.0963 31.5909 45.2326C29.9352 44.9512 28.4007 45.0195 27.1043 45.3442C24.7124 45.7045 23.4574 46.8947 23.1391 48.3617C22.6178 49.7744 23.0381 51.4504 24.678 53.114C25.4952 54.1246 26.5953 55.0738 27.9494 55.8611C34.5813 59.0863 54.6688 66.5591 48.9591 67.0823C43.3455 67.4024 39.2728 72.0937 39.276 75.1507C39.4029 78.3805 42.9717 82.1926 56.797 80.8163C71.5356 79.4728 83.227 99.6489 78.9282 99.5519C75.1714 99.4676 66.1823 97.8412 65.1878 103.875C64.1578 109.752 69.3166 116.466 79.0954 117.408C89.0194 118.201 97.4998 124.23 94.699 127.311C91.9089 130.26 80.7 129.162 81.2301 136.493C81.4237 143.485 97.7543 141.931 106.609 148.919C106.632 148.937 106.653 148.954 106.676 148.971C108.419 150.325 111.881 152.259 115.468 154.385C122.542 158.628 130.679 157.08 134.286 148.692C136.057 144.524 137.444 140.222 137.78 137.612C137.784 137.58 137.789 137.547 137.793 137.514C139.611 124.894 149.281 109.52 141.339 101.888Z" fill="#B3CB51"/>
<path d="M129.356 172.151C127.087 158.884 123.183 146.246 117.864 134.428C112.546 122.61 105.819 111.616 97.9161 101.627C90.0119 91.6348 80.9289 82.6576 70.8927 74.8066C65.8749 70.8783 60.616 67.2352 55.1516 63.8538C52.4211 62.1594 49.6363 60.5351 46.8101 58.9539C45.3988 58.1596 43.969 57.3927 42.5413 56.6092C41.103 55.8487 39.6742 55.0522 38.2224 54.2896C38.3734 54.0523 38.5246 53.8151 38.6759 53.5779C40.1215 54.3263 41.5418 55.1061 42.9851 55.8581C44.413 56.6302 45.8498 57.3887 47.2671 58.1751C50.1066 59.7399 52.9105 61.3516 55.6626 63.0345C61.1704 66.3936 66.4815 70.0203 71.5548 73.9383C81.7029 81.7683 90.9137 90.7484 98.9497 100.767C106.985 110.782 113.849 121.827 119.299 133.724C124.75 145.619 128.783 158.367 131.166 171.755C130.562 171.888 129.959 172.019 129.356 172.151Z" fill="#738F1F"/>
<path d="M122.452 144.04C123.143 141.823 123.826 139.626 124.497 137.41C125.169 135.198 125.827 132.977 126.498 130.768C127.169 128.559 127.841 126.353 128.588 124.208C128.964 123.137 129.349 122.076 129.789 121.062C130.229 120.051 130.707 119.069 131.311 118.229C131.363 118.293 131.416 118.356 131.468 118.42C130.918 119.294 130.491 120.307 130.101 121.348C129.712 122.391 129.375 123.483 129.048 124.582C128.398 126.783 127.819 129.046 127.239 131.31C126.659 133.574 126.089 135.851 125.502 138.118C124.92 140.385 124.316 142.651 123.715 144.895C123.295 144.607 122.874 144.322 122.452 144.04Z" fill="#738F1F"/>
<path d="M118.094 133.163C116.094 132.859 114.085 132.651 112.095 132.517C110.104 132.387 108.123 132.333 106.161 132.378C104.2 132.424 102.253 132.557 100.348 132.845C99.3961 132.99 98.4506 133.166 97.5298 133.413C96.6102 133.661 95.7057 133.965 94.8706 134.409C94.8387 134.352 94.8068 134.295 94.7749 134.238C95.5991 133.736 96.4961 133.374 97.4079 133.069C98.3218 132.764 99.2592 132.53 100.205 132.325C102.099 131.919 104.034 131.664 105.987 131.494C107.941 131.323 109.916 131.248 111.905 131.246C113.896 131.248 115.892 131.318 117.921 131.487C117.982 132.046 118.039 132.605 118.094 133.163Z" fill="#738F1F"/>
<path d="M104.315 109.839C104.448 107.558 104.58 105.295 104.693 103.014C104.81 100.737 104.91 98.4527 105.024 96.1734C105.139 93.8947 105.256 91.6155 105.458 89.374C105.561 88.2542 105.678 87.1405 105.856 86.0578C106.036 84.978 106.259 83.9153 106.638 82.957C106.704 83.0044 106.77 83.0518 106.835 83.0994C106.517 84.0772 106.35 85.1553 106.226 86.2513C106.103 87.3492 106.042 88.4791 105.992 89.613C105.896 91.8835 105.883 94.1919 105.869 96.4997C105.855 98.8081 105.853 101.122 105.832 103.428C105.815 105.733 105.777 108.04 105.737 110.322C105.263 110.158 104.789 109.997 104.315 109.839Z" fill="#738F1F"/>
<path d="M69.8717 73.7471C69.2589 71.5499 68.6484 69.3685 68.0123 67.1756C67.3806 64.9845 66.729 62.7913 66.0896 60.5965C65.4508 58.4025 64.8113 56.206 64.2635 54.0168C63.9919 52.9226 63.7335 51.8295 63.5441 50.7457C63.3572 49.6635 63.2174 48.5841 63.2588 47.5527C63.3369 47.5762 63.4153 47.5999 63.4934 47.6236C63.5153 48.6538 63.7145 49.7296 63.9593 50.8088C64.2062 51.889 64.5215 52.9793 64.848 54.0699C65.5062 56.2518 66.2525 58.4417 66.9955 60.6307C67.739 62.8198 68.4928 65.0086 69.2237 67.1952C69.9578 69.3796 70.6701 71.5713 71.3704 73.7383C70.8699 73.7386 70.3704 73.7415 69.8717 73.7471Z" fill="#738F1F"/>
<path d="M99.0125 102.85C97.0097 103.039 95.0196 103.323 93.0645 103.673C91.1091 104.026 89.1805 104.45 87.2933 104.964C85.4056 105.477 83.554 106.073 81.7751 106.806C80.8865 107.173 80.0122 107.569 79.1762 108.026C78.3424 108.484 77.5349 108.993 76.8268 109.62C76.7832 109.573 76.7396 109.526 76.696 109.478C77.3817 108.799 78.1679 108.237 78.9817 107.725C79.7972 107.214 80.6526 106.765 81.5215 106.341C83.2617 105.498 85.077 104.789 86.9283 104.157C88.7803 103.525 90.6734 102.98 92.5969 102.5C94.5238 102.025 96.4706 101.612 98.4713 101.287C98.655 101.808 98.8354 102.329 99.0125 102.85Z" fill="#738F1F"/>
<path d="M75.0422 78.0841C72.7753 77.2464 70.476 76.5141 68.1845 75.8802C65.8913 75.2491 63.5948 74.7149 61.309 74.3024C59.0231 73.8902 56.7444 73.5892 54.4999 73.4674C53.3784 73.4081 52.2634 73.3851 51.1717 73.4401C50.0816 73.4963 49.0056 73.6149 48.0029 73.8832C47.9717 73.8261 47.9406 73.7691 47.9094 73.712C48.9066 73.3898 49.9808 73.219 51.0705 73.111C52.1622 73.0037 53.2785 72.9754 54.4027 72.9838C56.6531 73.0035 58.9443 73.2027 61.2475 73.5138C63.5514 73.825 65.8705 74.2591 68.1936 74.7914C70.5187 75.3281 72.8394 75.9573 75.1772 76.7099C75.1341 77.1687 75.0892 77.6267 75.0422 78.0841Z" fill="#738F1F"/>
<path d="M114.182 147.016C99.4029 158.372 88.129 157.448 82.5853 152.677C79.9086 150.374 80.8468 146.011 84.2041 144.915C98.9082 140.117 111.005 145.733 113.358 146.613L114.182 147.016Z" fill="#87A825"/>
<path d="M113.415 146.641L114.182 147.016C114.071 147.101 113.961 147.185 113.851 147.269C111.085 147.401 95.8915 148.435 86.2571 147.927C94.4504 148.359 110.476 146.874 113.415 146.641Z" fill="#96BA29"/>
<path d="M91.6117 130.38C99.0974 117.124 97.0557 108.114 92.561 104.179C90.3907 102.278 86.9703 103.538 86.4699 106.379C84.2783 118.82 90.2093 127.958 91.1914 129.759L91.6117 130.38Z" fill="#87A825"/>
<path d="M91.2203 129.802L91.6115 130.38C91.6676 130.28 91.7224 130.182 91.7775 130.083C91.5672 127.831 90.658 115.426 89.1406 107.693C90.4311 114.269 91.0705 127.399 91.2203 129.802Z" fill="#96BA29"/>
<path d="M120.928 151.804C124.683 137.052 120.354 128.89 114.986 126.268C112.394 125.003 109.423 127.114 109.683 129.986C110.825 142.568 118.941 149.834 120.36 151.316L120.928 151.804Z" fill="#87A825"/>
<path d="M120.399 151.349L120.928 151.804C120.956 151.694 120.983 151.584 121.011 151.474C120.219 149.356 116.094 137.622 112.605 130.556C115.572 136.565 119.626 149.069 120.399 151.349Z" fill="#96BA29"/>
<path d="M79.8299 126.343C67.7589 135.617 58.5506 134.863 54.0226 130.966C51.8363 129.084 52.6026 125.521 55.3447 124.626C67.3546 120.707 77.2354 125.294 79.1569 126.014L79.8299 126.343Z" fill="#87A825"/>
<path d="M79.2035 126.036L79.8299 126.343C79.7395 126.412 79.6495 126.48 79.5594 126.549C77.301 126.657 64.8909 127.501 57.0217 127.086C63.7139 127.439 76.8028 126.226 79.2035 126.036Z" fill="#96BA29"/>
<path d="M66.0067 118.18C73.8571 108.134 73.2883 100.416 70.0558 96.5972C68.4949 94.753 65.5052 95.3701 64.737 97.6605C61.3725 107.692 65.1468 115.999 65.7358 117.614L66.0067 118.18Z" fill="#87A825"/>
<path d="M65.7546 117.653L66.0068 118.179C66.0656 118.104 66.1234 118.029 66.1813 117.954C66.2875 116.064 67.0793 105.676 66.7855 99.082C67.0353 104.689 65.9299 115.643 65.7546 117.653Z" fill="#96BA29"/>
<path d="M57.3423 112.523C47.1106 120.129 39.4091 119.374 35.6687 116.051C33.8626 114.446 34.5515 111.472 36.8598 110.759C46.9694 107.637 55.1833 111.61 56.783 112.238L57.3423 112.523Z" fill="#87A825"/>
<path d="M56.8218 112.258L57.3424 112.523C57.2658 112.58 57.1894 112.636 57.1131 112.692C55.2203 112.753 44.8163 113.294 38.2317 112.841C43.8314 113.226 54.8088 112.385 56.8218 112.258Z" fill="#96BA29"/>
<path d="M49.1984 102.643C55.6034 95.4719 55.5573 89.636 53.3136 86.6018C52.2303 85.1367 49.9498 85.4531 49.2584 87.1388C46.2299 94.5215 48.6592 100.96 49.0225 102.204L49.1984 102.643Z" fill="#87A825"/>
<path d="M49.0347 102.234L49.1984 102.643C49.2464 102.59 49.2935 102.536 49.3408 102.483C49.5144 101.065 50.6243 93.2866 50.7296 88.3101C50.64 92.5423 49.266 100.731 49.0347 102.234Z" fill="#96BA29"/>
<path d="M43.4819 94.249C44.3845 84.6786 40.8863 80.0072 37.2808 78.8941C35.5398 78.3567 33.8919 79.9632 34.335 81.7302C36.2757 89.4693 42.0495 93.2133 43.0797 93.9995L43.4819 94.249Z" fill="#87A825"/>
<path d="M123.321 166.909C123.017 162.881 116.864 153.55 116.163 152.708C115.458 151.862 114.738 151.024 113.997 150.203C112.519 148.558 110.995 146.949 109.405 145.414C106.228 142.346 102.845 139.482 99.1799 137.123C98.9514 136.975 98.7256 136.821 98.4946 136.678L97.7933 136.267C97.3201 135.994 96.8704 135.714 96.3773 135.446C95.3894 134.91 94.4029 134.372 93.4047 133.847C91.4155 132.788 89.4064 131.752 87.3953 130.716C83.3698 128.647 79.3223 126.598 75.2954 124.492C71.2727 122.375 67.2546 120.236 63.3445 117.86C62.8554 117.564 62.3655 117.27 61.8843 116.957C61.3995 116.642 60.921 116.356 60.4318 116.017C59.4234 115.349 58.5495 114.566 57.6897 113.777C56.0037 112.172 54.491 110.44 53.0598 108.655C50.2108 105.076 47.6589 101.306 45.2274 97.4696C42.8069 93.6258 40.507 89.7138 38.3481 85.7234L38.5228 85.6255C40.8537 89.5073 43.3238 93.3071 45.9027 97.0216C48.4912 100.728 51.1956 104.357 54.1488 107.743C55.6291 109.429 57.1815 111.048 58.8453 112.496C59.6862 113.2 60.5404 113.897 61.4509 114.439C61.906 114.726 62.4132 115.001 62.8914 115.282C63.3731 115.566 63.8675 115.833 64.3604 116.102C68.299 118.259 72.3781 120.203 76.4669 122.125C80.5621 124.039 84.6905 125.9 88.8161 127.792C90.8788 128.74 92.9426 129.69 95.0007 130.669C96.031 131.153 97.0575 131.655 98.0851 132.154C98.599 132.404 99.1274 132.697 99.6482 132.968L100.432 133.382C100.689 133.526 100.939 133.68 101.193 133.829C105.265 136.2 108.964 139.064 112.445 142.135C114.186 143.672 115.855 145.282 117.482 146.936C118.297 147.763 119.093 148.608 119.878 149.469C120.666 150.335 131.555 161.496 131.599 166.244L123.321 166.909Z" fill="#96BA29"/>
<path fill-rule="evenodd" clip-rule="evenodd" d="M49.7829 125.978L45.6701 125.984C45.0028 125.986 44.3623 126.247 43.8847 126.713L38.8067 131.67C38.3118 132.154 38.0333 132.816 38.0344 133.508L38.0703 155.173C38.0726 156.588 39.2216 157.733 40.6366 157.731L54.9215 157.707C56.3365 157.705 57.4816 156.556 57.4792 155.141L57.4434 133.476C57.4423 132.784 57.1616 132.122 56.665 131.641L51.5708 126.7C51.0918 126.236 50.4503 125.976 49.7829 125.978Z" fill="#CC9999"/>
<path d="M48.8622 132.09C49.4854 131.466 49.4854 130.456 48.8622 129.833C48.239 129.21 47.2286 129.21 46.6054 129.833C45.9822 130.456 45.9822 131.466 46.6054 132.09C47.2286 132.713 48.239 132.713 48.8622 132.09Z" fill="#F0C30F"/>
<path d="M47.6966 107.924C43.5248 107.931 40.1373 111.721 40.145 116.372C40.1484 118.412 41.5336 121.77 44.256 126.35L45.0636 125.985C42.4263 121.56 41.0291 118.237 41.0261 116.371C41.0192 112.205 44.0122 108.811 47.6981 108.805C51.384 108.799 54.3884 112.183 54.3952 116.349C54.4022 120.575 47.4436 130.609 47.3735 130.71C47.2344 130.91 47.2834 131.184 47.4829 131.323C47.56 131.377 47.648 131.403 47.7351 131.402C47.874 131.402 48.0107 131.336 48.0961 131.214C48.3897 130.793 55.2837 120.849 55.2762 116.347C55.2686 111.696 51.8684 107.917 47.6966 107.924Z" fill="#996633"/>
<path d="M42.6345 142.811C42.6323 141.487 43.5754 140.06 45.0736 140.058C46.5866 140.055 47.3303 141.276 47.3325 142.614C47.3347 143.923 46.3916 145.35 44.8932 145.353C43.3805 145.355 42.6368 144.149 42.6345 142.811ZM50.3246 139.918C50.761 140.034 51.067 140.266 51.3001 140.586L45.2213 150.211C44.8138 150.08 44.4645 149.877 44.2458 149.587L50.3246 139.918ZM44.625 141.382C44.5088 141.557 44.3641 141.95 44.3651 142.532C44.3665 143.419 44.6004 144.146 45.0222 144.145C45.1677 144.145 45.2986 144.101 45.3421 144.043C45.4583 143.868 45.603 143.461 45.6021 142.879C45.6006 141.992 45.3666 141.265 44.9447 141.265C44.7991 141.266 44.6685 141.324 44.625 141.382ZM48.1846 147.646C48.1824 146.322 49.1254 144.895 50.6236 144.892C52.1365 144.89 52.8803 146.11 52.8825 147.449C52.8847 148.758 51.9416 150.185 50.4432 150.188C48.9305 150.19 48.1868 148.984 48.1846 147.646ZM50.175 146.217C50.0589 146.392 49.914 146.784 49.915 147.366C49.9165 148.254 50.1504 148.981 50.5722 148.98C50.7177 148.98 50.8486 148.936 50.8921 148.877C51.0082 148.703 51.1531 148.295 51.1521 147.713C51.1506 146.826 50.9166 146.099 50.4947 146.1C50.3492 146.1 50.2186 146.158 50.175 146.217Z" fill="white"/>
<path d="M47.3326 117.76C42.0738 119.252 38.061 118.177 35.6687 116.051C33.8626 114.446 34.5515 111.472 36.8598 110.759C40.6509 109.589 44.1754 109.416 47.1845 109.69C52.1997 110.147 50.2959 116.92 47.3326 117.76Z" fill="#87A825"/>
<path d="M51.1215 112.914C47.1409 113.032 42.0456 113.104 38.2317 112.842C41.6462 113.076 47.0601 112.855 51.222 112.618C52.2744 112.558 52.0581 112.886 51.1215 112.914Z" fill="#96BA29"/>
<path d="M180.12 151.474L179.99 232.424L108.734 234.723L108.865 153.774L180.12 151.474Z" fill="#FFCCCC"/>
<path d="M152.654 233.393L138.974 233.747V152.802L152.654 152.361V233.393Z" fill="#CC346F"/>
<path d="M160.573 58.152L145.39 29.0097L159.069 16.7441L175.415 44.8426L160.573 58.152Z" fill="#CC9999"/>
<path d="M175.467 44.8106C175.47 44.8092 175.473 44.8081 175.476 44.8069C175.483 44.8048 175.489 44.8031 175.495 44.8017C175.498 44.801 175.502 44.8003 175.505 44.7998C175.509 44.7991 175.513 44.7991 175.517 44.7987C175.526 44.7979 175.535 44.7979 175.544 44.7985C175.548 44.7988 175.552 44.7991 175.555 44.7997C175.565 44.801 175.574 44.8034 175.583 44.8064C175.585 44.8072 175.588 44.8076 175.59 44.8085C175.593 44.8098 175.596 44.8114 175.599 44.8129C175.605 44.8156 175.611 44.8184 175.616 44.8218C175.619 44.8239 175.622 44.8264 175.625 44.8288C175.631 44.8333 175.637 44.8376 175.642 44.8431L230.341 101.882L210.964 72.1848L159.296 16.7447C159.293 16.7424 159.291 16.7403 159.289 16.7382C159.286 16.7352 159.282 16.733 159.278 16.7303C159.275 16.728 159.273 16.7255 159.269 16.7234C159.264 16.7199 159.258 16.7172 159.252 16.7144C159.249 16.713 159.247 16.7113 159.244 16.7101C159.243 16.7099 159.243 16.7096 159.242 16.7094C159.24 16.7087 159.238 16.7087 159.236 16.708C159.227 16.705 159.218 16.7026 159.209 16.7013C159.207 16.701 159.206 16.7003 159.204 16.7001C159.202 16.6999 159.2 16.7003 159.197 16.7002C159.188 16.6995 159.179 16.6996 159.17 16.7004C159.168 16.7006 159.165 16.7001 159.163 16.7004C159.161 16.7006 159.16 16.7012 159.158 16.7014C159.155 16.7019 159.152 16.7027 159.148 16.7034C159.142 16.7048 159.136 16.7065 159.13 16.7085C159.126 16.7097 159.123 16.7108 159.12 16.7122C159.114 16.7147 159.107 16.7178 159.101 16.7211C159.099 16.7226 159.096 16.724 159.093 16.7257C159.084 16.731 159.076 16.737 159.068 16.7439L175.415 44.8424C175.423 44.8354 175.431 44.8294 175.44 44.8241C175.442 44.8224 175.445 44.8211 175.448 44.8195C175.454 44.8162 175.46 44.8131 175.467 44.8106Z" fill="#FFCCCC"/>
<path d="M230.341 101.882L175.642 44.8431C175.584 44.7826 175.483 44.7819 175.415 44.8423L160.573 58.1517C160.506 58.2117 160.499 58.3099 160.557 58.3703L215.255 115.409C215.313 115.47 215.415 115.471 215.482 115.411L230.325 102.101C230.392 102.041 230.399 101.943 230.341 101.882Z" fill="#FFCCCC"/>
<path d="M164.869 26.7261L151.032 39.8391L155.045 47.5414L169.225 34.2028L164.869 26.7261Z" fill="#AD2B5E"/>
<path d="M199.191 69.3997L184.155 82.978L193.627 92.8557L208.664 79.2774L199.191 69.3997Z" fill="#CC346F"/>
<path d="M164.869 26.7261L218.138 83.18L224.714 93.2582L169.226 34.2029L164.869 26.7261Z" fill="#AD2B5E"/>
<path d="M199.191 69.3996L183.555 42.7744L194.426 54.4388L208.809 79.1466L199.191 69.3996Z" fill="#CC346F"/>
<path d="M193.177 59.9816C193.066 59.8586 192.965 59.7252 192.874 59.5822C190.94 56.5184 181.308 40.8723 181.674 33.7068C181.876 29.7331 183.614 26.0761 186.567 23.4091C189.52 20.7425 193.335 19.3856 197.309 19.5882C201.282 19.7901 204.939 21.5281 207.606 24.4816C210.273 27.4342 211.63 31.2493 211.428 35.2229L211.427 35.2232C211.062 42.3882 199.89 56.9749 197.654 59.8263C197.067 60.575 196.152 60.9926 195.201 60.9432C194.419 60.9034 193.693 60.5532 193.177 59.9816ZM203.26 28.4064C201.641 26.6139 199.422 25.5591 197.011 25.4362C194.599 25.314 192.284 26.137 190.492 27.7555C188.7 29.3738 187.645 31.5936 187.522 34.0046C187.354 37.2884 191.635 45.9788 195.616 52.8066C200.27 46.4185 205.411 38.2081 205.58 34.9253C205.702 32.5134 204.878 30.1983 203.26 28.4064Z" fill="#CC346F"/>
<path d="M193.939 60.8259C193.423 60.2543 193.148 59.4969 193.188 58.7144C193.237 57.7641 193.744 56.896 194.549 56.3879C197.613 54.4533 213.259 44.8219 220.425 45.1871L220.425 45.1868C228.628 45.6055 234.961 52.6188 234.544 60.8218C234.341 64.7961 232.603 68.4532 229.65 71.1198C226.697 73.7868 222.882 75.1434 218.908 74.9409C211.742 74.5757 197.156 63.403 194.306 61.1677C194.173 61.0631 194.05 60.9489 193.939 60.8259ZM220.127 51.0349C216.839 50.8675 208.15 55.1478 201.325 59.129C207.712 63.783 215.923 68.9255 219.206 69.0927C221.618 69.2152 223.933 68.3919 225.725 66.7735C227.518 65.155 228.572 62.9356 228.696 60.5239C228.949 55.5463 225.105 51.2884 220.126 51.0352L220.127 51.0349Z" fill="#CC346F"/>
<path opacity="0.61" d="M127.443 149.465C153.966 149.465 175.466 127.964 175.466 101.441C175.466 74.919 153.966 53.4182 127.443 53.4182C100.921 53.4182 79.4199 74.919 79.4199 101.441C79.4199 127.964 100.921 149.465 127.443 149.465Z" fill="#EFF4BE"/>
<path d="M127.935 144.869C151.647 144.869 170.869 125.647 170.869 101.935C170.869 78.2225 151.647 59 127.935 59C104.223 59 85 78.2225 85 101.935C85 125.647 104.223 144.869 127.935 144.869Z" fill="white"/>
<path d="M111.699 93.4174C111.286 93.4174 110.839 93.3988 110.357 93.3617C109.879 93.3293 109.401 93.262 108.923 93.16C108.446 93.0626 107.982 92.9258 107.532 92.7496C107.087 92.5733 106.69 92.3438 106.343 92.0609C105.995 91.778 105.71 91.4348 105.487 91.0313C105.264 90.6278 105.139 90.1478 105.111 89.5913C105.111 89.3177 105.141 89.0533 105.202 88.7983C105.262 88.5386 105.341 88.2858 105.438 88.04C105.54 87.7942 105.654 87.553 105.779 87.3165C105.909 87.0754 106.041 86.8342 106.176 86.593L107.81 87.9635C107.741 88.0609 107.66 88.1884 107.567 88.3461C107.474 88.4991 107.384 88.6614 107.296 88.833C107.212 89.0046 107.14 89.1786 107.08 89.3548C107.024 89.5264 106.997 89.6771 106.997 89.807C106.997 89.9786 107.057 90.1339 107.177 90.273C107.303 90.4075 107.474 90.5281 107.692 90.6348C107.915 90.7368 108.174 90.8249 108.471 90.8991C108.773 90.9733 109.097 91.0336 109.445 91.08C109.798 91.1264 110.166 91.1612 110.551 91.1843C110.941 91.2075 111.335 91.2191 111.734 91.2191C111.915 91.2191 112.11 91.2191 112.318 91.2191C112.527 91.2145 112.724 91.2099 112.91 91.2052C113.095 91.2006 113.257 91.1959 113.397 91.1913C113.54 91.1867 113.638 91.182 113.689 91.1774C113.522 90.9919 113.371 90.7623 113.237 90.4887C113.102 90.2151 113.026 89.9043 113.007 89.5565C112.998 89.2829 113.026 89.007 113.09 88.7287C113.16 88.4458 113.26 88.1722 113.39 87.9078C113.519 87.6435 113.677 87.3977 113.863 87.1704C114.048 86.9386 114.254 86.7391 114.482 86.5722C114.709 86.4006 114.952 86.2707 115.212 86.1826C115.477 86.0899 115.75 86.0481 116.033 86.0574C116.437 86.0759 116.812 86.1803 117.16 86.3704C117.508 86.5606 117.807 86.8064 118.057 87.1078C118.312 87.4093 118.512 87.7525 118.656 88.1374C118.804 88.5177 118.878 88.9096 118.878 89.313C118.878 89.633 118.825 89.9484 118.718 90.2591C118.612 90.5652 118.477 90.8574 118.315 91.1357C118.537 91.1588 118.753 91.1797 118.962 91.1983C119.175 91.2122 119.374 91.2191 119.56 91.2191H119.79V93.4174H119.595C119.307 93.4174 119.01 93.4128 118.704 93.4035C118.403 93.3942 118.101 93.3687 117.8 93.327C117.499 93.2899 117.199 93.2342 116.903 93.16C116.606 93.0858 116.318 92.9838 116.04 92.8539C115.929 92.9188 115.776 92.9768 115.581 93.0278C115.386 93.0835 115.163 93.1322 114.913 93.1739C114.667 93.2157 114.403 93.2504 114.12 93.2783C113.842 93.3107 113.559 93.3362 113.271 93.3548C112.988 93.378 112.71 93.3942 112.437 93.4035C112.168 93.4128 111.922 93.4174 111.699 93.4174ZM117.035 89.473C117.035 89.3246 116.998 89.1832 116.923 89.0487C116.854 88.9142 116.766 88.7936 116.659 88.687C116.557 88.5803 116.446 88.4922 116.325 88.4226C116.205 88.3484 116.096 88.2974 115.998 88.2696C115.892 88.2928 115.769 88.3345 115.63 88.3948C115.495 88.4551 115.365 88.5409 115.24 88.6522C115.119 88.7588 115.017 88.891 114.934 89.0487C114.85 89.2017 114.809 89.3849 114.809 89.5983C114.809 89.6678 114.843 89.7652 114.913 89.8904C114.987 90.011 115.08 90.1362 115.191 90.2661C115.307 90.3913 115.437 90.5096 115.581 90.6209C115.729 90.7275 115.88 90.8041 116.033 90.8504C116.149 90.7855 116.267 90.6974 116.388 90.5861C116.508 90.4701 116.615 90.3496 116.708 90.2243C116.805 90.0945 116.884 89.9646 116.944 89.8348C117.005 89.7003 117.035 89.5797 117.035 89.473ZM116.318 84.9513L114.774 83.407L116.318 81.8626L117.863 83.407L116.318 84.9513ZM125.722 91.2191V93.4174H125.562C125.34 93.4174 125.119 93.3988 124.901 93.3617C124.688 93.3246 124.486 93.2713 124.296 93.2017C124.106 93.1368 123.93 93.058 123.768 92.9652C123.61 92.8725 123.473 92.7728 123.357 92.6661C123.139 92.833 122.889 92.9652 122.606 93.0626C122.328 93.16 122.031 93.2342 121.715 93.2852C121.405 93.3409 121.082 93.3757 120.748 93.3896C120.419 93.4081 120.095 93.4174 119.775 93.4174H119.517V91.2191H119.775C120.108 91.2191 120.405 91.2099 120.665 91.1913C120.929 91.1728 121.159 91.1403 121.354 91.0939C121.553 91.0475 121.72 90.9872 121.855 90.913C121.989 90.8342 122.098 90.7368 122.181 90.6209C122.288 90.4725 122.353 90.3078 122.376 90.127C122.404 89.9461 122.406 89.7606 122.383 89.5704C122.365 89.3757 122.33 89.1832 122.279 88.993C122.228 88.7983 122.181 88.6128 122.14 88.4365L124.164 87.8591C124.22 88.0678 124.266 88.258 124.303 88.4296C124.345 88.6012 124.38 88.7681 124.408 88.9304C124.44 89.0928 124.468 89.2574 124.491 89.4243C124.514 89.5913 124.54 89.7722 124.568 89.967C124.586 90.0922 124.609 90.229 124.637 90.3774C124.67 90.5212 124.721 90.6557 124.79 90.7809C124.86 90.9061 124.955 91.0104 125.075 91.0939C125.201 91.1774 125.363 91.2191 125.562 91.2191H125.722ZM122.23 95.4557L120.922 96.7635L119.573 95.4209L120.908 94.0783L122.23 95.4L123.538 94.0922L124.888 95.4348L123.552 96.7774L122.23 95.4557ZM125.439 91.2191H125.94C126.047 91.2191 126.156 91.2168 126.267 91.2122C126.378 91.2029 126.482 91.1936 126.58 91.1843C126.677 91.1704 126.751 91.1519 126.802 91.1287C126.719 91.0359 126.638 90.9362 126.559 90.8296C126.48 90.7183 126.408 90.5977 126.343 90.4678C126.283 90.338 126.232 90.1988 126.19 90.0504C126.149 89.8974 126.123 89.7328 126.114 89.5565C126.105 89.2829 126.132 89.007 126.197 88.7287C126.267 88.4458 126.367 88.1722 126.496 87.9078C126.626 87.6435 126.784 87.3977 126.969 87.1704C127.155 86.9386 127.361 86.7391 127.589 86.5722C127.816 86.4006 128.059 86.2707 128.319 86.1826C128.583 86.0899 128.857 86.0481 129.14 86.0574C129.543 86.0759 129.919 86.1803 130.267 86.3704C130.615 86.5606 130.914 86.8064 131.164 87.1078C131.419 87.4093 131.619 87.7525 131.762 88.1374C131.911 88.5177 131.985 88.9096 131.985 89.313C131.985 89.633 131.932 89.9484 131.825 90.2591C131.718 90.5652 131.584 90.8574 131.422 91.1357C131.542 91.1635 131.691 91.1843 131.867 91.1983C132.043 91.2122 132.268 91.2191 132.542 91.2191H132.681V93.4174H132.409C132.108 93.4174 131.82 93.4081 131.547 93.3896C131.278 93.3757 131.011 93.3478 130.747 93.3061C130.487 93.2643 130.225 93.2064 129.961 93.1322C129.701 93.0626 129.43 92.9699 129.147 92.8539C128.975 92.9513 128.76 93.0348 128.5 93.1043C128.245 93.1786 127.964 93.2365 127.658 93.2783C127.352 93.3246 127.032 93.3594 126.698 93.3826C126.364 93.4058 126.035 93.4174 125.71 93.4174H125.439V91.2191ZM130.142 89.473C130.142 89.3246 130.105 89.1832 130.03 89.0487C129.961 88.9142 129.873 88.7936 129.766 88.687C129.664 88.5803 129.553 88.4922 129.432 88.4226C129.311 88.3484 129.202 88.2974 129.105 88.2696C128.998 88.2928 128.876 88.3345 128.736 88.3948C128.602 88.4551 128.472 88.5409 128.347 88.6522C128.226 88.7588 128.124 88.891 128.041 89.0487C127.957 89.2017 127.916 89.3849 127.916 89.5983C127.916 89.6678 127.95 89.7652 128.02 89.8904C128.094 90.011 128.187 90.1362 128.298 90.2661C128.414 90.3913 128.544 90.5096 128.688 90.6209C128.836 90.7275 128.987 90.8041 129.14 90.8504C129.256 90.7855 129.374 90.6974 129.495 90.5861C129.615 90.4701 129.722 90.3496 129.815 90.2243C129.912 90.0945 129.991 89.9646 130.051 89.8348C130.111 89.7003 130.142 89.5797 130.142 89.473ZM129.008 85.0904L127.463 83.5461L129.008 82.0017L130.552 83.5461L129.008 85.0904ZM132.408 91.2191H133.82C134.158 91.2191 134.516 91.1959 134.891 91.1496C135.272 91.1032 135.659 91.0406 136.053 90.9617C136.447 90.8829 136.844 90.7901 137.243 90.6835C137.641 90.5722 138.029 90.4539 138.404 90.3287C138.785 90.2035 139.146 90.0713 139.489 89.9322C139.837 89.793 140.157 89.6539 140.449 89.5148C140.162 89.4452 139.842 89.3478 139.489 89.2226C139.137 89.0974 138.78 88.9745 138.418 88.8539C138.056 88.7333 137.704 88.6313 137.361 88.5478C137.022 88.4597 136.718 88.418 136.449 88.4226C136.278 88.4272 136.111 88.4643 135.949 88.5339C135.791 88.5988 135.643 88.6823 135.503 88.7843C135.369 88.8817 135.246 88.9884 135.135 89.1043C135.028 89.2157 134.935 89.3223 134.856 89.4243C134.778 89.5217 134.715 89.6052 134.669 89.6748L134.606 89.7722L132.957 88.8261C133.143 88.4829 133.365 88.1536 133.625 87.8383C133.885 87.5183 134.168 87.2377 134.474 86.9965C134.78 86.7507 135.1 86.5559 135.434 86.4122C135.772 86.2684 136.111 86.1988 136.449 86.2035C136.7 86.2081 136.948 86.2383 137.194 86.2939C137.444 86.3496 137.695 86.4214 137.945 86.5096C138.196 86.593 138.448 86.6928 138.703 86.8087C138.958 86.92 139.216 87.0359 139.476 87.1565C139.74 87.2864 140.032 87.4139 140.352 87.5391C140.677 87.6643 141.013 87.7757 141.361 87.873C141.713 87.9704 142.07 88.0493 142.432 88.1096C142.798 88.1699 143.156 88.2 143.503 88.2L143.142 90.2522C143.035 90.2986 142.914 90.3542 142.78 90.4191C142.65 90.4794 142.534 90.5351 142.432 90.5861L142.251 90.6765C142.358 90.8017 142.492 90.9014 142.655 90.9757C142.822 91.0499 142.991 91.1055 143.163 91.1426C143.339 91.1751 143.506 91.1959 143.663 91.2052C143.821 91.2145 143.949 91.2191 144.046 91.2191H144.283V93.4174H144.046C143.601 93.4174 143.181 93.378 142.787 93.2991C142.397 93.2203 142.04 93.1067 141.716 92.9583C141.396 92.8052 141.11 92.622 140.86 92.4087C140.609 92.1907 140.403 91.9449 140.241 91.6713C139.782 91.8939 139.304 92.1096 138.808 92.3183C138.312 92.527 137.797 92.7148 137.263 92.8817C136.73 93.0441 136.176 93.1739 135.601 93.2713C135.03 93.3687 134.437 93.4174 133.82 93.4174H132.408V91.2191ZM136.352 85.5148L134.808 83.9704L136.352 82.4261L137.896 83.9704L136.352 85.5148ZM144.001 91.2191H145.671C145.87 91.2191 146.091 91.2099 146.332 91.1913C146.573 91.1681 146.798 91.1241 147.007 91.0591C147.22 90.9942 147.396 90.8991 147.535 90.7739C147.679 90.6441 147.751 90.4748 147.751 90.2661C147.751 90.1548 147.716 89.9901 147.647 89.7722C147.582 89.5496 147.494 89.3038 147.382 89.0348C147.276 88.7612 147.153 88.4759 147.014 88.1791C146.879 87.8823 146.745 87.5994 146.61 87.3304L148.6 86.3426C148.73 86.6348 148.857 86.9455 148.982 87.2748C149.112 87.6041 149.228 87.938 149.33 88.2765C149.432 88.6151 149.513 88.9536 149.574 89.2922C149.639 89.6261 149.671 89.9461 149.671 90.2522C149.671 90.8272 149.564 91.3165 149.351 91.72C149.142 92.1188 148.857 92.4458 148.495 92.7009C148.134 92.9513 147.709 93.1322 147.222 93.2435C146.735 93.3594 146.214 93.4174 145.657 93.4174H144.001V91.2191ZM147.243 84.047L145.935 85.3548L144.586 84.0122L145.921 82.6696L147.243 83.9913L148.551 82.6835L149.901 84.0261L148.565 85.3687L147.243 84.047ZM122.338 108.81C122.338 108.115 122.563 107.549 123.013 107.113C123.467 106.677 124.061 106.459 124.794 106.459C125.54 106.459 126.139 106.675 126.589 107.106C127.043 107.537 127.27 108.119 127.27 108.852V109.416C127.27 110.116 127.043 110.682 126.589 111.113C126.139 111.54 125.547 111.753 124.815 111.753C124.073 111.753 123.474 111.537 123.02 111.106C122.565 110.675 122.338 110.095 122.338 109.367V108.81ZM123.834 109.416C123.834 109.726 123.924 109.977 124.105 110.167C124.286 110.357 124.522 110.452 124.815 110.452C125.107 110.452 125.339 110.357 125.51 110.167C125.682 109.972 125.768 109.712 125.768 109.388V108.81C125.768 108.5 125.682 108.249 125.51 108.059C125.339 107.864 125.1 107.767 124.794 107.767C124.511 107.767 124.279 107.862 124.098 108.052C123.922 108.242 123.834 108.507 123.834 108.845V109.416ZM127.771 115.21C127.771 114.506 128.001 113.94 128.46 113.513C128.919 113.082 129.513 112.866 130.241 112.866C130.983 112.866 131.581 113.079 132.035 113.506C132.49 113.928 132.717 114.512 132.717 115.259V115.823C132.717 116.518 132.492 117.082 132.042 117.513C131.597 117.94 131.001 118.153 130.255 118.153C129.508 118.153 128.907 117.937 128.453 117.506C127.998 117.075 127.771 116.502 127.771 115.788V115.21ZM129.274 115.823C129.274 116.106 129.367 116.349 129.552 116.553C129.742 116.757 129.976 116.859 130.255 116.859C130.89 116.859 131.208 116.507 131.208 115.802V115.21C131.208 114.9 131.12 114.649 130.943 114.459C130.767 114.269 130.533 114.174 130.241 114.174C129.949 114.174 129.714 114.269 129.538 114.459C129.362 114.649 129.274 114.907 129.274 115.231V115.823ZM125.26 117.151L124.154 116.553L129.712 107.663L130.811 108.261L125.26 117.151Z" fill="#CC346F"/>
</svg>
