<svg width="87" height="86" viewBox="0 0 87 86" fill="none" xmlns="http://www.w3.org/2000/svg">
<path d="M77.6327 75.3526C77.6327 77.7211 63.6595 81.2694 46.4228 81.2694C29.186 81.2694 9.25464 77.8587 9.25464 75.4902C9.25464 73.1217 29.186 72.6923 46.4228 72.6923C63.6595 72.6923 77.6327 72.9841 77.6327 75.3526Z" fill="#EFF4BE"/>
<path d="M14.8211 72.6923H73.7892C73.7892 72.6923 79.511 52.7396 71.8118 46.8269C64.1126 40.9142 65.1435 31.113 73.1021 26.5714C81.0607 22.0298 80.8425 11.3075 66.7894 10.65C52.7364 9.99265 48.6589 14.4508 45.79 10.6501C40.7239 3.93825 24.8171 1.73665 21.9134 16.0607C19.6635 27.1597 8.57598 27.4316 7.32836 34.3597C5.68244 43.4997 19.159 44.3291 18.3349 49.7273C17.5107 55.1254 9.1043 63.7024 14.8211 72.6923Z" fill="#F2F8FF"/>
<path d="M77.9069 66.5091C77.8879 66.6407 77.8676 66.7711 77.8473 66.9015C77.5996 68.5344 77.2919 70.1576 76.8354 71.7059C76.755 71.9781 76.6684 72.2479 76.578 72.5158L77.4859 72.5164C77.517 72.4035 77.5496 72.2908 77.579 72.1775C77.791 71.3523 77.9597 70.5215 78.0987 69.6919C78.2215 68.962 78.3214 68.228 78.4075 67.5014C78.4464 67.1759 78.4806 66.8517 78.5148 66.5276C78.7508 64.2208 78.8991 61.9016 78.8292 59.6297C78.7592 57.3578 78.4602 55.1317 77.8124 53.1476C78.3644 55.1979 78.5524 57.4357 78.5201 59.6903C78.4872 61.9529 78.2402 64.2351 77.9069 66.5091Z" fill="#D5CDD7"/>
<path d="M72.9692 67.308C72.9437 68.0981 72.8985 68.8896 72.8316 69.6819C72.7858 70.2516 72.7276 70.82 72.6596 71.389C72.6331 71.6151 72.6033 71.8414 72.5729 72.0662C72.5527 72.2153 72.5303 72.3641 72.5085 72.513L73.3411 72.5136C73.3566 72.3689 73.3725 72.2243 73.3864 72.0795C73.4058 71.8914 73.4232 71.7026 73.4373 71.514C73.4808 71.0161 73.5144 70.5189 73.5401 70.0231C73.578 69.2992 73.6 68.578 73.6043 67.8589L73.6037 67.8574C73.6137 66.881 73.5934 65.9091 73.5466 64.943C73.3208 60.2458 72.5215 55.7121 71.454 51.3268C72.3442 55.7861 72.9588 60.3708 72.9986 65.042C73.0049 65.7969 72.9963 66.5522 72.9692 67.308Z" fill="#D5CDD7"/>
<path d="M67.9021 59.3457C68.0106 59.5192 68.126 59.6845 68.2283 59.8637L68.5225 60.4077C68.8897 61.1513 69.2078 61.9335 69.4385 62.7604C69.5713 63.1645 69.6551 63.5944 69.7605 64.0104L69.8819 64.6532L69.9417 64.9743L69.9881 65.3002C70.0161 65.4711 70.0396 65.6432 70.0616 65.8161C70.1527 66.5153 70.2032 67.2273 70.2457 67.9407C70.2885 68.8317 70.2968 69.7298 70.2795 70.6313C70.265 71.2581 70.2357 71.8833 70.2012 72.5115L70.9797 72.512C70.9827 71.8521 70.9811 71.1891 70.9638 70.5306C70.9616 70.4561 70.9589 70.38 70.9549 70.3049C70.9473 70.0394 70.9351 69.775 70.9189 69.5132C70.8895 68.9414 70.8467 68.3744 70.7928 67.809C70.7237 67.1921 70.6481 66.5756 70.5458 65.9688C70.5007 65.6939 70.4497 65.4209 70.3907 65.1493L70.3259 64.824L70.2491 64.5027L70.0909 63.8611C69.9614 63.4438 69.8525 63.0188 69.6966 62.6164C69.4183 61.7976 69.0523 61.031 68.6392 60.3129L68.3148 59.7865C68.2036 59.6147 68.0754 59.4557 67.9566 59.2907L67.7758 59.0448C67.7149 58.967 67.6445 58.8952 67.5795 58.8199L67.1837 58.3704L67.5538 58.8493C67.6134 58.928 67.6776 59.0056 67.7356 59.089L67.9021 59.3457Z" fill="#F3D0DD"/>
<path d="M75.7835 72.5152C75.7843 72.5114 75.7853 72.5064 75.786 72.5029C76.0677 71.2227 76.3073 69.948 76.5095 68.6739C76.5543 68.4006 76.5968 68.1297 76.6377 67.8562C76.7823 66.8893 76.9089 65.924 77.0161 64.9578C77.0955 64.2559 77.1633 63.5534 77.2232 62.8505C77.2247 62.8408 77.2262 62.831 77.226 62.8187C77.2338 62.7404 77.24 62.6595 77.2439 62.581C77.2691 62.2945 77.2936 62.0129 77.3125 61.7286C77.348 61.2287 77.3796 60.7286 77.4058 60.2257C77.4145 60.0885 77.4217 59.9487 77.4282 59.8137C77.5636 57.1499 77.587 54.5005 77.5156 51.8812C77.4125 54.4998 77.2214 57.1291 76.9197 59.7508C76.9176 59.7777 76.9148 59.8096 76.9104 59.8389C76.8014 60.7779 76.6807 61.7165 76.5429 62.6517C76.4248 63.4674 76.2919 64.2775 76.145 65.0895C76.0022 65.9139 75.8398 66.7373 75.6665 67.5554C75.654 67.6262 75.6406 67.6894 75.6265 67.7576C75.3308 69.1277 74.9088 71.0039 74.5038 72.5143L75.7835 72.5152Z" fill="#F3D0DD"/>
<path d="M17.88 67.5587C17.865 67.662 17.8491 67.7644 17.8331 67.8668C17.6387 69.1489 17.397 70.4233 17.0387 71.639C16.9755 71.8527 16.9075 72.0645 16.8365 72.2749L17.5494 72.2754C17.5738 72.1867 17.5994 72.0982 17.6225 72.0093C17.7889 71.3614 17.9214 70.709 18.0306 70.0577C18.127 69.4845 18.2054 68.9083 18.273 68.3378C18.3036 68.0822 18.3304 67.8277 18.3573 67.5732C18.5426 65.762 18.659 63.941 18.6041 62.1572C18.5492 60.3734 18.3144 58.6255 17.8058 57.0677C18.2392 58.6775 18.3868 60.4346 18.3615 62.2048C18.3356 63.9813 18.1416 65.7732 17.88 67.5587Z" fill="#D5CDD7"/>
<path d="M14.003 68.186C13.983 68.8063 13.9475 69.4277 13.8949 70.0498C13.859 70.4972 13.8133 70.9434 13.7598 71.3902C13.739 71.5677 13.7157 71.7454 13.6918 71.9219C13.6759 72.0389 13.6583 72.1558 13.6412 72.2727L14.295 72.2732C14.3071 72.1596 14.3196 72.046 14.3305 71.9324C14.3457 71.7846 14.3594 71.6364 14.3705 71.4883C14.4046 71.0974 14.431 70.707 14.4512 70.3177C14.4809 69.7493 14.4982 69.1831 14.5016 68.6185L14.5011 68.6173C14.509 67.8507 14.493 67.0876 14.4562 66.329C14.279 62.6409 13.6514 59.0812 12.8132 55.6381C13.5122 59.1394 13.9948 62.7391 14.026 66.4067C14.0311 66.9995 14.0242 67.5925 14.003 68.186Z" fill="#D5CDD7"/>
<path d="M10.0245 61.9343C10.1097 62.0705 10.2003 62.2002 10.2806 62.341L10.5116 62.768C10.7999 63.3519 11.0497 63.9661 11.2308 64.6153C11.3351 64.9326 11.4009 65.2701 11.4836 65.5968L11.579 66.1015L11.6259 66.3536L11.6623 66.6095C11.6844 66.7437 11.7027 66.8788 11.72 67.0146C11.7916 67.5635 11.8312 68.1226 11.8646 68.6827C11.8982 69.3823 11.9047 70.0874 11.8911 70.7953C11.8798 71.2875 11.8567 71.7783 11.8297 72.2716L12.4409 72.272C12.4433 71.7538 12.442 71.2332 12.4284 70.7162C12.4267 70.6577 12.4246 70.598 12.4214 70.539C12.4155 70.3305 12.4059 70.123 12.3932 69.9174C12.3701 69.4684 12.3365 69.0232 12.2941 68.5793C12.2399 68.0949 12.1806 67.6109 12.1002 67.1344C12.0649 66.9186 12.0248 66.7043 11.9785 66.491L11.9276 66.2356L11.8673 65.9833L11.7431 65.4795C11.6414 65.1519 11.5559 64.8182 11.4335 64.5022C11.215 63.8594 10.9276 63.2575 10.6033 62.6936L10.3485 62.2803C10.2612 62.1455 10.1605 62.0206 10.0673 61.891L9.92535 61.698C9.87753 61.6368 9.82227 61.5805 9.77124 61.5214L9.46045 61.1684L9.75104 61.5444C9.79781 61.6062 9.84822 61.6671 9.89377 61.7326L10.0245 61.9343Z" fill="#F3D0DD"/>
<path d="M16.2127 72.2745C16.2133 72.2715 16.2141 72.2675 16.2147 72.2648C16.4358 71.2597 16.6239 70.2588 16.7827 69.2584C16.8179 69.0439 16.8512 68.8311 16.8833 68.6164C16.9968 67.8572 17.0963 67.0993 17.1805 66.3407C17.2428 65.7896 17.296 65.238 17.3431 64.6861C17.3443 64.6785 17.3454 64.6708 17.3453 64.6612C17.3514 64.5996 17.3563 64.5362 17.3593 64.4745C17.3791 64.2496 17.3983 64.0285 17.4132 63.8052C17.4411 63.4127 17.4659 63.0201 17.4864 62.6253C17.4933 62.5175 17.4989 62.4077 17.504 62.3018C17.6103 60.2102 17.6287 58.1301 17.5727 56.0735C17.4917 58.1295 17.3417 60.1939 17.1048 62.2524C17.1031 62.2735 17.101 62.2985 17.0975 62.3215C17.0119 63.0589 16.9172 63.7958 16.8089 64.5301C16.7162 65.1705 16.6119 65.8066 16.4966 66.4441C16.3844 67.0914 16.2569 67.738 16.1208 68.3803C16.111 68.4358 16.1005 68.4855 16.0894 68.5391C15.8573 69.6148 15.5259 71.0879 15.2079 72.2738L16.2127 72.2745Z" fill="#F3D0DD"/>
<path d="M23.0945 65.1373C23.1178 65.2978 23.1426 65.457 23.1673 65.6161C23.4695 67.6086 23.8451 69.5891 24.402 71.4784C24.5001 71.8105 24.6058 72.1396 24.7161 72.4666L23.6083 72.4673C23.5704 72.3295 23.5306 72.192 23.4946 72.0538C23.236 71.0469 23.0302 70.0332 22.8605 69.0209C22.7107 68.1302 22.5888 67.2347 22.4837 66.3481C22.4363 65.9509 22.3945 65.5553 22.3528 65.1598C22.0649 62.3451 21.8839 59.5153 21.9692 56.7432C22.0546 53.971 22.4195 51.2548 23.2099 48.8338C22.5363 51.3355 22.307 54.0661 22.3463 56.8172C22.3865 59.5779 22.688 62.3626 23.0945 65.1373Z" fill="#D5CDD7"/>
<path d="M29.1195 66.112C29.1506 67.076 29.2058 68.0418 29.2874 69.0086C29.3433 69.7038 29.4143 70.3973 29.4974 71.0916C29.5297 71.3675 29.566 71.6436 29.603 71.9179C29.6278 72.0997 29.6551 72.2814 29.6817 72.4631L28.6657 72.4638C28.6468 72.2873 28.6274 72.1108 28.6104 71.9341C28.5868 71.7045 28.5656 71.4741 28.5484 71.2441C28.4953 70.6366 28.4543 70.0299 28.4229 69.4249C28.3767 68.5416 28.3498 67.6616 28.3446 66.7842L28.3453 66.7824C28.3331 65.591 28.3579 64.4051 28.415 63.2262C28.6905 57.4948 29.6658 51.9628 30.9684 46.6121C29.8822 52.0531 29.1322 57.6473 29.0837 63.347C29.0759 64.2682 29.0865 65.1897 29.1195 66.112Z" fill="#D5CDD7"/>
<path d="M35.3021 56.3966C35.1697 56.6082 35.0289 56.8099 34.9041 57.0286L34.5452 57.6923C34.0971 58.5996 33.7089 59.5542 33.4274 60.5631C33.2653 61.0562 33.1631 61.5807 33.0345 62.0883L32.8864 62.8726L32.8134 63.2644L32.7568 63.662C32.7226 63.8706 32.694 64.0806 32.6671 64.2916C32.556 65.1447 32.4944 66.0135 32.4424 66.884C32.3903 67.9712 32.3801 69.067 32.4013 70.167C32.4189 70.9319 32.4547 71.6947 32.4967 72.4612L31.5469 72.4619C31.5432 71.6567 31.5452 70.8476 31.5663 70.0442C31.5689 69.9532 31.5722 69.8604 31.5771 69.7687C31.5864 69.4448 31.6012 69.1222 31.6211 68.8028C31.6569 68.1051 31.7091 67.4132 31.7749 66.7233C31.8592 65.9705 31.9515 65.2184 32.0763 64.4779C32.1313 64.1425 32.1936 63.8094 32.2656 63.478L32.3446 63.0811L32.4383 62.689L32.6313 61.9061C32.7894 61.3969 32.9223 60.8784 33.1124 60.3874C33.452 59.3883 33.8986 58.453 34.4026 57.5767L34.7986 56.9343C34.9342 56.7248 35.0907 56.5308 35.2356 56.3294L35.4562 56.0294C35.5305 55.9344 35.6164 55.8468 35.6957 55.755L36.1786 55.2064L35.7271 55.7908C35.6544 55.8868 35.576 55.9815 35.5052 56.0832L35.3021 56.3966Z" fill="#F3D0DD"/>
<path d="M25.6856 72.4659C25.6846 72.4613 25.6833 72.4551 25.6824 72.4509C25.3388 70.8888 25.0464 69.3334 24.7996 67.7788C24.745 67.4453 24.6931 67.1148 24.6433 66.7811C24.4669 65.6012 24.3123 64.4234 24.1815 63.2445C24.0846 62.388 24.0019 61.5308 23.9288 60.6732C23.927 60.6613 23.9252 60.6494 23.9253 60.6344C23.9158 60.5388 23.9083 60.4402 23.9035 60.3444C23.8728 59.9948 23.843 59.6512 23.8198 59.3043C23.7765 58.6943 23.7379 58.0841 23.706 57.4705C23.6953 57.303 23.6866 57.1324 23.6787 56.9678C23.5135 53.7174 23.485 50.4848 23.572 47.2887C23.6979 50.4839 23.931 53.6921 24.2992 56.891C24.3017 56.9239 24.3051 56.9627 24.3104 56.9985C24.4434 58.1443 24.5907 59.2895 24.7589 60.4307C24.903 61.426 25.0651 62.4145 25.2444 63.4051C25.4187 64.4111 25.6168 65.4159 25.8282 66.4141C25.8435 66.5004 25.8599 66.5776 25.8771 66.6608C26.2378 68.3326 26.7528 70.6218 27.247 72.4648L25.6856 72.4659Z" fill="#F3D0DD"/>
<path d="M58.3659 65.1355C58.3891 65.296 58.4139 65.4552 58.4387 65.6143C58.7409 67.6068 59.1164 69.5873 59.6734 71.4766C59.7715 71.8087 59.8772 72.1378 59.9874 72.4648L58.8797 72.4655C58.8417 72.3277 58.8019 72.1902 58.766 72.052C58.5074 71.0451 58.3015 70.0314 58.1319 69.0191C57.9821 68.1284 57.8602 67.2329 57.7551 66.3463C57.7077 65.9491 57.6659 65.5535 57.6242 65.158C57.3362 62.3433 57.1552 59.5135 57.2406 56.7414C57.3259 53.9692 57.6908 51.253 58.4812 48.832C57.8077 51.3338 57.5783 54.0643 57.6177 56.8154C57.6579 59.5761 57.9593 62.3608 58.3659 65.1355Z" fill="#D5CDD7"/>
<path d="M64.3909 66.1103C64.422 67.0743 64.4772 68.04 64.5588 69.0069C64.6147 69.702 64.6857 70.3955 64.7687 71.0899C64.801 71.3657 64.8374 71.6418 64.8744 71.9162C64.8991 72.098 64.9265 72.2796 64.9531 72.4613L63.9371 72.462C63.9181 72.2855 63.8988 72.109 63.8818 71.9324C63.8582 71.7028 63.837 71.4724 63.8197 71.2423C63.7667 70.6348 63.7257 70.0281 63.6943 69.4231C63.648 68.5399 63.6212 67.6599 63.616 66.7825L63.6167 66.7806C63.6045 65.5892 63.6293 64.4033 63.6864 63.2244C63.9619 57.493 64.9372 51.961 66.2397 46.6103C65.1535 52.0514 64.4036 57.6455 64.355 63.3453C64.3473 64.2664 64.3579 65.188 64.3909 66.1103Z" fill="#D5CDD7"/>
<path d="M70.5737 56.3948C70.4413 56.6064 70.3005 56.8081 70.1756 57.0268L69.8167 57.6905C69.3687 58.5979 68.9805 59.5524 68.699 60.5613C68.5369 61.0544 68.4347 61.5789 68.3061 62.0866L68.1579 62.8709L68.085 63.2627L68.0284 63.6603C67.9942 63.8689 67.9656 64.0789 67.9387 64.2899C67.8276 65.143 67.766 66.0118 67.714 66.8822C67.6619 67.9694 67.6517 69.0652 67.6729 70.1652C67.6905 70.9302 67.7263 71.6929 67.7683 72.4595L66.8185 72.4601C66.8148 71.6549 66.8168 70.8458 66.8379 70.0424C66.8405 69.9514 66.8438 69.8587 66.8488 69.767C66.858 69.443 66.8728 69.1205 66.8927 68.801C66.9286 68.1033 66.9807 67.4115 67.0466 66.7215C67.1308 65.9688 67.2231 65.2166 67.3479 64.4762C67.4029 64.1407 67.4652 63.8077 67.5372 63.4763L67.6163 63.0794L67.7099 62.6873L67.903 61.9044C68.061 61.3952 68.1939 60.8767 68.3841 60.3856C68.7236 59.3866 69.1703 58.4512 69.6743 57.575L70.0702 56.9326C70.2059 56.7231 70.3623 56.529 70.5072 56.3276L70.7278 56.0277C70.8021 55.9327 70.888 55.845 70.9673 55.7532L71.4503 55.2047L70.9987 55.789C70.926 55.885 70.8477 55.9797 70.7769 56.0815L70.5737 56.3948Z" fill="#F3D0DD"/>
<path d="M60.9569 72.4641C60.956 72.4595 60.9547 72.4533 60.9538 72.4491C60.6102 70.887 60.3178 69.3316 60.071 67.777C60.0163 67.4436 59.9645 67.113 59.9146 66.7793C59.7382 65.5995 59.5837 64.4217 59.4529 63.2427C59.356 62.3862 59.2733 61.5291 59.2001 60.6714C59.1983 60.6595 59.1965 60.6476 59.1967 60.6326C59.1872 60.537 59.1796 60.4384 59.1749 60.3426C59.1442 59.993 59.1143 59.6494 59.0912 59.3025C59.0478 58.6925 59.0093 58.0823 58.9774 57.4688C58.9667 57.3013 58.9579 57.1307 58.9501 56.966C58.7849 53.7157 58.7563 50.483 58.8434 47.2869C58.9692 50.4821 59.2023 53.6903 59.5705 56.8892C59.573 56.9221 59.5764 56.9609 59.5818 56.9967C59.7148 58.1425 59.8621 59.2877 60.0303 60.4289C60.1743 61.4242 60.3365 62.4127 60.5157 63.4034C60.69 64.4093 60.8881 65.4141 61.0996 66.4123C61.1149 66.4986 61.1312 66.5758 61.1485 66.659C61.5092 68.3308 62.0241 70.6201 62.5184 72.463L60.9569 72.4641Z" fill="#F3D0DD"/>
<path d="M26.0194 69.16C24.7642 69.16 23.6667 69.8327 23.0661 70.8369C22.9202 70.8079 22.77 70.791 22.6155 70.791C22.1834 70.791 21.78 70.9114 21.4344 71.1183C20.8148 68.8259 18.7218 67.139 16.2333 67.139C14.1929 67.139 12.4189 68.2736 11.5044 69.9457C11.2308 69.8505 10.9372 69.7982 10.6311 69.7982C9.17284 69.7982 7.98931 70.9722 7.97266 72.4266H10.8464H13.2896H20.4099H21.6202H22.5845H24.8212H29.4543C29.3643 70.6074 27.8609 69.16 26.0194 69.16Z" fill="#B3CB51"/>
<path d="M23.1152 70.8468L23.0662 70.837L23.0662 70.837C23.0499 70.8338 23.0333 70.8313 23.0169 70.8284L22.704 72.3907L21.6616 72.3772C21.6309 72.2181 21.5189 71.6097 21.4903 71.0874C21.4718 71.0978 21.4527 71.1075 21.4345 71.1185C21.4194 71.0628 21.4028 71.0078 21.386 70.9528C21.3992 71.5567 21.5485 72.323 21.5693 72.4267H21.6203H22.5846H22.7988L23.1152 70.8468Z" fill="#C6E05A"/>
<path d="M12.2423 72.4267C11.8599 71.7488 11.6704 70.6939 11.5765 69.8193C11.5521 69.8612 11.5278 69.9032 11.5045 69.9458C11.4984 69.9437 11.492 69.9422 11.4858 69.9401C11.5816 70.7785 11.7678 71.7573 12.1288 72.4267L12.2423 72.4267Z" fill="#C6E05A"/>
<path d="M47.613 72.6922H5.11865C5.01026 72.6922 4.92236 72.6043 4.92236 72.4959C4.92236 72.3875 5.01024 72.2996 5.11865 72.2996H47.613C47.7214 72.2996 47.8093 72.3875 47.8093 72.4959C47.8093 72.6043 47.7214 72.6922 47.613 72.6922Z" fill="#738F1F"/>
<path d="M60.8996 69.16C59.6445 69.16 58.5469 69.8327 57.9464 70.8369C57.8005 70.8079 57.6502 70.791 57.4958 70.791C57.0636 70.791 56.6602 70.9114 56.3146 71.1183C55.695 68.8259 53.602 67.139 51.1136 67.139C49.0732 67.139 47.2992 68.2736 46.3846 69.9457C46.1111 69.8505 45.8174 69.7982 45.5114 69.7982C44.0531 69.7982 42.8696 70.9722 42.8529 72.4266H45.7267H48.1699H55.2901H56.5004H57.4647H59.7015H64.3346C64.2446 70.6074 62.7412 69.16 60.8996 69.16Z" fill="#B3CB51"/>
<path d="M57.9955 70.8468L57.9465 70.837L57.9465 70.837C57.9302 70.8338 57.9136 70.8313 57.8972 70.8284L57.5842 72.3907L56.5418 72.3772C56.5112 72.2181 56.3991 71.6097 56.3706 71.0874C56.352 71.0978 56.333 71.1075 56.3147 71.1185C56.2997 71.0628 56.283 71.0078 56.2662 70.9528C56.2794 71.5567 56.4288 72.323 56.4495 72.4267H56.5005H57.4648H57.679L57.9955 70.8468Z" fill="#C6E05A"/>
<path d="M47.1225 72.4267C46.74 71.7488 46.5506 70.6939 46.4566 69.8193C46.4322 69.8612 46.408 69.9032 46.3846 69.9458C46.3785 69.9437 46.3721 69.9422 46.366 69.9401C46.4618 70.7785 46.6479 71.7573 47.009 72.4267L47.1225 72.4267Z" fill="#C6E05A"/>
<path d="M82.4934 72.6922H39.999C39.8906 72.6922 39.8027 72.6043 39.8027 72.4959C39.8027 72.3875 39.8906 72.2996 39.999 72.2996H82.4934C82.6018 72.2996 82.6897 72.3875 82.6897 72.4959C82.6897 72.6043 82.6018 72.6922 82.4934 72.6922Z" fill="#738F1F"/>
<path d="M26.4872 49.601L50.5185 48.8255L61.2464 51.0849L37.2151 51.8604L26.4872 49.601Z" fill="#CC9999"/>
<path d="M37.1711 79.1609L26.4918 75.7836L26.4872 49.601L37.2151 51.8603L37.1711 79.1609Z" fill="#CC9999"/>
<path d="M32.3901 77.6489V50.8442L29.6387 50.2648V76.7788L32.3901 77.6489Z" fill="#AD2B5E"/>
<path d="M36.5811 31.3542C36.6584 31.3303 35.8127 30.2364 33.7051 28.3463C31.5975 26.4562 30.2535 27.0404 29.2655 26.5831C28.2776 26.1259 27.6943 25.8824 27.6943 25.8824C27.6943 25.8824 28.2365 26.816 28.7548 27.6723C29.2731 28.5285 33.0244 32.4518 36.5811 31.3542Z" fill="#87A825"/>
<path d="M37.051 31.5055L37.0272 31.4282L37.0391 31.4669L37.0276 31.4281C36.9604 31.4444 36.0734 31.3503 34.7568 30.857C33.5945 30.4215 31.8395 29.5731 30.0788 28.0039L30.025 28.0643C33.3986 31.0712 36.8904 31.5551 37.051 31.5055Z" fill="#B3CB51"/>
<path d="M33.9683 30.5435C33.305 29.9755 31.6769 28.3391 31.6605 28.3226L31.6031 28.3797C31.6195 28.3962 33.2499 30.0349 33.9157 30.605L33.9683 30.5435Z" fill="#B3CB51"/>
<path d="M32.9192 30.0162C32.8983 30.011 30.827 29.4895 30.1468 28.6248L30.0833 28.6748C30.7806 29.5613 32.8135 30.0733 32.8997 30.0947L32.9192 30.0162Z" fill="#B3CB51"/>
<path d="M36.8271 28.4515C36.8271 28.4515 39.0487 26.1539 38.9961 23.39C38.9434 20.6262 38.351 19.9866 38.5055 19.353C38.2056 19.5 37.9758 21.3039 37.0256 22.2596C36.0755 23.2153 36.3497 25.1958 36.529 26.088C36.7083 26.9802 36.3767 28.3033 36.3767 28.3033C36.3767 28.3033 36.456 29.028 36.8271 28.4515Z" fill="#87A825"/>
<path d="M38.1374 24.3409C38.256 23.5363 38.3516 22.5832 38.4093 21.4541L38.326 21.4498C38.0013 27.7913 36.4491 28.5544 36.4335 28.5613L36.4668 28.6379C36.5209 28.6145 37.582 28.1072 38.1374 24.3409Z" fill="#B3CB51"/>
<path d="M37.7004 26.4362C37.7098 26.3566 37.9261 24.4731 37.554 23.431L37.4753 23.4591C37.8408 24.4827 37.6198 26.4071 37.6175 26.4265L37.7004 26.4362Z" fill="#B3CB51"/>
<path d="M38.9346 22.7706L38.8779 22.7094C38.7152 22.8601 38.1245 23.9927 38.0995 24.0409L38.1735 24.0794C38.3424 23.755 38.8084 22.8876 38.9346 22.7706Z" fill="#B3CB51"/>
<path d="M33.3549 21.5867C33.3549 21.5867 34.2783 21.0346 35.1314 18.2682C35.9845 15.5018 35.4034 14.1945 35.1773 13.5583C34.9512 12.9221 35.149 12.395 35.149 12.395C35.149 12.395 34.7475 13.9619 34.1027 14.5672C33.458 15.1725 32.762 16.9695 33.1149 17.8114C33.4679 18.6534 33.6369 20.9938 33.3549 21.5867Z" fill="#87A825"/>
<path d="M34.9354 16.8717C35.0348 16.1979 35.0623 15.5052 34.9664 14.8408L34.8863 14.8524C35.2978 17.7033 33.4095 21.0992 33.3903 21.1332L33.4608 21.1729C33.4756 21.1466 34.6044 19.1169 34.9354 16.8717Z" fill="#B3CB51"/>
<path d="M34.6211 18.2502C34.7122 17.6324 34.3718 16.0799 34.3571 16.0135L34.2781 16.031C34.2817 16.0471 34.63 17.6353 34.541 18.2382C34.5404 18.2426 34.5398 18.2469 34.5391 18.2512L34.6189 18.2642C34.6197 18.2596 34.6204 18.2548 34.6211 18.2502Z" fill="#B3CB51"/>
<path d="M35.1799 17.5584L35.1068 17.5236C34.774 18.2236 34.2342 19.238 34.2288 19.2481L34.3002 19.2862C34.3056 19.276 34.8462 18.26 35.1799 17.5584Z" fill="#B3CB51"/>
<path d="M33.8895 24.4268C33.8895 24.4268 30.7958 24.2806 28.9975 22.2951C27.1991 20.3096 27.1925 19.4648 26.6627 19.1202C26.972 19.0248 28.3322 20.1453 29.6374 20.1888C30.9427 20.2322 32.0644 21.812 32.5304 22.5608C32.9963 23.3095 34.1091 24.0231 34.1091 24.0231C34.1091 24.0231 34.5344 24.5872 33.8895 24.4268Z" fill="#87A825"/>
<path d="M34.2678 24.3189L34.2404 24.2428C34.2248 24.2483 32.6225 24.7408 28.182 20.4808L28.126 20.5392C32.6177 24.8484 34.2025 24.3426 34.2678 24.3189Z" fill="#B3CB51"/>
<path d="M31.9872 23.5223C31.9728 23.5102 30.5387 22.2989 30.1169 21.3338L30.0427 21.3662C30.4722 22.3488 31.8756 23.5343 31.9352 23.5843L31.9872 23.5223Z" fill="#B3CB51"/>
<path d="M30.0625 22.1589C30.0128 22.1416 28.8437 21.7345 28.6288 21.7362L28.6294 21.8171C28.7963 21.8158 29.7012 22.1186 30.0358 22.2353L30.0625 22.1589Z" fill="#B3CB51"/>
<path d="M30.9996 17.3868C30.9996 17.3868 30.0188 17.8292 27.2611 16.9485C24.5034 16.0678 23.7626 14.8439 23.3697 14.2948C22.9768 13.7457 22.4312 13.6069 22.4312 13.6069C22.4312 13.6069 23.9465 14.1727 24.8117 13.9895C25.6769 13.8063 27.5493 14.2619 28.0385 15.0326C28.5278 15.8034 30.352 17.2795 30.9996 17.3868Z" fill="#87A825"/>
<path d="M30.5995 17.2372L30.6073 17.1566C30.5685 17.1529 26.7022 16.762 24.598 14.7953L24.5427 14.8545C26.6673 16.8401 30.5605 17.2334 30.5995 17.2372Z" fill="#B3CB51"/>
<path d="M27.5858 16.4526C27.0446 16.1927 25.9242 14.9819 25.913 14.9697L25.8535 15.0246C25.8999 15.0749 26.9957 16.259 27.5508 16.5256L27.5858 16.4526Z" fill="#B3CB51"/>
<path d="M28.5716 16.8479L28.5813 16.7676C28.5698 16.7662 27.4289 16.6295 26.6643 16.5027L26.651 16.5826C27.4175 16.7097 28.5602 16.8466 28.5716 16.8479Z" fill="#B3CB51"/>
<path d="M29.6093 14.8841C29.5573 14.9147 29.3809 13.8993 29.4012 11.7896C29.4214 9.67977 30.4187 9.23428 30.664 8.46091C30.9093 7.68755 31.0687 7.24432 31.0687 7.24432C31.0687 7.24432 31.3096 8.01201 31.5199 8.7277C31.7302 9.4434 32.0017 13.4798 29.6093 14.8841Z" fill="#87A825"/>
<path d="M30.975 11.1554C31.0453 10.6785 31.0898 10.1669 31.0967 9.62359L31.0364 9.6228C30.9919 13.1477 29.4409 15.1565 29.4253 15.167L29.4561 15.2188C29.5467 15.1656 30.6094 13.6346 30.975 11.1554Z" fill="#B3CB51"/>
<path d="M30.5376 13.0412C30.5589 12.3883 30.4775 10.6674 30.4766 10.6501L30.4164 10.6529C30.4172 10.6702 30.4985 12.3887 30.4774 13.0392L30.5376 13.0412Z" fill="#B3CB51"/>
<path d="M31.3957 10.4916C31.4234 10.3038 31.4297 10.123 31.4032 9.96259L31.3437 9.97239C31.4772 10.7814 30.7225 12.183 30.7148 12.197L30.7678 12.2258C30.7933 12.1789 31.2802 11.2748 31.3957 10.4916Z" fill="#B3CB51"/>
<path d="M36.9494 37.7612C36.9494 37.7612 37.5578 25.4637 26.8977 12.3249C27.2127 11.9736 25.4507 10.6544 27.2127 11.9736C28.9748 13.2929 37.4023 24.4108 38.5732 37.2601C38.0023 37.6056 36.9494 37.7612 36.9494 37.7612Z" fill="#87A825"/>
<path d="M27.235 12.7468C27.2298 12.8069 26.455 11.9785 24.7471 10.7397C23.0392 9.50091 23.2537 8.43001 22.7655 7.78202C22.2772 7.13401 22.0083 6.74731 22.0083 6.74731C22.0083 6.74731 22.7736 6.99575 23.4788 7.23896C24.125 7.46182 27.333 9.91131 27.6247 12.3743C27.6512 12.599 27.2552 12.5158 27.235 12.7468Z" fill="#87A825"/>
<path d="M37.8238 37.5478C37.8233 37.5182 37.7617 34.5408 36.4503 29.9773C35.2402 25.7665 32.6879 19.3043 27.401 12.4312C27.2903 12.2872 27.1689 12.1416 27.0402 11.9985C26.3956 11.2817 24.2515 8.90817 23.7232 8.46057L23.6842 8.50656C24.2096 8.95173 26.3514 11.3228 26.9954 12.0388C27.123 12.1808 27.2434 12.3252 27.3532 12.468C32.6344 19.3336 35.1837 25.7882 36.3923 29.994C37.7015 34.5499 37.763 37.5193 37.7635 37.5487L37.8238 37.5478Z" fill="#B3CB51"/>
<path d="M26.328 11.2388C26.3042 11.1619 25.5428 9.73341 25.1417 9.15192L25.092 9.18615C25.4893 9.76207 26.2464 11.18 26.2703 11.2566L26.328 11.2388Z" fill="#B3CB51"/>
<path d="M25.1933 10.002C25.1858 9.99911 24.442 9.71034 24.0043 9.37402L23.9675 9.42184C24.4122 9.76354 25.164 10.0554 25.1716 10.0583L25.1933 10.002Z" fill="#B3CB51"/>
<path d="M52.7787 56.1624C52.7787 56.1624 54.9164 37.1823 39.6898 15.804C40.2116 15.2908 37.6118 13.0769 40.2116 15.2908C42.8114 17.5046 54.7779 35.537 55.3413 55.5445C54.424 56.0239 52.7787 56.1624 52.7787 56.1624Z" fill="#738F1F"/>
<path d="M53.673 51.3938C54.2104 51.6697 39.6699 53.5289 35.6205 51.1905C39.5915 51.0407 49.7898 49.3998 53.673 51.3938Z" fill="#738F1F"/>
<path d="M53.7946 48.6661C54.2999 48.975 40.3679 50.5058 36.0172 47.4423C41.4218 48.2434 50.1431 46.4342 53.7946 48.6661Z" fill="#738F1F"/>
<path d="M52.8804 45.1658C53.3711 45.4571 40.4109 46.7961 36.7035 44.3451C40.2553 44.3333 49.3337 43.061 52.8804 45.1658Z" fill="#738F1F"/>
<path d="M52.8953 42.4732C53.3585 42.7959 40.932 43.8312 36.9298 40.653C41.7983 41.6306 49.548 40.1412 52.8953 42.4732Z" fill="#738F1F"/>
<path d="M51.5959 38.7584C52.0311 39.0679 40.9539 39.7871 37.6541 37.202C40.7062 37.3546 48.4502 36.5216 51.5959 38.7584Z" fill="#738F1F"/>
<path d="M51.4843 36.1075C51.8974 36.4467 41.2648 36.8915 37.678 33.5765C41.9076 34.7645 48.4995 33.6562 51.4843 36.1075Z" fill="#738F1F"/>
<path d="M49.2857 32.2984C49.6774 32.5839 41.6503 33.4723 38.6276 31.0813C40.9184 31.1693 46.4555 30.2349 49.2857 32.2984Z" fill="#738F1F"/>
<path d="M48.6052 29.7855C48.9871 30.0997 41.2269 30.7195 37.8273 27.6414C41.2222 28.6896 45.8455 27.5155 48.6052 29.7855Z" fill="#738F1F"/>
<path d="M45.7773 25.3769C46.1125 25.6488 39.6635 26.9177 37.0648 24.6288C38.9266 24.6134 43.3551 23.4117 45.7773 25.3769Z" fill="#738F1F"/>
<path d="M45.0689 22.8574C45.398 23.1588 39.1484 24.1428 36.2015 21.1738C39.018 22.0826 42.6909 20.6795 45.0689 22.8574Z" fill="#738F1F"/>
<path d="M54.7722 49.624C54.4502 50.1351 67.9109 44.3306 70.2052 40.256C66.7113 42.1493 57.0987 45.9304 54.7722 49.624Z" fill="#738F1F"/>
<path d="M53.2452 46.8811C52.9676 47.4042 65.7374 41.627 67.9218 36.775C63.6784 40.2167 55.2513 43.1008 53.2452 46.8811Z" fill="#738F1F"/>
<path d="M52.7748 43.9325C52.5007 44.4331 64.3366 38.9857 66.2792 34.9884C63.2165 36.7869 54.7554 40.315 52.7748 43.9325Z" fill="#738F1F"/>
<path d="M52.0643 40.1137C51.83 40.6272 63.0519 35.1903 64.8777 30.4169C61.1856 33.7375 53.7576 36.4021 52.0643 40.1137Z" fill="#738F1F"/>
<path d="M51.4996 36.8884C51.2826 37.3764 61.1823 32.3545 62.7058 28.4493C60.1567 30.1349 53.0678 33.3614 51.4996 36.8884Z" fill="#738F1F"/>
<path d="M49.8621 33.74C49.6794 34.2423 59.0566 29.2107 60.4555 24.5312C57.4203 27.7074 51.1827 30.1104 49.8621 33.74Z" fill="#738F1F"/>
<path d="M49.106 30.7458C48.9143 31.191 56.2751 27.868 57.659 24.2709C55.7322 25.5132 50.491 27.5287 49.106 30.7458Z" fill="#738F1F"/>
<path d="M47.4309 27.3892C47.2622 27.854 54.2565 24.4357 55.6148 20.0554C53.2268 22.6864 48.65 24.0302 47.4309 27.3892Z" fill="#738F1F"/>
<path d="M45.7847 24.0465C45.6347 24.4512 51.831 22.2592 52.9019 18.9661C51.2918 19.9009 46.8686 21.1218 45.7847 24.0465Z" fill="#738F1F"/>
<path d="M43.7063 21.1604C43.5766 21.5874 49.4562 19.2518 50.4805 15.1959C48.5194 17.4123 44.6438 18.0751 43.7063 21.1604Z" fill="#738F1F"/>
<path d="M42.8581 19.2894C43.142 19.5228 39.2569 21.4129 37.012 19.4263C38.2187 19.225 40.8064 17.6028 42.8581 19.2894Z" fill="#738F1F"/>
<path d="M42.0939 18.1906C42.1288 18.5564 45.868 16.3952 45.4753 13.4231C44.6338 14.3103 41.842 15.5465 42.0939 18.1906Z" fill="#738F1F"/>
<path d="M41.3326 17.4442C41.6197 17.7071 37.7952 19.2978 35.1588 16.6783C37.2105 17.2887 39.2581 15.5443 41.3326 17.4442Z" fill="#738F1F"/>
<path d="M40.7226 16.4301C40.7981 16.812 36.7746 15.8278 36.2025 12.1556C37.4938 13.8628 40.1769 13.6705 40.7226 16.4301Z" fill="#738F1F"/>
<path d="M48.167 34.3617C45.5193 31.9603 44.61 36.5252 43.1486 36.6233C41.725 36.7422 39.9194 33.587 40.0303 29.7222C40.224 25.7946 37.4567 21.3918 35.1171 21.5818C32.8501 21.7595 34.2043 25.3925 34.1878 26.774C34.1749 27.9816 27.2728 23.7913 25.2235 18.9933C23.1102 13.9168 20.2539 13.3418 19.3953 13.9237C18.4572 14.4962 18.2576 16.6109 19.3226 18.3369C20.445 19.9968 13.9531 15.5456 11.1541 15.2543C10.5957 15.1594 10.0782 15.1824 9.64096 15.2919C8.83426 15.4134 8.41102 15.8149 8.30368 16.3096C8.12786 16.7861 8.26959 17.3513 8.82265 17.9124C9.09828 18.2532 9.46927 18.5733 9.92595 18.8388C12.1626 19.9265 18.9372 22.4468 17.0116 22.6232C15.1184 22.7312 13.7448 24.3133 13.7459 25.3443C13.7887 26.4336 14.9923 27.7192 19.655 27.2551C24.6256 26.802 28.5686 33.6065 27.1188 33.5737C25.8518 33.5453 22.8202 32.9968 22.4848 35.0318C22.1374 37.0138 23.8773 39.2782 27.1752 39.5958C30.5221 39.8631 33.3822 41.8966 32.4376 42.9357C31.4966 43.9301 27.7164 43.5598 27.8951 46.0323C27.9604 48.3904 33.468 47.8665 36.4544 50.2231C36.462 50.229 36.4692 50.2348 36.4767 50.2405C37.0647 50.6971 38.2322 51.3495 39.4421 52.0664C41.8278 53.4975 44.5721 52.9753 45.7884 50.1463C46.3859 48.7408 46.8534 47.2899 46.9669 46.4099C46.9683 46.3989 46.9698 46.3878 46.9713 46.3767C47.5843 42.1205 50.8456 36.9355 48.167 34.3617Z" fill="#B3CB51"/>
<path d="M44.126 58.0581C43.3609 53.5839 42.044 49.3218 40.2504 45.336C38.4569 41.3502 36.1882 37.6426 33.5227 34.2737C30.857 30.9038 27.7937 27.8762 24.409 25.2284C22.7167 23.9036 20.9431 22.6749 19.1002 21.5345C18.1793 20.9631 17.2401 20.4153 16.287 19.882C15.811 19.6141 15.3288 19.3555 14.8473 19.0912C14.3622 18.8347 13.8804 18.5661 13.3907 18.309C13.4417 18.2289 13.4927 18.1489 13.5437 18.0689C14.0312 18.3213 14.5102 18.5843 14.997 18.8379C15.4786 19.0983 15.9631 19.3541 16.4411 19.6193C17.3987 20.1471 18.3444 20.6906 19.2725 21.2582C21.1301 22.3911 22.9213 23.6142 24.6323 24.9355C28.0548 27.5763 31.1611 30.6048 33.8713 33.9835C36.5814 37.3614 38.896 41.0864 40.7343 45.0986C42.5725 49.1103 43.9328 53.4095 44.7363 57.9249C44.5329 57.9695 44.3295 58.0139 44.126 58.0581Z" fill="#738F1F"/>
<path d="M41.7976 48.5777C42.0306 47.8298 42.261 47.0888 42.4871 46.3414C42.714 45.5955 42.9359 44.8467 43.162 44.1015C43.3882 43.3566 43.615 42.6124 43.867 41.8892C43.9936 41.528 44.1237 41.17 44.2719 40.8281C44.4204 40.487 44.5817 40.1561 44.7852 39.8728C44.8029 39.8942 44.8206 39.9157 44.8382 39.9371C44.6527 40.2319 44.5089 40.5735 44.3772 40.9246C44.246 41.2765 44.1324 41.6446 44.0222 42.0152C43.8029 42.7576 43.6074 43.5206 43.4119 44.2844C43.2163 45.0481 43.0243 45.8158 42.8263 46.5803C42.6298 47.3448 42.4261 48.109 42.2236 48.8659C42.0818 48.7689 41.9398 48.6728 41.7976 48.5777Z" fill="#738F1F"/>
<path d="M40.3275 44.9094C39.6531 44.8067 38.9755 44.7367 38.3044 44.6915C37.6328 44.6477 36.9647 44.6294 36.3031 44.6447C35.6416 44.6599 34.9853 44.705 34.3427 44.802C34.0216 44.8509 33.7028 44.9103 33.3922 44.9936C33.0821 45.0771 32.777 45.1797 32.4954 45.3295C32.4846 45.3102 32.4739 45.291 32.4631 45.2717C32.7411 45.1024 33.0436 44.9805 33.3511 44.8775C33.6593 44.7746 33.9755 44.6959 34.2946 44.6268C34.9332 44.4899 35.5859 44.4038 36.2446 44.3463C36.9035 44.2888 37.5696 44.2636 38.2402 44.2629C38.9117 44.2635 39.5851 44.2872 40.2692 44.3441C40.2897 44.5326 40.3092 44.7211 40.3275 44.9094Z" fill="#738F1F"/>
<path d="M35.6805 37.0431C35.7255 36.2737 35.7701 35.5105 35.8081 34.7414C35.8476 33.9735 35.8815 33.203 35.9199 32.4343C35.9587 31.6658 35.998 30.8971 36.0663 30.1412C36.1009 29.7636 36.1402 29.3879 36.2003 29.0228C36.2612 28.6586 36.3363 28.3002 36.4641 27.9771C36.4863 27.993 36.5085 28.009 36.5307 28.0251C36.4232 28.3548 36.3671 28.7184 36.3251 29.0881C36.2837 29.4583 36.2631 29.8394 36.2462 30.2218C36.2138 30.9875 36.2094 31.7661 36.2047 32.5444C36.2001 33.3229 36.1994 34.1032 36.1924 34.8809C36.1865 35.6583 36.1739 36.4362 36.1601 37.2061C36.0003 37.1508 35.8404 37.0965 35.6805 37.0431Z" fill="#738F1F"/>
<path d="M24.0645 24.871C23.8578 24.13 23.6519 23.3943 23.4374 22.6547C23.2244 21.9158 23.0046 21.1761 22.789 20.4359C22.5735 19.6959 22.3579 18.9551 22.1731 18.2169C22.0815 17.8478 21.9943 17.4792 21.9305 17.1136C21.8674 16.7487 21.8203 16.3846 21.8342 16.0368C21.8606 16.0447 21.887 16.0527 21.9134 16.0607C21.9208 16.4082 21.9879 16.771 22.0705 17.1349C22.1538 17.4992 22.2601 17.867 22.3702 18.2348C22.5922 18.9706 22.8439 19.7092 23.0945 20.4474C23.3452 21.1857 23.5995 21.9239 23.8459 22.6613C24.0935 23.398 24.3338 24.1372 24.5699 24.868C24.4012 24.8681 24.2327 24.8691 24.0645 24.871Z" fill="#738F1F"/>
<path d="M33.8924 34.6862C33.217 34.7499 32.5458 34.8457 31.8864 34.9635C31.227 35.0827 30.5765 35.2256 29.9401 35.399C29.3034 35.5722 28.679 35.773 28.079 36.0202C27.7793 36.1442 27.4845 36.2775 27.2025 36.4319C26.9213 36.5864 26.649 36.758 26.4102 36.9693C26.3955 36.9534 26.3808 36.9375 26.3661 36.9216C26.5973 36.6924 26.8625 36.503 27.1369 36.3303C27.412 36.1578 27.7005 36.0063 27.9935 35.8636C28.5804 35.579 29.1926 35.3399 29.817 35.1268C30.4416 34.9137 31.08 34.7298 31.7287 34.5681C32.3786 34.4078 33.0351 34.2685 33.7099 34.1589C33.7718 34.3346 33.8327 34.5103 33.8924 34.6862Z" fill="#738F1F"/>
<path d="M25.8084 26.3337C25.0439 26.0512 24.2684 25.8042 23.4956 25.5904C22.7222 25.3775 21.9477 25.1974 21.1768 25.0583C20.4059 24.9193 19.6373 24.8177 18.8804 24.7767C18.5021 24.7567 18.1261 24.7489 17.7579 24.7675C17.3903 24.7864 17.0274 24.8264 16.6892 24.9169C16.6787 24.8976 16.6682 24.8784 16.6577 24.8591C16.994 24.7505 17.3563 24.6929 17.7238 24.6564C18.092 24.6203 18.4685 24.6107 18.8476 24.6136C19.6066 24.6202 20.3793 24.6874 21.156 24.7923C21.933 24.8972 22.7152 25.0437 23.4986 25.2232C24.2828 25.4042 25.0655 25.6164 25.8539 25.8702C25.8394 26.0249 25.8242 26.1794 25.8084 26.3337Z" fill="#738F1F"/>
<path d="M39.0083 49.5814C34.024 53.4111 30.2218 53.0996 28.3522 51.4906C27.4495 50.7137 27.7659 49.2423 28.8981 48.8728C33.8572 47.2545 37.937 49.1487 38.7304 49.4455L39.0083 49.5814Z" fill="#87A825"/>
<path d="M38.7494 49.4551L39.0081 49.5815C38.9707 49.6102 38.9335 49.6384 38.8964 49.6666C37.9638 49.7114 32.8396 50.0599 29.5903 49.8885C32.3536 50.0343 37.7581 49.5334 38.7494 49.4551Z" fill="#96BA29"/>
<path d="M31.3963 43.9706C33.9209 39.5003 33.2323 36.4613 31.7164 35.1342C30.9845 34.4934 29.831 34.9182 29.6622 35.8763C28.923 40.0722 30.9233 43.154 31.2545 43.7615L31.3963 43.9706Z" fill="#87A825"/>
<path d="M31.2644 43.776L31.3963 43.9706C31.4152 43.9371 31.4337 43.9038 31.4523 43.8705C31.3814 43.1113 31.0747 38.9275 30.563 36.3196C30.9982 38.5374 31.2138 42.9654 31.2644 43.776Z" fill="#96BA29"/>
<path d="M41.2836 51.1962C42.55 46.2209 41.09 43.4682 39.2796 42.5841C38.4055 42.1572 37.4033 42.8692 37.4912 43.838C37.8762 48.0811 40.6134 50.5318 41.0921 51.0315L41.2836 51.1962Z" fill="#87A825"/>
<path d="M41.1053 51.0428L41.2836 51.1962C41.2931 51.1589 41.3023 51.1219 41.3115 51.0849C41.0443 50.3707 39.6532 46.413 38.4767 44.03C39.4772 46.0566 40.8444 50.2737 41.1053 51.0428Z" fill="#96BA29"/>
<path d="M27.423 42.6091C23.352 45.7371 20.2464 45.4826 18.7194 44.1684C17.982 43.5338 18.2404 42.332 19.1652 42.0302C23.2156 40.7085 26.548 42.2556 27.196 42.4981L27.423 42.6091Z" fill="#87A825"/>
<path d="M27.2118 42.5059L27.423 42.6091C27.3925 42.6326 27.3621 42.6556 27.3318 42.6786C26.5701 42.7152 22.3848 42.9998 19.7308 42.8598C21.9878 42.9789 26.4021 42.5698 27.2118 42.5059Z" fill="#96BA29"/>
<path d="M22.7611 39.8561C25.4087 36.4682 25.2168 33.8654 24.1266 32.5773C23.6002 31.9554 22.592 32.1635 22.3329 32.9359C21.1982 36.3191 22.4711 39.1208 22.6697 39.6652L22.7611 39.8561Z" fill="#87A825"/>
<path d="M22.6759 39.6784L22.7609 39.8561C22.7808 39.8307 22.8003 39.8054 22.8198 39.7801C22.8556 39.1424 23.1227 35.6391 23.0236 33.4153C23.1078 35.3064 22.735 39.0007 22.6759 39.6784Z" fill="#96BA29"/>
<path d="M19.8387 37.9483C16.388 40.5135 13.7907 40.2591 12.5292 39.1382C11.9201 38.5969 12.1524 37.594 12.9309 37.3536C16.3404 36.3007 19.1106 37.6407 19.6501 37.8524L19.8387 37.9483Z" fill="#87A825"/>
<path d="M19.6632 37.8591L19.8387 37.9484C19.8129 37.9676 19.7871 37.9865 19.7614 38.0054C19.123 38.0258 15.6142 38.2084 13.3936 38.0558C15.2821 38.1856 18.9843 37.9018 19.6632 37.8591Z" fill="#96BA29"/>
<path d="M17.0924 34.6164C19.2525 32.1978 19.237 30.2296 18.4803 29.2063C18.1149 28.7122 17.3458 28.8189 17.1127 29.3874C16.0913 31.8773 16.9106 34.0487 17.0331 34.4682L17.0924 34.6164Z" fill="#87A825"/>
<path d="M17.0371 34.4785L17.0923 34.6164C17.1085 34.5983 17.1244 34.5802 17.1404 34.5622C17.1989 34.084 17.5732 31.4608 17.6087 29.7824C17.5785 31.2098 17.1151 33.9714 17.0371 34.4785Z" fill="#96BA29"/>
<path d="M15.1644 31.7854C15.4688 28.5578 14.289 26.9823 13.073 26.6069C12.4859 26.4257 11.9301 26.9675 12.0795 27.5634C12.7341 30.1735 14.6813 31.4361 15.0288 31.7013L15.1644 31.7854Z" fill="#87A825"/>
<path d="M42.0906 56.2902C41.9878 54.9319 39.9127 51.7848 39.6765 51.501C39.4388 51.2158 39.1958 50.9329 38.946 50.6561C38.4475 50.1014 37.9334 49.5588 37.3972 49.041C36.3258 48.0062 35.1849 47.0405 33.9488 46.245C33.8717 46.1951 33.7956 46.143 33.7177 46.0947L33.4812 45.9562C33.3216 45.8642 33.1699 45.7697 33.0036 45.6793C32.6704 45.4986 32.3377 45.317 32.0011 45.14C31.3302 44.783 30.6526 44.4335 29.9744 44.0841C28.6167 43.3862 27.2517 42.6954 25.8936 41.9849C24.5369 41.2712 23.1818 40.5496 21.8631 39.7483C21.6982 39.6485 21.533 39.5494 21.3707 39.4437C21.2072 39.3375 21.0458 39.2409 20.8808 39.1267C20.5407 38.9015 20.246 38.6373 19.956 38.3715C19.3874 37.83 18.8772 37.2458 18.3946 36.644C17.4337 35.4369 16.5731 34.1654 15.7531 32.8716C14.9367 31.5752 14.1611 30.2559 13.433 28.9101L13.4919 28.8771C14.278 30.1862 15.111 31.4677 15.9808 32.7205C16.8538 33.9703 17.7659 35.1945 18.7618 36.3364C19.2611 36.9049 19.7846 37.4511 20.3458 37.9393C20.6293 38.1768 20.9174 38.4117 21.2245 38.5947C21.378 38.6914 21.549 38.784 21.7103 38.8788C21.8728 38.9745 22.0395 39.0646 22.2058 39.1553C23.534 39.883 24.9098 40.5386 26.2887 41.1867C27.6699 41.8321 29.0622 42.46 30.4535 43.0979C31.1492 43.4176 31.8452 43.738 32.5393 44.0683C32.8868 44.2316 33.233 44.4007 33.5795 44.569C33.7529 44.6534 33.9311 44.7522 34.1067 44.8435L34.3711 44.9832C34.4579 45.0317 34.5421 45.0837 34.6277 45.1338C36.0011 45.9335 37.2485 46.8995 38.4223 47.9352C39.0096 48.4535 39.5726 48.9964 40.1213 49.5545C40.3962 49.8331 40.6645 50.1183 40.9294 50.4085C41.1952 50.7007 44.8675 54.4649 44.8821 56.0661L42.0906 56.2902Z" fill="#96BA29"/>
<path fill-rule="evenodd" clip-rule="evenodd" d="M17.2895 42.486L15.9025 42.4883C15.6774 42.4887 15.4614 42.5769 15.3003 42.7341L13.5877 44.406C13.4208 44.5689 13.3269 44.7924 13.3273 45.0257L13.3394 52.3324C13.3402 52.8096 13.7277 53.1958 14.2049 53.195L19.0225 53.1871C19.4998 53.1863 19.8859 52.7988 19.8851 52.3216L19.873 45.0149C19.8727 44.7816 19.778 44.5584 19.6105 44.396L17.8925 42.7298C17.7309 42.5731 17.5146 42.4856 17.2895 42.486Z" fill="#CC9999"/>
<path d="M16.9788 44.5474C17.189 44.3373 17.189 43.9965 16.9788 43.7863C16.7686 43.5761 16.4279 43.5761 16.2177 43.7863C16.0075 43.9965 16.0075 44.3372 16.2177 44.5474C16.4279 44.7576 16.7686 44.7576 16.9788 44.5474Z" fill="#F0C30F"/>
<path d="M16.5859 36.3975C15.1789 36.3998 14.0365 37.6779 14.0391 39.2465C14.0402 39.9344 14.5074 41.067 15.4255 42.6118L15.6979 42.4886C14.8084 40.9962 14.3372 39.8753 14.3362 39.246C14.3339 37.8412 15.3433 36.6967 16.5864 36.6946C17.8295 36.6925 18.8427 37.8338 18.845 39.2386C18.8474 40.664 16.5005 44.0481 16.4769 44.082C16.43 44.1493 16.4465 44.2419 16.5138 44.2888C16.5398 44.3069 16.5695 44.3156 16.5988 44.3156C16.6457 44.3155 16.6918 44.2933 16.7206 44.252C16.8196 44.1099 19.1446 40.7565 19.1421 39.2381C19.1396 37.6694 17.9928 36.3951 16.5859 36.3975Z" fill="#996633"/>
<path d="M14.8787 48.1633C14.8779 47.7168 15.196 47.2356 15.7013 47.2347C16.2115 47.2339 16.4623 47.6455 16.4631 48.0968C16.4638 48.5384 16.1458 49.0196 15.6404 49.0205C15.1302 49.0213 14.8794 48.6145 14.8787 48.1633ZM17.4722 47.1876C17.6193 47.2266 17.7225 47.3049 17.8012 47.4127L15.7511 50.6588C15.6136 50.6149 15.4958 50.5464 15.4221 50.4483L17.4722 47.1876ZM15.55 47.6813C15.5108 47.7403 15.462 47.8728 15.4623 48.0691C15.4628 48.3683 15.5417 48.6134 15.6839 48.6132C15.733 48.6131 15.7771 48.5983 15.7918 48.5787C15.831 48.5198 15.8798 48.3823 15.8795 48.1861C15.879 47.8869 15.8001 47.6417 15.6578 47.6419C15.6087 47.642 15.5646 47.6617 15.55 47.6813ZM16.7504 49.7938C16.7497 49.3473 17.0678 48.866 17.573 48.8651C18.0832 48.8643 18.3341 49.276 18.3348 49.7274C18.3356 50.1688 18.0175 50.6502 17.5122 50.651C17.002 50.6518 16.7512 50.245 16.7504 49.7938ZM17.4217 49.3118C17.3826 49.3708 17.3337 49.5033 17.334 49.6996C17.3345 49.9988 17.4134 50.2439 17.5557 50.2437C17.6048 50.2436 17.6489 50.2288 17.6636 50.2091C17.7027 50.1502 17.7516 50.0128 17.7513 49.8165C17.7508 49.5173 17.6718 49.2722 17.5296 49.2724C17.4805 49.2725 17.4364 49.2922 17.4217 49.3118Z" fill="white"/>
<path d="M16.4632 39.7145C14.6896 40.2176 13.3363 39.8551 12.5294 39.1382C11.9204 38.597 12.1527 37.594 12.9312 37.3536C14.2097 36.9587 15.3984 36.9004 16.4132 36.9929C18.1046 37.147 17.4625 39.4311 16.4632 39.7145Z" fill="#87A825"/>
<path d="M17.7411 38.0801C16.3986 38.12 14.6802 38.1441 13.3939 38.0557C14.5455 38.1348 16.3713 38.0602 17.775 37.9802C18.1299 37.96 18.0569 38.0707 17.7411 38.0801Z" fill="#96BA29"/>
<path d="M61.2464 51.0848L61.2023 78.3853L37.171 79.1609L37.2151 51.8603L61.2464 51.0848Z" fill="#FFCCCC"/>
<path d="M51.9833 78.7122L47.3698 78.8317V51.5326L51.9833 51.3837V78.7122Z" fill="#CC346F"/>
<path d="M54.6537 19.6107L49.5333 9.78231L54.1465 5.64569L59.6595 15.122L54.6537 19.6107Z" fill="#CC9999"/>
<path d="M59.6769 15.112C59.678 15.1115 59.6791 15.1112 59.6802 15.1108C59.6823 15.1101 59.6844 15.1095 59.6865 15.109C59.6876 15.1088 59.6887 15.1085 59.6898 15.1083C59.6911 15.1081 59.6924 15.1081 59.6938 15.108C59.6969 15.1077 59.7 15.1077 59.703 15.1079C59.7043 15.108 59.7056 15.1081 59.7068 15.1083C59.71 15.1088 59.7131 15.1096 59.7162 15.1106C59.717 15.1109 59.7178 15.111 59.7186 15.1113C59.7196 15.1117 59.7205 15.1123 59.7215 15.1128C59.7235 15.1137 59.7254 15.1146 59.7272 15.1158C59.7283 15.1165 59.7293 15.1173 59.7303 15.1181C59.7323 15.1196 59.7343 15.1211 59.7361 15.123L78.1834 34.3597L71.6486 24.3441L54.2231 5.64663C54.2224 5.64587 54.2216 5.64515 54.2209 5.64444C54.2198 5.64345 54.2185 5.64269 54.2173 5.6418C54.2163 5.641 54.2153 5.64016 54.2143 5.63947C54.2124 5.63829 54.2105 5.63736 54.2085 5.63643C54.2075 5.63597 54.2066 5.63538 54.2056 5.63498C54.2054 5.63492 54.2053 5.6348 54.2051 5.63474C54.2045 5.6345 54.2038 5.63449 54.2032 5.63428C54.2001 5.63325 54.197 5.63246 54.1938 5.63199C54.1933 5.63191 54.1928 5.63167 54.1922 5.63161C54.1915 5.63153 54.1908 5.63168 54.19 5.63163C54.187 5.63139 54.1839 5.63142 54.1808 5.6317C54.18 5.63177 54.1792 5.63161 54.1784 5.63172C54.1779 5.63179 54.1774 5.63196 54.1768 5.63204C54.1757 5.63222 54.1746 5.63249 54.1735 5.63273C54.1714 5.6332 54.1693 5.63376 54.1672 5.63445C54.1661 5.63483 54.165 5.63523 54.1639 5.63567C54.1617 5.63653 54.1597 5.63756 54.1576 5.63868C54.1567 5.6392 54.1557 5.63965 54.1548 5.64023C54.1519 5.64204 54.1491 5.64403 54.1465 5.64639L59.6595 15.1227C59.6621 15.1204 59.6649 15.1184 59.6678 15.1166C59.6687 15.116 59.6697 15.1155 59.6706 15.115C59.6727 15.1139 59.6747 15.1129 59.6769 15.112Z" fill="#FFCCCC"/>
<path d="M78.1835 34.3598L59.7362 15.123C59.7166 15.1026 59.6823 15.1024 59.6596 15.1228L54.6539 19.6114C54.6313 19.6317 54.629 19.6648 54.6485 19.6851L73.0959 38.9219C73.1154 38.9422 73.1497 38.9425 73.1723 38.9223L78.178 34.4336C78.2008 34.4132 78.2031 34.3801 78.1835 34.3598Z" fill="#FFCCCC"/>
<path d="M56.1026 9.013L51.436 13.4354L52.7894 16.0331L57.5719 11.5346L56.1026 9.013Z" fill="#AD2B5E"/>
<path d="M67.678 23.4048L62.6068 27.9842L65.8015 31.3155L70.8726 26.7362L67.678 23.4048Z" fill="#CC346F"/>
<path d="M56.1027 9.013L74.0681 28.0524L76.2857 31.4513L57.572 11.5346L56.1027 9.013Z" fill="#AD2B5E"/>
<path d="M67.6781 23.4048L62.4047 14.4254L66.0709 18.3592L70.9216 26.6921L67.6781 23.4048Z" fill="#CC346F"/>
<path d="M65.6497 20.2285C65.6122 20.187 65.5781 20.142 65.5475 20.0938C64.8951 19.0605 61.6467 13.7838 61.7702 11.3672C61.8384 10.027 62.4244 8.79371 63.4204 7.89426C64.4164 6.99492 65.7029 6.53731 67.0432 6.60561C68.3832 6.67373 69.6166 7.25988 70.516 8.25594C71.4153 9.25175 71.873 10.5384 71.8049 11.8785L71.8048 11.8786C71.6814 14.295 67.9137 19.2145 67.1597 20.1761C66.9616 20.4286 66.6531 20.5694 66.3324 20.5528C66.0686 20.5394 65.8238 20.4213 65.6497 20.2285ZM69.0502 9.57961C68.5043 8.97509 67.7558 8.61934 66.9427 8.5779C66.1293 8.53669 65.3485 8.81425 64.744 9.36009C64.1396 9.90588 63.784 10.6545 63.7426 11.4676C63.686 12.5751 65.1296 15.506 66.4724 17.8087C68.0418 15.6543 69.7757 12.8853 69.8325 11.7781C69.8737 10.9647 69.5959 10.184 69.0502 9.57961Z" fill="#CC346F"/>
<path d="M65.9069 20.5133C65.7328 20.3205 65.6401 20.0651 65.6536 19.8011C65.6699 19.4807 65.8411 19.1879 66.1125 19.0165C67.1458 18.3641 72.4226 15.1158 74.8392 15.239L74.8394 15.2389C77.6058 15.3801 79.7417 17.7454 79.6009 20.5119C79.5325 21.8522 78.9465 23.0856 77.9506 23.9849C76.9545 24.8844 75.668 25.3419 74.3278 25.2736C71.911 25.1505 66.9919 21.3824 66.0305 20.6285C65.9856 20.5933 65.9443 20.5547 65.9069 20.5133ZM74.7387 17.2112C73.63 17.1547 70.6995 18.5983 68.3977 19.941C70.5518 21.5106 73.321 23.2449 74.4283 23.3013C75.2416 23.3426 76.0225 23.0649 76.6269 22.5191C77.2314 21.9733 77.5869 21.2248 77.6286 20.4114C77.7139 18.7327 76.4178 17.2967 74.7386 17.2113L74.7387 17.2112Z" fill="#CC346F"/>
<path opacity="0.61" d="M43.4808 50.4071C52.4256 50.4071 59.6768 43.1559 59.6768 34.211C59.6768 25.2662 52.4256 18.015 43.4808 18.015C34.5359 18.015 27.2847 25.2662 27.2847 34.211C27.2847 43.1559 34.5359 50.4071 43.4808 50.4071Z" fill="#EFF4BE"/>
<path d="M43.6464 48.8573C51.6435 48.8573 58.1264 42.3745 58.1264 34.3774C58.1264 26.3804 51.6435 19.8975 43.6464 19.8975C35.6494 19.8975 29.1665 26.3804 29.1665 34.3774C29.1665 42.3745 35.6494 48.8573 43.6464 48.8573Z" fill="white"/>
<path d="M37.0172 32.982C36.8366 32.982 36.6408 32.9739 36.4298 32.9576C36.2208 32.9434 36.0118 32.914 35.8028 32.8694C35.5938 32.8268 35.3909 32.7669 35.1941 32.6898C34.9993 32.6127 34.8259 32.5123 34.6737 32.3885C34.5215 32.2647 34.3967 32.1146 34.2993 31.9381C34.202 31.7616 34.1472 31.5516 34.135 31.3081C34.135 31.1884 34.1482 31.0727 34.1746 30.9611C34.2009 30.8475 34.2354 30.7369 34.278 30.6294C34.3227 30.5218 34.3724 30.4163 34.4272 30.3129C34.484 30.2073 34.5418 30.1018 34.6007 29.9963L35.3159 30.5959C35.2854 30.6385 35.2499 30.6943 35.2093 30.7633C35.1688 30.8302 35.1292 30.9013 35.0907 30.9763C35.0541 31.0514 35.0227 31.1275 34.9963 31.2046C34.972 31.2797 34.9598 31.3456 34.9598 31.4024C34.9598 31.4775 34.9862 31.5455 35.0389 31.6063C35.0937 31.6652 35.1688 31.7179 35.2641 31.7646C35.3615 31.8092 35.4751 31.8478 35.605 31.8802C35.7369 31.9127 35.8789 31.9391 36.0311 31.9594C36.1853 31.9797 36.3466 31.9949 36.515 32.005C36.6854 32.0152 36.8579 32.0202 37.0324 32.0202C37.1115 32.0202 37.1967 32.0202 37.288 32.0202C37.3793 32.0182 37.4656 32.0162 37.5467 32.0142C37.6279 32.0121 37.6989 32.0101 37.7598 32.0081C37.8227 32.006 37.8653 32.004 37.8876 32.002C37.8146 31.9208 37.7486 31.8204 37.6898 31.7007C37.6309 31.581 37.5975 31.445 37.5893 31.2929C37.5853 31.1731 37.5975 31.0524 37.6259 30.9307C37.6563 30.8069 37.6999 30.6872 37.7567 30.5716C37.8136 30.4559 37.8825 30.3484 37.9637 30.2489C38.0449 30.1475 38.1351 30.0602 38.2346 29.9872C38.334 29.9121 38.4405 29.8553 38.5541 29.8168C38.6698 29.7762 38.7895 29.7579 38.9133 29.762C39.0898 29.7701 39.2541 29.8158 39.4063 29.8989C39.5585 29.9821 39.6893 30.0897 39.7989 30.2216C39.9105 30.3534 39.9978 30.5036 40.0607 30.672C40.1256 30.8384 40.158 31.0098 40.158 31.1863C40.158 31.3263 40.1347 31.4643 40.088 31.6002C40.0414 31.7342 39.9825 31.862 39.9115 31.9837C40.0089 31.9939 40.1033 32.003 40.1946 32.0111C40.2879 32.0172 40.3751 32.0202 40.4563 32.0202H40.5567V32.982H40.4715C40.3457 32.982 40.2159 32.98 40.082 32.9759C39.9501 32.9718 39.8182 32.9607 39.6863 32.9424C39.5544 32.9262 39.4236 32.9018 39.2937 32.8694C39.1638 32.8369 39.038 32.7923 38.9163 32.7355C38.8676 32.7639 38.8007 32.7892 38.7154 32.8116C38.6302 32.8359 38.5328 32.8572 38.4233 32.8755C38.3157 32.8937 38.2001 32.9089 38.0763 32.9211C37.9546 32.9353 37.8308 32.9465 37.705 32.9546C37.5812 32.9647 37.4595 32.9718 37.3398 32.9759C37.2221 32.98 37.1146 32.982 37.0172 32.982ZM39.3515 31.2563C39.3515 31.1914 39.3353 31.1295 39.3028 31.0707C39.2724 31.0118 39.2338 30.9591 39.1872 30.9124C39.1425 30.8658 39.0938 30.8272 39.0411 30.7968C38.9883 30.7643 38.9407 30.742 38.898 30.7298C38.8514 30.74 38.7976 30.7582 38.7367 30.7846C38.6779 30.811 38.6211 30.8485 38.5663 30.8972C38.5136 30.9439 38.4689 31.0017 38.4324 31.0707C38.3959 31.1376 38.3776 31.2178 38.3776 31.3111C38.3776 31.3416 38.3928 31.3842 38.4233 31.4389C38.4557 31.4917 38.4963 31.5465 38.545 31.6033C38.5957 31.6581 38.6525 31.7098 38.7154 31.7585C38.7804 31.8052 38.8463 31.8387 38.9133 31.8589C38.964 31.8305 39.0157 31.792 39.0685 31.7433C39.1212 31.6926 39.1679 31.6398 39.2085 31.585C39.2511 31.5282 39.2856 31.4714 39.312 31.4146C39.3383 31.3558 39.3515 31.303 39.3515 31.2563ZM39.038 29.2781L38.3624 28.6024L39.038 27.9268L39.7137 28.6024L39.038 29.2781ZM43.1523 32.0202V32.982H43.0823C42.9849 32.982 42.8886 32.9739 42.7932 32.9576C42.6999 32.9414 42.6116 32.9181 42.5284 32.8876C42.4452 32.8592 42.3681 32.8247 42.2971 32.7842C42.2281 32.7436 42.1683 32.7 42.1175 32.6533C42.0222 32.7263 41.9126 32.7842 41.7888 32.8268C41.6671 32.8694 41.5373 32.9018 41.3993 32.9242C41.2633 32.9485 41.1223 32.9637 40.9762 32.9698C40.8322 32.9779 40.6902 32.982 40.5502 32.982H40.4375V32.0202H40.5502C40.6962 32.0202 40.8261 32.0162 40.9397 32.0081C41.0554 32 41.1558 31.9858 41.241 31.9655C41.3283 31.9452 41.4013 31.9188 41.4602 31.8863C41.519 31.8518 41.5667 31.8092 41.6032 31.7585C41.6499 31.6936 41.6783 31.6216 41.6884 31.5424C41.7006 31.4633 41.7016 31.3821 41.6915 31.2989C41.6833 31.2137 41.6681 31.1295 41.6458 31.0463C41.6235 30.9611 41.6032 30.88 41.5849 30.8029L42.4706 30.5502C42.4949 30.6416 42.5152 30.7247 42.5315 30.7998C42.5497 30.8749 42.5649 30.9479 42.5771 31.0189C42.5913 31.09 42.6035 31.162 42.6136 31.235C42.6238 31.3081 42.6349 31.3872 42.6471 31.4724C42.6552 31.5272 42.6654 31.5871 42.6775 31.652C42.6917 31.7149 42.7141 31.7737 42.7445 31.8285C42.7749 31.8833 42.8165 31.9289 42.8693 31.9655C42.9241 32.002 42.9951 32.0202 43.0823 32.0202H43.1523ZM41.6245 33.8737L41.0523 34.4459L40.4619 33.8585L41.0462 33.2711L41.6245 33.8494L42.1967 33.2772L42.7871 33.8646L42.2028 34.452L41.6245 33.8737ZM43.0284 32.0202H43.2475C43.2942 32.0202 43.3418 32.0192 43.3905 32.0172C43.4392 32.0131 43.4849 32.0091 43.5275 32.005C43.5701 31.9989 43.6026 31.9908 43.6249 31.9807C43.5884 31.9401 43.5529 31.8965 43.5184 31.8498C43.4839 31.8011 43.4524 31.7484 43.424 31.6916C43.3976 31.6347 43.3753 31.5739 43.3571 31.5089C43.3388 31.442 43.3276 31.37 43.3236 31.2929C43.3195 31.1731 43.3317 31.0524 43.3601 30.9307C43.3905 30.8069 43.4342 30.6872 43.491 30.5716C43.5478 30.4559 43.6168 30.3484 43.6979 30.2489C43.7791 30.1475 43.8694 30.0602 43.9688 29.9872C44.0682 29.9121 44.1747 29.8553 44.2884 29.8168C44.404 29.7762 44.5237 29.7579 44.6475 29.762C44.824 29.7701 44.9884 29.8158 45.1405 29.8989C45.2927 29.9821 45.4236 30.0897 45.5331 30.2216C45.6447 30.3534 45.732 30.5036 45.7949 30.672C45.8598 30.8384 45.8923 31.0098 45.8923 31.1863C45.8923 31.3263 45.8689 31.4643 45.8223 31.6002C45.7756 31.7342 45.7168 31.862 45.6458 31.9837C45.6985 31.9959 45.7634 32.005 45.8405 32.0111C45.9176 32.0172 46.016 32.0202 46.1358 32.0202H46.1966V32.982H46.0779C45.946 32.982 45.8202 32.9779 45.7005 32.9698C45.5829 32.9637 45.4662 32.9516 45.3505 32.9333C45.2369 32.915 45.1223 32.8897 45.0066 32.8572C44.893 32.8268 44.7743 32.7862 44.6505 32.7355C44.5755 32.7781 44.4811 32.8146 44.3675 32.845C44.2559 32.8775 44.1331 32.9029 43.9992 32.9211C43.8653 32.9414 43.7253 32.9566 43.5792 32.9668C43.4331 32.9769 43.2891 32.982 43.1471 32.982H43.0284V32.0202ZM45.0858 31.2563C45.0858 31.1914 45.0695 31.1295 45.0371 31.0707C45.0066 31.0118 44.9681 30.9591 44.9214 30.9124C44.8768 30.8658 44.8281 30.8272 44.7753 30.7968C44.7226 30.7643 44.6749 30.742 44.6323 30.7298C44.5856 30.74 44.5318 30.7582 44.471 30.7846C44.4121 30.811 44.3553 30.8485 44.3005 30.8972C44.2478 30.9439 44.2031 31.0017 44.1666 31.0707C44.1301 31.1376 44.1118 31.2178 44.1118 31.3111C44.1118 31.3416 44.1271 31.3842 44.1575 31.4389C44.19 31.4917 44.2305 31.5465 44.2792 31.6033C44.33 31.6581 44.3868 31.7098 44.4497 31.7585C44.5146 31.8052 44.5805 31.8387 44.6475 31.8589C44.6982 31.8305 44.75 31.792 44.8027 31.7433C44.8555 31.6926 44.9021 31.6398 44.9427 31.585C44.9853 31.5282 45.0198 31.4714 45.0462 31.4146C45.0726 31.3558 45.0858 31.303 45.0858 31.2563ZM44.5897 29.3389L43.914 28.6633L44.5897 27.9876L45.2653 28.6633L44.5897 29.3389ZM46.0772 32.0202H46.695C46.8431 32.0202 46.9994 32.0101 47.1637 31.9898C47.3301 31.9695 47.4995 31.9421 47.672 31.9076C47.8444 31.8731 48.0179 31.8326 48.1924 31.7859C48.3669 31.7372 48.5363 31.6855 48.7007 31.6307C48.867 31.5759 49.0253 31.5181 49.1755 31.4572C49.3276 31.3963 49.4676 31.3355 49.5955 31.2746C49.4697 31.2442 49.3297 31.2016 49.1755 31.1468C49.0213 31.092 48.865 31.0382 48.7068 30.9855C48.5485 30.9327 48.3943 30.8881 48.2441 30.8516C48.096 30.813 47.9631 30.7947 47.8455 30.7968C47.7704 30.7988 47.6973 30.815 47.6263 30.8455C47.5573 30.8739 47.4924 30.9104 47.4315 30.955C47.3727 30.9976 47.3189 31.0443 47.2702 31.095C47.2236 31.1437 47.183 31.1904 47.1485 31.235C47.114 31.2776 47.0866 31.3142 47.0663 31.3446L47.0389 31.3872L46.3176 30.9733C46.3988 30.8231 46.4962 30.6791 46.6098 30.5411C46.7234 30.4011 46.8472 30.2784 46.9811 30.1729C47.115 30.0653 47.255 29.9801 47.4011 29.9172C47.5492 29.8543 47.6973 29.8239 47.8455 29.8259C47.955 29.8279 48.0636 29.8411 48.1711 29.8655C48.2807 29.8898 48.3902 29.9213 48.4998 29.9598C48.6094 29.9963 48.7199 30.04 48.8315 30.0907C48.9431 30.1394 49.0557 30.1901 49.1694 30.2429C49.285 30.2997 49.4128 30.3555 49.5528 30.4102C49.6949 30.465 49.842 30.5137 49.9941 30.5563C50.1484 30.5989 50.3046 30.6334 50.4628 30.6598C50.6231 30.6862 50.7794 30.6994 50.9315 30.6994L50.7733 31.5972C50.7266 31.6175 50.6739 31.6418 50.615 31.6702C50.5582 31.6966 50.5075 31.721 50.4628 31.7433L50.3837 31.7829C50.4304 31.8376 50.4892 31.8813 50.5602 31.9137C50.6333 31.9462 50.7073 31.9705 50.7824 31.9868C50.8595 32.001 50.9326 32.0101 51.0015 32.0142C51.0705 32.0182 51.1263 32.0202 51.1689 32.0202H51.2724V32.982H51.1689C50.9741 32.982 50.7905 32.9647 50.6181 32.9302C50.4476 32.8958 50.2914 32.846 50.1494 32.7811C50.0094 32.7142 49.8846 32.634 49.775 32.5407C49.6655 32.4453 49.5752 32.3378 49.5041 32.2181C49.3033 32.3155 49.0943 32.4098 48.8772 32.5011C48.6601 32.5924 48.4349 32.6746 48.2015 32.7476C47.9682 32.8187 47.7257 32.8755 47.4741 32.9181C47.2246 32.9607 46.9649 32.982 46.695 32.982H46.0772V32.0202ZM47.8028 29.5246L47.1272 28.8489L47.8028 28.1733L48.4785 28.8489L47.8028 29.5246ZM51.1495 32.0202H51.8799C51.9671 32.0202 52.0635 32.0162 52.169 32.0081C52.2745 31.9979 52.3729 31.9787 52.4642 31.9502C52.5576 31.9218 52.6347 31.8802 52.6955 31.8255C52.7584 31.7687 52.7899 31.6946 52.7899 31.6033C52.7899 31.5546 52.7747 31.4826 52.7442 31.3872C52.7158 31.2898 52.6773 31.1823 52.6286 31.0646C52.5819 30.9449 52.5282 30.8201 52.4673 30.6902C52.4084 30.5604 52.3496 30.4366 52.2908 30.3189L53.1612 29.8868C53.218 30.0146 53.2738 30.1505 53.3286 30.2946C53.3854 30.4387 53.4361 30.5847 53.4808 30.7329C53.5254 30.881 53.5609 31.0291 53.5873 31.1772C53.6157 31.3233 53.6299 31.4633 53.6299 31.5972C53.6299 31.8488 53.5832 32.0629 53.4899 32.2394C53.3986 32.4139 53.2738 32.5569 53.1155 32.6685C52.9573 32.7781 52.7716 32.8572 52.5586 32.9059C52.3455 32.9566 52.1173 32.982 51.8738 32.982H51.1495V32.0202ZM52.5677 28.8824L51.9955 29.4546L51.4051 28.8672L51.9895 28.2798L52.5677 28.8581L53.1399 28.2859L53.7303 28.8733L53.146 29.4607L52.5677 28.8824ZM41.6717 39.7789C41.6717 39.4746 41.7701 39.2271 41.9669 39.0363C42.1658 38.8456 42.4255 38.7502 42.7461 38.7502C43.0727 38.7502 43.3345 38.8446 43.5313 39.0333C43.7301 39.222 43.8295 39.4766 43.8295 39.7972V40.0437C43.8295 40.3501 43.7301 40.5976 43.5313 40.7863C43.3345 40.973 43.0758 41.0663 42.7552 41.0663C42.4306 41.0663 42.1688 40.972 41.97 40.7833C41.7711 40.5946 41.6717 40.341 41.6717 40.0224V39.7789ZM42.3261 40.0437C42.3261 40.1797 42.3656 40.2892 42.4448 40.3724C42.5239 40.4556 42.6274 40.4972 42.7552 40.4972C42.883 40.4972 42.9845 40.4556 43.0595 40.3724C43.1346 40.2872 43.1722 40.1736 43.1722 40.0316V39.7789C43.1722 39.643 43.1346 39.5334 43.0595 39.4502C42.9845 39.365 42.88 39.3224 42.7461 39.3224C42.6223 39.3224 42.5209 39.364 42.4417 39.4472C42.3646 39.5304 42.3261 39.646 42.3261 39.7942V40.0437ZM44.0487 42.5789C44.0487 42.2705 44.1491 42.023 44.35 41.8363C44.5509 41.6476 44.8106 41.5533 45.1291 41.5533C45.4538 41.5533 45.7155 41.6466 45.9143 41.8333C46.1132 42.0179 46.2126 42.2736 46.2126 42.6002V42.8468C46.2126 43.1511 46.1142 43.3976 45.9174 43.5863C45.7226 43.773 45.4619 43.8663 45.1352 43.8663C44.8085 43.8663 44.5458 43.772 44.3469 43.5833C44.1481 43.3946 44.0487 43.144 44.0487 42.8316V42.5789ZM44.7061 42.8468C44.7061 42.9705 44.7466 43.0771 44.8278 43.1663C44.911 43.2556 45.0135 43.3002 45.1352 43.3002C45.4132 43.3002 45.5522 43.146 45.5522 42.8376V42.5789C45.5522 42.443 45.5136 42.3334 45.4365 42.2502C45.3594 42.1671 45.2569 42.1255 45.1291 42.1255C45.0013 42.1255 44.8988 42.1671 44.8217 42.2502C44.7446 42.3334 44.7061 42.446 44.7061 42.5881V42.8468ZM42.95 43.4281L42.4661 43.1663L44.8978 39.2768L45.3787 39.5385L42.95 43.4281Z" fill="#CC346F"/>
</svg>
