<svg width="22" height="14" viewBox="0 0 22 14" fill="none" xmlns="http://www.w3.org/2000/svg">
<path d="M3.94609 7.93753L8.1 12.0914C8.27306 12.2645 8.3616 12.482 8.36562 12.7441C8.36962 13.0061 8.28108 13.2276 8.1 13.4087C7.91891 13.5898 7.69936 13.6803 7.44134 13.6803C7.18334 13.6803 6.9638 13.5898 6.78272 13.4087L1.16493 7.79091C1.04795 7.67393 0.965423 7.55053 0.91734 7.42072C0.869256 7.29093 0.845215 7.15071 0.845215 7.00007C0.845215 6.84942 0.869256 6.7092 0.91734 6.57941C0.965423 6.4496 1.04795 6.3262 1.16493 6.20922L6.78272 0.59144C6.95578 0.418356 7.17332 0.329815 7.43534 0.325815C7.69736 0.321794 7.91891 0.410335 8.1 0.59144C8.28108 0.772523 8.37162 0.992064 8.37162 1.25006C8.37162 1.50806 8.28108 1.72761 8.1 1.90869L3.94609 6.0626H20.6865C20.9525 6.0626 21.1753 6.15234 21.3547 6.33182C21.5342 6.51129 21.624 6.73404 21.624 7.00007C21.624 7.26609 21.5342 7.48884 21.3547 7.66832C21.1753 7.84779 20.9525 7.93753 20.6865 7.93753H3.94609Z" fill="#E0A14A" fill-opacity="0.8"/>
</svg>
