<svg width="8" height="6" viewBox="0 0 30 30" fill="none" xmlns="http://www.w3.org/2000/svg">
<path d="M7.94804 15.9375L12.1019 20.0914C12.275 20.2645 12.3636 20.482 12.3676 20.7441C12.3716 21.0061 12.283 21.2276 12.1019 21.4087C11.9209 21.5898 11.7013 21.6803 11.4433 21.6803C11.1853 21.6803 10.9658 21.5898 10.7847 21.4087L5.16689 15.7909C5.04991 15.6739 4.96738 15.5505 4.91929 15.4207C4.87121 15.2909 4.84717 15.1507 4.84717 15.0001C4.84717 14.8494 4.87121 14.7092 4.91929 14.5794C4.96738 14.4496 5.04991 14.3262 5.16689 14.2092L10.7847 8.59144C10.9577 8.41836 11.1753 8.32981 11.4373 8.32581C11.6993 8.32179 11.9209 8.41034 12.1019 8.59144C12.283 8.77252 12.3736 8.99206 12.3736 9.25006C12.3736 9.50806 12.283 9.72761 12.1019 9.90869L7.94804 14.0626H24.6885C24.9545 14.0626 25.1772 14.1523 25.3567 14.3318C25.5362 14.5113 25.626 14.734 25.626 15.0001C25.626 15.2661 25.5362 15.4888 25.3567 15.6683C25.1772 15.8478 24.9545 15.9375 24.6885 15.9375H7.94804Z" fill="#5B52B5"/>
</svg>
