<svg width="8" height="6" viewBox="0 0 8 6" fill="none" xmlns="http://www.w3.org/2000/svg">
<path d="M1.64874 3.31249L3.03337 4.69713C3.09106 4.75481 3.12057 4.82733 3.12191 4.91467C3.12325 5.002 3.09373 5.07585 3.03337 5.13621C2.97301 5.19658 2.89983 5.22676 2.81382 5.22676C2.72782 5.22676 2.65464 5.19658 2.59428 5.13621L0.721685 3.26362C0.682692 3.22462 0.655182 3.18349 0.639154 3.14022C0.623126 3.09696 0.615112 3.05022 0.615112 3C0.615112 2.94979 0.623126 2.90305 0.639154 2.85978C0.655182 2.81651 0.682692 2.77538 0.721685 2.73639L2.59428 0.863793C2.65197 0.806098 2.72448 0.776585 2.81182 0.775251C2.89916 0.773911 2.97301 0.803425 3.03337 0.863793C3.09373 0.924154 3.12391 0.997334 3.12391 1.08333C3.12391 1.16933 3.09373 1.24251 3.03337 1.30288L1.64874 2.68751H7.22887C7.31755 2.68751 7.3918 2.71742 7.45162 2.77725C7.51146 2.83708 7.54137 2.91133 7.54137 3C7.54137 3.08867 7.51146 3.16292 7.45162 3.22275C7.3918 3.28258 7.31755 3.31249 7.22887 3.31249H1.64874Z" fill="#E0A14A" fill-opacity="0.8"/>
</svg>
