<svg width="8" height="6" viewBox="0 0 8 6" fill="none" xmlns="http://www.w3.org/2000/svg">
<path d="M1.64935 3.31249L3.03398 4.69713C3.09167 4.75481 3.12118 4.82733 3.12252 4.91467C3.12386 5.002 3.09434 5.07585 3.03398 5.13621C2.97362 5.19658 2.90044 5.22676 2.81443 5.22676C2.72843 5.22676 2.65525 5.19658 2.59489 5.13621L0.722296 3.26362C0.683303 3.22462 0.655792 3.18349 0.639764 3.14022C0.623737 3.09696 0.615723 3.05022 0.615723 3C0.615723 2.94979 0.623737 2.90305 0.639764 2.85978C0.655792 2.81651 0.683303 2.77538 0.722296 2.73639L2.59489 0.863793C2.65258 0.806098 2.72509 0.776585 2.81243 0.775251C2.89977 0.773911 2.97362 0.803425 3.03398 0.863793C3.09434 0.924154 3.12453 0.997334 3.12453 1.08333C3.12453 1.16933 3.09434 1.24251 3.03398 1.30288L1.64935 2.68751H7.22948C7.31816 2.68751 7.39241 2.71742 7.45223 2.77725C7.51207 2.83708 7.54198 2.91133 7.54198 3C7.54198 3.08867 7.51207 3.16292 7.45223 3.22275C7.39241 3.28258 7.31816 3.31249 7.22948 3.31249H1.64935Z" fill="#585541"/>
</svg>
