<svg width="47" height="48" viewBox="0 0 47 48" fill="none" xmlns="http://www.w3.org/2000/svg">
<rect width="47" height="48" rx="10" fill="white"/>
<path d="M14.3461 35.1506C13.7793 35.1506 13.2973 34.952 12.9002 34.5549C12.503 34.1578 12.3045 33.6758 12.3045 33.1089C12.3045 32.5421 12.503 32.0601 12.9002 31.663C13.2973 31.2659 13.7793 31.0673 14.3461 31.0673C14.913 31.0673 15.395 31.2659 15.7921 31.663C16.1892 32.0601 16.3878 32.5421 16.3878 33.1089C16.3878 33.6758 16.1892 34.1578 15.7921 34.5549C15.395 34.952 14.913 35.1506 14.3461 35.1506ZM25.6538 35.1506C25.0869 35.1506 24.6049 34.952 24.2078 34.5549C23.8107 34.1578 23.6121 33.6758 23.6121 33.1089C23.6121 32.5421 23.8107 32.0601 24.2078 31.663C24.6049 31.2659 25.0869 31.0673 25.6538 31.0673C26.2207 31.0673 26.7027 31.2659 27.0998 31.663C27.4969 32.0601 27.6955 32.5421 27.6955 33.1089C27.6955 33.6758 27.4969 34.1578 27.0998 34.5549C26.7027 34.952 26.2207 35.1506 25.6538 35.1506ZM13.0179 16.7083L15.975 22.9006H23.9285C23.9958 22.9006 24.0556 22.8838 24.108 22.8501C24.1603 22.8165 24.2052 22.7697 24.2426 22.7099L27.3724 17.0224C27.4173 16.9401 27.421 16.8672 27.3836 16.8037C27.3462 16.7401 27.2827 16.7083 27.1929 16.7083L13.0179 16.7083ZM12.1788 14.9584H28.3775C28.8546 14.9584 29.2155 15.1614 29.46 15.5675C29.7046 15.9736 29.7162 16.3883 29.4948 16.8116L25.757 23.5826C25.5655 23.9192 25.3124 24.1813 24.9975 24.369C24.6827 24.5567 24.3376 24.6506 23.9621 24.6506H15.45L14.0993 27.1185C14.0395 27.2083 14.0376 27.3055 14.0937 27.4102C14.1498 27.5149 14.234 27.5673 14.3461 27.5673H27.6955V29.3172H14.3461C13.5684 29.3172 12.9839 28.9818 12.5928 28.311C12.2017 27.6402 12.1878 26.9705 12.5513 26.3019L14.216 23.3089L9.97116 14.3749H7.75V12.625H11.0705L12.1788 14.9583V14.9584Z" fill="#686C85"/>
<rect x="21" y="10" width="20" height="20" rx="10" fill="#BBBDCC"/>
<path d="M30.1243 20.6948C30.1243 20.8328 30.1507 20.9626 30.2035 21.0843C30.2562 21.202 30.3272 21.3055 30.4165 21.3948C30.5058 21.4841 30.6093 21.5551 30.727 21.6078C30.8487 21.6606 30.9786 21.687 31.1165 21.687C31.2545 21.687 31.3823 21.6606 31.5 21.6078C31.6217 21.5551 31.7272 21.4841 31.8165 21.3948C31.9099 21.3055 31.9829 21.202 32.0357 21.0843C32.0884 20.9626 32.1148 20.8328 32.1148 20.6948C32.1148 20.5568 32.0884 20.429 32.0357 20.3113C31.9829 20.1896 31.9099 20.0841 31.8165 19.9948C31.7272 19.9014 31.6217 19.8284 31.5 19.7757C31.3823 19.7229 31.2545 19.6965 31.1165 19.6965C30.9786 19.6965 30.8487 19.7229 30.727 19.7757C30.6093 19.8284 30.5058 19.9014 30.4165 19.9948C30.3272 20.0841 30.2562 20.1896 30.2035 20.3113C30.1507 20.429 30.1243 20.5568 30.1243 20.6948ZM28.9191 20.6948C28.9191 20.3945 28.9759 20.1104 29.0896 19.8426C29.2072 19.5748 29.3635 19.3414 29.5583 19.1426C29.7571 18.9397 29.9904 18.7814 30.2583 18.6678C30.5261 18.5501 30.8122 18.4913 31.1165 18.4913C31.4168 18.4913 31.7009 18.5501 31.9687 18.6678C32.2365 18.7814 32.4699 18.9397 32.6687 19.1426C32.8716 19.3414 33.0299 19.5748 33.1435 19.8426C33.2612 20.1104 33.32 20.3945 33.32 20.6948C33.32 20.9991 33.2612 21.2852 33.1435 21.553C33.0299 21.8209 32.8716 22.0542 32.6687 22.253C32.4699 22.4478 32.2365 22.6041 31.9687 22.7217C31.7009 22.8354 31.4168 22.8922 31.1165 22.8922C30.8122 22.8922 30.5261 22.8354 30.2583 22.7217C29.9904 22.6041 29.7571 22.4478 29.5583 22.253C29.3635 22.0542 29.2072 21.8209 29.0896 21.553C28.9759 21.2852 28.9191 20.9991 28.9191 20.6948Z" fill="#686C85"/>
</svg>
