<svg width="24" height="24" viewBox="0 0 24 24" fill="none" xmlns="http://www.w3.org/2000/svg">
<path d="M7.88454 10.2308L11.9999 3.46152L16.1153 10.2308H7.88454ZM17.4909 21.2308C16.4521 21.2308 15.5721 20.8702 14.8509 20.149C14.1297 19.4279 13.7692 18.5479 13.7692 17.509C13.7692 16.4702 14.1297 15.5872 14.8509 14.86C15.5721 14.1328 16.4521 13.7692 17.4909 13.7692C18.5297 13.7692 19.4127 14.1328 20.1399 14.86C20.8671 15.5872 21.2307 16.4702 21.2307 17.509C21.2307 18.5479 20.8671 19.4279 20.1399 20.149C19.4127 20.8702 18.5297 21.2308 17.4909 21.2308ZM3.76917 20.7308V14.2692H10.2307V20.7308H3.76917Z" fill="#171E4C" fill-opacity="0.6"/>
</svg>
