<svg width="24" height="24" viewBox="0 0 24 24" fill="none" xmlns="http://www.w3.org/2000/svg">
<path d="M10.4539 12L14.5269 16.0731C14.6654 16.2115 14.7362 16.3856 14.7394 16.5952C14.7427 16.8048 14.6718 16.982 14.5269 17.1269C14.3821 17.2718 14.2064 17.3442 14 17.3442C13.7936 17.3442 13.618 17.2718 13.4731 17.1269L8.97892 12.6327C8.88532 12.5391 8.81929 12.4404 8.78084 12.3365C8.74238 12.2327 8.72314 12.1205 8.72314 12C8.72314 11.8795 8.74238 11.7673 8.78084 11.6635C8.81929 11.5596 8.88532 11.4609 8.97892 11.3673L13.4731 6.8731C13.6116 6.73463 13.7856 6.6638 13.9952 6.6606C14.2048 6.65738 14.3821 6.72822 14.5269 6.8731C14.6718 7.01797 14.7443 7.1936 14.7443 7.4C14.7443 7.6064 14.6718 7.78203 14.5269 7.9269L10.4539 12Z" fill="#AD5A86"/>
</svg>
