<svg width="32" height="32" viewBox="0 0 32 32" fill="none" xmlns="http://www.w3.org/2000/svg">
<path d="M13.9088 7.54747L5.5 16L13.9087 24.4525C13.9847 24.5522 14.0812 24.6344 14.1917 24.6936C14.3022 24.7528 14.4241 24.7876 14.5492 24.7956C14.6743 24.8036 14.7996 24.7846 14.9167 24.7399C15.0339 24.6952 15.14 24.6259 15.228 24.5366C15.316 24.4474 15.3838 24.3402 15.4268 24.2225C15.4698 24.1048 15.487 23.9792 15.4772 23.8542C15.4675 23.7292 15.431 23.6078 15.3702 23.4982C15.3094 23.3885 15.2258 23.2932 15.125 23.2187L8.83375 16.875L25.5725 16.875C25.8046 16.875 26.0271 16.7828 26.1912 16.6187C26.3553 16.4546 26.4475 16.232 26.4475 16C26.4475 15.7679 26.3553 15.5454 26.1912 15.3813C26.0271 15.2172 25.8046 15.125 25.5725 15.125L8.83375 15.125L15.125 8.78122C15.2886 8.61646 15.3801 8.39345 15.3792 8.16126C15.3784 7.92906 15.2854 7.7067 15.1206 7.5431C14.9559 7.37949 14.7329 7.28804 14.5007 7.28886C14.2685 7.28968 14.0461 7.38271 13.8825 7.54747L13.9088 7.54747Z" fill="#A85782"/>
</svg>
