<svg width="98" height="20" viewBox="0 0 98 20" fill="none" xmlns="http://www.w3.org/2000/svg">
<path d="M10 0L12.8214 6.11672L19.5106 6.90983L14.5651 11.4833L15.8779 18.0902L10 14.8L4.12215 18.0902L5.43493 11.4833L0.489435 6.90983L7.17863 6.11672L10 0Z" fill="#A85782"/>
<path d="M36 0L38.8214 6.11672L45.5106 6.90983L40.5651 11.4833L41.8779 18.0902L36 14.8L30.1221 18.0902L31.4349 11.4833L26.4894 6.90983L33.1786 6.11672L36 0Z" fill="#A85782"/>
<path d="M62 0L64.8214 6.11672L71.5106 6.90983L66.5651 11.4833L67.8779 18.0902L62 14.8L56.1221 18.0902L57.4349 11.4833L52.4894 6.90983L59.1786 6.11672L62 0Z" fill="#A85782"/>
<path d="M88 0L90.8214 6.11672L97.5106 6.90983L92.5651 11.4833L93.8779 18.0902L88 14.8L82.1221 18.0902L83.4349 11.4833L78.4894 6.90983L85.1786 6.11672L88 0Z" fill="#A85782"/>
</svg>
