<svg width="494" height="97" viewBox="0 0 494 97" fill="none" xmlns="http://www.w3.org/2000/svg">
<path d="M13.2715 35.238C19.3212 33.781 25.5684 33.1405 31.8105 33.2259C38.0427 33.3716 44.3373 34.4467 50.1222 36.9838L52.2786 37.9609C52.9783 38.3251 53.633 38.7773 54.3127 39.1818L56.3268 40.4427L58.1535 41.97C58.7507 42.4925 59.4004 42.9622 59.9527 43.5349L61.5344 45.3386C62.0542 45.9665 62.604 46.4865 63.0987 47.2049C63.5235 47.9057 63.8884 48.6267 64.2182 49.3703C64.8579 50.8599 65.3327 52.4725 65.3427 54.1957C65.3777 55.9013 64.7055 57.7677 63.3686 58.9584C62.0042 60.1365 60.5549 60.8599 58.7107 61.1312C56.8391 61.3171 55.0074 60.4153 53.8404 59.1116C51.414 56.4816 50.8743 52.8418 51.2216 49.5712C51.6364 46.2504 53.0633 43.1431 55.0449 40.5507C59.078 35.3334 64.9079 32.0629 70.8277 29.8674C76.75 27.6468 83.1121 26.3732 89.4817 26.3331C95.8363 26.2376 102.106 27.0816 108.281 28.1693C120.637 30.4175 132.649 33.879 144.599 37.363C156.551 40.8547 168.458 44.4166 180.465 47.544C204.432 53.8189 228.948 58.4409 253.637 58.4133C278.325 58.4334 302.842 53.8189 326.808 47.5415C338.815 44.4141 350.72 40.8547 362.674 37.363C374.624 33.879 386.636 30.4075 398.993 28.1643C405.168 27.0766 411.437 26.2301 417.792 26.328C424.161 26.3682 430.526 27.6418 436.448 29.8649C442.368 32.0603 448.198 35.3309 452.231 40.5507C454.213 43.1456 455.64 46.2529 456.054 49.5737C456.402 52.8468 455.859 56.4841 453.436 59.1191C452.266 60.4254 450.434 61.3271 448.56 61.1412C446.716 60.8699 445.267 60.1465 443.9 58.9684C442.563 57.7752 441.888 55.9063 441.926 54.2007C441.936 52.4775 442.411 50.8648 443.05 49.3753C443.38 48.6292 443.745 47.9108 444.17 47.2074C444.665 46.489 445.214 45.9691 445.734 45.3411L447.316 43.5375C447.868 42.9647 448.52 42.4975 449.115 41.9725L450.944 40.4453L452.958 39.1842C453.638 38.7798 454.293 38.3277 454.992 37.9634L457.149 36.9863C462.934 34.4492 469.228 33.3766 475.46 33.2284C481.705 33.1455 487.95 33.786 494 35.243C487.91 33.9719 481.665 33.5248 475.48 33.7961C469.308 34.09 463.126 35.2957 457.556 37.8956L455.482 38.8903C454.812 39.2596 454.19 39.7143 453.543 40.1187L451.626 41.3772L449.902 42.8894C449.342 43.4043 448.723 43.8665 448.21 44.4242L446.749 46.1751C446.286 46.7553 445.717 47.3431 445.339 47.9133C444.969 48.5538 444.642 49.2371 444.357 49.9279C443.218 52.6257 442.88 55.9842 445.007 57.7652C445.969 58.6117 447.478 59.2774 448.705 59.4055C449.972 59.4935 451.204 58.8905 452.094 57.8606C453.933 55.8084 454.458 52.6685 454.095 49.8224C453.69 46.9286 452.398 44.178 450.569 41.8494C446.854 37.1646 441.349 34.1202 435.649 32.1031C429.886 30.0407 423.864 28.9229 417.782 28.9681C411.685 28.9581 405.57 29.8598 399.525 31.0153C387.421 33.4117 375.516 36.9964 363.592 40.4905C351.672 44.0324 339.745 47.6596 327.68 50.8598C303.596 57.2804 278.805 62.0984 253.644 62.1787C228.486 62.0908 203.692 57.2779 179.608 50.8573C167.544 47.6571 155.617 44.0298 143.697 40.488C131.77 36.9938 119.868 33.3992 107.763 31.0078C101.716 29.8548 95.6014 28.9505 89.5042 28.9606C83.4219 28.9154 77.3997 30.0332 71.6373 32.0955C65.9374 34.1126 60.4324 37.1571 56.7166 41.8444C54.8875 44.173 53.5931 46.9236 53.1883 49.8199C52.8234 52.6684 53.3507 55.8084 55.1873 57.8632C56.0794 58.8931 57.3113 59.4959 58.5808 59.408C59.8077 59.2799 61.3171 58.6117 62.2816 57.7652C64.4107 55.9817 64.0708 52.6207 62.9313 49.9228C62.6439 49.232 62.3165 48.5489 61.9492 47.9083C61.5719 47.3381 61.0022 46.7503 60.5399 46.17L59.0755 44.4192C58.5608 43.859 57.9436 43.3993 57.3838 42.8844L55.6596 41.3721L53.7405 40.1136C53.0933 39.7067 52.4711 39.2546 51.8014 38.8853L49.7273 37.8906C44.1574 35.2907 37.9752 34.0875 31.803 33.7936C25.6058 33.5198 19.3612 33.9669 13.2715 35.238Z" fill="#FBECFF"/>
<path d="M264.866 48.8857C262.139 49.0013 250.327 52.7617 254.191 57.125C256.065 59.24 258.656 57.6927 260.283 56.1579C261.09 55.3918 264.536 48.8983 264.866 48.8857Z" fill="#FBECFF" stroke="#FBECFF" stroke-width="1.87414" stroke-miterlimit="10" stroke-linecap="round" stroke-linejoin="round"/>
<path d="M250.773 45.5264C249.306 46.8326 248.014 48.38 247.24 50.1886C246.028 53.012 247.422 62.2209 252.092 58.566C255.591 55.8229 252.85 48.3046 250.773 45.5264Z" fill="#FBECFF" stroke="#FBECFF" stroke-width="1.87414" stroke-miterlimit="10" stroke-linecap="round" stroke-linejoin="round"/>
<path d="M239.118 51.1217C238.858 51.0388 239.188 54.1914 239.271 54.4702C239.601 55.5729 240.205 56.5953 240.947 57.4644C241.962 58.6526 245.618 61.7473 247.25 60.5541C251.128 57.7232 240.92 51.6995 239.118 51.1217Z" fill="#FBECFF" stroke="#FBECFF" stroke-width="1.87414" stroke-miterlimit="10" stroke-linecap="round" stroke-linejoin="round"/>
<path d="M263.614 92.7025C262.622 92.8131 261.568 92.8081 260.713 93.3281C260.056 93.73 259.609 94.3906 259.081 94.9532C258.557 95.5184 257.85 96.0208 257.085 95.9379C256.313 95.8525 255.728 95.1969 255.341 94.5212C254.241 92.6021 254.141 90.1227 255.148 88.1534C256.158 86.184 258.267 84.815 260.468 84.7723C262.577 84.7321 265.019 86.1187 266.066 87.9952C267.303 90.2057 266.028 92.4313 263.614 92.7025Z" fill="#FBECFF" stroke="#FBECFF" stroke-width="1.87414" stroke-miterlimit="10" stroke-linecap="round" stroke-linejoin="round"/>
<path d="M255.746 90.8968C254.626 91.8991 253.107 92.2859 251.647 92.6401C249.144 93.248 246.637 93.8584 244.133 94.4663C243.494 94.622 242.804 94.7728 242.194 94.5241C241.585 94.2729 241.197 93.6776 240.875 93.0998C239.798 91.1757 239.006 88.8998 239.611 86.7772C240.12 84.9912 241.532 83.6172 242.999 82.4868C245.855 80.2863 249.656 78.6234 253.002 79.9623C257.49 81.7633 259.839 87.2243 255.746 90.8968Z" fill="#FBECFF" stroke="#FBECFF" stroke-width="1.87414" stroke-miterlimit="10" stroke-linecap="round" stroke-linejoin="round"/>
<path d="M276.184 80.6399C276.186 82.0415 275.731 83.5085 274.672 84.4204C273.428 85.4905 271.633 85.601 270.191 86.3848C269.117 86.9701 268.272 87.912 267.21 88.5149C264.742 89.9115 261.353 89.0826 259.559 86.8796C257.762 84.6766 257.542 81.4035 258.737 78.8212C259.931 76.2389 262.388 74.3625 265.104 73.5562C266.348 73.1844 267.67 73.0212 268.955 73.2096C273.035 73.8024 276.176 76.4072 276.184 80.6399Z" fill="#FBECFF" stroke="#FBECFF" stroke-width="1.87414" stroke-miterlimit="10" stroke-linecap="round" stroke-linejoin="round"/>
<path d="M273.54 71.6068C274.247 74.0485 274.35 76.7312 273.405 79.0899C272.461 81.4486 270.367 83.4105 267.865 83.7923C265.376 84.1716 262.88 83.0187 260.369 83.1794C254.189 83.5763 249.876 91.5869 243.776 90.5243C241.13 90.0646 239.058 87.8893 237.856 85.4728C235.992 81.7275 235.827 77.1683 237.422 73.2999C239.203 68.9743 242.976 65.7213 247.15 63.6414C251.952 61.2475 257.965 58.7883 263.13 60.9008C268 62.8978 272.021 66.3669 273.54 71.6068Z" fill="#FBECFF" stroke="#FBECFF" stroke-width="1.87414" stroke-miterlimit="10" stroke-linecap="round" stroke-linejoin="round"/>
<path d="M258.37 78.4751C257.24 78.8343 256.063 79.0729 255.004 79.6055C253.779 80.2209 252.775 81.1905 251.663 81.9919C250.551 82.7932 249.224 83.4513 247.865 83.2805C246.625 83.1273 245.563 82.3058 244.724 81.3764C242.42 78.8242 241.355 75.1869 241.92 71.7883C242.485 68.3871 244.666 65.2974 247.672 63.637C248.349 63.2627 249.092 62.9512 249.866 62.9512C250.713 62.9512 251.515 63.3255 252.263 63.7249C256.621 66.0535 268.388 75.2949 258.37 78.4751Z" fill="#FBECFF" stroke="#FBECFF" stroke-width="1.87414" stroke-miterlimit="10" stroke-linecap="round" stroke-linejoin="round"/>
<path d="M245.593 74.7909C242.367 78.3253 238.916 81.9801 237.711 86.6222C237.509 87.406 237.002 88.4409 236.24 88.1747C236.087 88.1219 235.96 88.0189 235.837 87.9134C232.736 85.2733 231.372 80.9 231.882 76.8482C232.391 72.7939 234.61 69.0837 237.562 66.2728C239.95 63.9995 248.447 58.4582 251.74 61.7313C255.014 64.9842 247.595 72.6005 245.593 74.7909Z" fill="#FBECFF" stroke="#FBECFF" stroke-width="1.87414" stroke-miterlimit="10" stroke-linecap="round" stroke-linejoin="round"/>
<path d="M255.469 67.2645C257.025 69.1208 259.194 70.5778 261.601 70.7938C263.185 70.9345 264.812 70.5451 266.354 70.9394C268.168 71.4042 269.53 72.8637 271.039 73.979C272.548 75.0943 274.652 75.8905 276.244 74.9008C277.871 73.8885 278.071 71.57 277.673 69.6885C276.441 63.8256 270.836 59.2011 264.877 59.1308C263.337 59.1132 261.806 59.3644 260.294 59.6482C258.802 59.927 254.099 60.133 253.152 61.4643C251.983 63.1097 254.364 65.9482 255.469 67.2645Z" fill="#FBECFF" stroke="#FBECFF" stroke-width="1.87414" stroke-miterlimit="10" stroke-linecap="round" stroke-linejoin="round"/>
<path d="M206.909 20.9997C207.886 21.2082 208.886 21.5474 209.858 21.3238C210.607 21.1505 211.24 20.6656 211.914 20.2964C212.589 19.9271 213.419 19.6735 214.118 19.9925C214.826 20.3165 215.173 21.1253 215.33 21.889C215.773 24.0593 215.093 26.4457 213.519 27.9931C211.944 29.5429 209.513 30.1759 207.409 29.5203C205.395 28.8923 203.511 26.8024 203.106 24.6898C202.626 22.2005 204.533 20.4923 206.909 20.9997Z" fill="#FBECFF" stroke="#FBECFF" stroke-width="1.87414" stroke-miterlimit="10" stroke-linecap="round" stroke-linejoin="round"/>
<path d="M213.813 25.2049C215.189 24.607 216.754 24.72 218.248 24.8456C220.817 25.0617 223.383 25.2752 225.952 25.4887C226.607 25.5439 227.309 25.6168 227.809 26.0463C228.308 26.4759 228.491 27.1642 228.616 27.8148C229.036 29.9826 229.076 32.3915 227.836 34.2152C226.794 35.75 225.022 36.6066 223.278 37.2145C219.877 38.4001 215.749 38.7744 212.993 36.4458C209.295 33.321 208.775 27.3928 213.813 25.2049Z" fill="#FBECFF" stroke="#FBECFF" stroke-width="1.87414" stroke-miterlimit="10" stroke-linecap="round" stroke-linejoin="round"/>
<path d="M191.201 28.4729C191.638 27.1416 192.528 25.8931 193.82 25.3631C195.336 24.7401 197.073 25.2049 198.687 24.916C199.889 24.7 200.986 24.0745 202.183 23.8383C204.965 23.2933 207.921 25.1521 208.935 27.8098C209.95 30.4674 209.135 33.6475 207.194 35.7199C205.252 37.7923 202.331 38.7946 199.5 38.7041C198.2 38.6614 196.896 38.4002 195.736 37.8149C192.048 35.9561 189.881 32.492 191.201 28.4729Z" fill="#FBECFF" stroke="#FBECFF" stroke-width="1.87414" stroke-miterlimit="10" stroke-linecap="round" stroke-linejoin="round"/>
<path d="M190.881 37.8796C190.973 35.34 191.718 32.7577 193.352 30.8185C194.986 28.8792 197.588 27.6785 200.081 28.108C202.563 28.5351 204.572 30.4191 207.006 31.0621C212.996 32.6396 219.598 26.4024 225.055 29.3389C227.424 30.6125 228.708 33.3329 229.093 36.0057C229.69 40.1504 228.419 44.5287 225.695 47.6988C222.651 51.2407 218.051 53.1347 213.438 53.7878C208.128 54.5413 201.653 54.9709 197.413 51.3336C193.412 47.8998 190.683 43.3356 190.881 37.8796Z" fill="#FBECFF" stroke="#FBECFF" stroke-width="1.87414" stroke-miterlimit="10" stroke-linecap="round" stroke-linejoin="round"/>
<path d="M207.43 36.1614C208.615 36.179 209.807 36.3222 210.981 36.1539C212.336 35.9579 213.593 35.355 214.899 34.9456C216.206 34.5361 217.671 34.3327 218.908 34.923C220.037 35.4605 220.787 36.5759 221.294 37.7238C222.683 40.8763 222.553 44.6644 220.952 47.7114C219.35 50.7609 216.311 53.0041 212.94 53.6295C212.178 53.7702 211.379 53.8305 210.644 53.5843C209.839 53.3155 209.197 52.7077 208.61 52.0922C205.204 48.5077 196.928 36.0107 207.43 36.1614Z" fill="#FBECFF" stroke="#FBECFF" stroke-width="1.87414" stroke-miterlimit="10" stroke-linecap="round" stroke-linejoin="round"/>
<path d="M218.406 43.7036C222.576 41.37 226.994 38.9912 229.591 34.967C230.028 34.2888 230.835 33.4649 231.475 33.9572C231.602 34.0552 231.692 34.1933 231.775 34.3315C233.891 37.8206 233.819 42.3999 232.064 46.0875C230.31 49.7725 227.042 52.5934 223.361 54.3267C220.382 55.7284 210.582 58.2981 208.48 54.1508C206.394 50.0312 215.819 45.1505 218.406 43.7036Z" fill="#FBECFF" stroke="#FBECFF" stroke-width="1.87414" stroke-miterlimit="10" stroke-linecap="round" stroke-linejoin="round"/>
<path d="M206.674 47.7238C205.777 45.4681 204.175 43.4007 201.959 42.4336C200.499 41.7981 198.832 41.6549 197.493 40.7908C195.916 39.7734 195.082 37.9598 194 36.4225C192.915 34.8851 191.168 33.4634 189.347 33.9005C187.485 34.3451 186.571 36.4853 186.358 38.3943C185.691 44.3502 189.564 50.5121 195.199 52.4639C196.656 52.9688 198.185 53.2124 199.712 53.4234C201.216 53.6294 205.744 54.9256 207.059 53.961C208.685 52.7703 207.311 49.3239 206.674 47.7238Z" fill="#FBECFF" stroke="#FBECFF" stroke-width="1.87414" stroke-miterlimit="10" stroke-linecap="round" stroke-linejoin="round"/>
<path d="M193.092 63.6024C195.761 64.1727 208.133 63.4769 205.469 58.2871C204.177 55.7702 201.284 56.6217 199.327 57.7044C198.357 58.2419 193.415 63.6728 193.092 63.6024Z" fill="#FBECFF" stroke="#FBECFF" stroke-width="1.87414" stroke-miterlimit="10" stroke-linecap="round" stroke-linejoin="round"/>
<path d="M208.28 71.4162C209.754 70.1175 211.051 68.5751 211.836 66.7716C213.06 63.9557 211.708 54.7368 207.023 58.3716C203.51 61.0946 206.216 68.6254 208.28 71.4162Z" fill="#FBECFF" stroke="#FBECFF" stroke-width="1.87414" stroke-miterlimit="10" stroke-linecap="round" stroke-linejoin="round"/>
<path d="M222.351 65.9833C222.621 66.026 221.822 62.959 221.697 62.6977C221.204 61.6603 220.455 60.7383 219.588 59.9923C218.406 58.9724 214.325 56.468 212.891 57.8948C209.487 61.2834 220.482 65.6869 222.351 65.9833Z" fill="#FBECFF" stroke="#FBECFF" stroke-width="1.87414" stroke-miterlimit="10" stroke-linecap="round" stroke-linejoin="round"/>
<path d="M303.42 20.7885C302.443 20.997 301.444 21.3361 300.472 21.1126C299.722 20.9393 299.09 20.4544 298.415 20.0852C297.74 19.7159 296.911 19.4622 296.211 19.7837C295.504 20.1078 295.156 20.9166 294.999 21.6803C294.554 23.8506 295.236 26.237 296.811 27.7869C298.385 29.3367 300.816 29.9697 302.92 29.3141C304.934 28.6861 306.819 26.5962 307.223 24.4836C307.703 21.9892 305.797 20.2786 303.42 20.7885Z" fill="#FBECFF" stroke="#FBECFF" stroke-width="1.87414" stroke-miterlimit="10" stroke-linecap="round" stroke-linejoin="round"/>
<path d="M296.517 24.9905C295.14 24.3927 293.576 24.5057 292.082 24.6313C289.513 24.8448 286.947 25.0609 284.378 25.2744C283.723 25.3296 283.021 25.4025 282.521 25.832C282.021 26.2616 281.839 26.9523 281.714 27.6004C281.294 29.7682 281.254 32.1772 282.494 34.0009C283.536 35.5357 285.307 36.3923 287.051 37.0002C290.452 38.1858 294.581 38.5601 297.337 36.2315C301.033 33.1092 301.552 27.1809 296.517 24.9905Z" fill="#FBECFF" stroke="#FBECFF" stroke-width="1.87414" stroke-miterlimit="10" stroke-linecap="round" stroke-linejoin="round"/>
<path d="M319.128 28.259C318.69 26.9277 317.801 25.6792 316.509 25.1492C314.992 24.5263 313.256 24.991 311.641 24.7021C310.439 24.4861 309.342 23.8606 308.145 23.6245C305.364 23.0794 302.408 24.9382 301.393 27.5959C300.379 30.2535 301.193 33.4337 303.135 35.506C305.077 37.5784 307.998 38.5806 310.829 38.4902C312.129 38.4475 313.433 38.1863 314.592 37.601C318.281 35.7446 320.447 32.2781 319.128 28.259Z" fill="#FBECFF" stroke="#FBECFF" stroke-width="1.87414" stroke-miterlimit="10" stroke-linecap="round" stroke-linejoin="round"/>
<path d="M319.447 37.6691C319.355 35.1295 318.61 32.5498 316.976 30.608C315.342 28.6688 312.741 27.468 310.247 27.8976C307.765 28.3246 305.756 30.2086 303.322 30.8517C297.333 32.4292 290.731 26.192 285.273 29.1285C282.904 30.402 281.622 33.1225 281.235 35.7952C280.638 39.9399 281.91 44.3182 284.633 47.4883C287.677 51.0302 292.277 52.9242 296.89 53.5773C302.2 54.3309 308.675 54.7605 312.915 51.1232C316.916 47.6893 319.645 43.1251 319.447 37.6691Z" fill="#FBECFF" stroke="#FBECFF" stroke-width="1.87414" stroke-miterlimit="10" stroke-linecap="round" stroke-linejoin="round"/>
<path d="M302.898 35.9505C301.714 35.9681 300.522 36.1113 299.347 35.943C297.993 35.747 296.736 35.1441 295.429 34.7347C294.122 34.3252 292.658 34.1217 291.421 34.712C290.292 35.2496 289.542 36.365 289.035 37.5129C287.645 40.6654 287.775 44.4534 289.377 47.5004C290.979 50.5499 294.015 52.7932 297.388 53.4186C298.15 53.5593 298.95 53.6196 299.685 53.3734C300.489 53.1046 301.132 52.4968 301.719 51.8813C305.125 48.2943 313.404 35.7998 302.898 35.9505Z" fill="#FBECFF" stroke="#FBECFF" stroke-width="1.87414" stroke-miterlimit="10" stroke-linecap="round" stroke-linejoin="round"/>
<path d="M291.925 43.4914C287.754 41.1578 283.336 38.779 280.74 34.7549C280.303 34.0742 279.496 33.2527 278.856 33.7451C278.729 33.843 278.639 33.9812 278.556 34.1194C276.44 37.6085 276.512 42.1877 278.266 45.8753C280.02 49.5603 283.286 52.3838 286.97 54.1145C289.948 55.5162 299.749 58.086 301.848 53.9387C303.935 49.8191 294.509 44.9383 291.925 43.4914Z" fill="#FBECFF" stroke="#FBECFF" stroke-width="1.87414" stroke-miterlimit="10" stroke-linecap="round" stroke-linejoin="round"/>
<path d="M303.655 47.5075C304.552 45.2517 306.154 43.1844 308.37 42.2173C309.83 41.5818 311.496 41.4386 312.836 40.5745C314.413 39.5572 315.247 37.7435 316.329 36.2062C317.411 34.6689 319.16 33.2471 320.982 33.6842C322.844 34.1288 323.758 36.269 323.971 38.1806C324.638 44.1365 320.765 50.2982 315.13 52.25C313.673 52.7549 312.144 52.9986 310.617 53.2097C309.112 53.4156 304.584 54.7118 303.27 53.7472C301.646 52.554 303.018 49.1076 303.655 47.5075Z" fill="#FBECFF" stroke="#FBECFF" stroke-width="1.87414" stroke-miterlimit="10" stroke-linecap="round" stroke-linejoin="round"/>
<path d="M317.237 63.3915C314.568 63.9617 302.196 63.2659 304.86 58.0762C306.152 55.5592 309.046 56.4108 311.002 57.4935C311.974 58.0285 316.914 63.4593 317.237 63.3915Z" fill="#FBECFF" stroke="#FBECFF" stroke-width="1.87414" stroke-miterlimit="10" stroke-linecap="round" stroke-linejoin="round"/>
<path d="M302.049 71.2038C300.575 69.9051 299.278 68.3627 298.493 66.5592C297.269 63.7433 298.621 54.5244 303.306 58.1592C306.819 60.8847 304.113 68.4155 302.049 71.2038Z" fill="#FBECFF" stroke="#FBECFF" stroke-width="1.87414" stroke-miterlimit="10" stroke-linecap="round" stroke-linejoin="round"/>
<path d="M287.977 65.7724C287.708 65.8151 288.507 62.748 288.632 62.4867C289.124 61.4493 289.874 60.5299 290.741 59.7813C291.921 58.7615 296.004 56.2571 297.436 57.6839C300.841 61.0725 289.847 65.476 287.977 65.7724Z" fill="#FBECFF" stroke="#FBECFF" stroke-width="1.87414" stroke-miterlimit="10" stroke-linecap="round" stroke-linejoin="round"/>
<path d="M405.692 33.6826C398.388 35.9685 399.87 42.9492 401.252 46.2374C402.921 50.2138 404.098 53.1503 404.098 53.1503C404.098 53.1503 405.957 50.3569 408.254 46.7071C410.15 43.6927 412.524 37.1391 405.692 33.6826Z" fill="#FBECFF" stroke="#FBECFF" stroke-width="1.87414" stroke-miterlimit="10" stroke-linecap="round" stroke-linejoin="round"/>
<path d="M404.221 52.4042C403.713 49.2693 403.666 46.1093 403.826 42.9593C403.931 41.3868 404.073 39.8093 404.373 38.2494C404.666 36.6945 405.01 35.127 405.695 33.6826C405.363 36.8251 405.26 39.9123 405.073 43.0321C404.863 46.147 404.686 49.2668 404.221 52.4042Z" fill="#FBECFF"/>
<path d="M390.901 31.7713C393.385 31.0504 396.007 30.9198 398.583 31.0881C401.169 31.2413 403.733 31.7688 406.204 32.5827C408.661 33.4267 411.057 34.5018 413.209 35.9688C415.405 37.3529 417.332 39.1389 418.971 41.1184C416.665 39.9428 414.528 38.6868 412.262 37.682C410.033 36.627 407.751 35.7227 405.425 34.9666C400.777 33.3891 395.974 32.4219 390.901 31.7713Z" fill="#FBECFF"/>
<path d="M415.777 39.7488C424.866 36.0512 429.039 44.185 430.326 48.5734C431.883 53.8811 433.092 57.752 433.092 57.752C433.092 57.752 428.989 56.5011 423.766 54.7553C419.446 53.3159 411.792 48.7567 415.777 39.7488Z" fill="#FBECFF" stroke="#FBECFF" stroke-width="1.87414" stroke-miterlimit="10" stroke-linecap="round" stroke-linejoin="round"/>
<path d="M432.367 57.1136C429.476 54.2952 426.799 51.3236 424.078 48.3946L420.017 43.9962C418.648 42.5443 417.271 41.1049 415.777 39.751C417.579 40.6829 419.16 41.9791 420.685 43.3004C422.216 44.6216 423.626 46.0685 424.995 47.5456C427.701 50.5298 430.228 53.6747 432.367 57.1136Z" fill="#FBECFF"/>
<path d="M465.015 34.6297C472.444 36.461 474.758 29.7113 475.263 26.177C475.873 21.9042 476.372 18.7793 476.372 18.7793C476.372 18.7793 473.346 20.2086 469.508 22.1453C466.335 23.7429 460.935 28.1263 465.015 34.6297Z" fill="#FBECFF" stroke="#FBECFF" stroke-width="1.87414" stroke-miterlimit="10" stroke-linecap="round" stroke-linejoin="round"/>
<path d="M475.885 19.3555C474.711 22.3045 473.129 25.035 471.377 27.6525C470.48 28.9461 469.548 30.2222 468.491 31.4028C467.444 32.5835 466.345 33.749 465.015 34.6307C466.912 32.1112 468.584 29.5214 470.345 26.9416C472.122 24.3819 473.874 21.8021 475.885 19.3555Z" fill="#FBECFF"/>
<path d="M330.747 46.4026C336.569 42.8708 342.294 39.5022 347.711 35.6313C353.169 31.8156 358.239 27.5554 363.347 23.0464C359.738 28.8616 354.708 33.7223 349.146 37.6861C343.538 41.5998 337.339 44.6895 330.747 46.4026Z" fill="#FBECFF"/>
<path d="M360.307 26.3879C371.882 28.5155 374.821 17.9376 375.275 12.4641C375.825 5.84507 376.31 0.999512 376.31 0.999512C376.31 0.999512 371.792 3.47127 366.072 6.79711C361.342 9.55021 353.45 16.7746 360.307 26.3879Z" fill="#FBECFF" stroke="#FBECFF" stroke-width="1.87414" stroke-miterlimit="10" stroke-linecap="round" stroke-linejoin="round"/>
<path d="M375.611 1.93213C373.841 6.44863 371.612 10.7491 369.154 14.9139C367.904 16.9838 366.6 19.0285 365.138 20.9652C363.684 22.8994 362.162 24.8186 360.308 26.3885C361.777 24.4669 363.069 22.4498 364.346 20.4176L368.082 14.2658C370.57 10.1562 372.979 5.99899 375.611 1.93213Z" fill="#FBECFF"/>
<path d="M345.584 40.7065C347.781 49.7571 356.292 48.4835 360.352 47.0542C365.263 45.3259 368.886 44.1202 368.886 44.1202C368.886 44.1202 365.665 41.6485 361.449 38.5814C357.964 36.0443 350.26 32.6607 345.584 40.7065Z" fill="#FBECFF" stroke="#FBECFF" stroke-width="1.87414" stroke-miterlimit="10" stroke-linecap="round" stroke-linejoin="round"/>
<path d="M367.994 43.9138C364.191 44.1876 360.39 43.9841 356.617 43.547C354.733 43.3059 352.848 43.0145 350.997 42.5574C349.148 42.1052 347.286 41.5953 345.584 40.7061C347.448 41.0979 349.308 41.3567 351.172 41.6053L356.772 42.2986C360.505 42.7835 364.248 43.2129 367.994 43.9138Z" fill="#FBECFF"/>
<path d="M344.537 39.0406C352.693 34.6145 349.312 26.6592 346.908 23.0721C344.002 18.734 341.923 15.5161 341.923 15.5161C341.923 15.5161 340.359 19.274 338.475 24.1497C336.918 28.1839 335.611 36.5336 344.537 39.0406Z" fill="#FBECFF" stroke="#FBECFF" stroke-width="1.87414" stroke-miterlimit="10" stroke-linecap="round" stroke-linejoin="round"/>
<path d="M341.951 16.4365C343.178 20.0663 343.943 23.8141 344.478 27.5921C344.722 29.4861 344.92 31.3902 344.947 33.3093C344.98 35.2209 344.96 37.1601 344.538 39.0416C344.443 37.13 344.223 35.2561 343.99 33.3822L343.241 27.7629C342.758 24.0075 342.224 20.2572 341.951 16.4365Z" fill="#FBECFF"/>
<path d="M103.408 33.6826C110.712 35.9685 109.23 42.9492 107.848 46.2374C106.179 50.2138 105.002 53.1503 105.002 53.1503C105.002 53.1503 103.143 50.3569 100.847 46.7071C98.95 43.6927 96.5736 37.1391 103.408 33.6826Z" fill="#FBECFF" stroke="#FBECFF" stroke-width="1.87414" stroke-miterlimit="10" stroke-linecap="round" stroke-linejoin="round"/>
<path d="M104.879 52.4042C104.412 49.2643 104.235 46.147 104.027 43.0321C103.842 39.9098 103.737 36.8251 103.405 33.6826C104.09 35.127 104.435 36.697 104.727 38.2494C105.027 39.8093 105.169 41.3843 105.274 42.9593C105.434 46.1093 105.387 49.2693 104.879 52.4042Z" fill="#FBECFF"/>
<path d="M118.196 31.7717C113.126 32.4223 108.321 33.3894 103.675 34.9695C101.349 35.7256 99.0673 36.6299 96.8383 37.6849C94.5719 38.6897 92.4354 39.9456 90.1289 41.1212C91.7682 39.1418 93.6948 37.3558 95.8913 35.9717C98.0403 34.5047 100.437 33.4296 102.893 32.5856C105.364 31.7717 107.928 31.2442 110.515 31.091C113.091 30.9202 115.712 31.0508 118.196 31.7717Z" fill="#FBECFF"/>
<path d="M93.3229 39.7503C84.2346 36.0527 80.0614 44.1864 78.7745 48.5748C77.2177 53.8826 76.0083 57.7535 76.0083 57.7535C76.0083 57.7535 80.1114 56.5026 85.334 54.7567C89.6546 53.3174 97.3061 48.7582 93.3229 39.7503Z" fill="#FBECFF" stroke="#FBECFF" stroke-width="1.87414" stroke-miterlimit="10" stroke-linecap="round" stroke-linejoin="round"/>
<path d="M76.7332 57.1156C78.8722 53.6793 81.3985 50.5318 84.1023 47.5451C85.4717 46.0681 86.8835 44.6212 88.4153 43.2999C89.9396 41.9786 91.5189 40.6824 93.3231 39.7505C91.8263 41.1044 90.4519 42.5438 89.0825 43.9957L85.0218 48.3942C82.3006 51.3231 79.6268 54.2947 76.7332 57.1156Z" fill="#FBECFF"/>
<path d="M20.2387 34.0039C18.4071 41.4695 11.3853 40.3994 8.03681 39.2112C3.98866 37.7719 1 36.7696 1 36.7696C1 36.7696 3.66378 34.7374 7.14969 32.2154C10.0309 30.128 16.398 27.3522 20.2387 34.0039Z" fill="#FBECFF" stroke="#FBECFF" stroke-width="1.87414" stroke-miterlimit="10" stroke-linecap="round" stroke-linejoin="round"/>
<path d="M1.73462 36.6013C4.82321 35.9457 7.90933 35.5789 10.9904 35.187C14.079 34.8153 17.1376 34.5264 20.2387 34.0039C18.8468 34.7776 17.3075 35.2172 15.7832 35.6015C14.2539 35.9959 12.6971 36.2345 11.1403 36.433C8.01927 36.7796 4.87818 36.9203 1.73462 36.6013Z" fill="#FBECFF"/>
<path d="M44.0829 34.6297C36.6538 36.461 34.3398 29.7113 33.8351 26.177C33.2254 21.9042 32.7256 18.7793 32.7256 18.7793C32.7256 18.7793 35.7517 20.2086 39.5899 22.1453C42.766 23.7429 48.166 28.1263 44.0829 34.6297Z" fill="#FBECFF" stroke="#FBECFF" stroke-width="1.87414" stroke-miterlimit="10" stroke-linecap="round" stroke-linejoin="round"/>
<path d="M33.2158 19.3555C35.2249 21.8021 36.9791 24.3819 38.7533 26.9416C40.515 29.5189 42.1867 32.1087 44.0834 34.6307C42.7565 33.749 41.657 32.5835 40.6075 31.4028C39.5504 30.2222 38.6184 28.9461 37.7213 27.6525C35.9721 25.0375 34.3903 22.3045 33.2158 19.3555Z" fill="#FBECFF"/>
<path d="M176.67 46.4021C170.078 44.6915 163.878 41.5993 158.271 37.6856C152.708 33.7218 147.678 28.8611 144.07 23.0459C149.18 27.5574 154.247 31.8176 159.705 35.6308C165.123 39.5017 170.847 42.8703 176.67 46.4021Z" fill="#FBECFF"/>
<path d="M147.108 26.3879C135.533 28.5155 132.595 17.9376 132.14 12.4641C131.593 5.84507 131.108 0.999512 131.108 0.999512C131.108 0.999512 135.626 3.47127 141.346 6.79711C146.074 9.55021 153.965 16.7746 147.108 26.3879Z" fill="#FBECFF" stroke="#FBECFF" stroke-width="1.87414" stroke-miterlimit="10" stroke-linecap="round" stroke-linejoin="round"/>
<path d="M131.805 1.93213C134.436 5.99648 136.845 10.1562 139.334 14.2658L143.07 20.4176C144.347 22.4473 145.639 24.4669 147.108 26.3885C145.254 24.8186 143.732 22.8994 142.278 20.9652C140.816 19.0285 139.514 16.9838 138.262 14.9139C135.801 10.7491 133.574 6.44863 131.805 1.93213Z" fill="#FBECFF"/>
<path d="M161.831 40.7065C159.634 49.7571 151.123 48.4835 147.062 47.0542C142.152 45.3259 138.531 44.1202 138.531 44.1202C138.531 44.1202 141.75 41.6485 145.968 38.5814C149.451 36.0443 157.155 32.6607 161.831 40.7065Z" fill="#FBECFF" stroke="#FBECFF" stroke-width="1.87414" stroke-miterlimit="10" stroke-linecap="round" stroke-linejoin="round"/>
<path d="M139.418 43.9152C143.164 43.2144 146.907 42.7848 150.643 42.3025L156.241 41.6092C158.105 41.3606 159.964 41.1018 161.828 40.71C160.126 41.5992 158.265 42.1091 156.415 42.5613C154.561 43.021 152.677 43.3099 150.796 43.551C147.022 43.9831 143.224 44.189 139.418 43.9152Z" fill="#FBECFF"/>
<path d="M162.878 39.0401C154.721 34.614 158.102 26.6587 160.506 23.0716C163.412 18.7335 165.491 15.5156 165.491 15.5156C165.491 15.5156 167.056 19.2735 168.94 24.1493C170.497 28.1835 171.803 36.5331 162.878 39.0401Z" fill="#FBECFF" stroke="#FBECFF" stroke-width="1.87414" stroke-miterlimit="10" stroke-linecap="round" stroke-linejoin="round"/>
<path d="M165.465 16.436C165.19 20.2567 164.655 24.0071 164.176 27.7599L163.426 33.3792C163.194 35.2556 162.974 37.127 162.879 39.0386C162.454 37.1572 162.434 35.2179 162.469 33.3063C162.496 31.3872 162.694 29.4831 162.939 27.5891C163.473 23.8136 164.238 20.0658 165.465 16.436Z" fill="#FBECFF"/>
</svg>
