<svg width="61" height="63" viewBox="0 0 61 63" fill="none" xmlns="http://www.w3.org/2000/svg">
<path d="M27.6006 14.5905L28.1334 22.9801C28.3157 25.8483 27.9898 28.7226 27.1681 31.4718C26.0947 35.0612 24.6661 39.6869 24.3448 39.9696C23.8166 40.4345 29.942 62.153 29.942 62.153L30.878 62.4311L30.0779 59.8086C29.61 58.2749 29.5266 56.6531 29.837 55.0855L31.902 44.6262L34.4288 36.3508C35.7709 31.9567 35.1779 27.1904 32.7963 23.2304L27.6006 14.5905Z" fill="#505050"/>
<path d="M29.6785 60.4094C29.6846 60.3507 30.2468 54.4369 32.2145 47.6164C34.0355 41.3072 37.4658 32.9051 43.4723 28.7165C47.2625 26.0723 51.6628 25.368 56.5495 26.6237L56.4414 27.0515C51.6859 25.8298 47.4092 26.5125 43.7303 29.0794C32.42 36.9687 30.1434 60.2195 30.1217 60.4527L29.6785 60.4094Z" fill="#505050"/>
<path d="M35.9371 38.5022C35.9371 38.5022 39.2732 37.1214 40.5335 39.7177L35.9371 38.5022Z" fill="white"/>
<path d="M35.8751 38.7141C35.8134 38.6956 35.7593 38.6508 35.733 38.5875C35.6852 38.4748 35.7377 38.3466 35.8504 38.2987C35.886 38.2832 39.3966 36.8685 40.7326 39.6238C40.7866 39.7335 40.7403 39.8648 40.6291 39.9173C40.5179 39.9698 40.3866 39.9235 40.3325 39.8123C39.1773 37.4307 36.1501 38.6524 36.0219 38.7049C35.974 38.7265 35.9215 38.728 35.8751 38.7141Z" fill="#505050"/>
<path d="M38.1029 34.8682C38.0411 34.8497 37.9886 34.8049 37.9608 34.7416C37.9129 34.6288 37.9655 34.5006 38.0782 34.4528C38.1137 34.4373 41.6244 33.0226 42.9603 35.7779C43.0144 35.8876 42.9681 36.0189 42.8569 36.0714C42.7457 36.1239 42.6128 36.0776 42.5603 35.9664C41.4035 33.5863 38.3778 34.8064 38.2496 34.859C38.2033 34.8806 38.1508 34.8821 38.1029 34.8682Z" fill="#505050"/>
<path d="M40.8878 31.2693C40.8878 31.2693 44.2239 29.8886 45.4842 32.4864L40.8878 31.2693Z" fill="white"/>
<path d="M40.8258 31.4809C40.764 31.4624 40.71 31.4176 40.6837 31.3543C40.6358 31.2415 40.6884 31.1133 40.8011 31.0654C40.8366 31.0515 44.3473 29.6352 45.6832 32.3906C45.7373 32.5003 45.691 32.6316 45.5798 32.6841C45.4701 32.7366 45.3373 32.6903 45.2832 32.5791C44.1295 30.2036 41.1007 31.4191 40.9725 31.4716C40.9247 31.4933 40.8721 31.4948 40.8258 31.4809Z" fill="#505050"/>
<path d="M45.7897 27.6761C45.7897 27.6761 49.1258 26.2953 50.3861 28.8916L45.7897 27.6761Z" fill="white"/>
<path d="M45.7243 27.885C45.6625 27.8664 45.61 27.8216 45.5822 27.7583C45.5343 27.6456 45.5868 27.5158 45.6996 27.4695C45.7351 27.4556 49.2457 26.0408 50.5817 28.7947C50.6357 28.9043 50.5894 29.0356 50.4782 29.0881C50.367 29.1406 50.2342 29.0943 50.1817 28.9831C49.0264 26.603 45.9992 27.8232 45.871 27.8757C45.8231 27.8989 45.7706 27.9004 45.7243 27.885Z" fill="#505050"/>
<path d="M54.711 29.1807C54.6091 29.1498 54.5411 29.0525 54.5535 28.9429C54.7682 27.0138 52.0669 26.4732 52.0391 26.467C51.917 26.4454 51.8383 26.3281 51.8615 26.2091C51.8846 26.0902 52.0005 26.0114 52.1209 26.0346C53.2067 26.2431 55.2022 27.1296 54.9952 28.9954C54.9813 29.1158 54.8717 29.2023 54.7497 29.1884C54.7358 29.1869 54.7234 29.1838 54.711 29.1807Z" fill="#505050"/>
<path d="M58.0163 29.3854C57.9128 29.3545 57.8448 29.2525 57.8587 29.1429C58.0935 27.4084 56.0795 27.0346 55.9945 27.0207C55.8725 27.0006 55.7922 26.8848 55.8123 26.7659C55.8324 26.6454 55.9482 26.5651 56.0687 26.5867C56.9428 26.7412 58.5321 27.4841 58.2989 29.2062C58.2819 29.3266 58.1707 29.41 58.0487 29.3931C58.0379 29.3915 58.0271 29.3885 58.0163 29.3854Z" fill="#505050"/>
<path d="M59.0017 31.6247L59.1592 31.0887C59.3971 30.2825 58.9275 29.4269 58.1151 29.1844C57.3027 28.9434 56.444 29.4037 56.2061 30.2099L56.0486 30.7458L59.0017 31.6247Z" fill="#838383"/>
<path d="M55.501 31.2825L55.6586 30.7465C55.8964 29.9403 55.4269 29.0847 54.6145 28.8422C53.8021 28.6012 52.9433 29.0631 52.7055 29.8677L52.548 30.4037L55.501 31.2825Z" fill="#838383"/>
<path d="M51.0772 31.1337L51.2348 30.5978C51.4726 29.7915 51.0031 28.9359 50.1907 28.6934C49.3783 28.4525 48.5195 28.9127 48.2817 29.7189L48.1241 30.2549L51.0772 31.1337Z" fill="#838383"/>
<path d="M46.2917 34.6068L46.4492 34.0709C46.6871 33.2647 46.2176 32.409 45.4051 32.1666C44.5927 31.9256 43.734 32.3859 43.4962 33.1921L43.3386 33.728L46.2917 34.6068Z" fill="#838383"/>
<path d="M43.663 37.9433L43.8206 37.4074C44.0584 36.6012 43.5889 35.7455 42.7765 35.503C41.9641 35.2621 41.1054 35.7224 40.8675 36.5286L40.71 37.0645L43.663 37.9433Z" fill="#838383"/>
<path d="M41.513 42.0458L41.6706 41.5098C41.9084 40.7036 41.4389 39.8479 40.6265 39.6054C39.8141 39.3645 38.9553 39.8263 38.7175 40.631L38.5599 41.1669L41.513 42.0458Z" fill="#838383"/>
<path d="M28.8824 5.19666L29.4152 13.5863C29.5975 16.4544 29.2716 19.3287 28.4484 22.0779C27.375 25.6673 25.9463 30.2931 25.6251 30.5757C25.0969 31.0406 31.2223 52.7592 31.2223 52.7592L32.1583 53.0373L31.3582 50.4147C30.8903 48.881 30.8069 47.2593 31.1158 45.6916L33.1807 35.2324L35.7075 26.957C37.0497 22.5629 36.4566 17.7966 34.075 13.8365L28.8824 5.19666Z" fill="#838383"/>
<path d="M30.96 51.0157C30.9661 50.957 31.5283 45.0432 33.496 38.2227C35.317 31.9135 38.7473 23.513 44.7538 19.3228C48.544 16.6786 52.9442 15.9743 57.831 17.23L57.7229 17.6578C52.9674 16.4361 48.6907 17.1188 45.0117 19.6857C33.7014 27.575 31.4249 50.8257 31.4032 51.059L30.96 51.0157Z" fill="#505050"/>
<path d="M37.215 29.1071C37.215 29.1071 40.5511 27.7263 41.8114 30.3242L37.215 29.1071Z" fill="white"/>
<path d="M37.1534 29.3191C37.0916 29.3006 37.0375 29.2558 37.0112 29.1925C36.9634 29.0797 37.0159 28.9515 37.1286 28.9036C37.1642 28.8882 40.6748 27.4734 42.0108 30.2288C42.0648 30.3385 42.0185 30.4697 41.9073 30.5223C41.7976 30.5748 41.6648 30.5284 41.6108 30.4172C40.4555 28.0356 37.4283 29.2573 37.3001 29.3098C37.2537 29.3314 37.2012 29.333 37.1534 29.3191Z" fill="#505050"/>
<path d="M39.4464 25.2628C39.4464 25.2628 42.7825 23.882 44.0428 26.4783L39.4464 25.2628Z" fill="white"/>
<path d="M39.3844 25.4744C39.3227 25.4559 39.2701 25.4111 39.2423 25.3477C39.1944 25.235 39.247 25.1068 39.3597 25.0589C39.3952 25.0435 42.9059 23.6287 44.2418 26.3841C44.2959 26.4938 44.2496 26.625 44.1384 26.6775C44.0287 26.73 43.8959 26.6837 43.8418 26.5725C42.6866 24.1925 39.6594 25.4126 39.5312 25.4651C39.4848 25.4868 39.4323 25.4883 39.3844 25.4744Z" fill="#505050"/>
<path d="M42.1699 21.8755C42.1699 21.8755 45.506 20.4947 46.7663 23.091L42.1699 21.8755Z" fill="white"/>
<path d="M42.1045 22.0874C42.0427 22.0688 41.9887 22.0241 41.9624 21.9607C41.9145 21.848 41.9671 21.7198 42.0798 21.6719C42.1153 21.6565 45.626 20.2417 46.9635 22.9971C47.0175 23.1067 46.9712 23.238 46.86 23.2905C46.7488 23.343 46.616 23.2967 46.5635 23.1855C45.4097 20.8101 42.381 22.0256 42.2528 22.0781C42.2049 22.0997 42.1524 22.1013 42.1045 22.0874Z" fill="#505050"/>
<path d="M47.0695 18.2808C47.0695 18.2808 50.4056 16.9001 51.6659 19.4979L47.0695 18.2808Z" fill="white"/>
<path d="M47.0075 18.4922C46.9457 18.4737 46.8916 18.4289 46.8654 18.3656C46.8175 18.2528 46.87 18.1231 46.9827 18.0768C47.0183 18.0629 50.5289 16.6481 51.8649 19.4019C51.9189 19.5116 51.8726 19.6429 51.7614 19.6954C51.6518 19.7479 51.5189 19.7016 51.4649 19.5904C50.3096 17.2103 47.2824 18.4304 47.1542 18.483C47.1079 18.5046 47.0553 18.5061 47.0075 18.4922Z" fill="#505050"/>
<path d="M55.9921 19.7852C55.8901 19.7543 55.8222 19.657 55.8345 19.5488C56.0492 17.6198 53.3479 17.0792 53.3201 17.073C53.1981 17.0499 53.1193 16.934 53.1425 16.8151C53.1656 16.6962 53.2815 16.6174 53.4019 16.6406C54.4877 16.8491 56.4832 17.7356 56.2762 19.6014C56.2623 19.7219 56.1527 19.8099 56.0307 19.7944C56.0168 19.7914 56.0044 19.7882 55.9921 19.7852Z" fill="#505050"/>
<path d="M59.2998 19.9921C59.1964 19.9612 59.1284 19.8592 59.1423 19.7496C59.3771 18.0151 57.363 17.6414 57.2781 17.6275C57.1561 17.6074 57.0758 17.4915 57.0958 17.3726C57.1159 17.2521 57.2302 17.1718 57.3522 17.1935C58.2264 17.3479 59.8157 18.0908 59.5825 19.8129C59.5655 19.9334 59.4543 20.0183 59.3323 20.0013C59.3215 19.9967 59.3107 19.9952 59.2998 19.9921Z" fill="#505050"/>
<path d="M60.2802 22.2312L60.4377 21.6952C60.6756 20.889 60.2061 20.0333 59.3937 19.7909C58.5813 19.5499 57.7225 20.0117 57.4847 20.8164L57.3271 21.3523L60.2802 22.2312Z" fill="#838383"/>
<path d="M56.78 21.8887L56.9375 21.3528C57.1754 20.5465 56.7058 19.6909 55.8934 19.4484C55.081 19.2075 54.2223 19.6693 53.9845 20.4739L53.8269 21.0099L56.78 21.8887Z" fill="#838383"/>
<path d="M52.3616 21.7387L52.5192 21.2027C52.757 20.3965 52.2875 19.5409 51.4751 19.2984C50.6627 19.0574 49.804 19.5192 49.5661 20.3239L49.4086 20.8598L52.3616 21.7387Z" fill="#838383"/>
<path d="M47.5742 25.2123L47.7317 24.6764C47.9696 23.8701 47.5 23.0145 46.6876 22.772C45.8752 22.5311 45.0165 22.9929 44.7786 23.7975L44.6211 24.3335L47.5742 25.2123Z" fill="#838383"/>
<path d="M44.944 28.5498L45.1016 28.0138C45.3394 27.2076 44.8699 26.3519 44.0575 26.1095C43.2451 25.8685 42.3864 26.3303 42.1485 27.135L41.991 27.6709L44.944 28.5498Z" fill="#838383"/>
<path d="M42.795 32.6515L42.9525 32.1156C43.1904 31.3093 42.7208 30.4537 41.9084 30.2112C41.096 29.9703 40.2373 30.4321 39.9995 31.2368L39.8419 31.7727L42.795 32.6515Z" fill="#838383"/>
<path d="M34.1642 3.13348L32.9193 11.4475C32.493 14.2893 32.5734 17.1806 33.1587 19.9901C33.9217 23.6582 34.9519 28.389 35.2484 28.6979C35.7349 29.206 27.7808 50.3238 27.7808 50.3238L26.8248 50.5216L27.8457 47.9762C28.4434 46.4889 28.6642 44.8795 28.4882 43.2903L27.3221 32.6935L25.5104 24.2328C24.5482 19.7398 25.5444 15.0415 28.2549 11.2992L34.1642 3.13348Z" fill="#505050"/>
<path d="M28.1872 48.6091C28.1872 48.5504 28.1301 42.6088 26.7508 35.6478C25.4751 29.2057 22.7722 20.5426 17.1457 15.8582C13.5949 12.9005 9.2703 11.824 4.29395 12.658L4.365 13.0935C9.20698 12.2827 13.4111 13.3267 16.8584 16.1964C27.4551 25.0201 27.7424 48.3805 27.744 48.6153L28.1872 48.6091Z" fill="#505050"/>
<path d="M23.8231 26.2464C23.8231 26.2464 20.6168 24.5861 19.1387 27.0666L23.8231 26.2464Z" fill="white"/>
<path d="M23.8681 26.4633C23.9314 26.451 23.9885 26.4108 24.021 26.349C24.0781 26.2409 24.0364 26.1081 23.9283 26.0509C23.8943 26.034 20.5181 24.3242 18.9504 26.9545C18.8871 27.0595 18.9226 27.1954 19.0276 27.2556C19.1327 27.3159 19.2701 27.2819 19.3319 27.1769C20.6864 24.9034 23.5978 26.3768 23.7214 26.4402C23.7677 26.468 23.8187 26.4741 23.8681 26.4633Z" fill="#505050"/>
<path d="M21.9281 22.2268C21.9281 22.2268 18.7217 20.5664 17.2437 23.0469L21.9281 22.2268Z" fill="white"/>
<path d="M21.9726 22.4425C22.0359 22.4301 22.093 22.3899 22.1255 22.3282C22.1826 22.2201 22.1409 22.0872 22.0328 22.0301C21.9988 22.0131 18.621 20.3033 17.0549 22.9352C16.9916 23.0402 17.0271 23.1745 17.1321 23.2363C17.2372 23.2981 17.3746 23.2626 17.4364 23.1576C18.7909 20.8841 21.7023 22.3575 21.8258 22.4208C21.8722 22.4471 21.9247 22.4533 21.9726 22.4425Z" fill="#505050"/>
<path d="M19.5056 18.6202C19.5056 18.6202 16.2992 16.9599 14.8212 19.4403L19.5056 18.6202Z" fill="white"/>
<path d="M19.5475 18.836C19.6108 18.8221 19.668 18.7835 19.7004 18.7217C19.7575 18.6136 19.7159 18.4807 19.6077 18.4236C19.5738 18.4066 16.1975 16.6969 14.6299 19.3271C14.5665 19.4321 14.6021 19.568 14.7071 19.6283C14.8121 19.6901 14.9496 19.6545 15.0113 19.5495C16.3628 17.2807 19.2772 18.7495 19.4008 18.8128C19.4471 18.8391 19.4996 18.8452 19.5475 18.836Z" fill="#505050"/>
<path d="M14.9281 14.6213C14.9281 14.6213 11.7217 12.961 10.2437 15.4415L14.9281 14.6213Z" fill="white"/>
<path d="M14.9725 14.836C15.0358 14.8236 15.093 14.7834 15.1254 14.7217C15.1825 14.6135 15.1408 14.4807 15.0327 14.4236C14.9988 14.4066 11.6225 12.6968 10.0548 15.3287C9.99305 15.4337 10.027 15.568 10.1321 15.6298C10.2371 15.6916 10.373 15.6561 10.4363 15.5511C11.7908 13.2776 14.7022 14.751 14.8258 14.8143C14.8721 14.8406 14.9246 14.8468 14.9725 14.836Z" fill="#505050"/>
<path d="M5.91063 15.3596C6.01411 15.3379 6.09135 15.2453 6.08826 15.1371C6.03883 13.1973 8.77567 12.8884 8.80347 12.8853C8.92703 12.8729 9.01506 12.7633 9.0027 12.6428C8.99035 12.5223 8.88224 12.4343 8.76022 12.4467C7.66054 12.5625 5.5971 13.2745 5.64498 15.151C5.64807 15.2731 5.75001 15.3688 5.87203 15.3642C5.88593 15.3626 5.89828 15.3611 5.91063 15.3596Z" fill="#505050"/>
<path d="M2.59876 15.2821C2.70378 15.2605 2.78102 15.1647 2.77638 15.0535C2.68989 13.3052 4.72863 13.1059 4.81512 13.0967C4.93714 13.0874 5.02826 12.9793 5.01745 12.8573C5.00664 12.7352 4.90007 12.6457 4.77805 12.6565C3.89306 12.7353 2.24662 13.3407 2.33311 15.0767C2.33929 15.1987 2.44277 15.2914 2.56633 15.2852C2.57714 15.2868 2.58795 15.2852 2.59876 15.2821Z" fill="#505050"/>
<path d="M1.42703 17.4307L1.31582 16.884C1.14747 16.0608 1.68957 15.2468 2.51897 15.0754C3.34836 14.904 4.1654 15.4368 4.33375 16.26L4.44496 16.8068L1.42703 17.4307Z" fill="#838383"/>
<path d="M4.94595 17.3874L4.83474 16.8407C4.66639 16.0175 5.20852 15.2035 6.03791 15.0321C6.8673 14.8606 7.68434 15.3935 7.85269 16.2167L7.96388 16.7635L4.94595 17.3874Z" fill="#838383"/>
<path d="M9.36355 17.6161L9.25234 17.0694C9.08399 16.2462 9.62612 15.4322 10.4555 15.2608C11.2849 15.0893 12.1019 15.6222 12.2687 16.4454L12.38 16.9922L9.36355 17.6161Z" fill="#838383"/>
<path d="M13.8363 21.4833L13.7251 20.9366C13.5568 20.1134 14.0989 19.2994 14.9283 19.128C15.7577 18.9565 16.5747 19.4894 16.7431 20.3126L16.8543 20.8594L13.8363 21.4833Z" fill="#838383"/>
<path d="M16.1708 25.0329L16.058 24.4861C15.8897 23.6629 16.4318 22.8489 17.2612 22.6775C18.0906 22.5061 18.9076 23.0389 19.0744 23.8621L19.1871 24.4089L16.1708 25.0329Z" fill="#838383"/>
<path d="M17.9629 29.3031L17.8517 28.7548C17.6834 27.9316 18.2255 27.1176 19.0549 26.9462C19.8842 26.7747 20.7013 27.3076 20.8681 28.1308L20.9793 28.6791L17.9629 29.3031Z" fill="#838383"/>
<path d="M50.9121 9.46088L45.128 15.5601C43.1495 17.6451 41.5587 20.0607 40.4281 22.6987C38.9516 26.1414 37.0843 30.6096 37.1507 31.0328C37.2588 31.7278 18.6385 44.476 18.6385 44.476L17.7411 44.0899L20.0362 42.5902C21.3784 41.7129 22.4811 40.5206 23.2488 39.1182L28.3656 29.7647L31.728 21.7921C33.5134 17.5586 37.0225 14.2797 41.3888 12.7645L50.9121 9.46088Z" fill="#505050"/>
<path d="M19.9571 43.3036C19.9911 43.2542 23.3473 38.3535 26.2077 31.8574C28.8534 25.8462 31.6026 17.1986 29.6751 10.1341C28.4595 5.67515 25.5327 2.3159 20.9765 0.14743L20.7865 0.544347C25.2192 2.65412 28.0657 5.91917 29.2472 10.2468C32.8752 23.5511 19.7239 42.8603 19.5911 43.0534L19.9571 43.3036Z" fill="#838383"/>
<path d="M29.1053 22.6791C29.1639 22.7054 29.2334 22.7039 29.2952 22.673C29.4033 22.6174 29.4466 22.4845 29.3894 22.3764C29.3725 22.3424 27.5824 19.0063 24.7915 20.2651C24.6803 20.3161 24.6309 20.4458 24.6818 20.557C24.7328 20.6682 24.8641 20.7176 24.9768 20.6667C27.3893 19.5793 28.9307 22.4552 28.9956 22.5787C29.0203 22.6251 29.0605 22.6606 29.1053 22.6791Z" fill="#838383"/>
<path d="M29.8566 18.299C29.9153 18.3237 29.9848 18.3237 30.0466 18.2928C30.1562 18.2372 30.1979 18.1044 30.1408 17.9962C30.1238 17.9623 28.3353 14.6262 25.5428 15.8849C25.4316 15.9343 25.3822 16.0656 25.4332 16.1768C25.4841 16.288 25.6154 16.3374 25.7282 16.2865C28.1407 15.1991 29.6821 18.075 29.7469 18.1986C29.7717 18.2449 29.8118 18.2789 29.8566 18.299Z" fill="#838383"/>
<path d="M29.9359 13.9544C29.9946 13.9791 30.0656 13.9791 30.1274 13.9482C30.2355 13.8926 30.2787 13.7598 30.2216 13.6517C30.2031 13.6177 28.4161 10.2816 25.6236 11.5404C25.5124 11.5913 25.463 11.7211 25.514 11.8323C25.565 11.9435 25.6962 11.9929 25.809 11.9419C28.2168 10.8577 29.7629 13.732 29.8278 13.854C29.8509 13.9004 29.8911 13.9343 29.9359 13.9544Z" fill="#838383"/>
<path d="M28.4792 8.05412C28.5379 8.08038 28.6073 8.08038 28.6691 8.04795C28.7772 7.99235 28.8205 7.85952 28.7633 7.7514C28.7448 7.71742 26.9563 4.38134 24.1654 5.6401C24.0542 5.68953 24.0048 5.8208 24.0557 5.932C24.1067 6.04321 24.238 6.09263 24.3507 6.04166C26.7632 4.95434 28.3046 7.83019 28.3695 7.95375C28.3958 8.00009 28.4344 8.03559 28.4792 8.05412Z" fill="#505050"/>
<path d="M20.7519 3.28942C20.8492 3.33113 20.9651 3.30023 21.0253 3.20911C22.0972 1.59048 24.5174 2.90639 24.5421 2.92029C24.6503 2.98053 24.7846 2.9419 24.8433 2.83533C24.902 2.72876 24.8634 2.59439 24.7568 2.5357C23.79 1.99976 21.6895 1.40206 20.6531 2.96663C20.5851 3.06856 20.6145 3.20448 20.718 3.27243C20.7288 3.27861 20.7411 3.28479 20.7519 3.28942Z" fill="#505050"/>
<path d="M18.0826 1.32935C18.1815 1.3726 18.3004 1.33706 18.3591 1.24439C19.2889 -0.23832 21.0758 0.765603 21.1515 0.808849C21.2581 0.870628 21.394 0.833557 21.4542 0.728532C21.516 0.623507 21.4789 0.487604 21.3724 0.427369C20.6017 -0.0143558 18.9058 -0.46226 17.9822 1.00964C17.9173 1.11312 17.9498 1.24902 18.0533 1.31389C18.061 1.32007 18.0718 1.32472 18.0826 1.32935Z" fill="#505050"/>
<path d="M15.8916 2.41666L16.114 1.90388C16.4476 1.13318 17.3573 0.776404 18.1358 1.11156C18.9142 1.44671 19.2771 2.35179 18.9435 3.12249L18.7211 3.63526L15.8916 2.41666Z" fill="#838383"/>
<path d="M18.7983 4.39807L19.0208 3.8853C19.3544 3.1146 20.2641 2.75782 21.0425 3.09297C21.8209 3.42813 22.1839 4.33166 21.8503 5.1039L21.6278 5.61668L18.7983 4.39807Z" fill="#838383"/>
<path d="M22.288 7.11636L22.5104 6.60359C22.844 5.83289 23.7537 5.47611 24.5321 5.81127C25.3105 6.14642 25.6735 7.0515 25.3399 7.8222L25.1175 8.33497L22.288 7.11636Z" fill="#838383"/>
<path d="M23.7361 12.8499L23.9585 12.3371C24.2921 11.5664 25.2018 11.2096 25.9802 11.5448C26.7587 11.8799 27.1216 12.785 26.788 13.5557L26.5656 14.0685L23.7361 12.8499Z" fill="#838383"/>
<path d="M23.6156 17.0969L23.838 16.5842C24.1716 15.8135 25.0813 15.4567 25.8598 15.7918C26.6382 16.127 27.0011 17.0305 26.6675 17.8028L26.4451 18.3155L23.6156 17.0969Z" fill="#838383"/>
<path d="M22.6379 21.6241L22.8603 21.1113C23.194 20.3406 24.1037 19.9839 24.8821 20.319C25.6605 20.6542 26.0235 21.5592 25.6899 22.3299L25.4674 22.8427L22.6379 21.6241Z" fill="#838383"/>
<path d="M11.8806 10.7133L14.4352 18.7215C15.3094 21.4599 15.6909 24.3265 15.5611 27.193C15.3928 30.9353 15.1302 35.7712 14.8877 36.1218C14.4877 36.701 25.7085 56.2804 25.7085 56.2804L26.6846 56.3237L25.2698 53.9745C24.4435 52.6015 23.9678 51.0477 23.8875 49.4522L23.3485 38.8046L23.7886 30.1631C24.0219 25.5744 22.2889 21.0954 19.0177 17.8319L11.8806 10.7133Z" fill="#838383"/>
<path d="M25.0303 54.6526C25.021 54.5939 24.1314 48.7202 24.3816 41.6264C24.6149 35.0638 25.9014 26.081 30.7094 20.5579C33.7428 17.072 37.8403 15.3206 42.8862 15.3499L42.8846 15.7917C37.9747 15.7623 33.9915 17.4643 31.0461 20.8468C21.9923 31.2474 25.4334 54.3545 25.4689 54.5862L25.0303 54.6526Z" fill="#838383"/>
<path d="M25.7754 31.8814C25.7754 31.8814 28.6759 29.7314 30.5293 31.9447L25.7754 31.8814Z" fill="white"/>
<path d="M25.7658 32.102C25.701 32.0989 25.6392 32.0696 25.5975 32.014C25.5233 31.9167 25.5434 31.7777 25.6423 31.7051C25.6731 31.6819 28.7343 29.4563 30.7005 31.8039C30.7793 31.8981 30.7669 32.0372 30.6711 32.1144C30.5769 32.1916 30.4364 32.1792 30.3576 32.085C28.6571 30.0571 26.0191 31.9754 25.9064 32.0588C25.8647 32.0897 25.8152 32.1035 25.7658 32.102Z" fill="#505050"/>
<path d="M27.0028 27.6108C27.0028 27.6108 29.9034 25.4609 31.7568 27.6741L27.0028 27.6108Z" fill="white"/>
<path d="M26.9951 27.8314C26.9302 27.8283 26.8684 27.7989 26.8267 27.7433C26.7526 27.646 26.7727 27.507 26.8715 27.4344C26.9024 27.4113 29.9636 25.1856 31.9297 27.5333C32.0085 27.6275 31.9961 27.7665 31.9019 27.8437C31.8077 27.9209 31.6672 27.9086 31.5884 27.8144C29.8879 25.7864 27.2499 27.7047 27.1372 27.7881C27.0939 27.819 27.0445 27.8329 26.9951 27.8314Z" fill="#505050"/>
<path d="M28.8127 23.8835C28.7478 23.8804 28.686 23.851 28.6443 23.7954C28.5702 23.6981 28.5903 23.5591 28.6891 23.4865C28.72 23.4634 31.7812 21.2378 33.7473 23.5854C33.8261 23.6796 33.8138 23.8186 33.7196 23.8958C33.6253 23.9731 33.4848 23.9607 33.406 23.8665C31.7102 21.8432 29.0675 23.7584 28.9548 23.8402C28.9116 23.8711 28.8621 23.885 28.8127 23.8835Z" fill="#838383"/>
<path d="M32.6933 19.2052C32.6285 19.2021 32.5667 19.1728 32.525 19.1172C32.4508 19.0198 32.4709 18.8824 32.5698 18.8083C32.6007 18.7851 35.6618 16.5595 37.628 18.9071C37.7067 19.0013 37.6944 19.1403 37.6002 19.2175C37.506 19.2948 37.3654 19.2824 37.2866 19.1882C35.5877 17.1603 32.9482 19.0785 32.8354 19.1619C32.7937 19.1944 32.7427 19.2083 32.6933 19.2052Z" fill="#838383"/>
<path d="M41.7209 18.2769C41.6158 18.2723 41.5247 18.1935 41.5093 18.0854C41.2483 16.1625 38.4975 16.2938 38.4697 16.2954C38.3462 16.3031 38.2411 16.2089 38.2349 16.0884C38.2272 15.9664 38.3214 15.8629 38.4435 15.8552C39.5462 15.7934 41.6977 16.1687 41.951 18.0283C41.968 18.1488 41.8815 18.26 41.761 18.2754C41.7471 18.277 41.7348 18.2769 41.7209 18.2769Z" fill="#838383"/>
<path d="M44.98 17.6735C44.8719 17.6688 44.7808 17.587 44.7684 17.4773C44.5753 15.7382 42.5304 15.8649 42.4439 15.871C42.3219 15.8803 42.2154 15.7892 42.2061 15.6672C42.1968 15.5451 42.2879 15.4401 42.4115 15.4308C43.298 15.3675 45.0202 15.7027 45.2117 17.4294C45.2256 17.5499 45.1375 17.6596 45.0155 17.6719C45.0016 17.6735 44.9908 17.6735 44.98 17.6735Z" fill="#838383"/>
<path d="M46.48 19.6055L46.5031 19.048C46.5371 18.2093 45.8745 17.4911 45.0281 17.454C44.1817 17.417 43.4605 18.0734 43.4265 18.9136L43.4033 19.4711L46.48 19.6055Z" fill="#838383"/>
<path d="M42.9978 20.1256L43.0209 19.568C43.0549 18.7293 42.3923 18.0127 41.546 17.9756C40.6996 17.9386 39.9783 18.595 39.9443 19.4352L39.9211 19.9928L42.9978 20.1256Z" fill="#838383"/>
<path d="M38.6744 21.0559L38.6976 20.4968C38.7331 19.6582 38.069 18.9415 37.2226 18.9045C36.3762 18.8674 35.6549 19.5238 35.6209 20.3625L35.5978 20.92L38.6744 21.0559Z" fill="#838383"/>
<path d="M34.8762 25.5875L34.8994 25.0299C34.9349 24.1913 34.2708 23.473 33.4244 23.436C32.578 23.3989 31.8567 24.0553 31.8227 24.8955L31.7996 25.4531L34.8762 25.5875Z" fill="#838383"/>
<path d="M33.1361 29.4626L33.1592 28.9051C33.1932 28.0664 32.5306 27.3498 31.6843 27.3127C30.8379 27.2756 30.1166 27.932 30.0826 28.7707L30.0594 29.3282L33.1361 29.4626Z" fill="#838383"/>
<path d="M32.049 33.9648L32.0722 33.4072C32.1077 32.5686 31.4436 31.8504 30.5972 31.8149C29.7508 31.7778 29.0296 32.4342 28.9956 33.2729L28.9724 33.8304L32.049 33.9648Z" fill="#838383"/>
<path d="M33.3785 11.3578L32.1336 19.6718C31.7073 22.5137 31.7876 25.405 32.373 28.2144C33.136 31.8826 34.1662 36.6133 34.4612 36.9222C34.9492 37.4304 26.9935 58.5482 26.9935 58.5482L26.0375 58.7459L27.0584 56.2006C27.6561 54.7117 27.877 53.1039 27.7009 51.5146L26.5348 40.9179L24.7231 32.4571C23.7609 27.9642 24.7571 23.2659 27.4677 19.5236L33.3785 11.3578Z" fill="#B7B7B7"/>
<path d="M27.4021 56.8338C27.4021 56.7751 27.3449 50.8335 25.9641 43.8709C24.6884 37.4289 21.9855 28.7658 16.3589 24.0813C12.8081 21.1236 8.48356 20.0471 3.5072 20.8812L3.57826 21.3167C8.42024 20.5058 12.6243 21.5499 16.0716 24.4196C26.6684 33.2433 26.9557 56.6037 26.9572 56.8385L27.4021 56.8338Z" fill="#505050"/>
<path d="M23.0821 34.6876C23.1454 34.6752 23.2025 34.6351 23.235 34.5733C23.2921 34.4652 23.2504 34.3324 23.1423 34.2752C23.1083 34.2567 19.7321 32.5485 18.1644 35.1787C18.1011 35.2838 18.1366 35.4181 18.2416 35.4799C18.3467 35.5417 18.4841 35.5062 18.5459 35.4012C19.9004 33.1277 22.8118 34.6011 22.9353 34.6645C22.9817 34.6923 23.0342 34.6984 23.0821 34.6876Z" fill="#505050"/>
<path d="M21.1858 30.6672C21.2492 30.6549 21.3063 30.6147 21.3387 30.5529C21.3959 30.4448 21.3542 30.312 21.2461 30.2549C21.2121 30.2363 17.8358 28.5281 16.2682 31.1584C16.2048 31.2634 16.2404 31.3978 16.3454 31.4596C16.4504 31.5214 16.5879 31.4858 16.6497 31.3808C18.0042 29.1073 20.9155 30.5807 21.0391 30.6456C21.0854 30.6719 21.1379 30.6781 21.1858 30.6672Z" fill="#505050"/>
<path d="M18.7633 27.061C18.8266 27.0487 18.8838 27.0085 18.9162 26.9468C18.9734 26.8387 18.9317 26.7058 18.8236 26.6502C18.7896 26.6332 15.4133 24.9235 13.8457 27.5537C13.7824 27.6588 13.8179 27.7947 13.9229 27.8549C14.0279 27.9167 14.1638 27.8812 14.2272 27.7762C15.5786 25.5073 18.493 26.9761 18.6166 27.041C18.6629 27.0641 18.7154 27.0703 18.7633 27.061Z" fill="#505050"/>
<path d="M14.1885 23.0608C14.2519 23.0484 14.309 23.0083 14.3415 22.9465C14.3986 22.8384 14.3569 22.7056 14.2488 22.6484C14.2148 22.6314 10.8385 20.9217 9.27089 23.5535C9.20911 23.6585 9.24309 23.7944 9.34812 23.8547C9.45315 23.9164 9.59059 23.8809 9.65237 23.7759C11.0069 21.5024 13.9183 22.9759 14.0418 23.0392C14.0882 23.0654 14.1407 23.0716 14.1885 23.0608Z" fill="#505050"/>
<path d="M7.99778 20.8888C7.99778 20.8888 5.02773 21.2008 5.08178 23.3677L7.99778 20.8888Z" fill="#B7B7B7"/>
<path d="M5.12792 23.5839C5.2314 23.5623 5.30861 23.4696 5.30552 23.3615C5.25609 21.4216 7.99295 21.1127 8.02075 21.1096C8.14431 21.0972 8.23234 20.9876 8.21999 20.8671C8.20763 20.7451 8.09952 20.6586 7.97751 20.671C6.87783 20.7868 4.81439 21.4988 4.86227 23.3754C4.86536 23.4974 4.96728 23.5931 5.08929 23.5885C5.10165 23.587 5.11556 23.5854 5.12792 23.5839Z" fill="#505050"/>
<path d="M1.81275 23.5071C1.91777 23.4854 1.99501 23.3897 1.99037 23.2785C1.90388 21.5301 3.9426 21.3293 4.02909 21.3216C4.1511 21.3124 4.24222 21.2042 4.23141 21.0822C4.2206 20.9602 4.11403 20.8706 3.99202 20.8814C3.10703 20.9602 1.46061 21.5656 1.5471 23.3017C1.55328 23.4237 1.65676 23.5163 1.78032 23.5102C1.78959 23.5117 1.80194 23.5102 1.81275 23.5071Z" fill="#505050"/>
<path d="M0.641853 25.6537L0.530663 25.1069C0.362314 24.2837 0.904417 23.4698 1.73381 23.2983C2.5632 23.1269 3.38024 23.6597 3.54859 24.4829L3.6598 25.0297L0.641853 25.6537Z" fill="#838383"/>
<path d="M4.16004 25.6119L4.04885 25.0652C3.8805 24.242 4.42261 23.428 5.252 23.2566C6.08139 23.0851 6.89843 23.618 7.06678 24.4412L7.17799 24.988L4.16004 25.6119Z" fill="#838383"/>
<path d="M8.57752 25.8404L8.46633 25.2937C8.29798 24.4705 8.84009 23.6565 9.66948 23.4851C10.4989 23.3137 11.3159 23.8465 11.4843 24.6697L11.5955 25.218L8.57752 25.8404Z" fill="#838383"/>
<path d="M13.0491 29.7079L12.9379 29.1611C12.7695 28.3379 13.3117 27.524 14.1411 27.3525C14.9704 27.1811 15.7875 27.7139 15.9558 28.5371L16.067 29.0839L13.0491 29.7079Z" fill="#838383"/>
<path d="M15.3848 33.2571L15.2736 32.7088C15.1052 31.8856 15.6474 31.0717 16.4768 30.9018C17.3061 30.7304 18.1232 31.2632 18.2915 32.0864L18.4027 32.6347L15.3848 33.2571Z" fill="#838383"/>
<path d="M17.1775 37.5281L17.0662 36.9814C16.8979 36.1582 17.4385 35.3442 18.2694 35.1728C19.0988 35.0013 19.9158 35.5342 20.0842 36.3574L20.1954 36.9042L17.1775 37.5281Z" fill="#838383"/>
<path d="M11.6475 35.6611C11.6475 35.6611 11.8807 52.3988 19.4641 60.7684C29.3798 65.4543 38.4799 60.7684 38.4799 60.7684C38.4799 60.7684 44.3134 52.6227 45.0131 35.6611C28.2137 42.2453 11.6475 35.6611 11.6475 35.6611Z" fill="#D1D3E8"/>
<path d="M27.805 41.3911C25.4605 41.3911 23.38 41.1934 21.6363 40.9246C16.1549 40.0798 12.7308 38.3762 12.6968 38.3577C12.6258 38.3222 12.5964 38.2341 12.6319 38.1631C12.6674 38.092 12.7555 38.0627 12.8265 38.0982C12.8605 38.1152 16.2522 39.8018 21.6919 40.6389C26.71 41.4112 34.5483 41.595 43.3905 38.0936C43.4646 38.0643 43.5496 38.1013 43.5789 38.1754C43.6082 38.2496 43.5712 38.3345 43.4971 38.3639C37.662 40.6744 32.2593 41.3911 27.805 41.3911Z" fill="#7F7E80"/>
<path d="M28.1103 48.8552C25.962 48.8552 24.056 48.6946 22.4575 48.4768C17.4348 47.7911 14.2964 46.4088 14.2655 46.3949C14.1929 46.3624 14.159 46.2759 14.1914 46.2033C14.2238 46.1307 14.3103 46.0968 14.3829 46.1307C14.4138 46.1446 17.5213 47.513 22.5069 48.1926C27.1064 48.8181 34.2899 48.968 42.3938 46.1261C42.4695 46.0999 42.5529 46.14 42.5791 46.2157C42.6054 46.2914 42.5652 46.3748 42.4911 46.401C37.1425 48.2745 32.1909 48.8552 28.1103 48.8552Z" fill="#7F7E80"/>
<path d="M28.1647 56.8894C23.5791 56.8894 19.8816 56.1542 17.5664 55.5303C17.4892 55.5102 17.4428 55.4299 17.4644 55.3527C17.4845 55.2754 17.5648 55.2291 17.6421 55.2507C21.6361 56.3288 29.7864 57.7374 39.4935 55.0669C39.5707 55.0453 39.6511 55.0917 39.6711 55.1689C39.6928 55.2461 39.6464 55.3264 39.5692 55.348C35.4207 56.4879 31.5502 56.8894 28.1647 56.8894Z" fill="#7F7E80"/>
<path d="M28.8679 45.3293C27.7543 45.3293 26.5481 44.8459 25.2723 43.8867C24.2591 44.8613 23.1147 45.3278 22.0366 45.2011C20.991 45.0791 20.0766 44.4211 19.3152 43.2473C18.2402 44.1817 17.1962 44.5478 16.2108 44.3378C14.4671 43.9671 13.5605 41.9422 13.5218 41.8557C13.4894 41.7816 13.5234 41.6967 13.596 41.6642C13.6701 41.6318 13.7551 41.6658 13.7875 41.7384C13.7968 41.7585 14.674 43.7153 16.271 44.0536C17.1993 44.2513 18.2001 43.8682 19.2473 42.9168C19.2797 42.8875 19.3214 42.8736 19.3647 42.8813C19.4079 42.8875 19.445 42.9122 19.4681 42.9493C20.1987 44.1354 21.0729 44.7949 22.0675 44.9123C23.0869 45.0328 24.1835 44.5633 25.1549 43.5918C25.2075 43.5408 25.2878 43.5346 25.3465 43.5794C26.8431 44.7316 28.2285 45.2042 29.4625 44.9864C30.885 44.7347 31.6001 43.6288 31.6078 43.618C31.6295 43.5841 31.665 43.5593 31.7067 43.5531C31.7468 43.5454 31.7885 43.5562 31.821 43.5825C31.8349 43.5933 33.2434 44.6899 34.8204 44.4582C35.7301 44.3254 36.5286 43.7771 37.1912 42.8319C37.2159 42.7979 37.2529 42.7747 37.2947 42.7701C37.3364 42.7655 37.3781 42.7794 37.409 42.8087C38.2584 43.601 39.5882 43.9146 40.796 43.6072C41.9992 43.3014 42.8919 42.4442 43.3089 41.1947C43.3336 41.1191 43.417 41.0773 43.4927 41.1036C43.5684 41.1283 43.6101 41.2117 43.5838 41.2874C43.1359 42.6342 42.1706 43.5578 40.8671 43.8883C39.6207 44.2049 38.2538 43.9068 37.3333 43.13C36.6413 44.0644 35.8104 44.608 34.8605 44.747C33.4195 44.9571 32.1546 44.1756 31.7638 43.9007C31.5198 44.2219 30.78 45.0498 29.5135 45.2737C29.3035 45.3108 29.0872 45.3293 28.8679 45.3293Z" fill="#7F7E80"/>
<path d="M31.3221 53.364C30.2085 53.364 29.0023 52.8805 27.7266 51.9214C26.7134 52.896 25.5689 53.3624 24.4909 53.2358C23.4452 53.1138 22.5309 52.4558 21.7694 51.282C20.6945 52.2164 19.652 52.5825 18.665 52.3724C16.9213 52.0018 16.0147 49.9769 15.9761 49.8905C15.9436 49.8179 15.9776 49.7313 16.0502 49.6989C16.1243 49.6665 16.2093 49.7005 16.2417 49.773C16.251 49.7931 17.1283 51.75 18.7253 52.0882C19.6535 52.2859 20.6543 51.9029 21.7015 50.9515C21.7339 50.9221 21.7756 50.9082 21.8189 50.916C21.8621 50.9221 21.8992 50.9469 21.9223 50.9839C22.6529 52.1701 23.5271 52.8296 24.5217 52.947C25.5426 53.0674 26.6377 52.5979 27.6092 51.6265C27.6601 51.5755 27.742 51.5693 27.8007 51.6141C29.2958 52.7647 30.6781 53.2373 31.9106 53.0211C33.3315 52.7724 34.0528 51.662 34.0605 51.6512C34.0821 51.6172 34.1177 51.5925 34.1594 51.5863C34.1995 51.5801 34.2412 51.5894 34.2737 51.6156C34.2876 51.6264 35.6961 52.723 37.2746 52.4929C38.1843 52.3601 38.9828 51.8118 39.6454 50.8666C39.6917 50.8017 39.7813 50.7847 39.8477 50.831C39.9141 50.8774 39.9296 50.967 39.8832 51.0334C39.1728 52.0481 38.3079 52.6365 37.3148 52.7817C35.8737 52.9918 34.6088 52.2102 34.218 51.9353C33.974 52.2566 33.2342 53.0844 31.9677 53.3084C31.7577 53.3439 31.5414 53.364 31.3221 53.364Z" fill="#7F7E80"/>
<path d="M31.3019 61.3659C30.4416 61.3782 29.5072 61.0029 28.5202 60.2477C27.7727 61.0184 26.9171 61.406 26.1016 61.3427C25.2645 61.2778 24.5293 60.7589 23.9146 59.7998C23.1408 60.5179 22.3778 60.8268 21.6442 60.7156C20.2109 60.4994 19.4479 58.7696 19.417 58.697C19.3907 58.6352 19.4278 58.5672 19.5004 58.5456C19.573 58.524 19.6533 58.5534 19.6796 58.6151C19.6873 58.6321 20.4194 60.2924 21.6951 60.484C22.367 60.5843 23.0882 60.26 23.8389 59.5171C23.8698 59.4877 23.9146 59.4723 23.9609 59.4769C24.0072 59.4816 24.0474 59.5048 24.069 59.5403C24.6497 60.5056 25.3617 61.0477 26.1293 61.1079C26.8831 61.1681 27.6877 60.7743 28.3967 60.0036C28.4214 59.9774 28.4569 59.9604 28.4955 59.9588C28.5341 59.9573 28.5727 59.9681 28.6021 59.9897C29.7172 60.8716 30.7428 61.2438 31.6509 61.1017C32.7938 60.921 33.3607 59.965 33.3653 59.9542C33.3854 59.9202 33.4224 59.8971 33.4657 59.8894C33.5089 59.8816 33.5553 59.894 33.5862 59.9202C33.597 59.928 34.6364 60.762 35.7963 60.6044C36.5161 60.5071 37.14 60.053 37.6544 59.2514C37.6914 59.1943 37.7764 59.1727 37.8428 59.2036C37.9107 59.2345 37.9355 59.3055 37.8984 59.3642C37.3408 60.2337 36.6458 60.7295 35.8365 60.8376C34.7847 60.9782 33.8626 60.4237 33.5259 60.189C33.3143 60.4824 32.7197 61.1697 31.6988 61.3319C31.5675 61.352 31.4362 61.3643 31.3019 61.3659Z" fill="#7F7E80"/>
</svg>
