<svg width="122" height="129" viewBox="0 0 122 129" fill="none" xmlns="http://www.w3.org/2000/svg">
<path d="M55.1024 30.2696L56.1859 47.3283C56.5564 53.16 55.8938 59.0044 54.2231 64.5943C52.0405 71.8926 49.1356 81.2982 48.4824 81.8729C47.4084 82.8182 59.8633 126.979 59.8633 126.979L61.7664 127.544L60.1396 122.212C59.1881 119.093 59.0185 115.796 59.6497 112.608L63.8485 91.3413L68.9862 74.5149C71.7152 65.5804 70.5093 55.8891 65.6668 47.837L55.1024 30.2696Z" fill="#505050"/>
<path d="M59.3298 123.433C59.3424 123.314 60.4855 111.289 64.4864 97.4211C68.1889 84.5925 75.1638 67.5086 87.3769 58.9918C95.0835 53.6154 104.031 52.1834 113.967 54.7366L113.747 55.6065C104.078 53.1224 95.3819 54.5104 87.9014 59.7298C64.9041 75.771 60.2751 123.047 60.2311 123.521L59.3298 123.433Z" fill="#505050"/>
<path d="M72.0493 78.8864C72.0493 78.8864 78.8326 76.0789 81.3952 81.3579L72.0493 78.8864Z" fill="white"/>
<path d="M71.9238 79.3166C71.7982 79.2789 71.6883 79.1879 71.6349 79.0591C71.5375 78.8299 71.6443 78.5692 71.8736 78.4718C71.9458 78.4404 79.084 75.5638 81.8004 81.1663C81.9103 81.3893 81.8161 81.6562 81.59 81.763C81.3639 81.8698 81.097 81.7756 80.987 81.5495C78.638 76.707 72.4828 79.191 72.2221 79.2978C72.1248 79.3417 72.018 79.3448 71.9238 79.3166Z" fill="#505050"/>
<path d="M76.4577 71.5001C76.3321 71.4624 76.2254 71.3713 76.1688 71.2426C76.0715 71.0133 76.1783 70.7526 76.4075 70.6553C76.4797 70.6239 83.6179 67.7473 86.3344 73.3498C86.4443 73.5727 86.3501 73.8397 86.1239 73.9465C85.8978 74.0532 85.6278 73.959 85.521 73.7329C83.1688 68.8935 77.0167 71.3744 76.7561 71.4812C76.6619 71.5252 76.5551 71.5284 76.4577 71.5001Z" fill="#505050"/>
<path d="M82.1208 64.1829C82.1208 64.1829 88.9041 61.3755 91.4667 66.6576L82.1208 64.1829Z" fill="white"/>
<path d="M81.9948 64.6132C81.8692 64.5755 81.7593 64.4844 81.7059 64.3557C81.6086 64.1264 81.7154 63.8657 81.9446 63.7684C82.0169 63.7401 89.155 60.8603 91.8715 66.4629C91.9814 66.6858 91.8872 66.9528 91.6611 67.0595C91.4381 67.1663 91.168 67.0721 91.0581 66.846C88.7122 62.0161 82.5538 64.4875 82.2932 64.5943C82.1958 64.6383 82.0891 64.6414 81.9948 64.6132Z" fill="#505050"/>
<path d="M92.0818 56.8752C92.0818 56.8752 98.8651 54.0676 101.428 59.3467L92.0818 56.8752Z" fill="white"/>
<path d="M91.9556 57.3023C91.83 57.2646 91.7232 57.1735 91.6666 57.0447C91.5693 56.8155 91.6761 56.5517 91.9053 56.4575C91.9775 56.4292 99.1157 53.5526 101.832 59.1519C101.942 59.3749 101.848 59.6418 101.622 59.7486C101.396 59.8554 101.126 59.7612 101.019 59.5351C98.6698 54.6957 92.5145 57.1766 92.2539 57.2834C92.1565 57.3305 92.0498 57.3337 91.9556 57.3023Z" fill="#505050"/>
<path d="M110.223 59.9339C110.016 59.8711 109.878 59.6733 109.903 59.4503C110.339 55.5279 104.847 54.4288 104.79 54.4162C104.542 54.3722 104.382 54.1336 104.429 53.8918C104.476 53.65 104.712 53.4898 104.957 53.5369C107.164 53.9609 111.222 55.7634 110.801 59.5571C110.773 59.802 110.55 59.9779 110.302 59.9496C110.273 59.9465 110.248 59.9402 110.223 59.9339Z" fill="#505050"/>
<path d="M116.947 60.3517C116.736 60.2889 116.598 60.0816 116.627 59.8586C117.104 56.3319 113.009 55.5719 112.836 55.5436C112.588 55.5028 112.425 55.2673 112.465 55.0255C112.506 54.7805 112.742 54.6173 112.987 54.6612C114.764 54.9753 117.996 56.4858 117.522 59.9873C117.487 60.2323 117.261 60.4019 117.013 60.3673C116.991 60.3642 116.969 60.358 116.947 60.3517Z" fill="#505050"/>
<path d="M118.95 64.9053L119.27 63.8156C119.754 62.1763 118.799 60.4365 117.147 59.9434C115.495 59.4535 113.749 60.3894 113.266 62.0287L112.945 63.1184L118.95 64.9053Z" fill="#838383"/>
<path d="M111.829 64.2081L112.149 63.1183C112.633 61.479 111.678 59.7392 110.026 59.2462C108.374 58.7563 106.628 59.6953 106.145 61.3314L105.824 62.4212L111.829 64.2081Z" fill="#838383"/>
<path d="M102.84 63.9066L103.16 62.8168C103.644 61.1775 102.689 59.4378 101.037 58.9447C99.3853 58.4548 97.6392 59.3906 97.1555 61.0299L96.8352 62.1197L102.84 63.9066Z" fill="#838383"/>
<path d="M93.1117 70.9694L93.432 69.8797C93.9156 68.2404 92.9609 66.5006 91.3091 66.0076C89.6572 65.5177 87.9111 66.4535 87.4275 68.0928L87.1072 69.1825L93.1117 70.9694Z" fill="#838383"/>
<path d="M87.7633 77.7527L88.0836 76.663C88.5672 75.0237 87.6125 73.2839 85.9607 72.7909C84.3088 72.301 82.5628 73.2368 82.0791 74.8761L81.7588 75.9658L87.7633 77.7527Z" fill="#838383"/>
<path d="M83.3917 86.0936L83.712 85.0039C84.1957 83.3646 83.2409 81.6248 81.5891 81.1317C79.9372 80.6418 78.1912 81.5808 77.7075 83.217L77.3872 84.3067L83.3917 86.0936Z" fill="#838383"/>
<path d="M57.7088 11.1695L58.7923 28.2283C59.1628 34.06 58.5002 39.9043 56.8264 45.4943C54.6438 52.7926 51.7389 62.1982 51.0857 62.7729C50.0117 63.7182 62.4666 107.879 62.4666 107.879L64.3696 108.444L62.7429 103.112C61.7914 99.9931 61.6218 96.6957 62.2499 93.5081L66.4486 72.2412L71.5863 55.4148C74.3154 46.4804 73.1094 36.789 68.2669 28.737L57.7088 11.1695Z" fill="#838383"/>
<path d="M61.9363 104.333C61.9488 104.214 63.0919 92.1892 67.0928 78.3211C70.7954 65.4925 77.7703 48.4118 89.9834 39.8918C97.6899 34.5154 106.637 33.0834 116.573 35.6365L116.353 36.5064C106.684 34.0224 97.9883 35.4104 90.5078 40.6298C67.5105 56.6711 62.8816 103.947 62.8376 104.421L61.9363 104.333Z" fill="#505050"/>
<path d="M74.6536 59.7863C74.6536 59.7863 81.4369 56.9788 83.9994 62.2609L74.6536 59.7863Z" fill="white"/>
<path d="M74.5271 60.2166C74.4015 60.1789 74.2916 60.0878 74.2382 59.9591C74.1408 59.7298 74.2476 59.4691 74.4768 59.3718C74.5491 59.3404 81.6872 56.4638 84.4037 62.0663C84.5136 62.2892 84.4194 62.5562 84.1933 62.663C83.9704 62.7697 83.7003 62.6755 83.5904 62.4494C81.2413 57.6069 75.0861 60.0909 74.8255 60.1977C74.7312 60.2417 74.6245 60.2449 74.5271 60.2166Z" fill="#505050"/>
<path d="M79.1904 51.9698C79.1904 51.9698 85.9737 49.1623 88.5363 54.4413L79.1904 51.9698Z" fill="white"/>
<path d="M79.0615 52.4001C78.9359 52.3624 78.8291 52.2713 78.7726 52.1426C78.6752 51.9133 78.782 51.6527 79.0113 51.5553C79.0835 51.5239 86.2217 48.6473 88.9381 54.2498C89.048 54.4728 88.9539 54.7397 88.7278 54.8464C88.5048 54.9532 88.2347 54.859 88.1248 54.6329C85.7758 49.7935 79.6205 52.2745 79.3599 52.3812C79.2657 52.4252 79.1589 52.4283 79.0615 52.4001Z" fill="#505050"/>
<path d="M84.7266 45.0829C84.7266 45.0829 91.5099 42.2754 94.0724 47.5544L84.7266 45.0829Z" fill="white"/>
<path d="M84.5967 45.5131C84.4711 45.4754 84.3611 45.3844 84.3077 45.2557C84.2104 45.0264 84.3172 44.7657 84.5464 44.6684C84.6187 44.637 91.7568 41.7603 94.4764 47.3628C94.5864 47.5858 94.4921 47.8528 94.266 47.9595C94.0399 48.0663 93.7698 47.9721 93.6631 47.746C91.3172 42.916 85.1588 45.3875 84.8982 45.4943C84.8008 45.5383 84.694 45.5414 84.5967 45.5131Z" fill="#505050"/>
<path d="M94.6853 37.772C94.6853 37.772 101.469 34.9645 104.031 40.2466L94.6853 37.772Z" fill="white"/>
<path d="M94.5593 38.2022C94.4337 38.1646 94.3238 38.0735 94.2704 37.9447C94.173 37.7155 94.2798 37.4516 94.509 37.3574C94.5813 37.3292 101.719 34.4525 104.436 40.0519C104.546 40.2749 104.452 40.5418 104.226 40.6486C104.003 40.7554 103.732 40.6612 103.623 40.4351C101.274 35.5957 95.1183 38.0766 94.8576 38.1834C94.7634 38.2273 94.6567 38.2305 94.5593 38.2022Z" fill="#505050"/>
<path d="M112.828 40.8307C112.62 40.7679 112.482 40.5701 112.507 40.3503C112.944 36.4279 107.451 35.3287 107.395 35.3162C107.147 35.2691 106.986 35.0336 107.034 34.7918C107.081 34.5499 107.316 34.3898 107.561 34.4369C109.769 34.8608 113.826 36.6634 113.405 40.4571C113.377 40.702 113.154 40.881 112.906 40.8496C112.878 40.8433 112.853 40.837 112.828 40.8307Z" fill="#505050"/>
<path d="M119.554 41.2516C119.343 41.1888 119.205 40.9815 119.233 40.7585C119.711 37.2319 115.615 36.4719 115.443 36.4436C115.195 36.4028 115.031 36.1673 115.072 35.9254C115.113 35.6805 115.345 35.5172 115.593 35.5612C117.371 35.8752 120.602 37.3857 120.128 40.8873C120.094 41.1323 119.868 41.305 119.619 41.2704C119.598 41.261 119.576 41.2579 119.554 41.2516Z" fill="#505050"/>
<path d="M121.554 45.8052L121.874 44.7155C122.357 43.0762 121.403 41.3364 119.751 40.8433C118.099 40.3534 116.353 41.2924 115.869 42.9286L115.549 44.0183L121.554 45.8052Z" fill="#838383"/>
<path d="M114.432 45.108L114.753 44.0183C115.236 42.379 114.281 40.6392 112.63 40.1462C110.978 39.6563 109.232 40.5952 108.748 42.2314L108.428 43.3211L114.432 45.108Z" fill="#838383"/>
<path d="M105.444 44.8034L105.764 43.7137C106.248 42.0744 105.293 40.3346 103.641 39.8415C101.989 39.3516 100.243 40.2906 99.7598 41.9268L99.4395 43.0165L105.444 44.8034Z" fill="#838383"/>
<path d="M95.7154 51.8662L96.0358 50.7765C96.5194 49.1372 95.5647 47.3974 93.9128 46.9044C92.2609 46.4145 90.5149 47.3534 90.0313 48.9896L89.7109 50.0793L95.7154 51.8662Z" fill="#838383"/>
<path d="M90.3702 58.6527L90.6905 57.563C91.1742 55.9237 90.2195 54.1839 88.5676 53.6908C86.9157 53.2009 85.1697 54.1399 84.6861 55.7761L84.3657 56.8658L90.3702 58.6527Z" fill="#838383"/>
<path d="M85.9979 66.9936L86.3182 65.9038C86.8018 64.2645 85.8471 62.5247 84.1953 62.0317C82.5434 61.5418 80.7974 62.4807 80.3137 64.1169L79.9934 65.2067L85.9979 66.9936Z" fill="#838383"/>
<path d="M68.4493 6.97395L65.9181 23.8788C65.0513 29.6572 65.2146 35.5361 66.4049 41.2485C67.9562 48.707 70.0509 58.3261 70.6538 58.9542C71.6431 59.9874 55.4699 102.926 55.4699 102.926L53.526 103.328L55.6018 98.1529C56.8172 95.1286 57.2662 91.8563 56.9082 88.6248L54.5372 67.0784L50.8535 49.8752C48.897 40.7397 50.9226 31.1866 56.434 23.5774L68.4493 6.97395Z" fill="#505050"/>
<path d="M56.2976 99.4404C56.2976 99.3211 56.1814 87.2399 53.377 73.086C50.783 59.9873 45.2873 42.3727 33.8468 32.8478C26.6269 26.8339 17.8338 24.645 7.71533 26.3409L7.85981 27.2265C17.705 25.5777 26.2532 27.7007 33.2626 33.5356C54.809 51.4768 55.3932 98.9756 55.3963 99.453L56.2976 99.4404Z" fill="#505050"/>
<path d="M47.4241 53.9703C47.4241 53.9703 40.9046 50.5944 37.8992 55.6379L47.4241 53.9703Z" fill="white"/>
<path d="M47.5147 54.41C47.6435 54.3848 47.7597 54.3032 47.8256 54.1775C47.9418 53.9577 47.8571 53.6877 47.6372 53.5715C47.5681 53.5369 40.7032 50.0605 37.5156 55.4086C37.3869 55.6221 37.4591 55.8985 37.6727 56.021C37.8862 56.1435 38.1657 56.0744 38.2913 55.8608C41.0454 51.2381 46.9652 54.2341 47.2164 54.3628C47.3106 54.4194 47.4143 54.4319 47.5147 54.41Z" fill="#505050"/>
<path d="M43.5708 45.7958C43.5708 45.7958 37.0513 42.4198 34.0459 47.4633L43.5708 45.7958Z" fill="white"/>
<path d="M43.661 46.2355C43.7897 46.2103 43.9059 46.1287 43.9719 46.0031C44.0881 45.7832 44.0033 45.5132 43.7835 45.397C43.7144 45.3624 36.8463 41.886 33.6619 47.2373C33.5331 47.4508 33.6054 47.724 33.8189 47.8496C34.0325 47.9752 34.312 47.903 34.4376 47.6895C37.1917 43.0668 43.1114 46.0627 43.3626 46.1915C43.4569 46.2449 43.5636 46.2574 43.661 46.2355Z" fill="#505050"/>
<path d="M38.644 38.4629C38.644 38.4629 32.1245 35.087 29.1191 40.1305L38.644 38.4629Z" fill="white"/>
<path d="M38.7308 38.9025C38.8595 38.8743 38.9757 38.7958 39.0417 38.6702C39.1579 38.4503 39.0731 38.1802 38.8532 38.0641C38.7842 38.0295 31.9192 34.5531 28.7317 39.9012C28.6029 40.1148 28.6752 40.3911 28.8887 40.5136C29.1023 40.6392 29.3817 40.567 29.5074 40.3534C32.2552 35.7402 38.1812 38.7267 38.4324 38.8554C38.5266 38.9088 38.6334 38.9214 38.7308 38.9025Z" fill="#505050"/>
<path d="M29.3406 30.3323C29.3406 30.3323 22.8211 26.9564 19.8157 31.9999L29.3406 30.3323Z" fill="white"/>
<path d="M29.4281 30.7689C29.5569 30.7437 29.6731 30.6621 29.739 30.5365C29.8552 30.3166 29.7705 30.0466 29.5506 29.9304C29.4815 29.8958 22.6166 26.4194 19.429 31.7707C19.3034 31.9842 19.3725 32.2574 19.5861 32.383C19.7996 32.5086 20.076 32.4364 20.2047 32.2229C22.9589 27.6002 28.8786 30.5961 29.1298 30.7249C29.224 30.7783 29.3308 30.7908 29.4281 30.7689Z" fill="#505050"/>
<path d="M11.0037 31.8335C11.2141 31.7895 11.3712 31.6011 11.3649 31.3812C11.2644 27.4369 16.8292 26.8088 16.8857 26.8025C17.137 26.7774 17.316 26.5544 17.2908 26.3095C17.2657 26.0645 17.0459 25.8855 16.7978 25.9107C14.5618 26.1462 10.3662 27.5939 10.4636 31.4095C10.4699 31.6576 10.6771 31.8523 10.9252 31.8429C10.9535 31.8397 10.9786 31.8366 11.0037 31.8335Z" fill="#505050"/>
<path d="M4.268 31.6765C4.48155 31.6325 4.63858 31.4378 4.62916 31.2117C4.4533 27.6567 8.59868 27.2516 8.77454 27.2327C9.02263 27.2139 9.20791 26.9941 9.18592 26.746C9.16394 26.4979 8.94726 26.3158 8.69916 26.3378C6.8997 26.4979 3.55199 27.729 3.72786 31.2588C3.74042 31.5069 3.95083 31.6953 4.20206 31.6827C4.22404 31.6859 4.24602 31.6827 4.268 31.6765Z" fill="#505050"/>
<path d="M1.88442 36.0447L1.65829 34.9331C1.31599 33.2592 2.41825 31.6042 4.10465 31.2556C5.79106 30.907 7.45235 31.9905 7.79466 33.6643L8.02079 34.776L1.88442 36.0447Z" fill="#838383"/>
<path d="M9.04067 35.9568L8.81454 34.8451C8.47224 33.1713 9.57455 31.5163 11.261 31.1677C12.9474 30.8191 14.6086 31.9026 14.951 33.5764L15.177 34.6881L9.04067 35.9568Z" fill="#838383"/>
<path d="M18.0236 36.4216L17.7975 35.3099C17.4551 33.6361 18.5575 31.981 20.2439 31.6325C21.9303 31.2839 23.5915 32.3673 23.9307 34.0412L24.1568 35.1529L18.0236 36.4216Z" fill="#838383"/>
<path d="M27.1149 44.2852L26.8888 43.1735C26.5465 41.4997 27.6488 39.8446 29.3352 39.4961C31.0216 39.1475 32.6829 40.231 33.0252 41.9048L33.2513 43.0165L27.1149 44.2852Z" fill="#838383"/>
<path d="M31.8624 51.5019L31.6331 50.3902C31.2908 48.7164 32.3931 47.0614 34.0796 46.7128C35.766 46.3642 37.4272 47.4476 37.7664 49.1215L37.9956 50.2332L31.8624 51.5019Z" fill="#838383"/>
<path d="M35.5086 60.1852L35.2826 59.0703C34.9403 57.3965 36.0425 55.7415 37.7289 55.3929C39.4153 55.0443 41.0766 56.1278 41.4158 57.8016L41.6419 58.9164L35.5086 60.1852Z" fill="#838383"/>
<path d="M102.504 19.8403L90.7428 32.2417C86.7199 36.4813 83.4853 41.3929 81.1865 46.7568C78.1843 53.7568 74.3875 62.842 74.5225 63.7025C74.7424 65.1157 36.8815 91.0367 36.8815 91.0367L35.0569 90.2516L39.7236 87.2022C42.4526 85.4185 44.6949 82.994 46.2556 80.1425L56.6598 61.1241L63.4965 44.9133C67.1268 36.3055 74.2619 29.6383 83.1398 26.5576L102.504 19.8403Z" fill="#505050"/>
<path d="M39.5631 88.6531C39.6322 88.5526 46.4564 78.588 52.2724 65.3794C57.652 53.1569 63.2419 35.5737 59.3227 21.2094C56.8512 12.143 50.9 5.31264 41.6358 0.903488L41.2495 1.71054C50.2625 6.00035 56.0503 12.6392 58.4527 21.4386C65.8296 48.4902 39.0889 87.7517 38.8188 88.1443L39.5631 88.6531Z" fill="#838383"/>
<path d="M58.1644 46.716C58.2837 46.7694 58.4251 46.7662 58.5507 46.7034C58.7705 46.5904 58.8584 46.3203 58.7423 46.1004C58.7077 46.0314 55.0679 39.248 49.3932 41.8075C49.1671 41.9111 49.0666 42.1749 49.1702 42.401C49.2739 42.6271 49.5408 42.7276 49.77 42.624C54.6754 40.4131 57.8095 46.2606 57.9414 46.5118C57.9917 46.606 58.0733 46.6783 58.1644 46.716Z" fill="#838383"/>
<path d="M59.69 37.8097C59.8094 37.86 59.9507 37.86 60.0763 37.7972C60.2993 37.6841 60.384 37.414 60.2678 37.1942C60.2333 37.1251 56.5967 30.3418 50.9188 32.9012C50.6927 33.0017 50.5922 33.2687 50.6959 33.4948C50.7995 33.7209 51.0664 33.8214 51.2957 33.7177C56.201 31.5069 59.3352 37.3544 59.4671 37.6056C59.5173 37.6998 59.599 37.7689 59.69 37.8097Z" fill="#838383"/>
<path d="M59.8524 28.9757C59.9718 29.026 60.1162 29.026 60.2418 28.9632C60.4617 28.8501 60.5496 28.58 60.4334 28.3602C60.3957 28.2911 56.7623 21.5078 51.0844 24.0672C50.8583 24.1709 50.7578 24.4346 50.8614 24.6608C50.965 24.8869 51.232 24.9874 51.4612 24.8837C56.3571 22.6791 59.5007 28.5235 59.6326 28.7716C59.6797 28.8658 59.7614 28.9349 59.8524 28.9757Z" fill="#838383"/>
<path d="M56.889 16.9793C57.0084 17.0327 57.1497 17.0327 57.2753 16.9668C57.4951 16.8537 57.583 16.5836 57.4669 16.3638C57.4292 16.2947 53.7926 9.51143 48.1179 12.0709C47.8917 12.1714 47.7912 12.4383 47.8948 12.6644C47.9985 12.8905 48.2654 12.991 48.4947 12.8874C53.4 10.6765 56.5342 16.524 56.6661 16.7752C56.7195 16.8694 56.798 16.9416 56.889 16.9793Z" fill="#505050"/>
<path d="M41.1798 7.29112C41.3776 7.37591 41.6132 7.31309 41.7356 7.12781C43.9151 3.83665 48.8362 6.5123 48.8864 6.54056C49.1062 6.66304 49.3794 6.5845 49.4988 6.36781C49.6181 6.15112 49.5396 5.87791 49.3229 5.75857C47.357 4.66885 43.086 3.45353 40.9788 6.63477C40.8406 6.84204 40.9003 7.11839 41.1107 7.25657C41.1327 7.26913 41.1578 7.2817 41.1798 7.29112Z" fill="#505050"/>
<path d="M35.7515 3.30594C35.9524 3.39387 36.1943 3.32162 36.3136 3.13319C38.2041 0.11839 41.8376 2.15967 41.9915 2.2476C42.2081 2.37322 42.4845 2.29784 42.607 2.08429C42.7326 1.87074 42.6572 1.59441 42.4405 1.47194C40.8734 0.573777 37.4253 -0.336948 35.5473 2.65587C35.4154 2.86628 35.4814 3.14261 35.6918 3.2745C35.7075 3.28707 35.7295 3.29652 35.7515 3.30594Z" fill="#505050"/>
<path d="M31.2944 5.51679L31.7466 4.47417C32.425 2.9071 34.2747 2.18166 35.8575 2.86313C37.4402 3.5446 38.1782 5.3849 37.4999 6.95196L37.0477 7.99459L31.2944 5.51679Z" fill="#838383"/>
<path d="M37.207 9.54597L37.6593 8.50334C38.3376 6.93628 40.1873 6.21084 41.7701 6.89231C43.3528 7.57378 44.0909 9.41093 43.4125 10.9811L42.9603 12.0238L37.207 9.54597Z" fill="#838383"/>
<path d="M44.3025 15.0731L44.7547 14.0305C45.433 12.4634 47.2828 11.738 48.8655 12.4194C50.4483 13.1009 51.1863 14.9412 50.508 16.5083L50.0557 17.5509L44.3025 15.0731Z" fill="#838383"/>
<path d="M47.248 26.7303L47.7003 25.6877C48.3786 24.1206 50.2283 23.3952 51.8111 24.0767C53.3939 24.7581 54.1318 26.5984 53.4535 28.1655L53.0013 29.2081L47.248 26.7303Z" fill="#838383"/>
<path d="M47.0027 35.3665L47.4549 34.3239C48.1332 32.7568 49.983 32.0314 51.5657 32.7128C53.1485 33.3943 53.8865 35.2315 53.2081 36.8017L52.7559 37.8443L47.0027 35.3665Z" fill="#838383"/>
<path d="M45.0154 44.571L45.4676 43.5284C46.1459 41.9614 47.9956 41.2359 49.5784 41.9174C51.1612 42.5989 51.8992 44.4391 51.2208 46.0062L50.7686 47.0488L45.0154 44.571Z" fill="#838383"/>
<path d="M23.1411 22.3871L28.3353 38.6702C30.1128 44.2382 30.8885 50.0667 30.6247 55.8953C30.2824 63.5046 29.7485 73.3373 29.2555 74.0502C28.4421 75.2278 51.2573 115.039 51.2573 115.039L53.242 115.127L50.3654 110.35C48.6852 107.558 47.718 104.399 47.5547 101.155L46.4587 79.5051L47.3537 61.9344C47.8279 52.6042 44.3044 43.497 37.653 36.8613L23.1411 22.3871Z" fill="#838383"/>
<path d="M49.8786 111.729C49.8598 111.61 48.0509 99.6666 48.5597 85.2426C49.0339 71.899 51.6498 53.6343 61.426 42.4042C67.5937 35.3162 75.9253 31.755 86.185 31.8146L86.1819 32.7128C76.1985 32.6532 68.0994 36.1139 62.1106 42.9914C43.7014 64.139 50.6983 111.123 50.7705 111.594L49.8786 111.729Z" fill="#838383"/>
<path d="M51.3923 65.4265C51.3923 65.4265 57.29 61.055 61.0585 65.5552L51.3923 65.4265Z" fill="white"/>
<path d="M51.3737 65.8756C51.2418 65.8693 51.1162 65.8097 51.0314 65.6967C50.8807 65.4988 50.9215 65.2161 51.1225 65.0685C51.1853 65.0214 57.4096 60.4961 61.4074 65.2695C61.5675 65.4611 61.5424 65.7438 61.3477 65.9008C61.1561 66.0578 60.8703 66.0326 60.7102 65.8411C57.2526 61.7177 51.8887 65.6181 51.6595 65.7877C51.5747 65.8505 51.4742 65.8787 51.3737 65.8756Z" fill="#505050"/>
<path d="M53.8914 56.7433C53.8914 56.7433 59.7891 52.3718 63.5576 56.8721L53.8914 56.7433Z" fill="white"/>
<path d="M53.8727 57.1924C53.7408 57.1861 53.6152 57.1264 53.5304 57.0133C53.3797 56.8155 53.4205 56.5329 53.6215 56.3853C53.6843 56.3382 59.9086 51.8128 63.9064 56.5862C64.0665 56.7778 64.0414 57.0605 63.8498 57.2175C63.6583 57.3745 63.3725 57.3494 63.2123 57.1578C59.7547 53.0345 54.3909 56.9349 54.1616 57.1044C54.0737 57.1672 53.9732 57.1955 53.8727 57.1924Z" fill="#505050"/>
<path d="M57.5698 49.1655C57.4379 49.1592 57.3122 49.0995 57.2274 48.9864C57.0767 48.7886 57.1175 48.506 57.3185 48.3584C57.3813 48.3113 63.6056 43.7859 67.6034 48.5593C67.7635 48.7509 67.7385 49.0336 67.5469 49.1906C67.3553 49.3476 67.0695 49.3225 66.9094 49.1309C63.4612 45.017 58.0879 48.9111 57.8587 49.0775C57.7707 49.1403 57.6703 49.1686 57.5698 49.1655Z" fill="#838383"/>
<path d="M65.4565 39.6531C65.3246 39.6468 65.1989 39.5872 65.1142 39.4741C64.9634 39.2763 65.0043 38.9968 65.2053 38.8461C65.2681 38.799 71.4924 34.2736 75.4901 39.047C75.6503 39.2386 75.6252 39.5212 75.4336 39.6783C75.242 39.8353 74.9563 39.8101 74.7961 39.6186C71.3416 35.4952 65.9746 39.3956 65.7454 39.5652C65.6606 39.6311 65.557 39.6594 65.4565 39.6531Z" fill="#838383"/>
<path d="M83.8144 37.7657C83.6009 37.7563 83.4156 37.5962 83.3842 37.3763C82.8535 33.4665 77.2604 33.7334 77.2039 33.7365C76.9526 33.7523 76.739 33.5607 76.7265 33.3158C76.7108 33.0677 76.9024 32.8573 77.1505 32.8416C79.3927 32.7159 83.7673 33.4791 84.2824 37.2601C84.3169 37.5051 84.141 37.7312 83.8961 37.7626C83.8678 37.7657 83.8427 37.7657 83.8144 37.7657Z" fill="#838383"/>
<path d="M90.441 36.5378C90.2212 36.5284 90.0359 36.362 90.0108 36.139C89.6183 32.6029 85.4603 32.8604 85.2845 32.8729C85.0364 32.8918 84.8197 32.7065 84.8009 32.4584C84.782 32.2103 84.9673 31.9968 85.2185 31.9779C87.0211 31.8492 90.5227 32.5306 90.9121 36.0416C90.9404 36.2866 90.7614 36.5096 90.5133 36.5347C90.485 36.5378 90.463 36.5378 90.441 36.5378Z" fill="#838383"/>
<path d="M93.4899 40.4665L93.537 39.3328C93.6061 37.6276 92.2588 36.1673 90.5379 36.0919C88.8169 36.0165 87.3503 37.3512 87.2812 39.0596L87.2341 40.1933L93.4899 40.4665Z" fill="#838383"/>
<path d="M86.4117 41.5249L86.4588 40.3911C86.5279 38.6859 85.1807 37.2288 83.4597 37.1534C81.7388 37.078 80.2722 38.4127 80.2031 40.1211L80.156 41.2548L86.4117 41.5249Z" fill="#838383"/>
<path d="M77.6183 43.4153L77.6654 42.2785C77.7376 40.5733 76.3872 39.1161 74.6663 39.0408C72.9453 38.9654 71.4787 40.3001 71.4097 42.0053L71.3625 43.139L77.6183 43.4153Z" fill="#838383"/>
<path d="M69.8954 52.6294L69.9425 51.4957C70.0147 49.7904 68.6643 48.3301 66.9434 48.2547C65.2224 48.1794 63.7558 49.5141 63.6868 51.2225L63.6396 52.3561L69.8954 52.6294Z" fill="#838383"/>
<path d="M66.3592 60.5087L66.4063 59.375C66.4754 57.6698 65.1282 56.2126 63.4072 56.1372C61.6863 56.0618 60.2197 57.3965 60.1506 59.1018L60.1035 60.2354L66.3592 60.5087Z" fill="#838383"/>
<path d="M64.1451 69.663L64.1922 68.5292C64.2644 66.824 62.914 65.3637 61.1931 65.2915C59.4721 65.2161 58.0056 66.5508 57.9365 68.2561L57.8894 69.3897L64.1451 69.663Z" fill="#838383"/>
<path d="M66.853 23.6967L64.3218 40.6015C63.4551 46.3799 63.6184 52.2588 64.8086 57.9712C66.3599 65.4297 68.4546 75.0487 69.0544 75.6768C70.0468 76.71 53.8705 119.649 53.8705 119.649L51.9266 120.051L54.0024 114.876C55.2178 111.848 55.6668 108.579 55.3088 105.347L52.9378 83.8011L49.2541 66.5979C47.2976 57.4624 49.3232 47.9093 54.8346 40.3001L66.853 23.6967Z" fill="#B7B7B7"/>
<path d="M54.7026 116.163C54.7026 116.044 54.5864 103.963 51.7789 89.8056C49.1849 76.707 43.6892 59.0923 32.2486 49.5674C25.0288 43.5535 16.2356 41.3647 6.11719 43.0605L6.26166 43.9461C16.1069 42.2973 24.6551 44.4203 31.6645 50.2552C53.2109 68.1964 53.795 115.695 53.7982 116.173L54.7026 116.163Z" fill="#505050"/>
<path d="M45.9164 71.1326C46.0451 71.1075 46.1613 71.0258 46.2273 70.9002C46.3435 70.6804 46.2587 70.4103 46.0388 70.2941C45.9698 70.2565 39.1048 66.7831 35.9172 72.1313C35.7885 72.3448 35.8607 72.6181 36.0743 72.7437C36.2878 72.8693 36.5673 72.7971 36.693 72.5835C39.4471 67.9608 45.3668 70.9568 45.618 71.0856C45.7122 71.1421 45.819 71.1546 45.9164 71.1326Z" fill="#505050"/>
<path d="M42.0628 62.9581C42.1916 62.933 42.3078 62.8514 42.3737 62.7257C42.4899 62.5059 42.4052 62.2359 42.1853 62.1197C42.1162 62.082 35.2513 58.6086 32.0637 63.9568C31.935 64.1703 32.0072 64.4436 32.2208 64.5692C32.4343 64.6948 32.7138 64.6226 32.8394 64.409C35.5936 59.7863 41.5133 62.7823 41.7645 62.9142C41.8587 62.9675 41.9655 62.9801 42.0628 62.9581Z" fill="#505050"/>
<path d="M37.1353 55.6253C37.2641 55.6002 37.3803 55.5185 37.4462 55.3929C37.5624 55.1731 37.4776 54.903 37.2578 54.79C37.1887 54.7554 30.3238 51.2789 27.1363 56.6271C27.0075 56.8406 27.0797 57.117 27.2932 57.2395C27.5068 57.3651 27.7832 57.2929 27.9119 57.0793C30.6598 52.4661 36.5857 55.4526 36.837 55.5845C36.9312 55.6316 37.038 55.6441 37.1353 55.6253Z" fill="#505050"/>
<path d="M27.8326 47.4916C27.9614 47.4665 28.0776 47.3848 28.1436 47.2592C28.2598 47.0394 28.1749 46.7693 27.9551 46.6531C27.886 46.6186 21.0211 43.1421 17.8336 48.4934C17.708 48.7069 17.7771 48.9833 17.9906 49.1058C18.2042 49.2314 18.4836 49.1592 18.6092 48.9456C21.3634 44.3229 27.2831 47.3189 27.5343 47.4477C27.6286 47.5011 27.7353 47.5136 27.8326 47.4916Z" fill="#505050"/>
<path d="M15.2463 43.0762C15.2463 43.0762 9.20724 43.7106 9.31716 48.1166L15.2463 43.0762Z" fill="#B7B7B7"/>
<path d="M9.40875 48.5562C9.61916 48.5122 9.77615 48.3238 9.76987 48.104C9.66938 44.1596 15.2342 43.5315 15.2908 43.5252C15.542 43.5001 15.721 43.2772 15.6959 43.0322C15.6707 42.7841 15.4509 42.6083 15.2028 42.6334C12.9668 42.8689 8.77126 44.3166 8.86861 48.1322C8.87489 48.3803 9.08212 48.575 9.33021 48.5656C9.35534 48.5625 9.38363 48.5594 9.40875 48.5562Z" fill="#505050"/>
<path d="M2.67254 48.3992C2.88609 48.3552 3.04313 48.1605 3.0337 47.9344C2.85784 44.3795 7.00317 43.9712 7.17903 43.9555C7.42713 43.9367 7.6124 43.7168 7.59042 43.4687C7.56843 43.2207 7.35175 43.0385 7.10366 43.0605C5.3042 43.2206 1.95653 44.4517 2.1324 47.9815C2.14496 48.2296 2.35537 48.418 2.6066 48.4055C2.62545 48.4086 2.65056 48.4055 2.67254 48.3992Z" fill="#505050"/>
<path d="M0.288917 52.7644L0.0628356 51.6526C-0.27947 49.9788 0.822791 48.3238 2.5092 47.9752C4.1956 47.6266 5.85689 48.7101 6.1992 50.3839L6.42533 51.4956L0.288917 52.7644Z" fill="#838383"/>
<path d="M7.44273 52.6796L7.21664 51.5679C6.87434 49.894 7.9766 48.239 9.663 47.8904C11.3494 47.5418 13.0107 48.6253 13.353 50.2991L13.5791 51.4108L7.44273 52.6796Z" fill="#838383"/>
<path d="M16.4249 53.1444L16.1988 52.0326C15.8565 50.3588 16.9588 48.7038 18.6452 48.3552C20.3316 48.0066 21.9929 49.0901 22.3352 50.7639L22.5613 51.8788L16.4249 53.1444Z" fill="#838383"/>
<path d="M25.5163 61.0079L25.2901 59.8962C24.9478 58.2224 26.0501 56.5674 27.7365 56.2188C29.4229 55.8702 31.0842 56.9537 31.4265 58.6275L31.6526 59.7392L25.5163 61.0079Z" fill="#838383"/>
<path d="M30.2672 68.2246L30.0411 67.1098C29.6988 65.4359 30.8011 63.781 32.4875 63.4355C34.1739 63.0869 35.8352 64.1704 36.1775 65.8442L36.4036 66.959L30.2672 68.2246Z" fill="#838383"/>
<path d="M33.9107 76.9078L33.6845 75.7962C33.3422 74.1224 34.4414 72.4673 36.1309 72.1187C37.8174 71.7701 39.4786 72.8536 39.8209 74.5274L40.047 75.6391L33.9107 76.9078Z" fill="#838383"/>
<path d="M22.6648 73.1117C22.6648 73.1117 23.139 107.144 38.5585 124.162C58.72 133.69 77.2233 124.162 77.2233 124.162C77.2233 124.162 89.0846 107.6 90.5072 73.1117C56.3489 86.4993 22.6648 73.1117 22.6648 73.1117Z" fill="#D1D3E8"/>
<path d="M55.5201 84.7625C50.753 84.7625 46.5228 84.3606 42.9773 83.8141C31.8319 82.0963 24.8697 78.6325 24.8006 78.5948C24.6561 78.5226 24.5964 78.3435 24.6686 78.1991C24.7409 78.0546 24.9199 77.995 25.0644 78.0672C25.1335 78.1018 32.0298 81.5311 43.0903 83.2332C53.2936 84.8034 69.2312 85.1771 87.2101 78.0578C87.3608 77.9981 87.5336 78.0735 87.5932 78.2242C87.6529 78.3749 87.5775 78.5477 87.4268 78.6074C75.5623 83.3054 64.5771 84.7625 55.5201 84.7625Z" fill="#7F7E80"/>
<path d="M56.1414 99.9403C51.7731 99.9403 47.8978 99.6137 44.6475 99.1709C34.4348 97.7765 28.0535 94.9659 27.9907 94.9376C27.8431 94.8717 27.774 94.6957 27.84 94.5481C27.9059 94.4005 28.0818 94.3314 28.2294 94.4005C28.2922 94.4288 34.6107 97.2112 44.748 98.593C54.1001 99.8648 68.7062 100.17 85.184 94.3911C85.3379 94.3378 85.5075 94.4194 85.5609 94.5732C85.6142 94.7271 85.5326 94.8968 85.3819 94.9502C74.5066 98.7595 64.4384 99.9403 56.1414 99.9403Z" fill="#7F7E80"/>
<path d="M56.2516 116.277C46.9276 116.277 39.4095 114.782 34.702 113.513C34.545 113.472 34.4507 113.309 34.4947 113.152C34.5355 112.995 34.6988 112.901 34.8559 112.945C42.977 115.137 59.549 118.001 79.2865 112.571C79.4435 112.527 79.6068 112.621 79.6477 112.778C79.6916 112.935 79.5974 113.099 79.4404 113.143C71.0052 115.46 63.1353 116.277 56.2516 116.277Z" fill="#7F7E80"/>
<path d="M57.6799 92.7707C55.4157 92.7707 52.963 91.7877 50.369 89.8375C48.3089 91.8191 45.9818 92.7675 43.7898 92.51C41.6638 92.2619 39.8046 90.9241 38.2564 88.5373C36.0707 90.4373 33.9478 91.1817 31.9442 90.7546C28.3986 90.0009 26.5552 85.8837 26.4767 85.7078C26.4108 85.5571 26.4799 85.3844 26.6275 85.3184C26.7782 85.2525 26.9509 85.3216 27.0168 85.4692C27.0357 85.51 28.8195 89.4889 32.0666 90.1767C33.954 90.5786 35.989 89.7998 38.1182 87.8653C38.1842 87.8057 38.269 87.7774 38.3569 87.7931C38.4449 87.8056 38.5202 87.8559 38.5673 87.9313C40.0528 90.3431 41.8302 91.6841 43.8527 91.9227C45.9253 92.1677 48.155 91.2131 50.1303 89.2377C50.2371 89.1341 50.4004 89.1215 50.5198 89.2125C53.5628 91.5553 56.3798 92.5163 58.889 92.0735C61.7813 91.5616 63.2353 89.3131 63.251 89.2911C63.295 89.222 63.3672 89.1717 63.452 89.1591C63.5337 89.1434 63.6184 89.1655 63.6844 89.2189C63.7126 89.2408 66.5767 91.4705 69.7831 90.9994C71.6328 90.7294 73.2564 89.6146 74.6036 87.6926C74.6539 87.6235 74.7292 87.5764 74.814 87.567C74.8988 87.5576 74.9836 87.5858 75.0464 87.6455C76.7737 89.2565 79.4775 89.894 81.9333 89.2691C84.3797 88.6473 86.1949 86.9044 87.0428 84.3638C87.0931 84.2099 87.2626 84.1251 87.4165 84.1784C87.5704 84.2287 87.6552 84.3983 87.6018 84.5522C86.6911 87.2907 84.7283 89.1686 82.0778 89.8406C79.5435 90.4844 76.7642 89.8783 74.8925 88.2987C73.4856 90.1987 71.7961 91.3041 69.8647 91.5867C66.9347 92.0138 64.3627 90.4248 63.5682 89.8658C63.072 90.519 61.5678 92.2023 58.9926 92.6576C58.5655 92.733 58.1259 92.7707 57.6799 92.7707Z" fill="#7F7E80"/>
<path d="M62.6704 109.107C60.4061 109.107 57.9535 108.124 55.3595 106.174C53.2994 108.156 50.9723 109.104 48.7803 108.847C46.6543 108.598 44.7951 107.261 43.2469 104.874C41.0611 106.774 38.9414 107.518 36.9347 107.091C33.3891 106.337 31.5457 102.22 31.4672 102.044C31.4012 101.897 31.4703 101.721 31.6179 101.655C31.7686 101.589 31.9414 101.658 32.0073 101.806C32.0262 101.847 33.8099 105.825 37.0571 106.513C38.9445 106.915 40.9795 106.136 43.1087 104.202C43.1747 104.142 43.2594 104.114 43.3474 104.13C43.4353 104.142 43.5107 104.192 43.5578 104.268C45.0432 106.68 46.8207 108.021 48.8431 108.259C50.9189 108.504 53.1455 107.55 55.1208 105.574C55.2245 105.471 55.3909 105.458 55.5102 105.549C58.5501 107.889 61.3608 108.85 63.8669 108.41C66.7561 107.904 68.2227 105.646 68.2384 105.624C68.2823 105.555 68.3545 105.505 68.4393 105.493C68.521 105.48 68.6058 105.499 68.6717 105.552C68.7 105.574 71.564 107.804 74.7735 107.336C76.6233 107.066 78.2469 105.951 79.5941 104.029C79.6883 103.897 79.8704 103.863 80.0055 103.957C80.1405 104.051 80.1719 104.233 80.0777 104.368C78.6331 106.432 76.8745 107.628 74.8552 107.923C71.9252 108.35 69.3532 106.761 68.5586 106.202C68.0625 106.855 66.5582 108.539 63.9831 108.994C63.556 109.066 63.1163 109.107 62.6704 109.107Z" fill="#7F7E80"/>
<path d="M62.6289 125.378C60.8797 125.403 58.9798 124.64 56.9731 123.104C55.4531 124.671 53.7133 125.459 52.0552 125.331C50.3531 125.199 48.8582 124.143 47.6083 122.193C46.035 123.654 44.4836 124.282 42.9919 124.055C40.0776 123.616 38.5262 120.099 38.4634 119.951C38.41 119.825 38.4854 119.687 38.633 119.643C38.7806 119.599 38.9439 119.659 38.9973 119.785C39.013 119.819 40.5015 123.195 43.0955 123.584C44.4616 123.789 45.9282 123.129 47.4544 121.619C47.5172 121.559 47.6083 121.527 47.7025 121.537C47.7968 121.546 47.8784 121.593 47.9224 121.666C49.1032 123.628 50.5509 124.731 52.1117 124.853C53.6442 124.976 55.2804 124.175 56.7218 122.608C56.7721 122.554 56.8443 122.52 56.9228 122.517C57.0013 122.514 57.0798 122.536 57.1395 122.579C59.4069 124.373 61.4921 125.13 63.3387 124.841C65.6626 124.473 66.8151 122.529 66.8245 122.507C66.8654 122.438 66.9407 122.391 67.0287 122.375C67.1166 122.36 67.2108 122.385 67.2736 122.438C67.2956 122.454 69.4091 124.15 71.7676 123.829C73.231 123.632 74.4997 122.708 75.5455 121.078C75.6209 120.962 75.7936 120.918 75.9286 120.981C76.0668 121.044 76.1171 121.188 76.0417 121.308C74.908 123.076 73.4948 124.084 71.8492 124.304C69.7106 124.589 67.8358 123.462 67.1511 122.985C66.7209 123.581 65.5118 124.979 63.436 125.309C63.1691 125.349 62.9021 125.375 62.6289 125.378Z" fill="#7F7E80"/>
</svg>
