<svg width="89" height="131" viewBox="0 0 89 131" fill="none" xmlns="http://www.w3.org/2000/svg">
<path d="M9.0497 17.6725L0.000244141 71.2373L24.3489 80.6037L43.4466 81.8755L73.8462 80.7248L56.9178 20.5917L9.0497 17.6725Z" fill="#D1D3E8"/>
<path d="M70.3431 8.33154L16.2451 26.1052L21.8156 51.5924L31.2589 68.2442L52.5548 90.7959L71.6056 62.8917L70.3431 8.33154Z" fill="#D1D3E8"/>
<path d="M78.3667 26.3306C78.3667 26.3306 74.0984 18.2792 64.6137 20.8155C55.1289 23.3517 46.6033 36.9398 52.797 45.8239C58.9926 54.7062 74.205 45.0652 75.7476 43.8296C79.7503 40.6286 82.5608 33.5329 78.3667 26.3306Z" fill="#B7B7B7"/>
<path d="M72.3597 28.2255C72.2549 27.9997 71.9877 27.9004 71.7601 28.0052C71.6806 28.0413 63.7763 31.7698 56.5873 40.6322C52.3661 45.8348 49.2087 51.7672 47.1983 58.265C45.5022 63.7493 44.6298 69.6474 44.5811 75.8815L45.4914 75.7099C45.6846 59.2658 51.7356 48.0585 57.261 41.2356C64.3181 32.5213 72.0635 28.8614 72.1393 28.8253C72.3669 28.7205 72.4645 28.4513 72.3597 28.2255Z" fill="#4F5261"/>
<path d="M54.8002 43.4702C54.7081 43.407 54.6394 43.3094 54.6141 43.1956L53.7182 39.142C53.664 38.8981 53.8175 38.6578 54.0614 38.6037C54.3053 38.5495 54.5455 38.703 54.5997 38.9469L55.4307 42.7079L61.9772 43.911C62.2228 43.9561 62.3854 44.191 62.3402 44.4367C62.2951 44.6823 62.0603 44.8431 61.8146 44.7998L54.9735 43.5425C54.9103 43.5298 54.8508 43.5045 54.8002 43.4702Z" fill="#4F5261"/>
<path d="M66.514 32.3747C66.4182 32.3097 66.3496 32.2067 66.3261 32.0857L65.3018 26.6645C65.2548 26.4188 65.4174 26.184 65.6612 26.1371C65.9051 26.0901 66.1417 26.2508 66.1887 26.4965L67.1462 31.5618L72.1464 31.737C72.3957 31.7461 72.5907 31.9556 72.5817 32.2031C72.5727 32.4524 72.3632 32.6475 72.1139 32.6385L66.7523 32.4506C66.6656 32.4506 66.5826 32.4217 66.514 32.3747Z" fill="#4F5261"/>
<path d="M60.1111 37.6281C60.0153 37.563 59.9467 37.4601 59.9232 37.339L58.899 31.9179C58.8521 31.674 59.0128 31.4374 59.2585 31.3904C59.5041 31.3434 59.739 31.506 59.7859 31.7499L60.7434 36.8152L65.7437 36.9904C65.9929 36.9994 66.188 37.209 66.179 37.4565C66.1699 37.7058 65.9604 37.9008 65.7129 37.8918L60.3513 37.704C60.2628 37.704 60.1797 37.6769 60.1111 37.6281Z" fill="#4F5261"/>
<path d="M71.9425 28.7474C71.8016 28.6517 71.7239 28.4801 71.7528 28.303L72.6307 22.8783C72.6704 22.6326 72.9017 22.4646 73.1473 22.5044C73.393 22.5441 73.5611 22.7753 73.5213 23.021L72.7067 28.052L75.9636 28.9967C76.2039 29.0654 76.3412 29.3165 76.2707 29.5549C76.2003 29.7934 75.951 29.9325 75.7107 29.862L72.0689 28.8052C72.0256 28.7944 71.9822 28.7727 71.9425 28.7474Z" fill="#4F5261"/>
<path d="M59.7596 72.7617C59.6892 72.6877 59.6097 72.6226 59.5194 72.5703C59.5122 72.5323 59.5049 72.4944 59.4977 72.4547C58.4266 67.0588 51.3984 45.9667 49.7583 42.9445C49.7493 42.6501 49.2344 41.1074 48.707 41.0784C47.2295 38.5494 43.7019 33.2529 43.7181 33.0488C43.7633 32.4635 42.4284 31.9234 42.2857 31.9776C40.4885 29.8532 38.5015 27.7902 36.2997 25.7995C36.2961 25.6496 35.747 24.3092 35.1726 24.3399C35.0227 24.3471 26.1828 17.9559 20.7802 15.1324C20.5436 14.8217 20.3087 14.5074 20.0667 14.2021C19.7054 13.7415 19.0372 13.662 18.5766 14.0233C18.116 14.3864 18.0347 15.0529 18.3978 15.5136C18.4375 15.5642 18.4754 15.6166 18.5152 15.6671C18.1846 17.4808 17.6608 20.8264 17.3357 25.2522C17.2435 25.3154 17.1568 25.3894 17.0864 25.4852C16.754 25.9278 16.8245 26.542 17.2273 26.9069C17.025 30.3843 18.2568 50.089 19.3081 54.9231C19.1961 54.9971 18.8023 56.352 19.2846 56.6862C19.3334 56.7205 19.5104 56.8397 19.7885 57.0186C20.903 61.6178 22.4239 66.3362 24.4722 71.0366C25.7059 73.8655 26.954 76.4198 28.204 78.7321L59.7596 72.7617Z" fill="white"/>
<path d="M82.6173 49.0001C82.6173 49.0001 78.3618 40.9434 68.8716 43.467C59.3833 45.9906 50.8377 59.566 57.0206 68.4592C63.2035 77.3505 78.4286 67.7294 79.973 66.4974C83.9829 63.2982 86.8025 56.206 82.6173 49.0001Z" fill="#4F5261"/>
<path d="M49.4347 108.01C49.3317 107.937 49.2577 107.824 49.2414 107.688C48.1522 98.0146 48.8784 88.9986 51.3999 80.8895C53.4193 74.3953 56.5857 68.4665 60.8124 63.2712C68.014 54.4196 75.9238 50.7019 76.0032 50.6658C76.229 50.561 76.4963 50.6604 76.6011 50.8862C76.7059 51.112 76.6065 51.3811 76.3807 51.4841C76.3031 51.5202 68.5541 55.1675 61.4844 63.8727C54.9673 71.8988 47.7079 85.9981 50.1374 107.587C50.1645 107.834 49.9874 108.058 49.7399 108.086C49.6298 108.1 49.5214 108.069 49.4347 108.01Z" fill="#B7B7B7"/>
<path d="M59.0212 66.1054C58.9291 66.0422 58.8605 65.9446 58.837 65.8308L57.9463 61.7771C57.8921 61.5333 58.0475 61.293 58.2896 61.2388C58.5334 61.1846 58.7738 61.34 58.828 61.5821L59.6534 65.3449L66.1982 66.557C66.4439 66.6022 66.6047 66.837 66.5595 67.0827C66.5143 67.3284 66.2795 67.4891 66.0338 67.444L59.1947 66.1776C59.1314 66.165 59.0718 66.1415 59.0212 66.1054Z" fill="#B7B7B7"/>
<path d="M70.752 55.0285C70.6563 54.9634 70.5876 54.8605 70.5642 54.7394L69.5471 49.3183C69.502 49.0726 69.6628 48.8378 69.9085 48.7908C70.1523 48.7438 70.389 48.9064 70.4359 49.1503L71.3861 54.2174L76.3864 54.3998C76.6357 54.4088 76.8307 54.6184 76.8199 54.8677C76.8109 55.117 76.6014 55.3121 76.3521 55.303L70.9905 55.1079C70.9038 55.1043 70.8207 55.0754 70.752 55.0285Z" fill="#B7B7B7"/>
<path d="M64.3443 60.2721C64.2486 60.2071 64.1799 60.1041 64.1564 59.9831L63.1394 54.5619C63.0943 54.3163 63.2551 54.0814 63.5007 54.0345C63.7464 53.9893 63.9812 54.1501 64.0282 54.3957L64.9784 59.4628L69.9787 59.6453C70.228 59.6543 70.4212 59.8639 70.4122 60.1132C70.4032 60.3624 70.1937 60.5575 69.9444 60.5485L64.5828 60.3534C64.4943 60.348 64.413 60.3191 64.3443 60.2721Z" fill="#B7B7B7"/>
<path d="M76.1866 51.4064C76.0457 51.3107 75.9681 51.1391 75.997 50.962L76.8821 45.5391C76.9218 45.2934 77.1549 45.1254 77.4005 45.167C77.6462 45.2067 77.8142 45.4397 77.7726 45.6854L76.9507 50.7146L80.2078 51.6648C80.4462 51.7334 80.5853 51.9845 80.5148 52.2247C80.4444 52.465 80.1951 52.6023 79.9549 52.5318L76.3148 51.4697C76.2679 51.4552 76.2245 51.4335 76.1866 51.4064Z" fill="#B7B7B7"/>
<path d="M32.6002 77.1535C24.1378 59.9579 16.3997 44.4477 10.8039 33.2911H10.3921C15.8236 44.5435 23.4226 60.2054 31.9265 77.4859C32.9615 79.5886 33.9856 81.666 34.9953 83.7145L35.6619 83.3875C34.6558 81.3354 33.6352 79.2562 32.6002 77.1535Z" fill="#4F5261"/>
<path d="M11.1657 28.6377C12.2008 30.688 12.2244 32.984 11.4277 34.9585C9.36476 34.4274 7.53488 33.0418 6.49979 30.9897C5.46469 28.9394 5.44113 26.6434 6.23958 24.6689C8.30074 25.2037 10.1307 26.5874 11.1657 28.6377Z" fill="#4F5261"/>
<path d="M11.5261 38.0509C13.562 39.1149 14.9186 40.9665 15.4208 43.0367C13.4355 43.8062 11.1395 43.7466 9.10364 42.6826C7.06778 41.6186 5.71108 39.767 5.21069 37.6968C7.19598 36.9291 9.49203 36.9869 11.5261 38.0509Z" fill="#4F5261"/>
<path d="M19.2025 37.6608C18.778 39.9189 17.4051 41.7578 15.5715 42.8417C14.2564 41.1671 13.6422 38.9542 14.0668 36.6962C14.4913 34.4381 15.8641 32.5992 17.6995 31.5171C19.0128 33.1935 19.627 35.4046 19.2025 37.6608Z" fill="#4F5261"/>
<path d="M16.8175 48.5394C18.8534 49.6034 20.21 51.455 20.7122 53.5252C18.7269 54.2947 16.4309 54.2351 14.395 53.1711C12.3592 52.1071 11.0026 50.2555 10.5022 48.1853C12.4875 47.4158 14.7816 47.4754 16.8175 48.5394Z" fill="#4F5261"/>
<path d="M24.492 48.1471C24.0675 50.4052 22.6945 52.2442 20.861 53.3281C19.5459 51.6535 18.9318 49.4406 19.3563 47.1825C19.7808 44.9245 21.1537 43.0855 22.9891 42.0034C24.3023 43.6798 24.9165 45.8909 24.492 48.1471Z" fill="#4F5261"/>
<path d="M22.1031 59.0256C24.139 60.0896 25.4957 61.9412 25.9978 64.0096C24.0126 64.7791 21.7165 64.7195 19.6807 63.6555C17.6448 62.5915 16.2882 60.7399 15.7878 58.6697C17.7749 57.9019 20.0691 57.9616 22.1031 59.0256Z" fill="#B7B7B7"/>
<path d="M29.7777 58.6354C29.3532 60.8935 27.9803 62.7325 26.1467 63.8163C24.8316 62.1418 24.2174 59.9289 24.6419 57.6708C25.0665 55.4127 26.4413 53.5738 28.2748 52.4917C29.5899 54.1663 30.2022 56.3774 29.7777 58.6354Z" fill="#B7B7B7"/>
<path d="M45.792 10.0186H45.5752C45.6077 22.2103 45.7052 43.7449 45.9943 68.2765C46.0214 70.6213 46.0502 72.9372 46.0809 75.2205L46.8234 75.2115C46.7999 72.9281 46.7729 70.6122 46.7458 68.2675C46.4568 43.7359 46.0467 22.2067 45.792 10.0186Z" fill="#B7B7B7"/>
<path d="M48.22 5.70295C48.2687 7.99895 47.3023 10.0818 45.7325 11.5197C44.0994 10.1522 43.0444 8.11278 42.9957 5.81497C42.9469 3.51898 43.9133 1.43613 45.4849 0C47.1162 1.36748 48.1712 3.40696 48.22 5.70295Z" fill="#B7B7B7"/>
<path d="M44.202 13.6335C45.5803 15.4725 46.0067 17.7269 45.5677 19.8116C43.4433 19.6508 41.3984 18.6067 40.02 16.7695C38.6417 14.9324 38.2154 12.6761 38.6544 10.5933C40.7788 10.754 42.8237 11.7964 44.202 13.6335Z" fill="#B7B7B7"/>
<path d="M51.2967 16.5888C49.9419 18.4441 47.9096 19.5099 45.7871 19.6978C45.321 17.6203 45.722 15.3587 47.0768 13.5034C48.4317 11.6482 50.4639 10.5824 52.5865 10.3945C53.0526 12.4756 52.6534 14.7354 51.2967 16.5888Z" fill="#505050"/>
<path d="M46.0794 31.8945L45.7977 31.8728C43.5035 31.6994 41.3972 30.5433 40.017 28.7025C38.6369 26.8635 38.1185 24.517 38.5954 22.2661L38.6532 21.9897L38.935 22.0114C41.2292 22.1866 43.3354 23.3428 44.7138 25.1817C46.0921 27.0207 46.6124 29.3673 46.1373 31.6181L46.0794 31.8945ZM39.1698 22.6816C38.832 24.6633 39.3197 26.701 40.5318 28.3159C41.7421 29.9309 43.5631 30.9714 45.5592 31.2026C45.897 29.221 45.4074 27.1815 44.1971 25.5683C42.9868 23.9552 41.1677 22.9128 39.1698 22.6816Z" fill="#505050"/>
<path d="M51.5507 28.3304C50.1959 30.1856 48.1635 31.2514 46.041 31.4393C45.5749 29.3619 45.976 27.1002 47.3308 25.245C48.6857 23.3898 50.7179 22.3239 52.8405 22.1361C53.3066 24.2171 52.9055 26.477 51.5507 28.3304Z" fill="#505050"/>
<path d="M44.7075 37.1171C46.0859 38.9543 46.5122 41.2105 46.0751 43.2934C43.9507 43.1326 41.9057 42.0903 40.5274 40.2513C39.149 38.4141 38.7228 36.1579 39.1617 34.0751C41.2843 34.2376 43.3292 35.2799 44.7075 37.1171Z" fill="#B7B7B7"/>
<path d="M51.8023 40.0743C50.4475 41.9295 48.4135 42.9953 46.2927 43.1831C45.8266 41.1057 46.2276 38.8441 47.5825 36.9888C48.9373 35.1336 50.9695 34.0678 53.0921 33.88C53.5582 35.9592 53.1572 38.219 51.8023 40.0743Z" fill="#505050"/>
<path d="M44.9618 48.8589C46.3402 50.6961 46.7664 52.9524 46.3275 55.0352C44.2031 54.8744 42.1582 53.8321 40.7799 51.9931C39.4016 50.156 38.9752 47.8997 39.4142 45.8169C41.5385 45.9795 43.5835 47.0218 44.9618 48.8589Z" fill="#B7B7B7"/>
<path d="M46.2933 55.2719L46.2319 54.9955C45.7279 52.7501 46.2193 50.3981 47.5759 48.5411C48.9326 46.6841 51.0262 45.5045 53.3168 45.3021L53.5986 45.2769L53.66 45.5532C54.1622 47.7987 53.6709 50.1506 52.3142 52.0059C50.9576 53.8611 48.8657 55.0425 46.5734 55.2466L46.2933 55.2719ZM53.0892 45.9759C51.0949 46.2306 49.2884 47.2928 48.098 48.9223C46.9075 50.5517 46.4415 52.5966 46.8046 54.5746C48.7989 54.3181 50.6053 53.2559 51.7958 51.6265C52.9862 49.9971 53.4505 47.954 53.0892 45.9759Z" fill="#4F5261"/>
<path d="M46.3068 106.853C46.2743 106.858 46.2418 106.862 46.2075 106.862C45.9365 106.858 45.7198 106.636 45.7234 106.365C45.7252 106.275 45.821 97.1395 43.303 82.3122C40.9783 68.6302 35.8882 47.1641 24.8392 22.6036C24.7272 22.3562 24.8375 22.0653 25.0849 21.9551C25.3342 21.8449 25.6231 21.9533 25.7333 22.2008C30.6337 33.0937 34.7864 44.2937 38.0738 55.4919C40.7038 64.4518 42.7918 73.4299 44.2766 82.1785C46.8054 97.0853 46.7078 106.287 46.706 106.378C46.7024 106.614 46.5308 106.809 46.3068 106.853Z" fill="#B7B7B7"/>
<path d="M27.6067 19.504C27.977 21.4622 26.6908 23.3499 24.7326 23.7202C22.7745 24.0906 20.8867 22.8044 20.5164 20.8462C20.1461 18.888 21.4323 17.0003 23.3905 16.6299C25.3487 16.2596 27.2346 17.5458 27.6067 19.504Z" fill="#B7B7B7"/>
<path d="M85.2251 25.854C85.0589 25.6408 84.7501 25.6028 84.537 25.769C84.4647 25.825 77.2234 31.5045 67.1787 42.8039C61.283 49.4353 55.5842 56.6792 50.2412 64.3367C45.8411 70.6412 41.6777 77.2402 37.7942 84.0505L39.0658 83.8102C49.506 65.6572 60.2064 52.1251 67.8903 43.4795C77.8808 32.2379 85.068 26.6 85.1385 26.544C85.3534 26.376 85.3913 26.0671 85.2251 25.854Z" fill="#B7B7B7"/>
<path d="M88.9713 25.5358C88.722 27.512 86.9174 28.9139 84.9393 28.6646C82.963 28.4153 81.5612 26.6106 81.8123 24.6326C82.0616 22.6563 83.8662 21.2545 85.8443 21.5038C87.8205 21.7531 89.2206 23.5577 88.9713 25.5358Z" fill="#D1D3E8"/>
<path d="M29.301 35.1138H29.0608C31.0262 41.4002 33.8135 50.2825 37.2114 61.0291L37.8672 60.9044C34.332 50.2067 31.3911 41.3731 29.301 35.1138Z" fill="#505050"/>
<path d="M30.09 29.9764C30.8235 32.1532 30.5236 34.4293 29.4542 36.2701C27.487 35.4518 25.872 33.8223 25.1386 31.6438C24.4052 29.467 24.705 27.1909 25.7762 25.3501C27.7417 26.1702 29.3566 27.7996 30.09 29.9764Z" fill="#505050"/>
<path d="M29.1135 39.3464C30.9777 40.6886 32.0597 42.7137 32.2639 44.8326C30.19 45.3131 27.9248 44.9302 26.0606 43.588C24.1963 42.2458 23.1142 40.2208 22.9119 38.1018C24.9875 37.6213 27.2492 38.0043 29.1135 39.3464Z" fill="#505050"/>
<path d="M36.7694 40.0474C36.0306 42.2223 34.4084 43.8481 32.4412 44.6611C31.3754 42.8167 31.0827 40.5405 31.8215 38.3638C32.5604 36.1888 34.1825 34.563 36.1498 33.7519C37.2156 35.5981 37.5082 37.8742 36.7694 40.0474Z" fill="#505050"/>
<path d="M34.2847 56.4824C32.6264 56.4824 30.9934 55.9658 29.6223 54.9777C27.7562 53.6337 26.5603 51.5508 26.3417 49.2603L26.3147 48.9785L26.5892 48.9152C28.831 48.3968 31.1867 48.8701 33.0527 50.2141C34.9188 51.5581 36.1147 53.6409 36.3351 55.9315L36.3622 56.2133L36.0875 56.2765C35.4896 56.4156 34.8845 56.4824 34.2847 56.4824ZM27.0156 49.4861C27.2848 51.4786 28.3614 53.2778 29.998 54.4556C31.6365 55.6352 33.685 56.085 35.6594 55.7075C35.3884 53.715 34.3118 51.9158 32.6752 50.7379C31.0386 49.5601 28.99 49.1103 27.0156 49.4861Z" fill="#87736D"/>
<path d="M40.5201 51.1787C39.7813 53.3537 38.1591 54.9795 36.1919 55.7924C35.1261 53.948 34.8334 51.6719 35.5722 49.4969C36.3111 47.322 37.9333 45.6961 39.9005 44.885C40.9663 46.7276 41.259 49.0038 40.5201 51.1787Z" fill="#505050"/>
<path d="M69.9841 68.0181L54.6434 85.0185L54.0564 89.4859L53.9607 90.2193L53.7728 91.6446L53.6843 92.3148L50.9333 113.264L42.4403 117.538C42.4403 117.538 39.1437 105.31 36.9545 97.0694C36.8967 96.8599 36.839 96.6485 36.7848 96.4425C36.6963 96.0993 36.606 95.7633 36.5193 95.44C36.4615 95.2268 36.4073 95.0172 36.3531 94.8149C36.0479 93.6498 35.7769 92.6237 35.5638 91.8072C31.4744 83.8823 26.5901 79.984 26.1494 79.2343L37.3718 72.8431L53.2887 63.502L69.9841 68.0181Z" fill="#D1D3E8"/>
<path d="M54.2702 90.7684C54.2702 90.7684 37.4628 87.4211 34.291 74.7796C31.1174 62.1381 41.1385 58.4962 41.1385 58.4962L54.2702 90.7684Z" fill="#B7B7B7"/>
<path d="M54.2194 90.6475C54.2194 90.6475 63.5904 76.2989 56.7808 65.1856C49.9711 54.0724 40.3582 58.6824 40.3582 58.6824L54.2194 90.6475Z" fill="#B7B7B7"/>
<path d="M42.6352 77.6828C44.4452 75.0941 45.7603 72.8903 45.7603 72.8903C45.7603 72.8903 44.1399 74.881 42.328 77.4696C40.5179 80.0583 39.2029 82.2621 39.2029 82.2621C39.2029 82.2621 40.8233 80.2696 42.6352 77.6828Z" fill="#B7B7B7"/>
<path d="M40.9776 75.2004C43.0008 72.31 44.4857 69.8605 44.4857 69.8605C44.4857 69.8605 42.6937 72.0969 40.6705 74.9872C38.6473 77.8775 37.1624 80.3271 37.1624 80.3271C37.1624 80.3271 38.9562 78.0907 40.9776 75.2004Z" fill="#B7B7B7"/>
<path d="M39.6233 72.2868C41.6917 69.3314 43.2146 66.8295 43.2146 66.8295C43.2146 66.8295 41.3846 69.1183 39.318 72.0736C37.2514 75.029 35.7268 77.5309 35.7268 77.5309C35.7268 77.5309 37.5567 75.2421 39.6233 72.2868Z" fill="#B7B7B7"/>
<path d="M38.463 69.0964C40.4682 66.2296 41.9422 63.8 41.9422 63.8C41.9422 63.8 40.1629 66.0165 38.1577 68.8833C36.1526 71.7501 34.6785 74.1798 34.6785 74.1798C34.6785 74.1798 36.4561 71.9633 38.463 69.0964Z" fill="#B7B7B7"/>
<path d="M37.6403 65.4223C39.3962 62.9113 40.6679 60.7707 40.6679 60.7707C40.6679 60.7707 39.0909 62.6981 37.335 65.2091C35.5792 67.7201 34.3074 69.8607 34.3074 69.8607C34.3074 69.8607 35.8845 67.9314 37.6403 65.4223Z" fill="#B7B7B7"/>
<path d="M44.3633 80.0618C45.9222 77.8326 47.0331 75.9196 47.0331 75.9196C47.0331 75.9196 45.617 77.6194 44.0562 79.8486C42.4972 82.0777 41.3862 83.9908 41.3862 83.9908C41.3862 83.9908 42.8043 82.2909 44.3633 80.0618Z" fill="#B7B7B7"/>
<path d="M46.3184 82.1175C47.5016 80.4266 48.3073 78.9508 48.3073 78.9508C48.3073 78.9508 47.1963 80.2134 46.0131 81.9043C44.8299 83.5951 44.0242 85.0728 44.0242 85.0728C44.0242 85.0728 45.1352 83.8083 46.3184 82.1175Z" fill="#B7B7B7"/>
<path d="M48.1652 84.3286C49.0305 83.0911 49.5797 81.9802 49.5797 81.9802C49.5797 81.9802 48.7252 82.8762 47.8599 84.1136C46.9946 85.351 46.4456 86.462 46.4456 86.462C46.4456 86.462 47.2999 85.566 48.1652 84.3286Z" fill="#B7B7B7"/>
<path d="M50.0273 86.5142C50.5674 85.7429 50.8511 85.0094 50.8511 85.0094C50.8511 85.0094 50.2603 85.5279 49.7202 86.2993C49.1801 87.0706 48.8965 87.8041 48.8965 87.8041C48.8965 87.8041 49.4872 87.2874 50.0273 86.5142Z" fill="#B7B7B7"/>
<path d="M52.5763 73.5043C49.4605 72.9858 46.9661 72.3825 46.9661 72.3825C46.9661 72.3825 49.5219 72.6173 52.6377 73.1358C55.7535 73.6542 58.248 74.2576 58.248 74.2576C58.248 74.2576 55.6921 74.0209 52.5763 73.5043Z" fill="#B7B7B7"/>
<path d="M51.9644 70.5829C48.4855 70.0048 45.6948 69.3527 45.6948 69.3527C45.6948 69.3527 48.5451 69.6381 52.0258 70.2162C55.5047 70.7943 58.2954 71.4464 58.2954 71.4464C58.2954 71.4464 55.4433 71.1609 51.9644 70.5829Z" fill="#B7B7B7"/>
<path d="M50.832 67.577C47.2755 66.9863 44.4216 66.3234 44.4216 66.3234C44.4216 66.3234 47.3369 66.6178 50.8934 67.2085C54.45 67.7992 57.3039 68.464 57.3039 68.464C57.3039 68.464 54.3886 68.1677 50.832 67.577Z" fill="#B7B7B7"/>
<path d="M49.3659 64.5136C45.9159 63.941 43.1487 63.2907 43.1487 63.2907C43.1487 63.2907 45.9755 63.5707 49.4273 64.1451C52.8773 64.7178 55.6444 65.3681 55.6444 65.3681C55.6444 65.3681 52.8159 65.0881 49.3659 64.5136Z" fill="#B7B7B7"/>
<path d="M47.316 61.3558C44.2941 60.8536 41.8755 60.2628 41.8755 60.2628C41.8755 60.2628 44.3555 60.485 47.3774 60.9872C50.3993 61.4894 52.8197 62.0801 52.8197 62.0801C52.8197 62.0801 50.3379 61.858 47.316 61.3558Z" fill="#B7B7B7"/>
<path d="M53.068 76.4035C50.3854 75.9573 48.2393 75.4118 48.2393 75.4118C48.2393 75.4118 50.4449 75.5888 53.1275 76.035C55.8101 76.4812 57.9562 77.0268 57.9562 77.0268C57.9562 77.0268 55.7505 76.8497 53.068 76.4035Z" fill="#B7B7B7"/>
<path d="M53.1669 79.2396C51.1329 78.9018 49.5125 78.443 49.5125 78.443C49.5125 78.443 51.1925 78.5333 53.2283 78.8711C55.2642 79.2089 56.8828 79.6677 56.8828 79.6677C56.8828 79.6677 55.201 79.5774 53.1669 79.2396Z" fill="#B7B7B7"/>
<path d="M53.4557 82.1047C51.9654 81.8572 50.7876 81.4724 50.7876 81.4724C50.7876 81.4724 52.0268 81.4886 53.5154 81.7361C55.0057 81.9836 56.1835 82.3684 56.1835 82.3684C56.1835 82.3684 54.9442 82.3539 53.4557 82.1047Z" fill="#B7B7B7"/>
<path d="M53.7119 84.9659C52.7834 84.8105 52.0608 84.5016 52.0608 84.5016C52.0608 84.5016 52.8448 84.442 53.7733 84.5973C54.7018 84.7527 55.4244 85.0616 55.4244 85.0616C55.4244 85.0616 54.6404 85.1212 53.7119 84.9659Z" fill="#B7B7B7"/>
<path d="M40.0046 58.1225C47.9848 76.9583 53.978 90.7487 53.978 90.7487C53.978 90.7487 48.3244 76.8228 40.4581 57.9455C40.31 58.0123 40.1582 58.0701 40.0046 58.1225Z" fill="#B7B7B7"/>
<path d="M2.83691 60.1746C2.83691 60.1746 12.3235 45.9018 25.2221 47.7733C38.1207 49.6448 37.6764 60.2992 37.6764 60.2992L2.83691 60.1746Z" fill="white"/>
<path d="M2.96582 60.1727C2.96582 60.1727 12.6728 74.2974 25.5389 72.2254C38.4068 70.1534 37.798 59.508 37.798 59.508L2.96582 60.1727Z" fill="white"/>
<path d="M19.3632 54.3886C21.0685 57.0477 22.6076 59.1017 22.6076 59.1017C22.6076 59.1017 21.3828 56.8454 19.6775 54.1863C17.9722 51.5272 16.4331 49.4733 16.4331 49.4733C16.4331 49.4733 17.6579 51.7295 19.3632 54.3886Z" fill="white"/>
<path d="M22.2885 53.7996C24.1925 56.7694 25.8941 59.0762 25.8941 59.0762C25.8941 59.0762 24.5086 56.5689 22.6028 53.5991C20.6988 50.6293 18.9971 48.3224 18.9971 48.3224C18.9971 48.3224 20.3845 50.8298 22.2885 53.7996Z" fill="white"/>
<path d="M25.4986 53.655C27.4459 56.6916 29.1819 59.0509 29.1819 59.0509C29.1819 59.0509 27.7602 56.4893 25.8147 53.4527C23.8673 50.416 22.1313 48.0568 22.1313 48.0568C22.1313 48.0568 23.5512 50.6184 25.4986 53.655Z" fill="white"/>
<path d="M28.8911 53.794C30.7788 56.7385 32.4679 59.0254 32.4679 59.0254C32.4679 59.0254 31.0949 56.5379 29.2054 53.5934C27.3177 50.6489 25.6287 48.362 25.6287 48.362C25.6287 48.362 27.0033 50.8494 28.8911 53.794Z" fill="white"/>
<path d="M32.6006 54.4301C34.2535 57.0097 35.7528 58.9987 35.7528 58.9987C35.7528 58.9987 34.5696 56.8074 32.9149 54.2278C31.2602 51.6482 29.7627 49.6593 29.7627 49.6593C29.7627 49.6593 30.9459 51.8523 32.6006 54.4301Z" fill="white"/>
<path d="M16.5059 55.0821C17.9745 57.3726 19.3221 59.1267 19.3221 59.1267C19.3221 59.1267 18.2888 57.1703 16.8202 54.8797C15.3516 52.5892 14.0039 50.8351 14.0039 50.8351C14.0039 50.8351 15.039 52.7915 16.5059 55.0821Z" fill="white"/>
<path d="M13.8593 56.1083C14.9721 57.8443 16.0325 59.1522 16.0325 59.1522C16.0325 59.1522 15.2864 57.6438 14.1737 55.9078C13.0609 54.1718 12.0005 52.8639 12.0005 52.8639C12.0005 52.8639 12.7465 54.3723 13.8593 56.1083Z" fill="white"/>
<path d="M11.1141 56.9769C11.9288 58.2487 12.7472 59.179 12.7472 59.179C12.7472 59.179 12.2432 58.0482 11.4285 56.7764C10.612 55.5047 9.7937 54.5744 9.7937 54.5744C9.7937 54.5744 10.2976 55.7052 11.1141 56.9769Z" fill="white"/>
<path d="M8.3826 57.8676C8.89202 58.6607 9.46102 59.2026 9.46102 59.2026C9.46102 59.2026 9.20636 58.4602 8.69694 57.6671C8.18752 56.8741 7.61841 56.3322 7.61841 56.3322C7.61841 56.3322 7.87499 57.0764 8.3826 57.8676Z" fill="white"/>
<path d="M19.4475 65.1749C21.1112 62.4905 22.6178 60.4113 22.6178 60.4113C22.6178 60.4113 21.4273 62.6856 19.7636 65.37C18.0998 68.0544 16.5933 70.1318 16.5933 70.1318C16.5933 70.1318 17.7837 67.8593 19.4475 65.1749Z" fill="white"/>
<path d="M22.3811 65.7167C24.24 62.718 25.9037 60.3859 25.9037 60.3859C25.9037 60.3859 24.5561 62.9149 22.6991 65.9136C20.8403 68.9123 19.1765 71.2445 19.1765 71.2445C19.1765 71.2445 20.5241 68.7154 22.3811 65.7167Z" fill="white"/>
<path d="M25.5915 65.8129C27.4919 62.7473 29.19 60.361 29.19 60.361C29.19 60.361 27.8081 62.9442 25.9095 66.0097C24.0091 69.0753 22.311 71.4634 22.311 71.4634C22.311 71.4634 23.6929 68.8802 25.5915 65.8129Z" fill="white"/>
<path d="M28.982 65.6213C30.8246 62.6478 32.4775 60.3356 32.4775 60.3356C32.4775 60.3356 31.1425 62.8447 29.2999 65.8181C27.4573 68.7916 25.8044 71.1038 25.8044 71.1038C25.8044 71.1038 27.1395 68.5947 28.982 65.6213Z" fill="white"/>
<path d="M32.6808 64.9275C34.294 62.3226 35.7608 60.3102 35.7608 60.3102C35.7608 60.3102 34.6119 62.5195 32.9969 65.1244C31.3837 67.7293 29.917 69.7417 29.917 69.7417C29.917 69.7417 31.0676 67.5306 32.6808 64.9275Z" fill="white"/>
<path d="M16.5797 64.5247C18.0122 62.2124 19.3327 60.4367 19.3327 60.4367C19.3327 60.4367 18.3302 62.4093 16.8976 64.7216C15.4651 67.0338 14.1445 68.8095 14.1445 68.8095C14.1445 68.8095 15.1472 66.8369 16.5797 64.5247Z" fill="white"/>
<path d="M13.92 63.5404C15.0075 61.7863 16.0462 60.464 16.0462 60.464C16.0462 60.464 15.3237 61.9832 14.238 63.7373C13.1505 65.4914 12.1118 66.8137 12.1118 66.8137C12.1118 66.8137 12.8344 65.2927 13.92 63.5404Z" fill="white"/>
<path d="M11.1562 62.7145C11.951 61.4301 12.7548 60.4889 12.7548 60.4889C12.7548 60.4889 12.269 61.6288 11.4723 62.9114C10.6757 64.1958 9.87183 65.1369 9.87183 65.1369C9.87183 65.1369 10.3614 63.9989 11.1562 62.7145Z" fill="white"/>
<path d="M8.41369 61.8636C8.91046 61.0633 9.4705 60.5124 9.4705 60.5124C9.4705 60.5124 9.22657 61.2602 8.7298 62.0605C8.23302 62.8608 7.6731 63.4117 7.6731 63.4117C7.6731 63.4117 7.91692 62.6638 8.41369 61.8636Z" fill="white"/>
<path d="M38.4537 59.3922C17.9994 59.6108 2.96582 59.9107 2.96582 59.9107C2.96582 59.9107 17.994 59.9775 38.4429 59.88C38.4392 59.7174 38.4428 59.5548 38.4537 59.3922Z" fill="white"/>
<path d="M54.0452 74.3645C55.8011 73.183 55.4146 70.1048 55.4146 70.1048L55.5211 69.4979L55.0352 69.1185C55.0352 69.1185 53.2667 66.5696 51.1713 66.8623C49.0758 67.1549 50.1975 70.972 49.2599 71.3296C48.3224 71.6891 48.5121 72.1823 48.5121 72.1823C48.5121 72.1823 48.7018 72.6754 49.6393 72.3159C50.5769 71.9583 52.2911 75.5459 54.0452 74.3645Z" fill="#83888E"/>
<path d="M50.9224 67.7944C49.9559 66.3601 47.4395 66.6762 47.4395 66.6762L46.9428 66.5895L46.6321 66.9869C46.6321 66.9869 44.5473 68.4339 44.7876 70.1464C45.0278 71.8589 48.1476 70.943 48.4403 71.709C48.7329 72.4749 49.1376 72.3214 49.1376 72.3214C49.1376 72.3214 49.5405 72.1678 49.2478 71.4001C48.9552 70.6305 51.8888 69.2287 50.9224 67.7944Z" fill="#505050"/>
<path d="M47.1085 76.2018C48.075 77.6361 50.5913 77.32 50.5913 77.32L51.0882 77.4067L51.3989 77.0093C51.3989 77.0093 53.4835 75.5623 53.2432 73.8498C53.003 72.1373 49.8833 73.0532 49.5906 72.2872C49.298 71.5213 48.8933 71.6748 48.8933 71.6748C48.8933 71.6748 48.4905 71.8284 48.7831 72.5961C49.0758 73.3639 46.1421 74.7675 47.1085 76.2018Z" fill="#505050"/>
<path d="M44.8015 70.087C43.3672 71.0534 43.6833 73.5698 43.6833 73.5698L43.5947 74.0666L43.9922 74.3773C43.9922 74.3773 45.4391 76.4619 47.1516 76.2216C48.8641 75.9814 47.9482 72.8616 48.7142 72.569C49.4801 72.2746 49.3265 71.8717 49.3265 71.8717C49.3265 71.8717 49.1713 71.4689 48.4053 71.7615C47.6394 72.0542 46.2358 69.1205 44.8015 70.087Z" fill="#83888E"/>
<path d="M48.7869 71.4073C49.0723 71.2989 49.392 71.4398 49.5004 71.7252C49.6088 72.0106 49.4679 72.3303 49.1825 72.4387C48.897 72.5471 48.5773 72.4044 48.4689 72.1208C48.3587 71.8354 48.5014 71.5156 48.7869 71.4073Z" fill="#505050"/>
<path d="M44.9947 60.823C43.6651 62.4687 44.9405 65.2976 44.9405 65.2976L45.0164 65.91L45.5926 66.1304C45.5926 66.1304 48.0331 68.047 49.9497 67.1492C51.8664 66.2532 49.6715 62.9348 50.4628 62.317C51.254 61.6974 50.9271 61.2819 50.9271 61.2819C50.9271 61.2819 50.6019 60.8664 49.8107 61.4842C49.0195 62.1038 46.3242 59.1773 44.9947 60.823Z" fill="#090A08"/>
<path d="M49.9122 66.1826C51.258 67.2701 53.5702 66.2277 53.5702 66.2277L54.0707 66.1645L54.2513 65.693C54.2513 65.693 55.8175 63.6969 55.084 62.1307C54.3506 60.5645 51.6391 62.3583 51.1333 61.7116C50.6275 61.0649 50.2861 61.3323 50.2861 61.3323C50.2861 61.3323 49.9465 61.5996 50.4523 62.2445C50.9581 62.893 48.5664 65.0969 49.9122 66.1826Z" fill="#4F5261"/>
<path d="M51.0867 57.0257C49.7409 55.9383 47.4286 56.9806 47.4286 56.9806L46.9282 57.0438L46.7476 57.5153C46.7476 57.5153 45.1813 59.5114 45.9147 61.0776C46.6482 62.6438 49.3597 60.85 49.8655 61.4967C50.3713 62.1434 50.7127 61.8761 50.7127 61.8761C50.7127 61.8761 51.0523 61.6105 50.5465 60.9638C50.0389 60.3153 52.4325 58.1132 51.0867 57.0257Z" fill="#4F5261"/>
<path d="M55.0882 62.1922C56.1757 60.8464 55.1333 58.5342 55.1333 58.5342L55.0701 58.0338L54.5987 57.8531C54.5987 57.8531 52.6044 56.287 51.0364 57.0204C49.4702 57.7538 51.2639 60.4653 50.6172 60.9711C49.9705 61.4769 50.2379 61.8183 50.2379 61.8183C50.2379 61.8183 50.5053 62.1579 51.1502 61.6521C51.7951 61.1463 54.0007 63.538 55.0882 62.1922Z" fill="#090A08"/>
<path d="M50.8882 62.1038C50.648 62.2917 50.3012 62.2502 50.1115 62.0099C49.9236 61.7696 49.9652 61.4228 50.2054 61.2349C50.4457 61.0471 50.7925 61.0886 50.9804 61.3288C51.1719 61.5673 51.1285 61.9159 50.8882 62.1038Z" fill="#4F5261"/>
<path d="M43.7892 48.7761C42.1725 47.4104 39.3165 48.6243 39.3165 48.6243L38.7041 48.6876L38.4711 49.2584C38.4711 49.2584 36.5021 51.6555 37.3565 53.5921C38.211 55.5286 41.5745 53.406 42.1761 54.2099C42.7776 55.0137 43.2021 54.6976 43.2021 54.6976C43.2021 54.6976 43.6248 54.3815 43.0233 53.5776C42.4217 52.7719 45.406 50.1417 43.7892 48.7761Z" fill="#090A08"/>
<path d="M38.3244 53.5758C37.208 54.8963 38.1998 57.2321 38.1998 57.2321L38.2503 57.7343L38.7163 57.924C38.7163 57.924 40.6763 59.5335 42.2588 58.8344C43.8412 58.1353 42.1071 55.3859 42.7646 54.8927C43.4222 54.4014 43.1639 54.0545 43.1639 54.0545C43.1639 54.0545 42.9055 53.7077 42.248 54.2009C41.5904 54.694 39.4408 52.2553 38.3244 53.5758Z" fill="#B7B7B7"/>
<path d="M47.452 54.9488C48.5684 53.6265 47.5766 51.2926 47.5766 51.2926L47.5261 50.7904L47.06 50.6007C47.06 50.6007 45.1001 48.9912 43.5176 49.6903C41.9352 50.3894 43.6693 53.1388 43.0117 53.632C42.3542 54.1233 42.6125 54.4701 42.6125 54.4701C42.6125 54.4701 42.8709 54.8152 43.5284 54.3238C44.186 53.8325 46.3356 56.2712 47.452 54.9488Z" fill="#B7B7B7"/>
<path d="M42.1987 58.838C43.5192 59.9544 45.855 58.9626 45.855 58.9626L46.3554 58.912L46.5468 58.446C46.5468 58.446 48.1564 56.486 47.4573 54.9035C46.7582 53.3211 44.0088 55.0553 43.5156 54.3977C43.0243 53.7402 42.6775 53.9985 42.6775 53.9985C42.6775 53.9985 42.3306 54.2568 42.8238 54.9144C43.3169 55.5719 40.8764 57.7216 42.1987 58.838Z" fill="#090A08"/>
<path d="M42.38 54.6418C42.1975 54.3979 42.2462 54.0511 42.4919 53.8686C42.7358 53.6862 43.0827 53.7349 43.2651 53.9806C43.4476 54.2245 43.3988 54.5713 43.1531 54.7538C42.9092 54.9362 42.5624 54.8856 42.38 54.6418Z" fill="#83888E"/>
<path d="M34.5671 67.153C32.9503 65.7873 30.0962 67.0013 30.0962 67.0013L29.4819 67.0645L29.2489 67.6353C29.2489 67.6353 27.2799 70.0325 28.1344 71.969C28.9888 73.9037 32.3524 71.7829 32.9539 72.5868C33.5555 73.3907 33.9782 73.0746 33.9782 73.0746C33.9782 73.0746 34.4009 72.7584 33.7994 71.9545C33.1996 71.1471 36.1838 68.5187 34.5671 67.153Z" fill="#090A08"/>
<path d="M29.1002 71.9528C27.9839 73.2733 28.9757 75.609 28.9757 75.609L29.028 76.1094L29.4941 76.299C29.4941 76.299 31.4541 77.9086 33.0365 77.2095C34.619 76.5104 32.8847 73.761 33.5423 73.2678C34.1998 72.7765 33.9415 72.4296 33.9415 72.4296C33.9415 72.4296 33.6833 72.0828 33.0257 72.576C32.3682 73.0691 30.2166 70.6304 29.1002 71.9528Z" fill="#83888E"/>
<path d="M38.2307 73.3258C39.3471 72.0053 38.3553 69.6695 38.3553 69.6695L38.3048 69.1673L37.8387 68.9777C37.8387 68.9777 35.8787 67.3681 34.2963 68.0672C32.7138 68.7663 34.448 71.5157 33.7904 72.0089C33.1329 72.5002 33.3931 72.8471 33.3931 72.8471C33.3931 72.8471 33.6513 73.1921 34.3089 72.7008C34.9628 72.2076 37.1143 74.6463 38.2307 73.3258Z" fill="#83888E"/>
<path d="M32.9783 77.2148C34.3006 78.3312 36.6345 77.3395 36.6345 77.3395L37.1367 77.2889L37.3265 76.8228C37.3265 76.8228 38.936 74.8628 38.2369 73.2804C37.5378 71.6979 34.7883 73.4321 34.2952 72.7746C33.8038 72.117 33.457 72.3753 33.457 72.3753C33.457 72.3753 33.112 72.6337 33.6033 73.2912C34.0965 73.947 31.6559 76.0985 32.9783 77.2148Z" fill="#090A08"/>
<path d="M33.1595 73.0187C32.9771 72.7749 33.0258 72.428 33.2714 72.2456C33.5153 72.0631 33.8622 72.1119 34.0447 72.3576C34.2271 72.6014 34.1783 72.9483 33.9326 73.1307C33.6888 73.3132 33.342 73.2626 33.1595 73.0187Z" fill="#B7B7B7"/>
<path d="M31.9947 58.0539C30.8928 57.1236 28.9455 57.951 28.9455 57.951L28.5264 57.9943L28.3674 58.3827C28.3674 58.3827 27.0252 60.0175 27.6069 61.338C28.1903 62.6568 30.4827 61.2116 30.8946 61.759C31.3047 62.3063 31.5937 62.0913 31.5937 62.0913C31.5937 62.0913 31.8828 61.8746 31.4709 61.3272C31.0627 60.7781 33.0967 58.9861 31.9947 58.0539Z" fill="#090A08"/>
<path d="M28.2675 61.3274C27.507 62.2288 28.1826 63.8203 28.1826 63.8203L28.2169 64.1617L28.5349 64.2918C28.5349 64.2918 29.8716 65.3901 30.9501 64.9132C32.0285 64.4363 30.8471 62.5612 31.2951 62.2252C31.7431 61.8892 31.5661 61.6544 31.5661 61.6544C31.5661 61.6544 31.389 61.4177 30.941 61.7537C30.493 62.0897 29.028 60.426 28.2675 61.3274Z" fill="#83888E"/>
<path d="M34.4923 62.2631C35.2528 61.3617 34.5772 59.7702 34.5772 59.7702L34.5428 59.4288L34.225 59.2987C34.225 59.2987 32.8881 58.2004 31.8097 58.6773C30.7312 59.1542 31.9127 61.0293 31.4647 61.3653C31.0167 61.7013 31.1937 61.9361 31.1937 61.9361C31.1937 61.9361 31.3707 62.1728 31.8187 61.8368C32.2649 61.5008 33.7318 63.1645 34.4923 62.2631Z" fill="#B7B7B7"/>
<path d="M30.911 64.9147C31.8124 65.6753 33.4039 64.9997 33.4039 64.9997L33.7453 64.9653L33.8754 64.6474C33.8754 64.6474 34.9737 63.3106 34.4968 62.2322C34.0199 61.1537 32.1447 62.3351 31.8087 61.8871C31.4727 61.4391 31.2379 61.6162 31.2379 61.6162C31.2379 61.6162 31.0013 61.7932 31.3373 62.2412C31.6733 62.6874 30.0096 64.1542 30.911 64.9147Z" fill="#090A08"/>
<path d="M31.035 62.0533C30.9103 61.8871 30.9446 61.6505 31.1108 61.5259C31.277 61.4012 31.5137 61.4355 31.6383 61.6017C31.763 61.7679 31.7286 62.0046 31.5625 62.1292C31.3963 62.2557 31.1596 62.2213 31.035 62.0533Z" fill="#B7B7B7"/>
<path d="M41.6464 68.4714C40.5444 67.5411 38.5971 68.3684 38.5971 68.3684L38.1779 68.4118L38.019 68.8002C38.019 68.8002 36.6768 70.435 37.2585 71.7555C37.842 73.0742 40.1343 71.6291 40.5443 72.1764C40.9544 72.7256 41.2435 72.5088 41.2435 72.5088C41.2435 72.5088 41.5325 72.292 41.1224 71.7447C40.7142 71.1955 42.7483 69.4017 41.6464 68.4714Z" fill="#090A08"/>
<path d="M37.9172 71.7449C37.1567 72.6463 37.8323 74.2378 37.8323 74.2378L37.8666 74.5792L38.1846 74.7093C38.1846 74.7093 39.5213 75.8076 40.5997 75.3307C41.6782 74.8538 40.4968 72.9787 40.9448 72.6427C41.3928 72.3067 41.2157 72.0718 41.2157 72.0718C41.2157 72.0718 41.0387 71.8352 40.5907 72.1712C40.1445 72.5072 38.6795 70.8435 37.9172 71.7449Z" fill="#83888E"/>
<path d="M44.1419 72.6804C44.9024 71.779 44.2268 70.1875 44.2268 70.1875L44.1925 69.8461L43.8746 69.716C43.8746 69.716 42.5378 68.6195 41.4593 69.0946C40.3809 69.5715 41.5623 71.4466 41.1143 71.7808C40.6663 72.1168 40.8433 72.3516 40.8433 72.3516C40.8433 72.3516 41.0204 72.5883 41.4684 72.2523C41.9146 71.9181 43.3814 73.58 44.1419 72.6804Z" fill="#83888E"/>
<path d="M40.5624 75.3322C41.4638 76.0927 43.0553 75.4171 43.0553 75.4171L43.3967 75.3828L43.5267 75.0649C43.5267 75.0649 44.6251 73.7281 44.1482 72.6497C43.6713 71.5712 41.7962 72.7526 41.4602 72.3046C41.1242 71.8566 40.8894 72.0337 40.8894 72.0337C40.8894 72.0337 40.6527 72.2107 40.9887 72.6587C41.3247 73.1049 39.6609 74.5699 40.5624 75.3322Z" fill="#090A08"/>
<path d="M40.6846 72.4709C40.56 72.3047 40.5944 72.0681 40.7606 71.9434C40.9268 71.8188 41.1634 71.8531 41.288 72.0193C41.4127 72.1855 41.3784 72.4221 41.2122 72.5468C41.046 72.6714 40.8092 72.6371 40.6846 72.4709Z" fill="#B7B7B7"/>
<path d="M48.3729 52.4158C47.271 51.4854 45.3237 52.3128 45.3237 52.3128L44.9045 52.3561L44.7456 52.7445C44.7456 52.7445 43.4034 54.3793 43.985 55.6999C44.5685 57.0186 46.8608 55.5734 47.2709 56.1208C47.681 56.6681 47.97 56.4532 47.97 56.4532C47.97 56.4532 48.259 56.2364 47.849 55.689C47.4389 55.1399 49.4749 53.3479 48.3729 52.4158Z" fill="#83888E"/>
<path d="M44.6437 55.6892C43.8832 56.5906 44.5588 58.1821 44.5588 58.1821L44.5931 58.5235L44.9111 58.6536C44.9111 58.6536 46.2478 59.7519 47.3263 59.275C48.4047 58.7981 47.2234 56.923 47.6714 56.587C48.1194 56.251 47.9423 56.0162 47.9423 56.0162C47.9423 56.0162 47.7652 55.7795 47.3172 56.1155C46.8711 56.4515 45.4043 54.7878 44.6437 55.6892Z" fill="#83888E"/>
<path d="M50.8684 56.6249C51.6289 55.7235 50.9533 54.132 50.9533 54.132L50.919 53.7906L50.6012 53.6605C50.6012 53.6605 49.2643 52.5622 48.1859 53.0391C47.1074 53.516 48.2907 55.3911 47.8409 55.7271C47.3929 56.0631 47.5699 56.2979 47.5699 56.2979C47.5699 56.2979 47.7469 56.5346 48.1949 56.1986C48.6411 55.8626 50.1079 57.5263 50.8684 56.6249Z" fill="#B7B7B7"/>
<path d="M47.2865 59.2766C48.1879 60.0371 49.7794 59.3615 49.7794 59.3615L50.1207 59.3272L50.2509 59.0092C50.2509 59.0092 51.3492 57.6725 50.8723 56.594C50.3954 55.5156 48.5203 56.6988 48.1843 56.249C47.8483 55.801 47.6134 55.978 47.6134 55.978C47.6134 55.978 47.3769 56.155 47.7129 56.603C48.0488 57.0492 46.3869 58.5161 47.2865 59.2766Z" fill="#83888E"/>
<path d="M47.4112 56.4152C47.2865 56.249 47.3209 56.0123 47.4871 55.8877C47.6533 55.763 47.89 55.7974 48.0146 55.9635C48.1392 56.1297 48.1049 56.3664 47.9387 56.491C47.7707 56.6157 47.5358 56.5832 47.4112 56.4152Z" fill="#505050"/>
<path d="M28.8981 63.2873C27.7961 62.357 25.8488 63.1844 25.8488 63.1844L25.4297 63.2277L25.2707 63.6161C25.2707 63.6161 23.9285 65.2509 24.5102 66.5715C25.0937 67.8902 27.3861 66.445 27.7962 66.9924C28.2062 67.5397 28.4952 67.3247 28.4952 67.3247C28.4952 67.3247 28.7842 67.108 28.3741 66.5606C27.9641 66.0115 30 64.2176 28.8981 63.2873Z" fill="#090A08"/>
<path d="M25.1689 66.5608C24.4084 67.4622 25.084 69.0537 25.084 69.0537L25.1183 69.3951L25.4363 69.5252C25.4363 69.5252 26.773 70.6235 27.8514 70.1466C28.9299 69.6697 27.7485 67.7946 28.1965 67.4586C28.6445 67.1226 28.4674 66.8878 28.4674 66.8878C28.4674 66.8878 28.2905 66.6511 27.8425 66.9871C27.3963 67.3231 25.9312 65.6594 25.1689 66.5608Z" fill="#4F5261"/>
<path d="M31.3937 67.4963C32.1542 66.5949 31.4786 65.0034 31.4786 65.0034L31.4442 64.662L31.1263 64.532C31.1263 64.532 29.7895 63.4354 28.711 63.9105C27.6326 64.3874 28.8158 66.2625 28.366 66.5985C27.918 66.9345 28.095 67.1694 28.095 67.1694C28.095 67.1694 28.2721 67.406 28.7201 67.07C29.1663 66.734 30.6332 68.3959 31.3937 67.4963Z" fill="#83888E"/>
<path d="M27.8114 70.1482C28.7128 70.9087 30.3043 70.2331 30.3043 70.2331L30.6458 70.1987L30.7758 69.8808C30.7758 69.8808 31.8741 68.544 31.3972 67.4656C30.9203 66.3871 29.0452 67.5686 28.711 67.1206C28.375 66.6726 28.1402 66.8496 28.1402 66.8496C28.1402 66.8496 27.9035 67.0266 28.2395 67.4746C28.5755 67.9208 26.9118 69.3858 27.8114 70.1482Z" fill="#83888E"/>
<path d="M27.9364 67.2867C27.8117 67.1205 27.846 66.8839 28.0122 66.7593C28.1784 66.6346 28.415 66.6689 28.5397 66.8351C28.6643 67.0013 28.63 67.238 28.4638 67.3626C28.2976 67.4873 28.061 67.4529 27.9364 67.2867Z" fill="#4F5261"/>
<path d="M41.958 56.7299C39.9926 55.0698 36.5206 56.5439 36.5206 56.5439L35.7745 56.6197L35.4909 57.3134C35.4909 57.3134 33.0973 60.229 34.136 62.5828C35.1747 64.9366 39.2645 62.357 39.998 63.3343C40.7296 64.3116 41.2444 63.9268 41.2444 63.9268C41.2444 63.9268 41.7593 63.542 41.0276 62.5648C40.2942 61.5875 43.9234 58.3901 41.958 56.7299Z" fill="#83888E"/>
<path d="M35.3105 62.5666C33.9538 64.1725 35.1588 67.0123 35.1588 67.0123L35.222 67.6229L35.7892 67.8541C35.7892 67.8541 38.1738 69.8105 40.0976 68.9614C42.0215 68.1124 39.9133 64.7669 40.7118 64.1689C41.512 63.571 41.1959 63.1501 41.1959 63.1501C41.1959 63.1501 40.8816 62.7292 40.0813 63.3271C39.281 63.9269 36.6671 60.9589 35.3105 62.5666Z" fill="#505050"/>
<path d="M46.4105 64.2355C47.7672 62.6296 46.5623 59.7899 46.5623 59.7899L46.5008 59.1793L45.9336 58.948C45.9336 58.948 43.549 56.9916 41.6252 57.8407C39.7013 58.6897 41.8095 62.0352 41.011 62.6332C40.2108 63.2311 40.5269 63.652 40.5269 63.652C40.5269 63.652 40.8412 64.0729 41.6415 63.475C42.4381 62.8753 45.0521 65.8414 46.4105 64.2355Z" fill="#505050"/>
<path d="M40.025 68.9633C41.6309 70.3199 44.4707 69.115 44.4707 69.115L45.0794 69.0518L45.3106 68.4846C45.3106 68.4846 47.267 66.1 46.418 64.1762C45.569 62.2523 42.2234 64.3622 41.6255 63.562C41.0275 62.7617 40.6067 63.0778 40.6067 63.0778C40.6067 63.0778 40.1857 63.3922 40.7837 64.1924C41.3852 64.9927 38.4172 67.6066 40.025 68.9633Z" fill="#83888E"/>
<path d="M40.244 63.8616C40.0218 63.5635 40.0815 63.1426 40.3795 62.9204C40.6758 62.6982 41.0985 62.7596 41.3207 63.0559C41.5429 63.3522 41.4833 63.7749 41.1852 63.997C40.8871 64.2192 40.4662 64.1596 40.244 63.8616Z" fill="#090A08"/>
<path d="M22.4412 77.856C20.9473 79.3536 21.9209 82.2999 21.9209 82.2999L21.9336 82.9159L22.4828 83.1959C22.4828 83.1959 24.7101 85.3564 26.7098 84.6627C28.7095 83.9709 26.8724 80.4429 27.7233 79.91C28.5741 79.3771 28.2941 78.9291 28.2941 78.9291C28.2941 78.9291 28.0122 78.4811 27.1614 79.014C26.3088 79.5487 23.9333 76.3585 22.4412 77.856Z" fill="#83888E"/>
<path d="M26.7721 83.6999C27.9969 84.9211 30.4066 84.1262 30.4066 84.1262L30.9107 84.1172L31.14 83.6674C31.14 83.6674 32.9049 81.8465 32.3395 80.2117C31.7741 78.5768 28.8892 80.0798 28.4539 79.3843C28.0185 78.6888 27.6518 78.9182 27.6518 78.9182C27.6518 78.9182 27.2851 79.1476 27.7223 79.8431C28.1558 80.5368 25.5473 82.4787 26.7721 83.6999Z" fill="#B7B7B7"/>
<path d="M28.8939 74.7146C27.6692 73.4935 25.2611 74.2901 25.2611 74.2901L24.7571 74.2992L24.5295 74.749C24.5295 74.749 22.7628 76.5698 23.33 78.2047C23.8955 79.8395 26.7804 78.3366 27.2157 79.032C27.6511 79.7275 28.0177 79.4981 28.0177 79.4981C28.0177 79.4981 28.3844 79.2687 27.9473 78.5732C27.5101 77.8777 30.1187 75.9358 28.8939 74.7146Z" fill="#B7B7B7"/>
<path d="M32.3356 80.2715C33.5568 79.0467 32.7601 76.6387 32.7601 76.6387L32.7511 76.1347L32.3012 75.9071C32.3012 75.9071 30.4804 74.1404 28.8455 74.7076C27.2107 75.273 28.7137 78.158 28.0182 78.5933C27.3227 79.0287 27.5521 79.3954 27.5521 79.3954C27.5521 79.3954 27.7815 79.7621 28.477 79.3249C29.1724 78.8878 31.1145 81.4963 32.3356 80.2715Z" fill="#83888E"/>
<path d="M28.1693 79.7438C27.911 79.9064 27.5696 79.8269 27.407 79.5685C27.2444 79.3102 27.3239 78.9688 27.5822 78.8062C27.8405 78.6436 28.1819 78.7213 28.3445 78.9815C28.5071 79.2416 28.4294 79.583 28.1693 79.7438Z" fill="#B7B7B7"/>
<path d="M26.7681 67.4022C26.8368 65.2869 24.1145 63.8002 24.1145 63.8002L23.6845 63.3576L23.0919 63.5292C23.0919 63.5292 19.9903 63.4732 19.0022 65.3429C18.0141 67.2143 21.7642 68.5367 21.5077 69.5067C21.2512 70.4768 21.7606 70.6123 21.7606 70.6123C21.7606 70.6123 22.2718 70.7477 22.5283 69.7777C22.7848 68.8076 26.6995 69.5176 26.7681 67.4022Z" fill="#838383"/>
<path d="M19.6132 66.0925C17.8844 66.0365 16.6687 68.2621 16.6687 68.2621L16.3074 68.6125L16.4465 69.0967C16.4465 69.0967 16.3995 71.6329 17.9296 72.4404C19.4596 73.2479 20.5399 70.1823 21.3348 70.3919C22.1296 70.6014 22.2397 70.1841 22.2397 70.1841C22.2397 70.1841 22.35 69.7668 21.5569 69.5555C20.7639 69.3441 21.342 66.1485 19.6132 66.0925Z" fill="#83888E"/>
<path d="M24.198 74.1039C25.9267 74.1599 27.1425 71.9344 27.1425 71.9344L27.5038 71.5839L27.3629 71.0998C27.3629 71.0998 27.4099 68.5636 25.8798 67.7561C24.3498 66.9486 23.2695 70.0141 22.4747 69.8046C21.6816 69.5932 21.5697 70.0123 21.5697 70.0123C21.5697 70.0123 21.4595 70.4296 22.2525 70.641C23.0491 70.8487 22.4692 74.0479 24.198 74.1039Z" fill="#83888E"/>
<path d="M17.8902 72.3969C17.8342 74.1257 20.0598 75.3414 20.0598 75.3414L20.4102 75.7027L20.8944 75.5618C20.8944 75.5618 23.4306 75.6088 24.2381 74.0787C25.0456 72.5487 21.98 71.4684 22.1896 70.6736C22.4009 69.8805 21.9818 69.7685 21.9818 69.7685C21.9818 69.7685 21.5645 69.6583 21.3531 70.4514C21.1454 71.248 17.9462 70.6682 17.8902 72.3969Z" fill="#838383"/>
<path d="M21.2938 69.9366C21.3715 69.6421 21.6749 69.4651 21.9693 69.5446C22.2638 69.6222 22.4409 69.9257 22.3614 70.2202C22.2837 70.5146 21.9802 70.6917 21.6858 70.6122C21.3913 70.5327 21.2161 70.231 21.2938 69.9366Z" fill="#090A08"/>
<path d="M46.6085 84.5727C48.7238 84.6504 50.2214 81.9335 50.2214 81.9335L50.6657 81.5054L50.4978 80.9129C50.4978 80.9129 50.5664 77.8112 48.7004 76.8158C46.8343 75.8205 45.4957 79.5652 44.5256 79.3051C43.5555 79.0432 43.4183 79.5544 43.4183 79.5544C43.4183 79.5544 43.281 80.0656 44.2511 80.3258C45.2175 80.5859 44.4931 84.4969 46.6085 84.5727Z" fill="#83888E"/>
<path d="M47.9474 77.4227C48.0106 75.694 45.7888 74.4692 45.7888 74.4692L45.4383 74.1061L44.9541 74.2434C44.9541 74.2434 42.4179 74.1874 41.605 75.7138C40.7902 77.2403 43.854 78.3332 43.6391 79.1262C43.4259 79.9192 43.8432 80.0313 43.8432 80.0313C43.8432 80.0313 44.2605 80.1432 44.4736 79.3502C44.6868 78.559 47.8841 79.1515 47.9474 77.4227Z" fill="#4F5261"/>
<path d="M39.9154 81.9769C39.8522 83.7057 42.0741 84.9304 42.0741 84.9304L42.4246 85.2935L42.9087 85.1562C42.9087 85.1562 45.4449 85.2123 46.2578 83.6858C47.0725 82.1594 44.0088 81.0664 44.2238 80.2734C44.4369 79.4804 44.0197 79.3684 44.0197 79.3684C44.0197 79.3684 43.6024 79.2564 43.3892 80.0494C43.1761 80.8406 39.9786 80.2481 39.9154 81.9769Z" fill="#4F5261"/>
<path d="M41.6509 75.6741C39.9221 75.6108 38.6973 77.8328 38.6973 77.8328L38.3342 78.1832L38.4715 78.6674C38.4715 78.6674 38.4155 81.2037 39.942 82.0184C41.4684 82.8331 42.5613 79.7693 43.3543 79.9843C44.1474 80.1974 44.2593 79.7801 44.2593 79.7801C44.2593 79.7801 44.3714 79.3629 43.5784 79.1497C42.7872 78.9347 43.3796 75.7373 41.6509 75.6741Z" fill="#83888E"/>
<path d="M44.0965 79.0883C44.3909 79.1677 44.5662 79.4712 44.4867 79.7657C44.4072 80.0601 44.1037 80.2354 43.8093 80.1559C43.5148 80.0764 43.3396 79.7729 43.4191 79.4785C43.4985 79.1822 43.8002 79.0088 44.0965 79.0883Z" fill="#4F5261"/>
<path d="M31.3785 85.3115C31.9006 87.3618 34.93 88.0338 34.93 88.0338L35.4665 88.3391L35.9886 88.0103C35.9886 88.0103 38.9837 87.2028 39.4136 85.1308C39.8435 83.0588 35.8711 82.8312 35.8494 81.8268C35.826 80.8224 35.2985 80.8351 35.2985 80.8351C35.2985 80.8351 34.7711 80.8477 34.7927 81.8503C34.8126 82.8547 30.8565 83.2612 31.3785 85.3115Z" fill="#505050"/>
<path d="M38.6152 84.5799C40.2916 84.1536 40.8407 81.6769 40.8407 81.6769L41.09 81.2398L40.8209 80.8134C40.8209 80.8134 40.1596 78.3639 38.467 78.0134C36.7726 77.663 36.5865 80.9092 35.7664 80.9272C34.9462 80.9453 34.9553 81.3788 34.9553 81.3788C34.9553 81.3788 34.9643 81.8106 35.7862 81.7925C36.6063 81.7727 36.9388 85.008 38.6152 84.5799Z" fill="#83888E"/>
<path d="M31.9819 78.1595C30.3055 78.5858 29.7564 81.0624 29.7564 81.0624L29.5071 81.4996L29.7762 81.9259C29.7762 81.9259 30.4373 84.3755 32.13 84.7259C33.8244 85.0764 34.0105 81.8302 34.8306 81.8121C35.6525 81.7941 35.6418 81.3605 35.6418 81.3605C35.6418 81.3605 35.6327 80.9288 34.8108 80.9468C33.9906 80.9667 33.6583 77.7332 31.9819 78.1595Z" fill="#83888E"/>
<path d="M38.5174 78.0458C38.0911 76.3694 35.6144 75.8202 35.6144 75.8202L35.1754 75.5709L34.7492 75.8401C34.7492 75.8401 32.2995 76.5013 31.9491 78.1939C31.5986 79.8884 34.8449 80.0744 34.8629 80.8945C34.881 81.7165 35.3127 81.7056 35.3127 81.7056C35.3127 81.7056 35.7444 81.6948 35.7264 80.8746C35.7101 80.0545 38.9455 79.7222 38.5174 78.0458Z" fill="#505050"/>
<path d="M35.9321 81.3554C35.9393 81.6607 35.6973 81.9136 35.392 81.9208C35.0867 81.928 34.8338 81.686 34.8266 81.3807C34.8193 81.0754 35.0614 80.8225 35.3667 80.8152C35.672 80.808 35.9267 81.0501 35.9321 81.3554Z" fill="#090A08"/>
<path d="M25.5113 63.099C27.6249 63.1767 29.1242 60.4598 29.1242 60.4598L29.5686 60.0317L29.4006 59.4392C29.4006 59.4392 29.4693 56.3375 27.6032 55.3421C25.7371 54.3468 24.3986 58.0915 23.4286 57.8314C22.4585 57.5695 22.3211 58.0807 22.3211 58.0807C22.3211 58.0807 22.1838 58.5919 23.1539 58.8521C24.1222 59.1122 23.3978 63.0213 25.5113 63.099Z" fill="#505050"/>
<path d="M26.8517 55.9491C26.9149 54.2203 24.6929 52.9956 24.6929 52.9956L24.3425 52.6325L23.8584 52.7698C23.8584 52.7698 21.3221 52.7138 20.5092 54.2402C19.6945 55.7666 22.7583 56.8596 22.5434 57.6526C22.3302 58.4456 22.7475 58.5576 22.7475 58.5576C22.7475 58.5576 23.1647 58.6696 23.3779 57.8766C23.5911 57.0835 26.7884 57.6779 26.8517 55.9491Z" fill="#83888E"/>
<path d="M18.8202 60.5032C18.7569 62.2319 20.9789 63.4567 20.9789 63.4567L21.3293 63.8198L21.8134 63.6825C21.8134 63.6825 24.3497 63.7385 25.1626 62.2121C25.9773 60.6856 22.9136 59.5927 23.1286 58.7997C23.3417 58.0066 22.9245 57.8947 22.9245 57.8947C22.9245 57.8947 22.5072 57.7827 22.294 58.5757C22.0809 59.3669 18.8834 58.7744 18.8202 60.5032Z" fill="#83888E"/>
<path d="M20.5557 54.2007C18.8269 54.1375 17.6021 56.3594 17.6021 56.3594L17.239 56.7099L17.3763 57.194C17.3763 57.194 17.3202 59.7302 18.8467 60.545C20.3731 61.3597 21.4661 58.2959 22.2591 58.5109C23.0521 58.724 23.1641 58.3068 23.1641 58.3068C23.1641 58.3068 23.2761 57.8895 22.4831 57.6763C21.69 57.4613 22.2844 54.2639 20.5557 54.2007Z" fill="#505050"/>
<path d="M22.9993 57.6146C23.2938 57.6941 23.469 57.9976 23.3895 58.2921C23.31 58.5865 23.0065 58.7617 22.7121 58.6823C22.4176 58.6028 22.2424 58.2993 22.3219 58.0048C22.4014 57.7086 22.7049 57.5351 22.9993 57.6146Z" fill="#B7B7B7"/>
<path d="M33.6902 58.5647C35.7713 58.9495 37.65 56.4801 37.65 56.4801L38.1522 56.1206L38.0709 55.51C38.0709 55.51 38.5911 52.4517 36.8895 51.1944C35.1878 49.9371 33.3181 53.447 32.3968 53.0478C31.4755 52.6486 31.266 53.1327 31.266 53.1327C31.266 53.1327 31.0547 53.6187 31.976 54.0179C32.8991 54.4171 31.611 58.1799 33.6902 58.5647Z" fill="#838383"/>
<path d="M36.0557 51.6859C36.37 49.9843 34.3503 48.4488 34.3503 48.4488L34.0577 48.0387L33.5573 48.1037C33.5573 48.1037 31.0572 47.6774 30.0293 49.0702C29.0015 50.4612 31.8719 51.9894 31.5449 52.7427C31.218 53.496 31.6135 53.6676 31.6135 53.6676C31.6135 53.6676 32.0092 53.8392 32.3361 53.0859C32.6649 52.3345 35.7413 53.3858 36.0557 51.6859Z" fill="#83888E"/>
<path d="M27.449 55.0207C27.1347 56.7223 29.1542 58.2578 29.1542 58.2578L29.447 58.6679L29.9473 58.6028C29.9473 58.6028 32.4474 59.0292 33.4753 57.6364C34.5032 56.2454 31.6327 54.7172 31.9597 53.9639C32.2867 53.2106 31.8893 53.039 31.8893 53.039C31.8893 53.039 31.4936 52.8674 31.1666 53.6206C30.8397 54.3721 27.7615 53.319 27.449 55.0207Z" fill="#83888E"/>
<path d="M30.0808 49.0378C28.3791 48.7234 26.8436 50.743 26.8436 50.743L26.4336 51.0357L26.4986 51.5361C26.4986 51.5361 26.0723 54.0362 27.4633 55.0641C28.8542 56.0919 30.3825 53.2215 31.1358 53.5485C31.8891 53.8754 32.0607 53.4798 32.0607 53.4798C32.0607 53.4798 32.2323 53.0842 31.4791 52.7572C30.7258 52.4303 31.7825 49.3521 30.0808 49.0378Z" fill="#838383"/>
<path d="M32.0051 52.7718C32.2851 52.8928 32.4134 53.218 32.2923 53.4998C32.1713 53.7798 31.8462 53.908 31.5662 53.787C31.2862 53.666 31.1579 53.3408 31.279 53.0608C31.4 52.779 31.7251 52.6507 32.0051 52.7718Z" fill="#090A08"/>
<path d="M54.0556 89.4858L53.9598 90.2192L47.6542 92.7573L44.6864 93.9514L36.952 97.0693C36.8942 96.8598 36.8364 96.6484 36.7822 96.4424L41.5345 94.5276L44.4986 93.3335L54.0556 89.4858Z" fill="#B7B7B7"/>
<path d="M53.7742 91.6445L53.6856 92.3147L44.6886 93.9532L41.5366 94.5295L36.5206 95.4417C36.4628 95.2286 36.4087 95.019 36.3545 94.8167L44.5026 93.3336L47.6582 92.7573L53.7742 91.6445Z" fill="#B7B7B7"/>
<path d="M43.2604 125.763C41.8911 126.502 40.5725 127.214 40.5399 128.913C40.5219 129.835 40.8885 130.48 41.4503 131L42.928 130.975C41.9507 130.429 41.0458 129.797 41.0566 128.904C41.0693 127.864 42.3265 127.177 43.4194 126.581C44.7779 125.841 46.0369 125.152 45.9557 123.606C45.878 122.121 44.6243 121.538 43.3201 120.931C42.3048 120.459 41.1704 119.932 41.1812 119.11C41.192 118.308 42.2958 117.777 43.2568 117.314C44.4545 116.738 45.5673 116.201 45.504 114.997C45.4426 113.833 44.3353 113.378 43.1792 112.903C42.2777 112.533 41.2697 112.117 41.2788 111.469C41.286 110.833 42.2705 110.408 43.1286 110.038C44.1998 109.575 45.1969 109.146 45.1464 108.179C45.0976 107.243 44.104 106.878 43.0671 106.495C42.2579 106.197 41.3492 105.863 41.3564 105.336C41.3636 104.819 42.2506 104.472 43.0256 104.169C43.9938 103.789 44.8971 103.437 44.8555 102.646C44.8158 101.878 43.9161 101.578 42.975 101.264C42.2397 101.018 41.4143 100.744 41.4197 100.308C41.4251 99.8802 42.2344 99.5912 42.9407 99.3383C43.824 99.0222 44.6496 98.7277 44.6153 98.0666C44.5809 97.4235 43.759 97.1742 42.8973 96.9122C42.2235 96.7063 41.4666 96.4769 41.4721 96.1102C41.4775 95.7489 42.2199 95.505 42.8685 95.29C43.6814 95.0227 44.4419 94.7716 44.4112 94.2116C44.4076 94.1303 44.3389 94.0671 44.2576 94.0689C44.1781 94.0707 44.1148 94.1357 44.1184 94.217C44.1347 94.5548 43.4158 94.7896 42.7763 94.9992C41.9598 95.2665 41.1776 95.5231 41.1668 96.1138C41.1541 96.7207 41.9543 96.9664 42.8106 97.2284C43.4952 97.4379 44.2774 97.6782 44.2955 98.0702C44.3136 98.4694 43.5332 98.7458 42.8377 98.9915C41.9489 99.3076 41.0981 99.6092 41.0855 100.31C41.071 101.033 41.9435 101.325 42.8793 101.64C43.6271 101.891 44.4834 102.18 44.5051 102.648C44.5268 103.125 43.6741 103.457 42.9118 103.751C41.9363 104.129 41.0042 104.49 40.9879 105.338C40.9717 106.21 41.9309 106.568 42.9624 106.951C43.7879 107.258 44.7327 107.61 44.7598 108.181C44.7869 108.764 43.8439 109.167 43.0021 109.527C41.9236 109.987 40.8904 110.43 40.8705 111.47C40.8488 112.547 41.9164 112.991 43.0635 113.467C43.983 113.85 45.0398 114.288 45.0723 114.998C45.1048 115.725 44.0553 116.227 43.1141 116.675C41.9074 117.251 40.7495 117.802 40.7242 119.114C40.6971 120.476 41.8983 121.041 43.1917 121.65C44.2304 122.137 45.4263 122.701 45.4679 123.61C45.5148 124.545 44.3262 125.187 43.2604 125.763Z" fill="#B7B7B7"/>
<path d="M44.0224 97.1903C44.5914 97.4017 45.2562 97.6473 45.3158 98.1242C45.379 98.6246 44.7449 99.0238 44.1668 99.3869C43.4099 99.8638 42.6657 100.332 42.6621 101.358C42.6585 102.481 43.5003 102.904 44.4288 103.372C45.1911 103.755 46.0853 104.205 46.1919 105.056C46.3057 105.962 45.4656 106.68 44.6889 107.339C43.8886 108.02 43.0938 108.699 42.7759 109.891L43.372 109.855C43.726 109.21 44.3258 108.683 44.8605 108.211C45.8595 107.334 46.7573 106.546 46.5442 105.021C46.3527 103.65 45.4241 103.197 44.4794 102.734C43.7604 102.382 42.971 101.997 42.9638 101.329C42.9584 100.697 43.67 100.238 44.2788 99.8476C45.0195 99.3707 45.6951 98.9371 45.5776 98.1007C45.4693 97.3294 44.7792 97.0783 44.0675 96.8218C43.5219 96.6249 42.9186 96.4063 42.9149 96.0089C42.9113 95.6277 43.4696 95.3423 43.9483 95.0966C44.5372 94.7931 45.0773 94.5167 45.0032 93.9893C44.9924 93.9152 44.9382 93.8592 44.8804 93.8646C44.8226 93.87 44.7847 93.9333 44.7937 94.0073C44.8335 94.3235 44.3258 94.58 43.8651 94.813C43.2672 95.1147 42.6838 95.4109 42.682 96.0306C42.6802 96.6917 43.3215 96.9302 44.0224 97.1903Z" fill="#B7B7B7"/>
</svg>
