<svg width="10" height="10" viewBox="0 0 10 10" fill="none" xmlns="http://www.w3.org/2000/svg">
<path d="M2.64874 5.31246L4.03337 6.6971C4.09106 6.75478 4.12057 6.8273 4.12191 6.91464C4.12325 7.00197 4.09373 7.07582 4.03337 7.13618C3.97301 7.19655 3.89983 7.22673 3.81382 7.22673C3.72782 7.22673 3.65464 7.19655 3.59428 7.13618L1.72169 5.26359C1.68269 5.22459 1.65518 5.18346 1.63915 5.14019C1.62313 5.09693 1.61511 5.05019 1.61511 4.99997C1.61511 4.94976 1.62313 4.90302 1.63915 4.85975C1.65518 4.81648 1.68269 4.77535 1.72169 4.73636L3.59428 2.86376C3.65197 2.80607 3.72448 2.77655 3.81182 2.77522C3.89916 2.77388 3.97301 2.80339 4.03337 2.86376C4.09373 2.92412 4.12391 2.9973 4.12391 3.0833C4.12391 3.1693 4.09373 3.24248 4.03337 3.30285L2.64874 4.68748H8.22887C8.31755 4.68748 8.3918 4.71739 8.45162 4.77722C8.51146 4.83705 8.54137 4.9113 8.54137 4.99997C8.54137 5.08864 8.51146 5.16289 8.45162 5.22272C8.3918 5.28255 8.31755 5.31246 8.22887 5.31246H2.64874Z" fill="#EC407D" fill-opacity="0.8"/>
</svg>
