<svg width="76" height="27" viewBox="0 0 76 27" fill="none" xmlns="http://www.w3.org/2000/svg">
<path d="M38.6383 10.3488C38.6193 10.3181 38.6616 7.19066 38.6616 7.19066L46.454 2.35913L46.4053 5.58521L38.6372 10.348L38.6383 10.3488Z" fill="#AD5A86"/>
<path d="M41.3061 9.40723C44.3351 12.0488 43.1936 16.7255 39.9786 18.2159C39.11 18.7188 37.7833 18.6315 35.327 18.6334L35.2927 13.3871C35.4198 14.0262 35.4126 15.4263 36.1248 15.7865C36.1248 15.7865 37.1373 15.7892 37.7989 15.7895C38.3472 15.774 38.8741 15.5742 39.2943 15.2227C39.7146 14.8711 40.0036 14.3883 40.1144 13.8525C40.2253 13.3166 40.1516 12.7592 39.9052 12.2703C39.6588 11.7815 39.2542 11.39 38.7569 11.1592C38.5481 11.0738 38.6356 10.9774 38.7851 10.8935L41.3061 9.40723Z" fill="#AD5A86"/>
<path d="M39.0919 23.1487L42.9016 23.1529L47.4418 17.828L45.2206 15.9303L40.1767 21.8545C39.6037 22.4819 39.0916 23.1484 39.0916 23.1484L39.0919 23.1487Z" fill="#AD5A86"/>
<path d="M52.1547 7.14661L49.2631 9.62044L49.3095 18.6349C49.3095 18.6349 52.2349 18.6633 52.2349 18.6185C52.2349 18.5806 52.1935 11.5394 52.1775 8.83328C52.2022 7.98463 52.155 7.14661 52.155 7.14661H52.1547Z" fill="#AD5A86"/>
<path d="M32.6162 12.4906C34.4424 13.2576 33.9151 15.7148 31.7727 15.6973H26.8763C26.5864 16.6329 25.7985 18.6198 25.7985 18.6198C25.7985 18.6198 30.6864 18.6528 31.7719 18.6122C34.3024 18.6122 35.8293 17.1525 36.3798 14.9193L36.4289 14.7413C36.9163 12.149 35.6299 11.1421 34.4885 10.3788L32.6162 12.4906Z" fill="#AD5A86"/>
<path d="M4.26639 7.02371L9.56601 7.00018C9.56601 7.00018 9.60215 9.72375 9.55725 9.72375L3.27563 9.69984C3.42364 9.29829 4.2116 7.16149 4.26487 7.02371H4.26639Z" fill="#AD5A86"/>
<path d="M21.1692 12.4754C22.9955 13.2424 22.4681 15.6995 20.3257 15.6821H15.9168C15.7165 16.2229 15.4183 16.7225 15.0371 17.1558V18.5981C15.0371 18.5981 18.9031 18.6505 20.3226 18.5981C22.8528 18.5981 24.38 17.1384 24.9306 14.9052L24.9796 14.7272C25.467 12.1349 24.1807 11.128 23.0392 10.3647L21.1692 12.4754Z" fill="#AD5A86"/>
<path d="M12.7866 12.4549C14.6129 13.2219 14.0825 15.6927 11.94 15.6753C11.5482 15.7026 1.06496 15.6821 1.06496 15.6821C0.73623 16.733 -0.000366211 18.5818 -0.000366211 18.5818C3.81236 18.578 7.99453 18.5894 11.94 18.5776C12.5835 18.6071 13.2257 18.4968 13.8222 18.2544C14.4187 18.0119 14.9552 17.643 15.3947 17.1733C15.788 16.7289 16.0963 16.2164 16.3045 15.6612C16.4021 15.4077 16.4834 15.1482 16.548 14.8843L16.597 14.7063C17.0844 12.114 15.798 11.1071 14.6566 10.3439L12.7866 12.4549Z" fill="#AD5A86"/>
<path d="M26.8927 20.4115L32.1923 20.388C32.1923 20.388 32.2285 23.1116 32.1836 23.1116L25.902 23.0877C26.05 22.6861 26.8379 20.5493 26.8912 20.4115H26.8927Z" fill="#AD5A86"/>
<path d="M19.5366 6.77625C19.7695 6.77346 20.0007 6.81688 20.2166 6.904C20.4325 6.99112 20.629 7.12019 20.7944 7.2837C20.9599 7.44722 21.0912 7.64193 21.1806 7.8565C21.27 8.07106 21.3157 8.30122 21.3151 8.53358C21.3145 8.76593 21.2676 8.99586 21.1772 9.20998C21.0867 9.42411 20.9545 9.61815 20.7882 9.78085C20.6219 9.94354 20.4248 10.0716 20.2085 10.1577C19.9921 10.2437 19.7607 10.286 19.5278 10.282C19.0662 10.2742 18.6262 10.0855 18.303 9.7567C17.9797 9.42789 17.7991 8.98539 17.8003 8.52485C17.8014 8.0643 17.9842 7.62271 18.3091 7.29551C18.634 6.96831 19.0749 6.78178 19.5366 6.77625Z" fill="#AD5A86"/>
<path fill-rule="evenodd" clip-rule="evenodd" d="M62.8984 12.8252C63.7013 12.6471 64.9926 11.6421 65.5616 10.0369C66.425 7.6004 65.6475 3.6834 61.8769 1.45378C61.7588 1.37371 61.62 1.32944 61.4773 1.32632C61.3345 1.3232 61.194 1.36137 61.0726 1.43621C57.2574 3.32445 57.2222 6.28664 57.4405 7.86719C57.694 9.09756 58.2172 10.1643 59.1452 10.7384C58.3992 9.36767 58.3408 8.94604 58.2639 8.01392C58.2552 6.91503 58.5595 5.83659 59.1415 4.9042C59.7236 3.97182 60.5592 3.22386 61.5513 2.74745C66.9415 5.91287 64.3727 11.7428 62.8984 12.8252Z" fill="#AD5A86" stroke="#AD5A86" stroke-width="1.16923"/>
<path fill-rule="evenodd" clip-rule="evenodd" d="M63.4669 13.5736C63.8984 14.2728 65.2733 15.1635 66.9807 15.1776C69.572 15.1986 73.0286 13.1901 73.906 8.90812C73.9432 8.77071 73.9397 8.62546 73.896 8.48991C73.8522 8.35435 73.7701 8.23428 73.6596 8.14418C69.9763 4.52775 66.3035 6.91558 65.8448 7.36177L65.8538 8.15908C65.8538 8.15908 69.402 5.95239 72.572 9.0218C71.3392 15.1378 64.9741 14.613 63.4669 13.5736Z" fill="#AD5A86" stroke="#AD5A86" stroke-width="1.16923"/>
<path fill-rule="evenodd" clip-rule="evenodd" d="M62.342 18.1444C63.1159 20.6123 66.0926 23.2841 70.446 22.8124C70.5886 22.8058 70.7261 22.7582 70.8421 22.6754C70.9581 22.5925 71.0475 22.4779 71.0997 22.3455C73.4217 17.7451 70.0191 14.9828 69.4519 14.6853L68.6915 14.9354C68.6915 14.9354 71.8847 17.6334 69.9279 21.5799C66.2192 21.994 64.2062 19.9483 63.2684 17.7756C62.8258 16.6958 62.0206 17.4792 62.342 18.1444Z" fill="#AD5A86" stroke="#AD5A86" stroke-width="1.16923"/>
<path fill-rule="evenodd" clip-rule="evenodd" d="M55.4429 20.6219C55.489 21.7667 55.7793 22.8888 56.2946 23.9132C56.3474 24.0456 56.4376 24.1599 56.554 24.2424C56.6705 24.325 56.8084 24.3721 56.9511 24.3783C62.0743 25.0746 63.579 20.9641 63.678 20.3315L63.19 19.6978C63.19 19.6978 61.6756 23.5885 57.2932 23.0245C56.7315 21.8444 56.5496 21.0612 56.5994 20.2151C56.6354 19.5781 55.5541 19.1691 55.4429 20.6219Z" fill="#AD5A86" stroke="#AD5A86" stroke-width="1.16993"/>
</svg>
