<svg width="40" height="40" viewBox="0 0 40 40" fill="none" xmlns="http://www.w3.org/2000/svg">
<rect width="40" height="40" rx="20" fill="white"/>
<path d="M27.4403 28.5C25.5557 28.5 23.6625 28.0618 21.7606 27.1855C19.8586 26.3092 18.1096 25.073 16.5135 23.4769C14.9237 21.8807 13.6907 20.1333 12.8144 18.2346C11.9381 16.3359 11.5 14.4442 11.5 12.5596C11.5 12.2596 11.6 12.008 11.8 11.8048C12 11.6016 12.25 11.5 12.55 11.5H15.8115C16.0641 11.5 16.2868 11.5824 16.4798 11.7471C16.6727 11.9119 16.7955 12.1154 16.848 12.3577L17.4211 15.3C17.4609 15.5731 17.4525 15.8077 17.3961 16.0038C17.3397 16.2 17.2384 16.3647 17.0923 16.4981L14.7827 18.7461C15.1545 19.4269 15.5791 20.0708 16.0567 20.6779C16.5343 21.2849 17.0513 21.8647 17.6077 22.4173C18.1564 22.966 18.7397 23.4756 19.3577 23.9462C19.9756 24.4167 20.6429 24.8545 21.3596 25.2596L23.6038 22.9962C23.7602 22.8333 23.9497 22.7192 24.1721 22.6539C24.3945 22.5885 24.6256 22.5724 24.8654 22.6058L27.6423 23.1712C27.8948 23.2378 28.1009 23.3667 28.2605 23.5577C28.4201 23.7487 28.5 23.9654 28.5 24.2077V27.45C28.5 27.75 28.3983 28 28.1951 28.2C27.9919 28.4 27.7403 28.5 27.4403 28.5Z" fill="#686C85"/>
</svg>
