<svg width="24" height="24" viewBox="0 0 24 24" fill="none" xmlns="http://www.w3.org/2000/svg">
<path d="M11.2596 20.5C11.4725 20.5 11.6507 20.4282 11.7942 20.2846C11.9378 20.141 12.0096 19.9628 12.0096 19.75C12.0096 19.5371 11.9378 19.3589 11.7942 19.2154C11.6507 19.0718 11.4725 19 11.2596 19H5.30775C5.23082 19 5.16029 18.9679 5.09618 18.9038C5.03207 18.8397 5.00002 18.7692 5.00002 18.6923V5.3077C5.00002 5.23077 5.03207 5.16024 5.09618 5.09613C5.16029 5.03203 5.23082 4.99998 5.30775 4.99998H11.2596C11.4725 4.99998 11.6507 4.92818 11.7942 4.7846C11.9378 4.64102 12.0096 4.46282 12.0096 4.25C12.0096 4.03718 11.9378 3.85898 11.7942 3.7154C11.6507 3.5718 11.4725 3.5 11.2596 3.5H5.30775C4.80262 3.5 4.37505 3.675 4.02505 4.025C3.67505 4.375 3.50005 4.80257 3.50005 5.3077V18.6923C3.50005 19.1974 3.67505 19.625 4.02505 19.975C4.37505 20.325 4.80262 20.5 5.30775 20.5H11.2596ZM11.9692 12.75H19.75C19.9628 12.75 20.141 12.6782 20.2846 12.5346C20.4282 12.391 20.5 12.2128 20.5 12C20.5 11.7872 20.4282 11.609 20.2846 11.4654C20.141 11.3218 19.9628 11.25 19.75 11.25H11.9692L13.8923 9.32693C14.0307 9.18846 14.1016 9.01955 14.1048 8.8202C14.108 8.62085 14.0371 8.44361 13.8923 8.28848C13.7474 8.13336 13.5718 8.05323 13.3654 8.0481C13.159 8.04297 12.9782 8.11797 12.8231 8.2731L9.72887 11.3673C9.54811 11.5481 9.45772 11.759 9.45772 12C9.45772 12.241 9.54811 12.4519 9.72887 12.6327L12.8231 15.7269C12.9718 15.8756 13.1484 15.949 13.3529 15.9471C13.5573 15.9451 13.7371 15.8666 13.8923 15.7115C14.0371 15.5563 14.107 15.3781 14.1019 15.1769C14.0968 14.9756 14.0218 14.8025 13.8769 14.6577L11.9692 12.75Z" fill="#686C85"/>
</svg>
