<svg width="8" height="9" viewBox="0 0 8 9" fill="none" xmlns="http://www.w3.org/2000/svg">
<path d="M3.99992 7.45542C3.69807 7.45542 3.41375 7.40574 3.14693 7.30638C2.88012 7.20702 2.63817 7.06845 2.42108 6.89068L1.84222 7.46119C1.79678 7.50735 1.73895 7.53043 1.66872 7.53043C1.5985 7.53043 1.54031 7.50735 1.49415 7.46119C1.448 7.41504 1.42493 7.35686 1.42493 7.28663C1.42493 7.2164 1.448 7.15857 1.49415 7.11313L2.06468 6.5426C1.8869 6.32551 1.74833 6.08219 1.64897 5.81263C1.54961 5.54307 1.49993 5.25734 1.49993 4.95543C1.49993 4.25752 1.74212 3.66637 2.22649 3.182C2.71087 2.69763 3.30201 2.45544 3.99992 2.45544H6.49991V4.95543C6.49991 5.65334 6.25772 6.24449 5.77334 6.72886C5.28897 7.21323 4.69783 7.45542 3.99992 7.45542ZM3.99992 6.95543C4.55547 6.95543 5.0277 6.76098 5.41658 6.37209C5.80547 5.98321 5.99992 5.51098 5.99992 4.95543V2.95543H3.99992C3.44436 2.95543 2.97214 3.14987 2.58325 3.53876C2.19436 3.92765 1.99992 4.39987 1.99992 4.95543C1.99992 5.18706 2.03753 5.40736 2.11274 5.61633C2.18795 5.82531 2.29244 6.01356 2.4262 6.18108L4.16082 4.44646C4.20626 4.40031 4.2641 4.37724 4.33432 4.37724C4.40455 4.37724 4.46306 4.40064 4.50986 4.44744C4.56092 4.4985 4.58645 4.55757 4.58645 4.62466C4.58645 4.69176 4.5606 4.75116 4.50888 4.80286L2.77427 6.53427C2.94179 6.66804 3.13004 6.77167 3.33902 6.84518C3.54799 6.91868 3.76829 6.95543 3.99992 6.95543Z" fill="#E8FFE2"/>
</svg>
