<svg width="276" height="276" viewBox="0 0 276 276" fill="none" xmlns="http://www.w3.org/2000/svg">
<g filter="url(#filter0_f_474_2322)">
<circle cx="138" cy="138" r="28" transform="rotate(-180 138 138)" fill="#D5AEE4"/>
</g>
<circle cx="138" cy="138" r="28" transform="rotate(-180 138 138)" fill="white"/>
<path d="M135.909 129.547L127.5 138L135.909 146.452C135.985 146.552 136.081 146.634 136.192 146.694C136.302 146.753 136.424 146.788 136.549 146.796C136.674 146.804 136.8 146.785 136.917 146.74C137.034 146.695 137.14 146.626 137.228 146.537C137.316 146.447 137.384 146.34 137.427 146.223C137.47 146.105 137.487 145.979 137.477 145.854C137.467 145.729 137.431 145.608 137.37 145.498C137.309 145.389 137.226 145.293 137.125 145.219L130.834 138.875L147.573 138.875C147.805 138.875 148.027 138.783 148.191 138.619C148.355 138.455 148.448 138.232 148.448 138C148.448 137.768 148.355 137.545 148.191 137.381C148.027 137.217 147.805 137.125 147.573 137.125L130.834 137.125L137.125 130.781C137.289 130.616 137.38 130.393 137.379 130.161C137.378 129.929 137.285 129.707 137.121 129.543C136.956 129.379 136.733 129.288 136.501 129.289C136.268 129.29 136.046 129.383 135.883 129.547L135.909 129.547Z" fill="#A85782"/>
<defs>
<filter id="filter0_f_474_2322" x="0" y="0" width="276" height="276" filterUnits="userSpaceOnUse" color-interpolation-filters="sRGB">
<feFlood flood-opacity="0" result="BackgroundImageFix"/>
<feBlend mode="normal" in="SourceGraphic" in2="BackgroundImageFix" result="shape"/>
<feGaussianBlur stdDeviation="55" result="effect1_foregroundBlur_474_2322"/>
</filter>
</defs>
</svg>
