<svg width="46" height="22" viewBox="0 0 46 22" fill="none" xmlns="http://www.w3.org/2000/svg">
<rect width="46" height="22" rx="5" fill="#A55A82"/>
<path d="M14.7756 11.5365H10.9286V9.94174H14.7756V11.5365ZM17.1903 15.353C17.1903 14.8174 17.1862 14.2757 17.1781 13.7278C17.174 13.1759 17.1578 12.6322 17.1294 12.0965C17.105 11.5568 17.0685 11.0272 17.0198 10.5078C16.9711 9.98841 16.9021 9.4913 16.8129 9.01652C16.7276 8.53768 16.6201 8.08725 16.4903 7.66522C16.3604 7.24319 16.2021 6.85768 16.0155 6.5087L17.5676 5.54087C17.7787 5.86956 17.9552 6.21449 18.0972 6.57565C18.2392 6.93681 18.3569 7.31217 18.4503 7.70174C18.5476 8.08725 18.6268 8.48493 18.6876 8.89478C18.7526 9.30058 18.8134 9.71449 18.8703 10.1365C18.9108 10.4612 18.9433 10.8122 18.9676 11.1896C18.992 11.567 19.0103 11.9504 19.0224 12.34C19.0387 12.7296 19.0488 13.1151 19.0529 13.4965C19.0569 13.878 19.059 14.2351 19.059 14.5678V15.353H17.1903ZM21.8382 11.6948C21.8382 11.8206 21.8606 11.9383 21.9052 12.0478C21.9539 12.1574 22.0188 12.2548 22.1 12.34C22.1852 12.4212 22.2826 12.4861 22.3922 12.5348C22.5017 12.5794 22.6194 12.6017 22.7452 12.6017C22.871 12.6017 22.9887 12.5794 23.0982 12.5348C23.2119 12.4861 23.3093 12.4212 23.3904 12.34C23.4756 12.2548 23.5426 12.1574 23.5913 12.0478C23.64 11.9383 23.6643 11.8206 23.6643 11.6948C23.6643 11.569 23.64 11.4513 23.5913 11.3417C23.5426 11.2281 23.4756 11.1307 23.3904 11.0496C23.3093 10.9643 23.2119 10.8974 23.0982 10.8487C22.9887 10.8 22.871 10.7757 22.7452 10.7757C22.6194 10.7757 22.5017 10.8 22.3922 10.8487C22.2826 10.8974 22.1852 10.9643 22.1 11.0496C22.0188 11.1307 21.9539 11.2281 21.9052 11.3417C21.8606 11.4513 21.8382 11.569 21.8382 11.6948ZM20.4687 11.6948C20.4687 11.3823 20.5275 11.0881 20.6452 10.8122C20.7669 10.5322 20.9293 10.2887 21.1322 10.0817C21.3391 9.87478 21.5806 9.71043 21.8565 9.5887C22.1324 9.46696 22.4287 9.40609 22.7452 9.40609C23.0577 9.40609 23.3519 9.46696 23.6278 9.5887C23.9078 9.71043 24.1513 9.87478 24.3582 10.0817C24.5652 10.2887 24.7295 10.5322 24.8513 10.8122C24.973 11.0881 25.0339 11.3823 25.0339 11.6948C25.0339 12.0113 24.973 12.3075 24.8513 12.5835C24.7295 12.8594 24.5652 13.1009 24.3582 13.3078C24.1513 13.5107 23.9078 13.673 23.6278 13.7948C23.3519 13.9125 23.0577 13.9713 22.7452 13.9713C22.4287 13.9713 22.1324 13.9125 21.8565 13.7948C21.5806 13.673 21.3391 13.5107 21.1322 13.3078C20.9293 13.1009 20.7669 12.8594 20.6452 12.5835C20.5275 12.3075 20.4687 12.0113 20.4687 11.6948ZM26.3154 6.95913C26.3154 6.35043 26.5122 5.85536 26.9058 5.47391C27.3035 5.09246 27.8229 4.90174 28.4641 4.90174C29.1174 4.90174 29.6409 5.09043 30.0345 5.46783C30.4322 5.84522 30.631 6.35449 30.631 6.99565V7.4887C30.631 8.10145 30.4322 8.59652 30.0345 8.97391C29.6409 9.34725 29.1235 9.53391 28.4823 9.53391C27.833 9.53391 27.3096 9.34522 26.9119 8.96783C26.5142 8.59043 26.3154 8.08319 26.3154 7.44609V6.95913ZM27.6241 7.4887C27.6241 7.76058 27.7032 7.97971 27.8615 8.14609C28.0197 8.31246 28.2267 8.39565 28.4823 8.39565C28.738 8.39565 28.9409 8.31246 29.091 8.14609C29.2412 7.97565 29.3162 7.74841 29.3162 7.46435V6.95913C29.3162 6.68725 29.2412 6.46812 29.091 6.30174C28.9409 6.1313 28.7319 6.04609 28.4641 6.04609C28.2165 6.04609 28.0136 6.12928 27.8554 6.29565C27.7012 6.46203 27.6241 6.69333 27.6241 6.98956V7.4887ZM31.0693 12.5591C31.0693 11.9423 31.2701 11.4472 31.6719 11.0739C32.0736 10.6965 32.593 10.5078 33.2301 10.5078C33.8794 10.5078 34.4029 10.6945 34.8006 11.0678C35.1983 11.4371 35.3971 11.9484 35.3971 12.6017V13.0948C35.3971 13.7035 35.2003 14.1965 34.8067 14.5739C34.4171 14.9472 33.8957 15.1339 33.2423 15.1339C32.589 15.1339 32.0635 14.9452 31.6658 14.5678C31.2681 14.1904 31.0693 13.6893 31.0693 13.0643V12.5591ZM32.3841 13.0948C32.3841 13.3423 32.4652 13.5554 32.6275 13.7339C32.7939 13.9125 32.9988 14.0017 33.2423 14.0017C33.7983 14.0017 34.0762 13.6933 34.0762 13.0765V12.5591C34.0762 12.2872 33.9991 12.0681 33.8449 11.9017C33.6907 11.7354 33.4858 11.6522 33.2301 11.6522C32.9745 11.6522 32.7696 11.7354 32.6154 11.9017C32.4612 12.0681 32.3841 12.2933 32.3841 12.5774V13.0948ZM28.8719 14.2574L27.9041 13.7339L32.7675 5.95478L33.7293 6.47826L28.8719 14.2574Z" fill="white"/>
</svg>
