<svg width="27" height="16" viewBox="0 0 27 16" fill="none" xmlns="http://www.w3.org/2000/svg">
<rect width="27" height="16" rx="2" fill="#A55A82"/>
<path d="M7.83969 8.52609H5.09186V7.38696H7.83969V8.52609ZM9.56447 11.2522C9.56447 10.8696 9.56157 10.4826 9.55577 10.0913C9.55288 9.6971 9.54128 9.3087 9.52099 8.92609C9.5036 8.54058 9.47751 8.16232 9.44273 7.7913C9.40795 7.42029 9.35867 7.06522 9.2949 6.72609C9.23404 6.38406 9.15722 6.06232 9.06447 5.76087C8.97172 5.45942 8.85867 5.18406 8.72534 4.93478L9.83404 4.24348C9.98476 4.47826 10.1108 4.72464 10.2123 4.98261C10.3137 5.24058 10.3978 5.5087 10.4645 5.78696C10.534 6.06232 10.5906 6.34638 10.634 6.63913C10.6804 6.92899 10.7239 7.22464 10.7645 7.52609C10.7935 7.75797 10.8166 8.0087 10.834 8.27826C10.8514 8.54783 10.8645 8.82174 10.8732 9.1C10.8848 9.37826 10.892 9.65362 10.8949 9.92609C10.8978 10.1986 10.8993 10.4536 10.8993 10.6913V11.2522H9.56447ZM12.8845 8.63913C12.8845 8.72899 12.9004 8.81304 12.9323 8.8913C12.9671 8.96957 13.0134 9.03913 13.0714 9.1C13.1323 9.15797 13.2019 9.20435 13.2801 9.23913C13.3584 9.27101 13.4424 9.28696 13.5323 9.28696C13.6221 9.28696 13.7062 9.27101 13.7845 9.23913C13.8656 9.20435 13.9352 9.15797 13.9932 9.1C14.054 9.03913 14.1019 8.96957 14.1366 8.8913C14.1714 8.81304 14.1888 8.72899 14.1888 8.63913C14.1888 8.54928 14.1714 8.46522 14.1366 8.38696C14.1019 8.3058 14.054 8.23623 13.9932 8.17826C13.9352 8.11739 13.8656 8.06957 13.7845 8.03478C13.7062 8 13.6221 7.98261 13.5323 7.98261C13.4424 7.98261 13.3584 8 13.2801 8.03478C13.2019 8.06957 13.1323 8.11739 13.0714 8.17826C13.0134 8.23623 12.9671 8.3058 12.9323 8.38696C12.9004 8.46522 12.8845 8.54928 12.8845 8.63913ZM11.9062 8.63913C11.9062 8.41594 11.9482 8.2058 12.0323 8.0087C12.1192 7.8087 12.2352 7.63478 12.3801 7.48696C12.5279 7.33913 12.7004 7.22174 12.8975 7.13478C13.0946 7.04783 13.3062 7.00435 13.5323 7.00435C13.7555 7.00435 13.9656 7.04783 14.1627 7.13478C14.3627 7.22174 14.5366 7.33913 14.6845 7.48696C14.8323 7.63478 14.9497 7.8087 15.0366 8.0087C15.1236 8.2058 15.1671 8.41594 15.1671 8.63913C15.1671 8.86522 15.1236 9.07681 15.0366 9.27391C14.9497 9.47101 14.8323 9.64348 14.6845 9.7913C14.5366 9.93623 14.3627 10.0522 14.1627 10.1391C13.9656 10.2232 13.7555 10.2652 13.5323 10.2652C13.3062 10.2652 13.0946 10.2232 12.8975 10.1391C12.7004 10.0522 12.5279 9.93623 12.3801 9.7913C12.2352 9.64348 12.1192 9.47101 12.0323 9.27391C11.9482 9.07681 11.9062 8.86522 11.9062 8.63913ZM16.0824 5.25652C16.0824 4.82174 16.223 4.46812 16.5041 4.19565C16.7882 3.92319 17.1592 3.78696 17.6172 3.78696C18.0839 3.78696 18.4578 3.92174 18.7389 4.1913C19.023 4.46087 19.165 4.82464 19.165 5.28261V5.63478C19.165 6.07246 19.023 6.42609 18.7389 6.69565C18.4578 6.96232 18.0882 7.09565 17.6302 7.09565C17.1665 7.09565 16.7925 6.96087 16.5085 6.6913C16.2244 6.42174 16.0824 6.05942 16.0824 5.60435V5.25652ZM17.0172 5.63478C17.0172 5.82899 17.0737 5.98551 17.1868 6.10435C17.2998 6.22319 17.4476 6.28261 17.6302 6.28261C17.8128 6.28261 17.9578 6.22319 18.065 6.10435C18.1723 5.98261 18.2259 5.82029 18.2259 5.61739V5.25652C18.2259 5.06232 18.1723 4.9058 18.065 4.78696C17.9578 4.66522 17.8085 4.60435 17.6172 4.60435C17.4404 4.60435 17.2954 4.66377 17.1824 4.78261C17.0723 4.90145 17.0172 5.06667 17.0172 5.27826V5.63478ZM19.4781 9.25652C19.4781 8.81594 19.6215 8.46232 19.9085 8.19565C20.1954 7.92609 20.5665 7.7913 21.0215 7.7913C21.4853 7.7913 21.8592 7.92464 22.1433 8.1913C22.4273 8.45507 22.5694 8.82029 22.5694 9.28696V9.63913C22.5694 10.0739 22.4288 10.4261 22.1476 10.6957C21.8694 10.9623 21.4969 11.0957 21.0302 11.0957C20.5636 11.0957 20.1882 10.9609 19.9041 10.6913C19.6201 10.4217 19.4781 10.0638 19.4781 9.61739V9.25652ZM20.4172 9.63913C20.4172 9.81594 20.4752 9.96812 20.5911 10.0957C20.7099 10.2232 20.8563 10.287 21.0302 10.287C21.4273 10.287 21.6259 10.0667 21.6259 9.62609V9.25652C21.6259 9.06232 21.5708 8.9058 21.4607 8.78696C21.3505 8.66812 21.2041 8.6087 21.0215 8.6087C20.8389 8.6087 20.6925 8.66812 20.5824 8.78696C20.4723 8.9058 20.4172 9.06667 20.4172 9.26957V9.63913ZM17.9085 10.4696L17.2172 10.0957L20.6911 4.53913L21.3781 4.91304L17.9085 10.4696Z" fill="white"/>
</svg>
