<svg width="24" height="24" viewBox="0 0 24 24" fill="none" xmlns="http://www.w3.org/2000/svg">
<path d="M12 11.3846C11.1692 11.3846 10.4615 11.0923 9.87692 10.5077C9.29231 9.9231 9 9.21541 9 8.38464C9 7.55386 9.29231 6.84616 9.87692 6.26154C10.4615 5.67692 11.1692 5.38461 12 5.38461C12.8308 5.38461 13.5385 5.67692 14.1231 6.26154C14.7077 6.84616 15 7.55386 15 8.38464C15 9.21541 14.7077 9.9231 14.1231 10.5077C13.5385 11.0923 12.8308 11.3846 12 11.3846ZM6.03845 18.6154C5.74487 18.6154 5.49839 18.5157 5.29902 18.3164C5.09967 18.117 5 17.8705 5 17.5769V16.9692C5 16.5564 5.12019 16.1702 5.36058 15.8106C5.60096 15.451 5.92436 15.1718 6.33078 14.9731C7.27436 14.5205 8.21858 14.1811 9.16345 13.9548C10.1083 13.7285 11.0539 13.6154 12 13.6154C12.9462 13.6154 13.8917 13.7285 14.8365 13.9548C15.7814 14.1811 16.7256 14.5205 17.6692 14.9731C18.0756 15.1718 18.399 15.451 18.6394 15.8106C18.8798 16.1702 19 16.5564 19 16.9692V17.5769C19 17.8705 18.9003 18.117 18.701 18.3164C18.5016 18.5157 18.2551 18.6154 17.9615 18.6154H6.03845Z" fill="#171E4C" fill-opacity="0.6"/>
</svg>
