<svg width="10" height="10" viewBox="0 0 5 5" fill="none" xmlns="http://www.w3.org/2000/svg">
<g clip-path="url(#clip0_742_7007)">
<path d="M1.82398 4.12707H3.12874C3.14329 4.12707 3.15619 4.12277 3.16743 4.11417C3.17868 4.10558 3.18628 4.094 3.19025 4.07945L3.40652 3.21833H1.5462L1.76247 4.07945C1.76644 4.094 1.77405 4.10558 1.78529 4.11417C1.79654 4.12277 1.80943 4.12707 1.82398 4.12707ZM1.82398 4.43659C1.73827 4.43659 1.66228 4.41033 1.59601 4.35782C1.52974 4.3053 1.48589 4.23725 1.46447 4.15365L1.22835 3.21833H3.72437L3.48826 4.15365C3.46683 4.23725 3.42298 4.3053 3.35671 4.35782C3.29045 4.41033 3.21445 4.43659 3.12874 4.43659H1.82398ZM1.1351 2.90882H3.82159C3.84011 2.90882 3.85533 2.90286 3.86723 2.89096C3.87914 2.87906 3.88509 2.86384 3.88509 2.84532V2.47628H1.0716V2.84532C1.0716 2.86384 1.07756 2.87906 1.08946 2.89096C1.10137 2.90286 1.11658 2.90882 1.1351 2.90882ZM2.47636 1.72033C2.48959 1.41346 2.60401 1.15221 2.81961 0.936608C3.03522 0.721 3.29646 0.607243 3.60334 0.595337C3.59143 0.874435 3.49375 1.11722 3.31028 1.3237C3.12682 1.53018 2.90043 1.6575 2.63112 1.70565V2.16676H4.19461V2.84532C4.19461 2.94823 4.15816 3.03613 4.08528 3.10901C4.0124 3.18189 3.9245 3.21833 3.82159 3.21833H1.1351C1.03219 3.21833 0.944295 3.18189 0.871409 3.10901C0.798526 3.03613 0.762085 2.94823 0.762085 2.84532V2.16676H2.32161V1.70565C2.0523 1.6575 1.82624 1.53051 1.64343 1.3247C1.46063 1.11888 1.36261 0.875759 1.34939 0.595337C1.65626 0.607243 1.9175 0.721 2.13311 0.936608C2.34872 1.15221 2.46313 1.41346 2.47636 1.72033Z" fill="#F2FFD8"/>
</g>
<defs>
<clipPath id="clip0_742_7007">
<rect width="4.95238" height="4.95238" fill="white"/>
</clipPath>
</defs>
</svg>
