<svg width="24" height="25" viewBox="0 0 24 25" fill="none" xmlns="http://www.w3.org/2000/svg">
<path d="M9.51928 16.1153C7.8116 16.1153 6.36546 15.523 5.18086 14.3384C3.99624 13.1538 3.40393 11.7077 3.40393 9.99999C3.40393 8.29231 3.99624 6.84616 5.18086 5.66154C6.36546 4.47694 7.8116 3.88464 9.51928 3.88464C11.227 3.88464 12.6731 4.47694 13.8577 5.66154C15.0423 6.84616 15.6347 8.29231 15.6347 9.99999C15.6347 10.7141 15.5148 11.3961 15.275 12.0461C15.0353 12.6961 14.7154 13.2615 14.3154 13.7423L20.0693 19.4961C20.2077 19.6346 20.2786 19.8087 20.2818 20.0183C20.285 20.2279 20.2141 20.4051 20.0693 20.55C19.9244 20.6948 19.7488 20.7673 19.5424 20.7673C19.336 20.7673 19.1603 20.6948 19.0155 20.55L13.2616 14.7961C12.7616 15.2089 12.1866 15.532 11.5366 15.7653C10.8866 15.9987 10.2141 16.1153 9.51928 16.1153ZM9.51928 14.6154C10.8077 14.6154 11.8991 14.1683 12.7933 13.274C13.6876 12.3798 14.1347 11.2885 14.1347 9.99999C14.1347 8.71153 13.6876 7.62018 12.7933 6.72594C11.8991 5.83171 10.8077 5.38459 9.51928 5.38459C8.23081 5.38459 7.13946 5.83171 6.24523 6.72594C5.35101 7.62018 4.90391 8.71153 4.90391 9.99999C4.90391 11.2885 5.35101 12.3798 6.24523 13.274C7.13946 14.1683 8.23081 14.6154 9.51928 14.6154Z" fill="#C5C8D4"/>
</svg>
