<svg width="24" height="24" viewBox="0 0 24 24" fill="none" xmlns="http://www.w3.org/2000/svg">
<path d="M7.3077 21.1154C6.8859 21.1154 6.53045 20.9708 6.24135 20.6817C5.95223 20.3926 5.80768 20.0372 5.80768 19.6154C5.80768 19.1936 5.95223 18.8382 6.24135 18.5491C6.53045 18.2599 6.8859 18.1154 7.3077 18.1154C7.72948 18.1154 8.08493 18.2599 8.37405 18.5491C8.66315 18.8382 8.8077 19.1936 8.8077 19.6154C8.8077 20.0372 8.66315 20.3926 8.37405 20.6817C8.08493 20.9708 7.72948 21.1154 7.3077 21.1154ZM16.6923 21.1154C16.2705 21.1154 15.9151 20.9708 15.626 20.6817C15.3369 20.3926 15.1923 20.0372 15.1923 19.6154C15.1923 19.1936 15.3369 18.8382 15.626 18.5491C15.9151 18.2599 16.2705 18.1154 16.6923 18.1154C17.1141 18.1154 17.4696 18.2599 17.7587 18.5491C18.0478 18.8382 18.1923 19.1936 18.1923 19.6154C18.1923 20.0372 18.0478 20.3926 17.7587 20.6817C17.4696 20.9708 17.1141 21.1154 16.6923 21.1154ZM5.3923 4.5H18.4116C18.8462 4.5 19.1731 4.67724 19.3923 5.03172C19.6115 5.38621 19.6231 5.75128 19.4269 6.12693L16.5692 11.3346C16.4244 11.5782 16.2362 11.7692 16.0048 11.9077C15.7734 12.0462 15.5192 12.1154 15.2423 12.1154H8.1L6.88463 14.3462C6.78206 14.5 6.77885 14.6667 6.875 14.8462C6.97115 15.0256 7.11538 15.1154 7.3077 15.1154H17.6923C17.8346 15.1154 17.9535 15.1631 18.049 15.2587C18.1446 15.3542 18.1923 15.4731 18.1923 15.6154C18.1923 15.7577 18.1446 15.8766 18.049 15.9721C17.9535 16.0676 17.8346 16.1154 17.6923 16.1154H7.3077C6.72437 16.1154 6.28911 15.8696 6.00192 15.3779C5.71474 14.8862 5.70769 14.3923 5.98078 13.8962L7.4846 11.2154L3.80768 3.5H2.5C2.35768 3.5 2.23877 3.45224 2.14325 3.35672C2.04775 3.26122 2 3.14232 2 3C2 2.85768 2.04775 2.73878 2.14325 2.64328C2.23878 2.54776 2.3577 2.5 2.5 2.5H3.9327C4.09038 2.5 4.23333 2.54038 4.36153 2.62115C4.48974 2.70192 4.58911 2.81474 4.65962 2.95963L5.3923 4.5Z" fill="#171E4C" fill-opacity="0.6"/>
</svg>
