<svg width="136" height="28" viewBox="0 0 136 28" fill="none" xmlns="http://www.w3.org/2000/svg">
<path d="M4.36047 10.3756C6.01709 9.97665 7.72778 9.80124 9.43709 9.82463C11.1437 9.86453 12.8673 10.1589 14.4514 10.8537L15.0419 11.1212C15.2335 11.221 15.4128 11.3448 15.5989 11.4556L16.1505 11.8008L16.6507 12.2191C16.8142 12.3621 16.9921 12.4908 17.1433 12.6476L17.5765 13.1415C17.7188 13.3135 17.8694 13.4558 18.0048 13.6526C18.1212 13.8445 18.2211 14.0419 18.3114 14.2455C18.4866 14.6534 18.6166 15.095 18.6193 15.5669C18.6289 16.0339 18.4448 16.545 18.0787 16.8711C17.7051 17.1937 17.3083 17.3918 16.8033 17.466C16.2907 17.5169 15.7892 17.27 15.4696 16.913C14.8052 16.1928 14.6574 15.1961 14.7525 14.3005C14.8661 13.3912 15.2568 12.5403 15.7994 11.8304C16.9038 10.4017 18.5003 9.50616 20.1213 8.90497C21.743 8.2969 23.4852 7.94815 25.2294 7.93714C26.9695 7.91101 28.6863 8.14213 30.3772 8.43997C33.7609 9.0556 37.0502 10.0035 40.3224 10.9575C43.5952 11.9136 46.8558 12.889 50.1437 13.7454C56.7065 15.4637 63.4199 16.7293 70.1805 16.7218C76.9411 16.7273 83.6545 15.4637 90.2174 13.7447C93.5053 12.8883 96.7652 11.9136 100.039 10.9575C103.311 10.0035 106.6 9.05285 109.984 8.4386C111.675 8.14075 113.392 7.90894 115.132 7.93577C116.876 7.94678 118.619 8.29552 120.24 8.90428C121.861 9.50547 123.458 10.4011 124.562 11.8304C125.105 12.541 125.496 13.3919 125.609 14.3012C125.704 15.1975 125.556 16.1935 124.892 16.9151C124.572 17.2728 124.07 17.5197 123.557 17.4688C123.052 17.3945 122.655 17.1964 122.281 16.8738C121.915 16.5471 121.73 16.0353 121.74 15.5682C121.743 15.0964 121.873 14.6548 122.048 14.2469C122.139 14.0426 122.239 13.8458 122.355 13.6532C122.49 13.4565 122.641 13.3141 122.783 13.1422L123.216 12.6483C123.368 12.4915 123.546 12.3635 123.709 12.2198L124.21 11.8015L124.761 11.4562C124.948 11.3455 125.127 11.2217 125.318 11.1219L125.909 10.8543C127.493 10.1596 129.217 9.86591 130.923 9.82532C132.633 9.80262 134.343 9.97802 136 10.377C134.332 10.0289 132.622 9.90649 130.929 9.98078C129.239 10.0613 127.546 10.3914 126.02 11.1034L125.453 11.3757C125.269 11.4769 125.099 11.6014 124.922 11.7121L124.397 12.0567L123.925 12.4708C123.771 12.6118 123.602 12.7384 123.461 12.8911L123.061 13.3705C122.934 13.5294 122.778 13.6904 122.675 13.8465C122.574 14.0219 122.484 14.209 122.406 14.3982C122.094 15.137 122.002 16.0566 122.584 16.5443C122.848 16.7761 123.261 16.9584 123.597 16.9935C123.944 17.0176 124.281 16.8525 124.525 16.5704C125.028 16.0085 125.172 15.1487 125.073 14.3693C124.962 13.5769 124.608 12.8237 124.107 12.186C123.09 10.9032 121.582 10.0695 120.021 9.51716C118.444 8.95243 116.794 8.64633 115.129 8.65872C113.459 8.65596 111.785 8.9029 110.13 9.21931C106.815 9.87553 103.555 10.8571 100.29 11.8139C97.0259 12.7838 93.7598 13.7771 90.4562 14.6534C83.8612 16.4116 77.0725 17.7309 70.1826 17.7529C63.2933 17.7288 56.504 16.4109 49.909 14.6527C46.6053 13.7764 43.3393 12.7831 40.0753 11.8132C36.8093 10.8564 33.5501 9.87209 30.2355 9.21725C28.5796 8.90153 26.9052 8.6539 25.2355 8.65665C23.57 8.64427 21.9209 8.95036 20.343 9.5151C18.7822 10.0674 17.2747 10.9011 16.2572 12.1847C15.7563 12.8223 15.4019 13.5755 15.291 14.3686C15.1911 15.1487 15.3355 16.0085 15.8384 16.5711C16.0827 16.8532 16.4201 17.0182 16.7677 16.9942C17.1037 16.9591 17.517 16.7761 17.7811 16.5443C18.3641 16.0559 18.271 15.1356 17.959 14.3968C17.8803 14.2077 17.7907 14.0206 17.6901 13.8452C17.5867 13.689 17.4307 13.5281 17.3041 13.3692L16.9032 12.8897C16.7622 12.7363 16.5932 12.6105 16.4399 12.4695L15.9678 12.0554L15.4423 11.7107C15.265 11.5993 15.0946 11.4755 14.9113 11.3744L14.3433 11.102C12.8181 10.3901 11.1252 10.0606 9.43502 9.98008C7.73803 9.90511 6.02804 10.0276 4.36047 10.3756Z" fill="#282F39"/>
<path d="M73.2555 14.1128C72.5089 14.1444 69.2744 15.1741 70.3323 16.3689C70.8455 16.9481 71.5551 16.5244 72.0005 16.1041C72.2215 15.8943 73.1651 14.1162 73.2555 14.1128Z" fill="#C3D6D4" stroke="#282F39" stroke-width="0.513204" stroke-miterlimit="10" stroke-linecap="round" stroke-linejoin="round"/>
<path d="M69.3963 13.1931C68.9946 13.5507 68.6408 13.9745 68.4287 14.4697C68.0968 15.2429 68.4787 17.7646 69.7576 16.7637C70.7155 16.0126 69.9649 13.9538 69.3963 13.1931Z" fill="#C3CAC8" stroke="#282F39" stroke-width="0.513204" stroke-miterlimit="10" stroke-linecap="round" stroke-linejoin="round"/>
<path d="M66.2048 14.725C66.1337 14.7023 66.224 15.5656 66.2465 15.6419C66.3369 15.9439 66.5025 16.2238 66.7057 16.4618C66.9835 16.7872 67.9846 17.6346 68.4314 17.3079C69.4934 16.5327 66.6982 14.8832 66.2048 14.725Z" fill="#C3CAC8" stroke="#282F39" stroke-width="0.513204" stroke-miterlimit="10" stroke-linecap="round" stroke-linejoin="round"/>
<path d="M72.9128 26.1117C72.6411 26.142 72.3524 26.1406 72.1183 26.283C71.9384 26.3931 71.8159 26.5739 71.6715 26.728C71.5278 26.8828 71.3342 27.0204 71.1248 26.9977C70.9133 26.9743 70.7532 26.7947 70.6472 26.6097C70.3461 26.0842 70.3187 25.4053 70.5944 24.866C70.8709 24.3267 71.4484 23.9518 72.0513 23.9401C72.6288 23.9291 73.2973 24.3088 73.584 24.8227C73.9228 25.428 73.5738 26.0374 72.9128 26.1117Z" fill="#D3ADDC" stroke="#282F39" stroke-width="0.513204" stroke-miterlimit="10" stroke-linecap="round" stroke-linejoin="round"/>
<path d="M70.7582 25.6171C70.4516 25.8916 70.0356 25.9975 69.6359 26.0945C68.9503 26.2609 68.264 26.4281 67.5783 26.5945C67.4032 26.6372 67.2143 26.6785 67.0473 26.6104C66.8804 26.5416 66.7743 26.3786 66.6861 26.2204C66.3911 25.6935 66.1742 25.0703 66.3398 24.489C66.4794 24 66.866 23.6237 67.2677 23.3142C68.0498 22.7116 69.0906 22.2562 70.0068 22.6229C71.2358 23.116 71.879 24.6114 70.7582 25.6171Z" fill="#E4D2E8" stroke="#282F39" stroke-width="0.513204" stroke-miterlimit="10" stroke-linecap="round" stroke-linejoin="round"/>
<path d="M76.3548 22.8086C76.3555 23.1924 76.231 23.5941 75.9408 23.8438C75.6001 24.1368 75.1088 24.1671 74.7139 24.3817C74.4197 24.542 74.1884 24.7999 73.8976 24.965C73.2215 25.3475 72.2937 25.1205 71.8024 24.5172C71.3104 23.914 71.2501 23.0177 71.5772 22.3106C71.9043 21.6034 72.577 21.0896 73.3208 20.8688C73.6615 20.767 74.0235 20.7223 74.3752 20.7739C75.4926 20.9362 76.3528 21.6495 76.3548 22.8086Z" fill="#E4D2E8" stroke="#282F39" stroke-width="0.513204" stroke-miterlimit="10" stroke-linecap="round" stroke-linejoin="round"/>
<path d="M75.6308 20.3351C75.8244 21.0037 75.8524 21.7383 75.5938 22.3842C75.3351 23.0301 74.7617 23.5673 74.0768 23.6718C73.3952 23.7757 72.7117 23.46 72.024 23.504C70.3318 23.6127 69.1507 25.8063 67.4804 25.5153C66.7557 25.3894 66.1885 24.7937 65.8594 24.132C65.3489 23.1064 65.3037 21.858 65.7403 20.7987C66.2282 19.6142 67.2614 18.7234 68.4042 18.1538C69.7193 17.4983 71.3657 16.8249 72.7801 17.4034C74.1137 17.9502 75.2147 18.9002 75.6308 20.3351Z" fill="#E3DAE6" stroke="#282F39" stroke-width="0.513204" stroke-miterlimit="10" stroke-linecap="round" stroke-linejoin="round"/>
<path d="M71.4766 22.2157C71.1673 22.314 70.845 22.3794 70.5549 22.5252C70.2196 22.6938 69.9445 22.9593 69.64 23.1787C69.3355 23.3981 68.9722 23.5783 68.5999 23.5316C68.2605 23.4896 67.9697 23.2647 67.7398 23.0102C67.1089 22.3113 66.8174 21.3153 66.9721 20.3846C67.1267 19.4533 67.7241 18.6072 68.5472 18.1525C68.7327 18.05 68.9359 17.9647 69.148 17.9647C69.38 17.9647 69.5996 18.0672 69.8042 18.1766C70.9976 18.8142 74.2198 21.3449 71.4766 22.2157Z" fill="#E3DAE6" stroke="#282F39" stroke-width="0.513204" stroke-miterlimit="10" stroke-linecap="round" stroke-linejoin="round"/>
<path d="M67.9779 21.2066C67.0945 22.1744 66.1495 23.1753 65.8197 24.4464C65.7642 24.661 65.6253 24.9444 65.4166 24.8715C65.3749 24.8571 65.34 24.8289 65.3065 24.8C64.4573 24.0771 64.0837 22.8795 64.2233 21.77C64.3629 20.6598 64.9705 19.6438 65.7786 18.8741C66.4328 18.2516 68.7593 16.7342 69.6612 17.6304C70.5576 18.5212 68.526 20.6068 67.9779 21.2066Z" fill="#E3DAE6" stroke="#282F39" stroke-width="0.513204" stroke-miterlimit="10" stroke-linecap="round" stroke-linejoin="round"/>
<path d="M70.682 19.1458C71.1083 19.6541 71.7023 20.0531 72.3612 20.1122C72.7951 20.1507 73.2405 20.0441 73.6627 20.1521C74.1595 20.2793 74.5324 20.679 74.9457 20.9844C75.359 21.2898 75.9352 21.5079 76.3711 21.2368C76.8165 20.9596 76.8713 20.3248 76.7625 19.8096C76.4251 18.2041 74.8903 16.9377 73.2583 16.9185C72.8368 16.9137 72.4174 16.9824 72.0034 17.0602C71.5949 17.1365 70.3071 17.1929 70.0477 17.5575C69.7275 18.008 70.3796 18.7853 70.682 19.1458Z" fill="#E3DAE6" stroke="#282F39" stroke-width="0.513204" stroke-miterlimit="10" stroke-linecap="round" stroke-linejoin="round"/>
<path d="M57.3847 6.4768C57.6523 6.5339 57.926 6.62677 58.1922 6.56555C58.3974 6.51809 58.5706 6.38532 58.7553 6.28421C58.9401 6.18309 59.1673 6.11363 59.3588 6.20098C59.5525 6.28972 59.6476 6.5112 59.6907 6.72031C59.8118 7.31462 59.6257 7.96809 59.1946 8.39181C58.7635 8.81622 58.0977 8.98956 57.5216 8.81003C56.9701 8.63806 56.4541 8.06576 56.3433 7.48727C56.2119 6.80561 56.734 6.33786 57.3847 6.4768Z" fill="#E5CCEB" stroke="#282F39" stroke-width="0.513204" stroke-miterlimit="10" stroke-linecap="round" stroke-linejoin="round"/>
<path d="M59.2753 7.62823C59.6523 7.46452 60.0807 7.49547 60.4899 7.52986C61.1933 7.58902 61.8961 7.64748 62.5995 7.70595C62.7788 7.72109 62.9711 7.74103 63.1079 7.85866C63.2448 7.97628 63.2947 8.16476 63.3289 8.34292C63.4439 8.93654 63.4548 9.59619 63.1154 10.0956C62.8301 10.5159 62.345 10.7504 61.8673 10.9169C60.936 11.2415 59.8056 11.344 59.0509 10.7064C58.0381 9.85069 57.8958 8.22736 59.2753 7.62823Z" fill="#D3ADDC" stroke="#282F39" stroke-width="0.513204" stroke-miterlimit="10" stroke-linecap="round" stroke-linejoin="round"/>
<path d="M53.0835 8.52313C53.2032 8.15856 53.4468 7.81669 53.8006 7.67156C54.2159 7.50097 54.6915 7.62823 55.1335 7.54912C55.4627 7.48997 55.7631 7.31869 56.0908 7.25403C56.8524 7.10477 57.6619 7.61379 57.9397 8.34154C58.2176 9.06929 57.9945 9.94011 57.4628 10.5076C56.9311 11.0751 56.1312 11.3495 55.3559 11.3248C55.0001 11.3131 54.6429 11.2416 54.3254 11.0813C53.3154 10.5723 52.7222 9.6237 53.0835 8.52313Z" fill="#D3ADDC" stroke="#282F39" stroke-width="0.513204" stroke-miterlimit="10" stroke-linecap="round" stroke-linejoin="round"/>
<path d="M52.9958 11.0992C53.0211 10.4038 53.225 9.69663 53.6725 9.16561C54.1201 8.63458 54.8324 8.30578 55.5153 8.4234C56.1948 8.54034 56.7449 9.05624 57.4114 9.23233C59.0516 9.6643 60.8594 7.95635 62.3539 8.76046C63.0026 9.1092 63.3543 9.85415 63.4597 10.586C63.6232 11.721 63.2749 12.9199 62.5291 13.788C61.6956 14.7579 60.4359 15.2765 59.1727 15.4554C57.7186 15.6617 55.9457 15.7794 54.7845 14.7833C53.689 13.843 52.9417 12.5932 52.9958 11.0992Z" fill="#E4D2E8" stroke="#282F39" stroke-width="0.513204" stroke-miterlimit="10" stroke-linecap="round" stroke-linejoin="round"/>
<path d="M57.5277 10.6287C57.8521 10.6335 58.1784 10.6727 58.5001 10.6267C58.8709 10.573 59.2151 10.4079 59.573 10.2958C59.9309 10.1837 60.3318 10.128 60.6706 10.2896C60.9798 10.4368 61.1851 10.7422 61.324 11.0566C61.7045 11.9198 61.6689 12.9571 61.2303 13.7915C60.7917 14.6266 59.9596 15.2408 59.0365 15.4121C58.8278 15.4506 58.6088 15.4671 58.4077 15.3997C58.1873 15.3261 58.0115 15.1596 57.8507 14.9911C56.918 14.0095 54.6517 10.5874 57.5277 10.6287Z" fill="#E4D2E8" stroke="#282F39" stroke-width="0.513204" stroke-miterlimit="10" stroke-linecap="round" stroke-linejoin="round"/>
<path d="M60.533 12.6936C61.675 12.0546 62.8848 11.4032 63.5958 10.3013C63.7155 10.1156 63.9365 9.88994 64.1117 10.0248C64.1466 10.0516 64.1712 10.0894 64.1938 10.1272C64.7734 11.0827 64.7536 12.3367 64.2732 13.3464C63.7928 14.3555 62.8978 15.128 61.8899 15.6026C61.0742 15.9864 58.3905 16.6901 57.815 15.5544C57.2437 14.4264 59.8248 13.0899 60.533 12.6936Z" fill="#E4D2E8" stroke="#282F39" stroke-width="0.513204" stroke-miterlimit="10" stroke-linecap="round" stroke-linejoin="round"/>
<path d="M57.3204 13.7943C57.0747 13.1766 56.6361 12.6105 56.0292 12.3456C55.6296 12.1716 55.1731 12.1324 54.8064 11.8958C54.3746 11.6172 54.1461 11.1206 53.8498 10.6996C53.5528 10.2786 53.0745 9.8893 52.5757 10.009C52.0659 10.1307 51.8154 10.7168 51.7573 11.2396C51.5746 12.8705 52.6352 14.5578 54.1782 15.0923C54.5771 15.2305 54.9959 15.2972 55.414 15.355C55.8259 15.4114 57.0658 15.7664 57.4258 15.5022C57.8712 15.1762 57.4949 14.2324 57.3204 13.7943Z" fill="#E4D2E8" stroke="#282F39" stroke-width="0.513204" stroke-miterlimit="10" stroke-linecap="round" stroke-linejoin="round"/>
<path d="M53.6013 18.1428C54.3321 18.299 57.72 18.1084 56.9905 16.6873C56.6367 15.9981 55.8444 16.2313 55.3086 16.5278C55.0431 16.675 53.6896 18.1621 53.6013 18.1428Z" fill="#C3D6D4" stroke="#282F39" stroke-width="0.513204" stroke-miterlimit="10" stroke-linecap="round" stroke-linejoin="round"/>
<path d="M57.7603 20.2827C58.1641 19.9271 58.5192 19.5047 58.7341 19.0109C59.0694 18.2398 58.6991 15.7153 57.4161 16.7107C56.454 17.4563 57.1951 19.5185 57.7603 20.2827Z" fill="#C3CAC8" stroke="#282F39" stroke-width="0.513204" stroke-miterlimit="10" stroke-linecap="round" stroke-linejoin="round"/>
<path d="M61.6134 18.795C61.6873 18.8067 61.4683 17.9668 61.4341 17.8953C61.2993 17.6112 61.094 17.3587 60.8566 17.1544C60.5329 16.8751 59.4155 16.1894 59.0228 16.5801C58.0908 17.508 61.1016 18.7138 61.6134 18.795Z" fill="#C3CAC8" stroke="#282F39" stroke-width="0.513204" stroke-miterlimit="10" stroke-linecap="round" stroke-linejoin="round"/>
<path d="M83.8128 6.41898C83.5452 6.47607 83.2715 6.56894 83.0053 6.50772C82.8001 6.46026 82.6269 6.32749 82.4422 6.22638C82.2574 6.12526 82.0302 6.05579 81.8386 6.14384C81.645 6.23257 81.5499 6.45406 81.5068 6.66317C81.385 7.25748 81.5718 7.91095 82.0029 8.33536C82.434 8.75976 83.0998 8.93311 83.6759 8.75358C84.2274 8.58161 84.7434 8.00931 84.8542 7.43082C84.9856 6.74778 84.4635 6.27934 83.8128 6.41898Z" fill="#E5CCEB" stroke="#282F39" stroke-width="0.513204" stroke-miterlimit="10" stroke-linecap="round" stroke-linejoin="round"/>
<path d="M81.9226 7.56976C81.5456 7.40605 81.1172 7.437 80.708 7.47139C80.0046 7.52986 79.3019 7.58902 78.5984 7.64749C78.4191 7.66262 78.2269 7.68257 78.09 7.8002C77.9531 7.91782 77.9032 8.10698 77.869 8.28444C77.754 8.87807 77.7431 9.53772 78.0825 10.0371C78.3678 10.4574 78.853 10.692 79.3306 10.8584C80.2619 11.1831 81.3923 11.2856 82.1471 10.6479C83.1591 9.79292 83.3014 8.16957 81.9226 7.56976Z" fill="#D3ADDC" stroke="#282F39" stroke-width="0.513204" stroke-miterlimit="10" stroke-linecap="round" stroke-linejoin="round"/>
<path d="M88.1141 8.46468C87.9944 8.10011 87.7508 7.75825 87.397 7.61312C86.9817 7.44253 86.5061 7.56979 86.0641 7.49068C85.7349 7.43153 85.4345 7.26025 85.1068 7.19559C84.3452 7.04632 83.5357 7.55534 83.2579 8.28309C82.98 9.01084 83.2031 9.88167 83.7348 10.4492C84.2665 11.0166 85.0664 11.2911 85.8417 11.2663C86.1975 11.2546 86.5547 11.1831 86.8722 11.0228C87.8822 10.5145 88.4754 9.56525 88.1141 8.46468Z" fill="#D3ADDC" stroke="#282F39" stroke-width="0.513204" stroke-miterlimit="10" stroke-linecap="round" stroke-linejoin="round"/>
<path d="M88.2015 11.0414C88.1762 10.346 87.9723 9.63955 87.5248 9.10784C87.0773 8.57681 86.365 8.24801 85.6821 8.36563C85.0026 8.48257 84.4524 8.99847 83.7859 9.17456C82.1457 9.60653 80.3379 7.89858 78.8434 8.70269C78.1948 9.05143 77.8437 9.79637 77.7377 10.5283C77.5741 11.6632 77.9224 12.8622 78.6683 13.7302C79.5017 14.7001 80.7615 15.2188 82.0246 15.3976C83.4787 15.604 85.2516 15.7216 86.4128 14.7256C87.5084 13.7853 88.2556 12.5354 88.2015 11.0414Z" fill="#E4D2E8" stroke="#282F39" stroke-width="0.513204" stroke-miterlimit="10" stroke-linecap="round" stroke-linejoin="round"/>
<path d="M83.6697 10.5708C83.3454 10.5756 83.019 10.6149 82.6974 10.5688C82.3265 10.5151 81.9823 10.35 81.6245 10.2379C81.2666 10.1258 80.8656 10.0701 80.5269 10.2317C80.2176 10.3789 80.0123 10.6843 79.8734 10.9987C79.4929 11.8619 79.5285 12.8992 79.9672 13.7336C80.4058 14.5687 81.2372 15.1829 82.1609 15.3542C82.3696 15.3927 82.5886 15.4092 82.7898 15.3418C83.0101 15.2682 83.186 15.1018 83.3468 14.9332C84.2794 13.951 86.5464 10.5296 83.6697 10.5708Z" fill="#E3DAE6" stroke="#282F39" stroke-width="0.513204" stroke-miterlimit="10" stroke-linecap="round" stroke-linejoin="round"/>
<path d="M80.665 12.6358C79.5229 11.9968 78.3131 11.3454 77.6022 10.2435C77.4824 10.0571 77.2614 9.83212 77.0862 9.96694C77.0513 9.99376 77.0267 10.0316 77.0041 10.0694C76.4245 11.0249 76.4444 12.2788 76.9248 13.2886C77.4051 14.2977 78.2995 15.0708 79.3081 15.5448C80.1237 15.9286 82.8074 16.6323 83.3822 15.4966C83.9536 14.3686 81.3725 13.032 80.665 12.6358Z" fill="#E3DAE6" stroke="#282F39" stroke-width="0.513204" stroke-miterlimit="10" stroke-linecap="round" stroke-linejoin="round"/>
<path d="M83.877 13.7358C84.1226 13.1181 84.5612 12.552 85.1682 12.2871C85.5678 12.1131 86.0242 12.0739 86.391 11.8373C86.8228 11.5587 87.0513 11.0621 87.3476 10.6411C87.6439 10.2201 88.1229 9.8308 88.6217 9.95048C89.1315 10.0722 89.3819 10.6583 89.4401 11.1818C89.6228 12.8127 88.5622 14.5 87.0191 15.0344C86.6202 15.1727 86.2014 15.2394 85.7834 15.2972C85.3714 15.3536 84.1315 15.7085 83.7716 15.4444C83.3268 15.1177 83.7025 14.1739 83.877 13.7358Z" fill="#E3DAE6" stroke="#282F39" stroke-width="0.513204" stroke-miterlimit="10" stroke-linecap="round" stroke-linejoin="round"/>
<path d="M87.596 18.0851C86.8652 18.2412 83.4774 18.0507 84.2069 16.6296C84.5606 15.9404 85.353 16.1735 85.8888 16.47C86.155 16.6165 87.5078 18.1037 87.596 18.0851Z" fill="#C3D6D4" stroke="#282F39" stroke-width="0.513204" stroke-miterlimit="10" stroke-linecap="round" stroke-linejoin="round"/>
<path d="M83.437 20.2243C83.0333 19.8687 82.6782 19.4463 82.4633 18.9525C82.128 18.1814 82.4982 15.6569 83.7812 16.6523C84.7433 17.3986 84.0022 19.4608 83.437 20.2243Z" fill="#C3CAC8" stroke="#282F39" stroke-width="0.513204" stroke-miterlimit="10" stroke-linecap="round" stroke-linejoin="round"/>
<path d="M79.5839 18.7372C79.51 18.7489 79.7289 17.909 79.7631 17.8375C79.8979 17.5534 80.1032 17.3017 80.3407 17.0967C80.6636 16.8174 81.7817 16.1316 82.1738 16.5223C83.1065 17.4502 80.0957 18.6561 79.5839 18.7372Z" fill="#C3CAC8" stroke="#282F39" stroke-width="0.513204" stroke-miterlimit="10" stroke-linecap="round" stroke-linejoin="round"/>
<path d="M111.818 9.94974C109.818 10.5757 110.224 12.4872 110.602 13.3877C111.06 14.4765 111.382 15.2806 111.382 15.2806C111.382 15.2806 111.891 14.5157 112.52 13.5163C113.039 12.6908 113.689 10.8962 111.818 9.94974Z" fill="#C3CAC8" stroke="#282F39" stroke-width="0.513204" stroke-miterlimit="10" stroke-linecap="round" stroke-linejoin="round"/>
<path d="M111.415 15.0763C111.276 14.2179 111.263 13.3526 111.307 12.49C111.336 12.0594 111.375 11.6274 111.457 11.2003C111.537 10.7745 111.632 10.3453 111.819 9.94974C111.728 10.8102 111.7 11.6556 111.649 12.5099C111.591 13.3629 111.543 14.2172 111.415 15.0763Z" fill="#282F39"/>
<path d="M107.768 9.42632C108.448 9.22891 109.166 9.19314 109.872 9.23922C110.58 9.28118 111.282 9.42563 111.959 9.6485C112.631 9.87962 113.288 10.174 113.877 10.5757C114.478 10.9547 115.006 11.4438 115.455 11.9858C114.823 11.6639 114.238 11.32 113.617 11.0449C113.007 10.756 112.382 10.5083 111.745 10.3013C110.472 9.86931 109.157 9.60448 107.768 9.42632Z" fill="#282F39"/>
<path d="M114.58 11.611C117.069 10.5985 118.211 12.8257 118.564 14.0274C118.99 15.4809 119.321 16.5409 119.321 16.5409C119.321 16.5409 118.198 16.1983 116.768 15.7203C115.585 15.3261 113.489 14.0777 114.58 11.611Z" fill="#C3CAC8" stroke="#282F39" stroke-width="0.513204" stroke-miterlimit="10" stroke-linecap="round" stroke-linejoin="round"/>
<path d="M119.123 16.3662C118.331 15.5944 117.598 14.7807 116.853 13.9786L115.741 12.7742C115.366 12.3766 114.989 11.9824 114.58 11.6117C115.073 11.8669 115.506 12.2218 115.924 12.5836C116.343 12.9454 116.729 13.3417 117.104 13.7461C117.845 14.5633 118.537 15.4245 119.123 16.3662Z" fill="#282F39"/>
<path d="M128.063 10.2091C130.097 10.7105 130.731 8.86227 130.869 7.89445C131.036 6.7244 131.173 5.86871 131.173 5.86871C131.173 5.86871 130.344 6.2601 129.293 6.79044C128.424 7.22792 126.946 8.42823 128.063 10.2091Z" fill="#C3CAC8" stroke="#282F39" stroke-width="0.513204" stroke-miterlimit="10" stroke-linecap="round" stroke-linejoin="round"/>
<path d="M131.04 6.02625C130.718 6.83379 130.285 7.5815 129.805 8.29825C129.56 8.65249 129.304 9.00192 129.015 9.32522C128.728 9.64851 128.427 9.96768 128.063 10.2091C128.582 9.5192 129.04 8.81001 129.523 8.10358C130.009 7.40265 130.489 6.69622 131.04 6.02625Z" fill="#282F39"/>
<path d="M91.2958 13.4331C92.8901 12.4659 94.4578 11.5435 95.9413 10.4835C97.4357 9.43866 98.8241 8.27206 100.223 7.03735C99.2347 8.62975 97.8572 9.96076 96.3341 11.0462C94.7985 12.1179 93.1009 12.964 91.2958 13.4331Z" fill="#282F39"/>
<path d="M99.3906 7.95218C102.56 8.5348 103.365 5.63822 103.489 4.13938C103.64 2.32688 103.773 1 103.773 1C103.773 1 102.536 1.67685 100.969 2.58758C99.6739 3.34147 97.513 5.31975 99.3906 7.95218Z" fill="#C3D6D4" stroke="#282F39" stroke-width="0.513204" stroke-miterlimit="10" stroke-linecap="round" stroke-linejoin="round"/>
<path d="M103.581 1.25519C103.097 2.49196 102.486 3.66957 101.813 4.81004C101.471 5.37683 101.114 5.93675 100.713 6.46709C100.315 6.99674 99.8985 7.52226 99.3907 7.95217C99.7931 7.42596 100.147 6.87361 100.497 6.31713L101.52 4.63256C102.201 3.50723 102.861 2.36883 103.581 1.25519Z" fill="#282F39"/>
<path d="M95.3589 11.873C95.9604 14.3514 98.291 14.0026 99.4029 13.6112C100.748 13.138 101.74 12.8078 101.74 12.8078C101.74 12.8078 100.858 12.1309 99.7033 11.2911C98.7488 10.5963 96.6392 9.66979 95.3589 11.873Z" fill="#C3CAC8" stroke="#282F39" stroke-width="0.513204" stroke-miterlimit="10" stroke-linecap="round" stroke-linejoin="round"/>
<path d="M101.495 12.7513C100.454 12.8263 99.4132 12.7706 98.38 12.6509C97.864 12.5849 97.3481 12.5051 96.841 12.3799C96.3347 12.2561 95.8249 12.1165 95.3589 11.873C95.8694 11.9803 96.3784 12.0511 96.8889 12.1192L98.4224 12.3091C99.4447 12.4418 100.47 12.5594 101.495 12.7513Z" fill="#282F39"/>
<path d="M95.0721 11.417C97.3056 10.205 96.3798 8.02654 95.7215 7.04427C94.9257 5.85634 94.3564 4.97519 94.3564 4.97519C94.3564 4.97519 93.928 6.00423 93.4121 7.33937C92.9858 8.44407 92.6279 10.7305 95.0721 11.417Z" fill="#C3CAC8" stroke="#282F39" stroke-width="0.513204" stroke-miterlimit="10" stroke-linecap="round" stroke-linejoin="round"/>
<path d="M94.3639 5.22693C94.6999 6.22088 94.9093 7.24716 95.0557 8.2817C95.1228 8.80035 95.1768 9.32175 95.1843 9.84727C95.1932 10.3707 95.1878 10.9017 95.0721 11.4169C95.0461 10.8935 94.9859 10.3804 94.9223 9.86721L94.717 8.32847C94.5849 7.30012 94.4385 6.27316 94.3639 5.22693Z" fill="#282F39"/>
<path d="M29.0429 9.94977C31.043 10.5757 30.6372 12.4873 30.2588 13.3877C29.8017 14.4766 29.4795 15.2807 29.4795 15.2807C29.4795 15.2807 28.9704 14.5158 28.3415 13.5163C27.8222 12.6909 27.1714 10.8963 29.0429 9.94977Z" fill="#C3CAC8" stroke="#282F39" stroke-width="0.513204" stroke-miterlimit="10" stroke-linecap="round" stroke-linejoin="round"/>
<path d="M29.446 15.0764C29.318 14.2166 29.2694 13.363 29.2126 12.51C29.162 11.655 29.1332 10.8103 29.0422 9.9498C29.2297 10.3453 29.3242 10.7752 29.4042 11.2003C29.4863 11.6275 29.5253 12.0588 29.5541 12.4901C29.5979 13.3526 29.5849 14.218 29.446 15.0764Z" fill="#282F39"/>
<path d="M33.0922 9.4263C31.7038 9.60446 30.388 9.86928 29.1159 10.3019C28.4789 10.509 27.8541 10.7566 27.2438 11.0455C26.6231 11.3207 26.0381 11.6646 25.4065 11.9865C25.8554 11.4445 26.3829 10.9554 26.9844 10.5764C27.5729 10.1747 28.2291 9.88028 28.9018 9.64916C29.5785 9.4263 30.2806 9.28186 30.9888 9.2399C31.6943 9.19312 32.4121 9.22889 33.0922 9.4263Z" fill="#282F39"/>
<path d="M26.2811 11.6109C23.7924 10.5984 22.6497 12.8257 22.2973 14.0274C21.871 15.4808 21.5398 16.5408 21.5398 16.5408C21.5398 16.5408 22.6634 16.1983 24.0935 15.7202C25.2766 15.3261 27.3719 14.0776 26.2811 11.6109Z" fill="#C3CAC8" stroke="#282F39" stroke-width="0.513204" stroke-miterlimit="10" stroke-linecap="round" stroke-linejoin="round"/>
<path d="M21.7383 16.3662C22.324 15.4252 23.0158 14.5633 23.7562 13.7454C24.1312 13.341 24.5178 12.9447 24.9372 12.5829C25.3546 12.2211 25.7871 11.8662 26.2812 11.611C25.8713 11.9817 25.4949 12.3759 25.1199 12.7735L24.008 13.9779C23.2628 14.78 22.5307 15.5937 21.7383 16.3662Z" fill="#282F39"/>
<path d="M6.26821 10.0378C5.76664 12.0821 3.84384 11.7891 2.92691 11.4637C1.8184 11.0696 1 10.7951 1 10.7951C1 10.7951 1.72943 10.2387 2.68399 9.54806C3.47296 8.97645 5.21648 8.21636 6.26821 10.0378Z" fill="#C3CAC8" stroke="#282F39" stroke-width="0.513204" stroke-miterlimit="10" stroke-linecap="round" stroke-linejoin="round"/>
<path d="M1.20117 10.749C2.04693 10.5695 2.89201 10.4691 3.73572 10.3618C4.58148 10.26 5.41902 10.1809 6.2682 10.0378C5.88706 10.2496 5.46556 10.37 5.04815 10.4753C4.62938 10.5833 4.20308 10.6486 3.77677 10.7029C2.92212 10.7979 2.06199 10.8364 1.20117 10.749Z" fill="#282F39"/>
<path d="M12.7975 10.2091C10.7632 10.7105 10.1295 8.86227 9.99132 7.89445C9.82435 6.7244 9.6875 5.86871 9.6875 5.86871C9.6875 5.86871 10.5161 6.2601 11.5672 6.79044C12.4369 7.22792 13.9156 8.42823 12.7975 10.2091Z" fill="#C3CAC8" stroke="#282F39" stroke-width="0.513204" stroke-miterlimit="10" stroke-linecap="round" stroke-linejoin="round"/>
<path d="M9.82166 6.02621C10.3718 6.69619 10.8522 7.40262 11.338 8.10355C11.8204 8.80929 12.2782 9.51848 12.7976 10.2091C12.4342 9.96765 12.1331 9.64848 11.8457 9.32519C11.5563 9.00189 11.3011 8.65246 11.0554 8.29822C10.5764 7.58216 10.1433 6.83376 9.82166 6.02621Z" fill="#282F39"/>
<path d="M49.1041 13.4331C47.299 12.9646 45.6014 12.1179 44.0658 11.0462C42.5427 9.96076 41.1652 8.62975 40.1771 7.03735C41.5765 8.27275 42.9642 9.43935 44.4586 10.4835C45.9421 11.5435 47.5098 12.4659 49.1041 13.4331Z" fill="#282F39"/>
<path d="M41.0093 7.95221C37.8398 8.53483 37.0351 5.63826 36.9105 4.13941C36.7607 2.32691 36.6279 1.00003 36.6279 1.00003C36.6279 1.00003 37.8651 1.67688 39.4314 2.58761C40.726 3.3415 42.887 5.31978 41.0093 7.95221Z" fill="#C3D6D4" stroke="#282F39" stroke-width="0.513204" stroke-miterlimit="10" stroke-linecap="round" stroke-linejoin="round"/>
<path d="M36.8188 1.25522C37.5394 2.36817 38.199 3.50726 38.8806 4.63259L39.9035 6.31716C40.2532 6.87295 40.607 7.42599 41.0093 7.9522C40.5016 7.52229 40.0849 6.99677 39.6866 6.46712C39.2863 5.93678 38.9298 5.37686 38.587 4.81007C37.913 3.6696 37.3033 2.49199 36.8188 1.25522Z" fill="#282F39"/>
<path d="M45.0409 11.8731C44.4394 14.3514 42.1088 14.0027 40.9969 13.6113C39.6523 13.138 38.6608 12.8078 38.6608 12.8078C38.6608 12.8078 39.5421 12.131 40.6972 11.2911C41.651 10.5964 43.7606 9.66985 45.0409 11.8731Z" fill="#C3CAC8" stroke="#282F39" stroke-width="0.513204" stroke-miterlimit="10" stroke-linecap="round" stroke-linejoin="round"/>
<path d="M38.9037 12.7514C39.9294 12.5595 40.9545 12.4419 41.9774 12.3098L43.5102 12.12C44.0207 12.0519 44.5298 11.981 45.0402 11.8737C44.5742 12.1172 44.0645 12.2569 43.5581 12.3807C43.0504 12.5065 42.5344 12.5857 42.0192 12.6517C40.9859 12.77 39.9458 12.8264 38.9037 12.7514Z" fill="#282F39"/>
<path d="M45.3277 11.417C43.0942 10.205 44.02 8.02657 44.6783 7.0443C45.4741 5.85637 46.0434 4.97522 46.0434 4.97522C46.0434 4.97522 46.4718 6.00426 46.9877 7.3394C47.414 8.4441 47.7719 10.7305 45.3277 11.417Z" fill="#C3CAC8" stroke="#282F39" stroke-width="0.513204" stroke-miterlimit="10" stroke-linecap="round" stroke-linejoin="round"/>
<path d="M46.036 5.22699C45.9608 6.27322 45.8143 7.30019 45.6829 8.32785L45.4777 9.86659C45.414 10.3804 45.3538 10.8929 45.3278 11.4163C45.2115 10.9011 45.206 10.3701 45.2156 9.84664C45.2231 9.32111 45.2772 8.79972 45.3442 8.28107C45.4906 7.24722 45.7 6.22094 46.036 5.22699Z" fill="#282F39"/>
</svg>
