<svg width="8" height="15" viewBox="0 0 8 15" fill="none" xmlns="http://www.w3.org/2000/svg">
<path d="M2.56722 7.50006L7.65856 12.5914C7.83164 12.7645 7.92018 12.982 7.92418 13.2441C7.9282 13.5061 7.83966 13.7276 7.65856 13.9087C7.47748 14.0898 7.25793 14.1803 6.99993 14.1803C6.74193 14.1803 6.52239 14.0898 6.34131 13.9087L0.723527 8.29091C0.606527 8.17393 0.523996 8.05053 0.475933 7.92072C0.42785 7.79093 0.403809 7.65071 0.403809 7.50006C0.403809 7.34942 0.42785 7.2092 0.475933 7.07941C0.523996 6.9496 0.606527 6.8262 0.723527 6.70922L6.34131 1.09144C6.51437 0.918356 6.73191 0.829815 6.99393 0.825815C7.25593 0.821794 7.47748 0.910335 7.65856 1.09144C7.83966 1.27252 7.93021 1.49206 7.93021 1.75006C7.93021 2.00806 7.83966 2.22761 7.65856 2.40869L2.56722 7.50006Z" fill="#171E4C"/>
</svg>
