<svg width="22" height="14" viewBox="0 0 22 14" fill="none" xmlns="http://www.w3.org/2000/svg">
<path d="M3.94804 7.93753L8.10195 12.0914C8.27501 12.2645 8.36355 12.482 8.36757 12.7441C8.37157 13.0061 8.28303 13.2276 8.10195 13.4087C7.92087 13.5898 7.70131 13.6803 7.44329 13.6803C7.18529 13.6803 6.96575 13.5898 6.78467 13.4087L1.16689 7.79091C1.04991 7.67393 0.967376 7.55053 0.919293 7.42072C0.87121 7.29093 0.847168 7.15071 0.847168 7.00007C0.847168 6.84942 0.87121 6.7092 0.919293 6.57941C0.967376 6.4496 1.04991 6.3262 1.16689 6.20922L6.78467 0.59144C6.95773 0.418356 7.17527 0.329815 7.43729 0.325815C7.69931 0.321794 7.92087 0.410335 8.10195 0.59144C8.28303 0.772523 8.37358 0.992064 8.37358 1.25006C8.37358 1.50806 8.28303 1.72761 8.10195 1.90869L3.94804 6.0626H20.6885C20.9545 6.0626 21.1772 6.15234 21.3567 6.33182C21.5362 6.51129 21.626 6.73404 21.626 7.00007C21.626 7.26609 21.5362 7.48884 21.3567 7.66832C21.1772 7.84779 20.9545 7.93753 20.6885 7.93753H3.94804Z" fill="#5B52B5"/>
</svg>
