<svg width="18" height="21" viewBox="0 0 18 21" fill="none" xmlns="http://www.w3.org/2000/svg">
<path d="M9.00002 20.423C9.00002 18.4089 9.70322 16.6131 11.1096 15.0356C12.516 13.458 14.2038 12.5321 16.173 12.2577C16.3243 12.2308 16.4606 12.2417 16.5818 12.2904C16.7031 12.3391 16.8136 12.4122 16.9134 12.5096C17.0109 12.6095 17.0839 12.72 17.1326 12.8412C17.1814 12.9625 17.1923 13.0987 17.1653 13.25C16.891 15.2192 15.965 16.907 14.3875 18.3134C12.8099 19.7198 11.0141 20.423 9.00002 20.423ZM10.7961 18.6269C11.9256 18.2769 12.8936 17.6987 13.7 16.8923C14.5064 16.0859 15.0846 15.1179 15.4346 13.9884C14.3051 14.3384 13.3372 14.9166 12.5307 15.7231C11.7243 16.5295 11.1461 17.4974 10.7961 18.6269ZM9.00002 20.423C9.00002 18.4089 8.29682 16.6131 6.89042 15.0356C5.484 13.458 3.79619 12.5321 1.82699 12.2577C1.68596 12.2308 1.55217 12.2417 1.42562 12.2904C1.29905 12.3391 1.18655 12.4122 1.08812 12.5096C0.989685 12.6071 0.91611 12.717 0.867393 12.8394C0.81866 12.9619 0.807759 13.0987 0.834693 13.25C1.10904 15.2192 2.035 16.907 3.61257 18.3134C5.19012 19.7198 6.98593 20.423 9.00002 20.423ZM7.20392 18.6269C6.07442 18.2769 5.10646 17.6987 4.30004 16.8923C3.49363 16.0859 2.91542 15.1179 2.56542 13.9884C3.69492 14.3384 4.66288 14.9166 5.46929 15.7231C6.27571 16.5295 6.85392 17.4974 7.20392 18.6269ZM12.0904 10.0173C12.4263 10.0173 12.7164 9.89519 12.9606 9.65095C13.2048 9.40672 13.3269 9.11665 13.3269 8.78075C13.3269 8.50255 13.2532 8.26954 13.1058 8.08173C12.9583 7.89389 12.775 7.7628 12.5558 7.68845L11.575 7.3596C11.5211 7.70063 11.4131 8.01249 11.2509 8.29518C11.0888 8.57788 10.8724 8.82628 10.6019 9.04038L11.3538 9.72115C11.4564 9.81987 11.5667 9.89391 11.6846 9.94328C11.8026 9.99263 11.9378 10.0173 12.0904 10.0173ZM11.575 6.6404L12.5558 6.31155C12.775 6.2372 12.9558 6.10355 13.0981 5.9106C13.2404 5.71765 13.3115 5.4872 13.3115 5.21925C13.3115 4.88335 13.192 4.59328 12.9529 4.34905C12.7138 4.10482 12.4263 3.9827 12.0904 3.9827C11.9393 3.9827 11.8071 4.00738 11.6938 4.05673C11.5805 4.10609 11.4672 4.18013 11.3538 4.27885L10.5865 4.95963C10.857 5.17373 11.076 5.41956 11.2433 5.69713C11.4106 5.97469 11.5211 6.28912 11.575 6.6404ZM8.04234 4.58465C8.19618 4.52118 8.35002 4.47358 8.50387 4.44185C8.65772 4.41012 8.8231 4.39425 9.00002 4.39425C9.17694 4.39425 9.34232 4.41012 9.49617 4.44185C9.65002 4.47358 9.80386 4.52118 9.95769 4.58465L10.2269 3.40773C10.2987 3.09489 10.1946 2.81572 9.91444 2.5702C9.63431 2.3247 9.3295 2.20195 9.00002 2.20195C8.67054 2.20195 8.36573 2.3247 8.08559 2.5702C7.80546 2.81572 7.70129 3.09489 7.77309 3.40773L8.04234 4.58465ZM9.00222 8.10578C9.31614 8.10578 9.57854 7.99959 9.78944 7.78723C10.0003 7.57488 10.1058 7.31173 10.1058 6.9978C10.1058 6.68388 9.99961 6.42148 9.78724 6.21058C9.57489 5.99968 9.31175 5.89423 8.99782 5.89423C8.6839 5.89423 8.42149 6.00041 8.21059 6.21278C7.99969 6.42513 7.89424 6.68827 7.89424 7.0022C7.89424 7.31612 8.00043 7.57853 8.21279 7.78943C8.42514 8.00033 8.68829 8.10578 9.00222 8.10578ZM9.00002 11.7981C9.3295 11.7981 9.63431 11.6753 9.91444 11.4298C10.1946 11.1843 10.2987 10.9051 10.2269 10.5923L9.95769 9.41535C9.80386 9.47882 9.65002 9.52642 9.49617 9.55815C9.34232 9.58988 9.17694 9.60575 9.00002 9.60575C8.8231 9.60575 8.65772 9.58988 8.50387 9.55815C8.35002 9.52642 8.19618 9.47882 8.04234 9.41535L7.77309 10.5923C7.70129 10.9051 7.80546 11.1843 8.08559 11.4298C8.36573 11.6753 8.67054 11.7981 9.00002 11.7981ZM6.42504 6.6404C6.47889 6.28912 6.58691 5.97469 6.74909 5.69713C6.91126 5.41956 7.1276 5.17373 7.39812 4.95963L6.64619 4.27885C6.54363 4.18013 6.43337 4.10609 6.31542 4.05673C6.19747 4.00738 6.06221 3.9827 5.90964 3.9827C5.57374 3.9827 5.28369 4.10482 5.03947 4.34905C4.79523 4.59328 4.67312 4.88335 4.67312 5.21925C4.67312 5.4872 4.74683 5.71765 4.89427 5.9106C5.0417 6.10355 5.22503 6.2372 5.44427 6.31155L6.42504 6.6404ZM5.90964 10.0019C6.06093 10.0019 6.1933 9.98141 6.30677 9.94038C6.42023 9.89936 6.53338 9.82115 6.64619 9.70575L7.41349 9.04038C7.14299 8.82628 6.92408 8.58044 6.75677 8.30288C6.58947 8.02531 6.47889 7.71088 6.42504 7.3596L5.44427 7.68845C5.22503 7.7628 5.04266 7.89645 4.89714 8.0894C4.75163 8.28235 4.67887 8.5128 4.67887 8.78075C4.68913 9.11665 4.81286 9.40416 5.05004 9.64328C5.28721 9.88238 5.57374 10.0019 5.90964 10.0019ZM9.00002 13.298C8.43335 13.298 7.91156 13.1317 7.43464 12.799C6.95773 12.4663 6.62184 12.0339 6.42697 11.5019C6.3244 11.5019 6.23818 11.5044 6.16832 11.5096C6.09843 11.5147 6.01221 11.5173 5.90964 11.5173C5.15411 11.5173 4.50753 11.2506 3.96992 10.7173C3.43232 10.1839 3.16352 9.53874 3.16352 8.78168C3.16352 8.47594 3.22185 8.16858 3.33852 7.8596C3.45518 7.55063 3.62378 7.2641 3.84429 7C3.64044 6.7359 3.48018 6.44937 3.36352 6.1404C3.24685 5.83142 3.18852 5.52406 3.18852 5.21833C3.18852 4.46126 3.45338 3.81606 3.98309 3.28273C4.51281 2.74939 5.15499 2.48273 5.90964 2.48273C6.01221 2.48273 6.09843 2.48529 6.16832 2.49043C6.23818 2.49556 6.3244 2.49813 6.42697 2.49813C6.62184 1.96608 6.95773 1.5337 7.43464 1.201C7.91156 0.868317 8.43335 0.701975 9.00002 0.701975C9.56668 0.701975 10.0885 0.868317 10.5654 1.201C11.0423 1.5337 11.3782 1.96608 11.5731 2.49813C11.6756 2.49813 11.7619 2.49556 11.8317 2.49043C11.9016 2.48529 11.9878 2.48273 12.0904 2.48273C12.845 2.48273 13.4872 2.74939 14.0169 3.28273C14.5467 3.81606 14.8115 4.46126 14.8115 5.21833C14.8115 5.52406 14.7574 5.83142 14.649 6.1404C14.5407 6.44937 14.3763 6.7359 14.1557 7C14.3596 7.25768 14.5199 7.54262 14.6365 7.8548C14.7532 8.16698 14.8115 8.47594 14.8115 8.78168C14.8115 9.53874 14.5467 10.1839 14.0169 10.7173C13.4872 11.2506 12.845 11.5173 12.0904 11.5173C11.9878 11.5173 11.9016 11.5147 11.8317 11.5096C11.7619 11.5044 11.6756 11.5019 11.5731 11.5019C11.3782 12.0339 11.0423 12.4663 10.5654 12.799C10.0885 13.1317 9.56668 13.298 9.00002 13.298Z" fill="#171E4C"/>
</svg>
