<svg width="8" height="6" viewBox="0 0 8 6" fill="none" xmlns="http://www.w3.org/2000/svg">
<path d="M1.64874 3.31246L3.03337 4.6971C3.09106 4.75478 3.12057 4.8273 3.12191 4.91464C3.12325 5.00197 3.09373 5.07582 3.03337 5.13618C2.97301 5.19655 2.89983 5.22673 2.81382 5.22673C2.72782 5.22673 2.65464 5.19655 2.59428 5.13618L0.721685 3.26359C0.682692 3.22459 0.655182 3.18346 0.639154 3.14019C0.623126 3.09693 0.615112 3.05019 0.615112 2.99997C0.615112 2.94976 0.623126 2.90302 0.639154 2.85975C0.655182 2.81648 0.682692 2.77535 0.721685 2.73636L2.59428 0.863762C2.65197 0.806068 2.72448 0.776554 2.81182 0.775221C2.89916 0.77388 2.97301 0.803394 3.03337 0.863762C3.09373 0.924123 3.12391 0.997304 3.12391 1.0833C3.12391 1.1693 3.09373 1.24248 3.03337 1.30285L1.64874 2.68748H7.22887C7.31755 2.68748 7.3918 2.71739 7.45162 2.77722C7.51146 2.83705 7.54137 2.9113 7.54137 2.99997C7.54137 3.08864 7.51146 3.16289 7.45162 3.22272C7.3918 3.28255 7.31755 3.31246 7.22887 3.31246H1.64874Z" fill="#EC407D" fill-opacity="0.8"/>
</svg>
