<svg width="9" height="9" viewBox="0 0 6 6" fill="none" xmlns="http://www.w3.org/2000/svg">
<path d="M2.99992 5.45542C2.69807 5.45542 2.41375 5.40574 2.14693 5.30638C1.88012 5.20702 1.63817 5.06845 1.42108 4.89068L0.842218 5.46119C0.796779 5.50735 0.738946 5.53043 0.668718 5.53043C0.598496 5.53043 0.540307 5.50735 0.494152 5.46119C0.448002 5.41504 0.424927 5.35686 0.424927 5.28663C0.424927 5.2164 0.448002 5.15857 0.494152 5.11313L1.06468 4.5426C0.886899 4.32551 0.748329 4.08219 0.648968 3.81263C0.549607 3.54307 0.499927 3.25734 0.499927 2.95543C0.499927 2.25752 0.742116 1.66637 1.22649 1.182C1.71087 0.697631 2.30201 0.455444 2.99992 0.455444H5.49991V2.95543C5.49991 3.65334 5.25772 4.24449 4.77334 4.72886C4.28897 5.21323 3.69783 5.45542 2.99992 5.45542ZM2.99992 4.95543C3.55547 4.95543 4.0277 4.76098 4.41658 4.37209C4.80547 3.98321 4.99992 3.51098 4.99992 2.95543V0.955428H2.99992C2.44436 0.955428 1.97214 1.14987 1.58325 1.53876C1.19436 1.92765 0.999918 2.39987 0.999918 2.95543C0.999918 3.18706 1.03753 3.40736 1.11274 3.61633C1.18795 3.82531 1.29244 4.01356 1.4262 4.18108L3.16082 2.44646C3.20626 2.40031 3.2641 2.37724 3.33432 2.37724C3.40455 2.37724 3.46306 2.40064 3.50986 2.44744C3.56092 2.4985 3.58645 2.55757 3.58645 2.62466C3.58645 2.69176 3.5606 2.75116 3.50888 2.80286L1.77427 4.53427C1.94179 4.66804 2.13004 4.77167 2.33902 4.84518C2.54799 4.91868 2.76829 4.95543 2.99992 4.95543Z" fill="#E8FFE2"/>
</svg>
